G04 #@! TF.FileFunction,Copper,L2,Bot,Signal*
%FSLAX46Y46*%
G04 Gerber Fmt 4.6, Leading zero omitted, Abs format (unit mm)*
G04 Created by KiCad (PCBNEW 4.0.7) date Sun May  6 01:29:27 2018*
%MOMM*%
%LPD*%
G01*
G04 APERTURE LIST*
%ADD10C,0.100000*%
%ADD11R,1.500000X0.700000*%
%ADD12C,1.500000*%
%ADD13R,1.500000X1.500000*%
%ADD14O,1.500000X1.500000*%
%ADD15C,0.600000*%
%ADD16C,0.160000*%
%ADD17C,0.300000*%
G04 APERTURE END LIST*
D10*
D11*
X47350000Y1575000D03*
X47350000Y2575000D03*
X47350000Y3575000D03*
X47350000Y4575000D03*
X47350000Y5575000D03*
X47350000Y6575000D03*
X47350000Y7575000D03*
X47350000Y8575000D03*
X52150000Y1575000D03*
X52150000Y2575000D03*
X52150000Y3575000D03*
X52150000Y4575000D03*
X52150000Y5575000D03*
X52150000Y6575000D03*
X52150000Y7575000D03*
X52150000Y8575000D03*
D10*
G36*
X39198102Y45379725D02*
X40686922Y45562529D01*
X40869726Y44073709D01*
X39380906Y43890905D01*
X39198102Y45379725D01*
X39198102Y45379725D01*
G37*
D12*
X40343462Y42205650D02*
X40343462Y42205650D01*
X37512847Y44417169D02*
X37512847Y44417169D01*
X37822395Y41896102D02*
X37822395Y41896102D01*
X34991780Y44107621D02*
X34991780Y44107621D01*
X35301328Y41586554D02*
X35301328Y41586554D01*
X32470712Y43798073D02*
X32470712Y43798073D01*
X32780260Y41277005D02*
X32780260Y41277005D01*
X29949645Y43488524D02*
X29949645Y43488524D01*
X30259193Y40967457D02*
X30259193Y40967457D01*
X27428578Y43178976D02*
X27428578Y43178976D01*
X27738126Y40657909D02*
X27738126Y40657909D01*
X24907511Y42869428D02*
X24907511Y42869428D01*
X25217059Y40348361D02*
X25217059Y40348361D01*
X22386443Y42559880D02*
X22386443Y42559880D01*
X22695992Y40038813D02*
X22695992Y40038813D01*
D13*
X47290000Y43710000D03*
D14*
X44750000Y43710000D03*
X47290000Y46250000D03*
X44750000Y46250000D03*
X47290000Y48790000D03*
X44750000Y48790000D03*
D10*
G36*
X60238069Y42027945D02*
X58760857Y42288417D01*
X59021329Y43765629D01*
X60498541Y43505157D01*
X60238069Y42027945D01*
X60238069Y42027945D01*
G37*
D12*
X60070765Y45398199D02*
X60070765Y45398199D01*
X62131111Y42455721D02*
X62131111Y42455721D01*
X62572177Y44957132D02*
X62572177Y44957132D01*
X64632522Y42014654D02*
X64632522Y42014654D01*
X65073589Y44516066D02*
X65073589Y44516066D01*
X67133934Y41573588D02*
X67133934Y41573588D01*
X67575000Y44075000D02*
X67575000Y44075000D01*
X69635346Y41132522D02*
X69635346Y41132522D01*
X70076412Y43633933D02*
X70076412Y43633933D01*
X72136757Y40691455D02*
X72136757Y40691455D01*
X72577824Y43192867D02*
X72577824Y43192867D01*
X74638169Y40250389D02*
X74638169Y40250389D01*
X75079236Y42751800D02*
X75079236Y42751800D01*
X77139581Y39809322D02*
X77139581Y39809322D01*
X77580647Y42310734D02*
X77580647Y42310734D01*
D13*
X59460000Y16250000D03*
D14*
X59460000Y13710000D03*
D13*
X62000000Y16250000D03*
D14*
X62000000Y13710000D03*
D13*
X51840000Y16250000D03*
D14*
X51840000Y13710000D03*
D13*
X54380000Y16250000D03*
D14*
X54380000Y13710000D03*
D13*
X56920000Y16250000D03*
D14*
X56920000Y13710000D03*
D13*
X36600000Y16250000D03*
D14*
X36600000Y13710000D03*
D13*
X39140000Y16250000D03*
D14*
X39140000Y13710000D03*
D13*
X44220000Y16250000D03*
D14*
X44220000Y13710000D03*
D13*
X41680000Y16250000D03*
D14*
X41680000Y13710000D03*
D13*
X46760000Y16250000D03*
D14*
X46760000Y13710000D03*
D13*
X49300000Y16250000D03*
D14*
X49300000Y13710000D03*
D15*
X61987300Y18987300D03*
X53300000Y25000000D03*
X50824998Y19950002D03*
X45725000Y22475000D03*
X51325000Y39575000D03*
X52150000Y9075000D03*
X51325000Y37575000D03*
X51325002Y40525000D03*
X35475000Y2725000D03*
X51300000Y25000000D03*
X35425000Y29650000D03*
X35399998Y28400000D03*
X64250000Y9940000D03*
X66075000Y32150000D03*
X35450001Y3700001D03*
X64275000Y7950000D03*
X64250000Y6950000D03*
X53049996Y5575000D03*
X64225000Y5900000D03*
X64200000Y4875000D03*
X64200000Y3875000D03*
X35550000Y9599996D03*
X35525000Y8650000D03*
X35500000Y7675000D03*
X46250000Y4475000D03*
X35500000Y6675000D03*
X35475000Y4800000D03*
X46225000Y6550000D03*
X64225000Y8900000D03*
X46250000Y5525000D03*
X35450000Y5725000D03*
X54175000Y19400000D03*
X52725000Y22475000D03*
D16*
X52150000Y8575000D02*
X52150000Y9075000D01*
X56820000Y16250000D02*
X56820000Y19480000D01*
X51325002Y40525000D02*
X50750000Y39949998D01*
X50750000Y39949998D02*
X50750000Y38150000D01*
X50750000Y38150000D02*
X51325000Y37575000D01*
X51300000Y37550000D02*
X51325000Y37575000D01*
X56820000Y17045000D02*
X56820000Y16250000D01*
X35475000Y2725000D02*
X35475000Y2875000D01*
X35475000Y2875000D02*
X42925000Y10325000D01*
X42925000Y10325000D02*
X46650000Y10325000D01*
X46650000Y10325000D02*
X47350000Y9625000D01*
X47350000Y9625000D02*
X47350000Y8575000D01*
X56820000Y19480000D02*
X51599999Y24700001D01*
X50975736Y37550000D02*
X51300000Y37550000D01*
D17*
X25184805Y37550000D02*
X50975736Y37550000D01*
X50875736Y25000000D02*
X51300000Y25000000D01*
D16*
X51599999Y24700001D02*
X51300000Y25000000D01*
X35425000Y29650000D02*
X32098648Y29650000D01*
D17*
X36748648Y25000000D02*
X50875736Y25000000D01*
X22695992Y39052656D02*
X32048648Y29700000D01*
X32048648Y29700000D02*
X36748648Y25000000D01*
D16*
X32098648Y29650000D02*
X32048648Y29700000D01*
D17*
X22695992Y40038813D02*
X22695992Y39052656D01*
X22695992Y40038813D02*
X25184805Y37550000D01*
X22695992Y40038813D02*
X24150000Y38584805D01*
D16*
X35824262Y28400000D02*
X35399998Y28400000D01*
X62325000Y28400000D02*
X35824262Y28400000D01*
X65135010Y8964990D02*
X65135010Y8790000D01*
X65135010Y8790000D02*
X65135010Y3558246D01*
X64250000Y9940000D02*
X65135010Y9054990D01*
X65135010Y9054990D02*
X65135010Y8790000D01*
X65135010Y3558246D02*
X61526764Y-50000D01*
X61526764Y-50000D02*
X53750000Y-50000D01*
X53750000Y-50000D02*
X52150000Y1550000D01*
X52150000Y1550000D02*
X52150000Y1575000D01*
X66075000Y32150000D02*
X62325000Y28400000D01*
X48125000Y7575000D02*
X48550000Y8000000D01*
X48550000Y8000000D02*
X48550000Y9475000D01*
X48550000Y9475000D02*
X47310033Y10714967D01*
X42464967Y10714967D02*
X35750000Y4000000D01*
X47350000Y7575000D02*
X48125000Y7575000D01*
X47310033Y10714967D02*
X42464967Y10714967D01*
X35750000Y4000000D02*
X35450001Y3700001D01*
X61779959Y10445041D02*
X61975000Y10250000D01*
X61975000Y10250000D02*
X63975001Y8249999D01*
X61900000Y13710000D02*
X61900000Y10325000D01*
X61900000Y10325000D02*
X61975000Y10250000D01*
X59440208Y10445044D02*
X61779959Y10445041D01*
X51612790Y11380044D02*
X58505208Y11380044D01*
X49879955Y9647209D02*
X51612790Y11380044D01*
X49879955Y4935045D02*
X49879955Y9647209D01*
X52150000Y3575000D02*
X51240000Y3575000D01*
X58505208Y11380044D02*
X59440208Y10445044D01*
X51240000Y3575000D02*
X49879955Y4935045D01*
X63684999Y8540001D02*
X63975001Y8249999D01*
X63975001Y8249999D02*
X64275000Y7950000D01*
X63825736Y6950000D02*
X64250000Y6950000D01*
X62482689Y6950000D02*
X63825736Y6950000D01*
X50199966Y9514657D02*
X51745342Y11060033D01*
X50199966Y5615034D02*
X50199966Y9514657D01*
X52150000Y4575000D02*
X51240000Y4575000D01*
X51240000Y4575000D02*
X50199966Y5615034D01*
X58372656Y11060033D02*
X62482689Y6950000D01*
X51745342Y11060033D02*
X58372656Y11060033D01*
X52150000Y5575000D02*
X53049996Y5575000D01*
X63800736Y5900000D02*
X64225000Y5900000D01*
X58240104Y10740022D02*
X63080126Y5900000D01*
X51877894Y10740022D02*
X58240104Y10740022D01*
X50519979Y6295021D02*
X50519978Y6842459D01*
X50519977Y9382105D02*
X51877894Y10740022D01*
X50519978Y6842459D02*
X50519977Y9382105D01*
X52150000Y5575000D02*
X51240000Y5575000D01*
X51240000Y5575000D02*
X50519979Y6295021D01*
X63080126Y5900000D02*
X63800736Y5900000D01*
X63652563Y4875000D02*
X63775736Y4875000D01*
X58107552Y10420011D02*
X63652563Y4875000D01*
X63775736Y4875000D02*
X64200000Y4875000D01*
X52010446Y10420011D02*
X58107552Y10420011D01*
X50839989Y6975011D02*
X50839988Y9249553D01*
X51240000Y6575000D02*
X50839989Y6975011D01*
X52150000Y6575000D02*
X51240000Y6575000D01*
X50839988Y9249553D02*
X52010446Y10420011D01*
X63900001Y4174999D02*
X64200000Y3875000D01*
X52142998Y10100000D02*
X57975000Y10100000D01*
X57975000Y10100000D02*
X63900001Y4174999D01*
X52150000Y7575000D02*
X51240000Y7575000D01*
X51240000Y7575000D02*
X51159999Y7655001D01*
X51159999Y9117001D02*
X52142998Y10100000D01*
X51159999Y7655001D02*
X51159999Y9117001D01*
X35550000Y9599996D02*
X34150299Y8200295D01*
X36520672Y-25000D02*
X45775000Y-25000D01*
X34150299Y8200295D02*
X34150299Y2345373D01*
X34150299Y2345373D02*
X36520672Y-25000D01*
X45775000Y-25000D02*
X47350000Y1550000D01*
X47350000Y1550000D02*
X47350000Y1575000D01*
X35550000Y9599996D02*
X36500000Y10549996D01*
X36500000Y10549996D02*
X36500000Y13729048D01*
X36250000Y13729048D02*
X36500000Y13729048D01*
X35525000Y8650000D02*
X39040000Y12165000D01*
X39040000Y12165000D02*
X39040000Y12934048D01*
X39040000Y12934048D02*
X39040000Y13729048D01*
X35525000Y8650000D02*
X34470310Y7595310D01*
X34470310Y7595310D02*
X34470310Y2477925D01*
X34470310Y2477925D02*
X36653224Y295011D01*
X36653224Y295011D02*
X45545011Y295011D01*
X45545011Y295011D02*
X46225000Y975000D01*
X46225000Y975000D02*
X46225000Y2360000D01*
X46225000Y2360000D02*
X46440000Y2575000D01*
X46440000Y2575000D02*
X47350000Y2575000D01*
X35500000Y7675000D02*
X34790321Y6965321D01*
X34790321Y6965321D02*
X34790321Y2610477D01*
X45850000Y2985000D02*
X46440000Y3575000D01*
X34790321Y2610477D02*
X36785776Y615022D01*
X36785776Y615022D02*
X45340022Y615022D01*
X45340022Y615022D02*
X45850000Y1125000D01*
X45850000Y1125000D02*
X45850000Y2985000D01*
X46440000Y3575000D02*
X47350000Y3575000D01*
X35500000Y7675000D02*
X41554048Y13729048D01*
X41580000Y13729048D02*
X41554048Y13729048D01*
X47225000Y3575000D02*
X47350000Y3575000D01*
X47707689Y11675000D02*
X49510033Y9872656D01*
X35500000Y6675000D02*
X40500000Y11675000D01*
X40500000Y11675000D02*
X47707689Y11675000D01*
X49510033Y5825033D02*
X48260000Y4575000D01*
X49510033Y9872656D02*
X49510033Y5825033D01*
X48260000Y4575000D02*
X47350000Y4575000D01*
X47350000Y4575000D02*
X46350000Y4575000D01*
X46350000Y4575000D02*
X46250000Y4475000D01*
X41709978Y11034978D02*
X35774999Y5099999D01*
X47442585Y11034978D02*
X41709978Y11034978D01*
X48870011Y9607552D02*
X47442585Y11034978D01*
X48870011Y7185011D02*
X48870011Y9607552D01*
X47350000Y6575000D02*
X48260000Y6575000D01*
X35774999Y5099999D02*
X35475000Y4800000D01*
X48260000Y6575000D02*
X48870011Y7185011D01*
X47350000Y6575000D02*
X46250000Y6575000D01*
X46250000Y6575000D02*
X46225000Y6550000D01*
X64815001Y8309999D02*
X64225000Y8900000D01*
X61394212Y270010D02*
X64815001Y3690799D01*
X54004990Y270010D02*
X61394212Y270010D01*
X64815001Y3690799D02*
X64815001Y8309999D01*
X52150000Y2575000D02*
X52975000Y2575000D01*
X52975000Y2575000D02*
X53500000Y2050000D01*
X53500000Y2050000D02*
X53500000Y775000D01*
X53500000Y775000D02*
X54004990Y270010D01*
X52682002Y2575000D02*
X52150000Y2575000D01*
X49190022Y6505022D02*
X48260000Y5575000D01*
X48260000Y5575000D02*
X47350000Y5575000D01*
X49190022Y9740104D02*
X49190022Y6505022D01*
X41079989Y11354989D02*
X47575137Y11354989D01*
X47575137Y11354989D02*
X49190022Y9740104D01*
X35450000Y5725000D02*
X41079989Y11354989D01*
X47350000Y5575000D02*
X46300000Y5575000D01*
X46300000Y5575000D02*
X46250000Y5525000D01*
X54175000Y19824264D02*
X54175000Y19400000D01*
X54175000Y21025000D02*
X54175000Y19824264D01*
X52725000Y22475000D02*
X54175000Y21025000D01*
X54280000Y13729048D02*
X54030000Y13729048D01*
X53154999Y14604049D02*
X53154999Y18379997D01*
X54030000Y13729048D02*
X53154999Y14604049D01*
X53154999Y18379997D02*
X54175000Y19399998D01*
D10*
G36*
X68595168Y71756894D02*
X68607991Y71739044D01*
X68617054Y71719020D01*
X68633352Y71703742D01*
X68646389Y71685595D01*
X68665071Y71674009D01*
X68681104Y71658980D01*
X68702008Y71651102D01*
X68720997Y71639326D01*
X68742689Y71635771D01*
X68763255Y71628021D01*
X68785582Y71628742D01*
X68807632Y71625129D01*
X68829032Y71630146D01*
X68851000Y71630856D01*
X86461549Y75729221D01*
X97222663Y66022156D01*
X92873416Y57249945D01*
X92867814Y57229216D01*
X92858159Y57210041D01*
X92856475Y57187256D01*
X92850513Y57165194D01*
X92853270Y57143899D01*
X92851688Y57122489D01*
X92858853Y57100792D01*
X92861787Y57078130D01*
X92872483Y57059512D01*
X92879215Y57039125D01*
X92894137Y57021821D01*
X92905520Y57002008D01*
X92922526Y56988901D01*
X92936548Y56972641D01*
X92956957Y56962365D01*
X92975055Y56948416D01*
X92995784Y56942814D01*
X93014959Y56933159D01*
X103475326Y54036810D01*
X96722366Y49385296D01*
X96717492Y49380282D01*
X96711252Y49377127D01*
X96687052Y49348970D01*
X96661172Y49322348D01*
X96658588Y49315851D01*
X96654030Y49310548D01*
X94471788Y45442027D01*
X88568509Y40066360D01*
X88565304Y40062018D01*
X88560820Y40059018D01*
X88539350Y40026850D01*
X88516377Y39995723D01*
X88515078Y39990485D01*
X88512083Y39985998D01*
X88504556Y39948057D01*
X88495246Y39910514D01*
X88496050Y39905179D01*
X88495000Y39899885D01*
X88502567Y39861944D01*
X88508331Y39823704D01*
X88511115Y39819083D01*
X88512171Y39813790D01*
X88533677Y39781639D01*
X88553640Y39748509D01*
X88557982Y39745304D01*
X88560982Y39740820D01*
X89956392Y38346832D01*
X90694979Y36566293D01*
X90695960Y34638646D01*
X89959189Y32857354D01*
X88596831Y31493607D01*
X86797838Y30747366D01*
X86587968Y30710508D01*
X86571889Y30704268D01*
X86552510Y30701235D01*
X86532315Y30688910D01*
X86506124Y30678746D01*
X86489288Y30662651D01*
X86477572Y30655501D01*
X86467814Y30642123D01*
X86442666Y30618081D01*
X86431034Y30591693D01*
X86425840Y30584572D01*
X86423339Y30574238D01*
X86407254Y30537749D01*
X86406510Y30504700D01*
X86405190Y30499244D01*
X86185215Y25149848D01*
X86125340Y23872514D01*
X86105467Y23564486D01*
X86105966Y23560725D01*
X86105110Y23557028D01*
X86095110Y23237028D01*
X86097550Y23222386D01*
X86096117Y23207612D01*
X86103135Y23137433D01*
X86061390Y22886961D01*
X86054995Y22872145D01*
X85979994Y22522144D01*
X85979941Y22518571D01*
X85978629Y22515249D01*
X85728629Y21140249D01*
X85728886Y21124652D01*
X85725201Y21109499D01*
X85275978Y10477884D01*
X85040867Y9349351D01*
X84019239Y8090135D01*
X77645558Y3509051D01*
X76145082Y2475937D01*
X72060320Y941057D01*
X68431860Y120925D01*
X64056589Y-600000D01*
X48253016Y-600000D01*
X37632016Y-315000D01*
X45775000Y-315000D01*
X45885978Y-292925D01*
X45980061Y-230061D01*
X47221008Y1010886D01*
X48100000Y1010886D01*
X48177821Y1025529D01*
X48249295Y1071521D01*
X48297245Y1141698D01*
X48314114Y1225000D01*
X48314114Y1925000D01*
X48299471Y2002821D01*
X48253479Y2074295D01*
X48251919Y2075361D01*
X48297245Y2141698D01*
X48314114Y2225000D01*
X48314114Y2925000D01*
X48299471Y3002821D01*
X48253479Y3074295D01*
X48251919Y3075361D01*
X48297245Y3141698D01*
X48314114Y3225000D01*
X48314114Y3925000D01*
X48299471Y4002821D01*
X48253479Y4074295D01*
X48251919Y4075361D01*
X48297245Y4141698D01*
X48314114Y4225000D01*
X48314114Y4295764D01*
X48370978Y4307075D01*
X48465061Y4369939D01*
X49589955Y5494833D01*
X49589955Y4935045D01*
X49612030Y4824067D01*
X49674894Y4729984D01*
X51034939Y3369939D01*
X51129022Y3307075D01*
X51185886Y3295764D01*
X51185886Y3225000D01*
X51200529Y3147179D01*
X51246521Y3075705D01*
X51248081Y3074639D01*
X51202755Y3008302D01*
X51185886Y2925000D01*
X51185886Y2225000D01*
X51200529Y2147179D01*
X51246521Y2075705D01*
X51248081Y2074639D01*
X51202755Y2008302D01*
X51185886Y1925000D01*
X51185886Y1225000D01*
X51200529Y1147179D01*
X51246521Y1075705D01*
X51316698Y1027755D01*
X51400000Y1010886D01*
X52278992Y1010886D01*
X53544939Y-255061D01*
X53639022Y-317925D01*
X53750000Y-340000D01*
X61526764Y-340000D01*
X61637742Y-317925D01*
X61731825Y-255061D01*
X65340071Y3353185D01*
X65402935Y3447267D01*
X65425010Y3558246D01*
X65425010Y9054990D01*
X65402935Y9165968D01*
X65340071Y9260051D01*
X64759913Y9840209D01*
X64760088Y10041000D01*
X64682609Y10228514D01*
X64539269Y10372104D01*
X64351890Y10449911D01*
X64149000Y10450088D01*
X63961486Y10372609D01*
X63817896Y10229269D01*
X63740089Y10041890D01*
X63739912Y9839000D01*
X63817391Y9651486D01*
X63960731Y9507896D01*
X64148110Y9430089D01*
X64349965Y9429913D01*
X64400556Y9379322D01*
X64326890Y9409911D01*
X64124000Y9410088D01*
X63936486Y9332609D01*
X63792896Y9189269D01*
X63715089Y9001890D01*
X63715018Y8920104D01*
X62190000Y10445122D01*
X62190000Y12784052D01*
X62386184Y12823076D01*
X62697631Y13031177D01*
X62905732Y13342624D01*
X62978808Y13710000D01*
X62905732Y14077376D01*
X62697631Y14388823D01*
X62386184Y14596924D01*
X62018808Y14670000D01*
X61981192Y14670000D01*
X61613816Y14596924D01*
X61302369Y14388823D01*
X61094268Y14077376D01*
X61021192Y13710000D01*
X61094268Y13342624D01*
X61302369Y13031177D01*
X61610000Y12825626D01*
X61610000Y10735041D01*
X59560330Y10735044D01*
X58710269Y11585105D01*
X58616186Y11647969D01*
X58505208Y11670044D01*
X51612790Y11670044D01*
X51501812Y11647969D01*
X51407729Y11585105D01*
X49782653Y9960029D01*
X49777958Y9983635D01*
X49715094Y10077717D01*
X47912750Y11880061D01*
X47818667Y11942925D01*
X47707689Y11965000D01*
X40500000Y11965000D01*
X40389022Y11942925D01*
X40294939Y11880061D01*
X36009930Y7595052D01*
X36010087Y7774965D01*
X41152573Y12917451D01*
X41293816Y12823076D01*
X41661192Y12750000D01*
X41698808Y12750000D01*
X42066184Y12823076D01*
X42377631Y13031177D01*
X42585732Y13342624D01*
X42658808Y13710000D01*
X43241192Y13710000D01*
X43314268Y13342624D01*
X43522369Y13031177D01*
X43833816Y12823076D01*
X44201192Y12750000D01*
X44238808Y12750000D01*
X44606184Y12823076D01*
X44917631Y13031177D01*
X45125732Y13342624D01*
X45198808Y13710000D01*
X45781192Y13710000D01*
X45854268Y13342624D01*
X46062369Y13031177D01*
X46373816Y12823076D01*
X46741192Y12750000D01*
X46778808Y12750000D01*
X47146184Y12823076D01*
X47457631Y13031177D01*
X47665732Y13342624D01*
X47738808Y13710000D01*
X48321192Y13710000D01*
X48394268Y13342624D01*
X48602369Y13031177D01*
X48913816Y12823076D01*
X49281192Y12750000D01*
X49318808Y12750000D01*
X49686184Y12823076D01*
X49997631Y13031177D01*
X50205732Y13342624D01*
X50278808Y13710000D01*
X50861192Y13710000D01*
X50934268Y13342624D01*
X51142369Y13031177D01*
X51453816Y12823076D01*
X51821192Y12750000D01*
X51858808Y12750000D01*
X52226184Y12823076D01*
X52537631Y13031177D01*
X52745732Y13342624D01*
X52818808Y13710000D01*
X52745732Y14077376D01*
X52537631Y14388823D01*
X52226184Y14596924D01*
X51858808Y14670000D01*
X51821192Y14670000D01*
X51453816Y14596924D01*
X51142369Y14388823D01*
X50934268Y14077376D01*
X50861192Y13710000D01*
X50278808Y13710000D01*
X50205732Y14077376D01*
X49997631Y14388823D01*
X49686184Y14596924D01*
X49318808Y14670000D01*
X49281192Y14670000D01*
X48913816Y14596924D01*
X48602369Y14388823D01*
X48394268Y14077376D01*
X48321192Y13710000D01*
X47738808Y13710000D01*
X47665732Y14077376D01*
X47457631Y14388823D01*
X47146184Y14596924D01*
X46778808Y14670000D01*
X46741192Y14670000D01*
X46373816Y14596924D01*
X46062369Y14388823D01*
X45854268Y14077376D01*
X45781192Y13710000D01*
X45198808Y13710000D01*
X45125732Y14077376D01*
X44917631Y14388823D01*
X44606184Y14596924D01*
X44238808Y14670000D01*
X44201192Y14670000D01*
X43833816Y14596924D01*
X43522369Y14388823D01*
X43314268Y14077376D01*
X43241192Y13710000D01*
X42658808Y13710000D01*
X42585732Y14077376D01*
X42377631Y14388823D01*
X42066184Y14596924D01*
X41698808Y14670000D01*
X41661192Y14670000D01*
X41293816Y14596924D01*
X40982369Y14388823D01*
X40774268Y14077376D01*
X40701192Y13710000D01*
X40771486Y13356608D01*
X36034974Y8620096D01*
X36035087Y8749965D01*
X39245061Y11959939D01*
X39307925Y12054022D01*
X39330000Y12165000D01*
X39330000Y12784052D01*
X39526184Y12823076D01*
X39837631Y13031177D01*
X40045732Y13342624D01*
X40118808Y13710000D01*
X40045732Y14077376D01*
X39837631Y14388823D01*
X39526184Y14596924D01*
X39158808Y14670000D01*
X39121192Y14670000D01*
X38753816Y14596924D01*
X38442369Y14388823D01*
X38234268Y14077376D01*
X38161192Y13710000D01*
X38234268Y13342624D01*
X38442369Y13031177D01*
X38750000Y12825626D01*
X38750000Y12285122D01*
X36059996Y9595118D01*
X36060087Y9699961D01*
X36705061Y10344935D01*
X36767925Y10439018D01*
X36790000Y10549996D01*
X36790000Y12784052D01*
X36986184Y12823076D01*
X37297631Y13031177D01*
X37505732Y13342624D01*
X37578808Y13710000D01*
X37505732Y14077376D01*
X37297631Y14388823D01*
X36986184Y14596924D01*
X36618808Y14670000D01*
X36581192Y14670000D01*
X36213816Y14596924D01*
X35902369Y14388823D01*
X35694268Y14077376D01*
X35621192Y13710000D01*
X35694268Y13342624D01*
X35902369Y13031177D01*
X36210000Y12825626D01*
X36210000Y10670118D01*
X35649791Y10109909D01*
X35449000Y10110084D01*
X35261486Y10032605D01*
X35117896Y9889265D01*
X35040089Y9701886D01*
X35039913Y9500031D01*
X33945238Y8405356D01*
X33882374Y8311273D01*
X33860299Y8200295D01*
X33860299Y2345373D01*
X33882374Y2234395D01*
X33945238Y2140312D01*
X36315611Y-230061D01*
X36392972Y-281752D01*
X34285858Y-225210D01*
X29657360Y98287D01*
X25273677Y1069671D01*
X25261713Y1069931D01*
X25250310Y1073572D01*
X23934783Y1222500D01*
X22444126Y1520631D01*
X22441524Y1520634D01*
X22439102Y1521576D01*
X21613120Y1667338D01*
X21210669Y1833053D01*
X21187949Y1837523D01*
X21166465Y1846146D01*
X20811600Y1912683D01*
X20481143Y2132987D01*
X15951190Y5617567D01*
X15079391Y6537800D01*
X14695025Y7162393D01*
X13311965Y9730934D01*
X13025000Y10926621D01*
X13025000Y17000000D01*
X35635886Y17000000D01*
X35635886Y15500000D01*
X35650529Y15422179D01*
X35696521Y15350705D01*
X35766698Y15302755D01*
X35850000Y15285886D01*
X37350000Y15285886D01*
X37427821Y15300529D01*
X37499295Y15346521D01*
X37547245Y15416698D01*
X37564114Y15500000D01*
X37564114Y17000000D01*
X38175886Y17000000D01*
X38175886Y15500000D01*
X38190529Y15422179D01*
X38236521Y15350705D01*
X38306698Y15302755D01*
X38390000Y15285886D01*
X39890000Y15285886D01*
X39967821Y15300529D01*
X40039295Y15346521D01*
X40087245Y15416698D01*
X40104114Y15500000D01*
X40104114Y17000000D01*
X40715886Y17000000D01*
X40715886Y15500000D01*
X40730529Y15422179D01*
X40776521Y15350705D01*
X40846698Y15302755D01*
X40930000Y15285886D01*
X42430000Y15285886D01*
X42507821Y15300529D01*
X42579295Y15346521D01*
X42627245Y15416698D01*
X42644114Y15500000D01*
X42644114Y16137500D01*
X43220000Y16137500D01*
X43220000Y15450272D01*
X43258060Y15358386D01*
X43328386Y15288060D01*
X43420272Y15250000D01*
X44107500Y15250000D01*
X44170000Y15312500D01*
X44170000Y16200000D01*
X44270000Y16200000D01*
X44270000Y15312500D01*
X44332500Y15250000D01*
X45019728Y15250000D01*
X45111614Y15288060D01*
X45181940Y15358386D01*
X45220000Y15450272D01*
X45220000Y16137500D01*
X45760000Y16137500D01*
X45760000Y15450272D01*
X45798060Y15358386D01*
X45868386Y15288060D01*
X45960272Y15250000D01*
X46647500Y15250000D01*
X46710000Y15312500D01*
X46710000Y16200000D01*
X46810000Y16200000D01*
X46810000Y15312500D01*
X46872500Y15250000D01*
X47559728Y15250000D01*
X47651614Y15288060D01*
X47721940Y15358386D01*
X47760000Y15450272D01*
X47760000Y16137500D01*
X48300000Y16137500D01*
X48300000Y15450272D01*
X48338060Y15358386D01*
X48408386Y15288060D01*
X48500272Y15250000D01*
X49187500Y15250000D01*
X49250000Y15312500D01*
X49250000Y16200000D01*
X49350000Y16200000D01*
X49350000Y15312500D01*
X49412500Y15250000D01*
X50099728Y15250000D01*
X50191614Y15288060D01*
X50261940Y15358386D01*
X50300000Y15450272D01*
X50300000Y16137500D01*
X50840000Y16137500D01*
X50840000Y15450272D01*
X50878060Y15358386D01*
X50948386Y15288060D01*
X51040272Y15250000D01*
X51727500Y15250000D01*
X51790000Y15312500D01*
X51790000Y16200000D01*
X51890000Y16200000D01*
X51890000Y15312500D01*
X51952500Y15250000D01*
X52639728Y15250000D01*
X52731614Y15288060D01*
X52801940Y15358386D01*
X52840000Y15450272D01*
X52840000Y16137500D01*
X52777500Y16200000D01*
X51890000Y16200000D01*
X51790000Y16200000D01*
X50902500Y16200000D01*
X50840000Y16137500D01*
X50300000Y16137500D01*
X50237500Y16200000D01*
X49350000Y16200000D01*
X49250000Y16200000D01*
X48362500Y16200000D01*
X48300000Y16137500D01*
X47760000Y16137500D01*
X47697500Y16200000D01*
X46810000Y16200000D01*
X46710000Y16200000D01*
X45822500Y16200000D01*
X45760000Y16137500D01*
X45220000Y16137500D01*
X45157500Y16200000D01*
X44270000Y16200000D01*
X44170000Y16200000D01*
X43282500Y16200000D01*
X43220000Y16137500D01*
X42644114Y16137500D01*
X42644114Y17000000D01*
X42634758Y17049728D01*
X43220000Y17049728D01*
X43220000Y16362500D01*
X43282500Y16300000D01*
X44170000Y16300000D01*
X44170000Y17187500D01*
X44270000Y17187500D01*
X44270000Y16300000D01*
X45157500Y16300000D01*
X45220000Y16362500D01*
X45220000Y17049728D01*
X45760000Y17049728D01*
X45760000Y16362500D01*
X45822500Y16300000D01*
X46710000Y16300000D01*
X46710000Y17187500D01*
X46810000Y17187500D01*
X46810000Y16300000D01*
X47697500Y16300000D01*
X47760000Y16362500D01*
X47760000Y17049728D01*
X48300000Y17049728D01*
X48300000Y16362500D01*
X48362500Y16300000D01*
X49250000Y16300000D01*
X49250000Y17187500D01*
X49350000Y17187500D01*
X49350000Y16300000D01*
X50237500Y16300000D01*
X50300000Y16362500D01*
X50300000Y17049728D01*
X50840000Y17049728D01*
X50840000Y16362500D01*
X50902500Y16300000D01*
X51790000Y16300000D01*
X51790000Y17187500D01*
X51890000Y17187500D01*
X51890000Y16300000D01*
X52777500Y16300000D01*
X52840000Y16362500D01*
X52840000Y17049728D01*
X52801940Y17141614D01*
X52731614Y17211940D01*
X52639728Y17250000D01*
X51952500Y17250000D01*
X51890000Y17187500D01*
X51790000Y17187500D01*
X51727500Y17250000D01*
X51040272Y17250000D01*
X50948386Y17211940D01*
X50878060Y17141614D01*
X50840000Y17049728D01*
X50300000Y17049728D01*
X50261940Y17141614D01*
X50191614Y17211940D01*
X50099728Y17250000D01*
X49412500Y17250000D01*
X49350000Y17187500D01*
X49250000Y17187500D01*
X49187500Y17250000D01*
X48500272Y17250000D01*
X48408386Y17211940D01*
X48338060Y17141614D01*
X48300000Y17049728D01*
X47760000Y17049728D01*
X47721940Y17141614D01*
X47651614Y17211940D01*
X47559728Y17250000D01*
X46872500Y17250000D01*
X46810000Y17187500D01*
X46710000Y17187500D01*
X46647500Y17250000D01*
X45960272Y17250000D01*
X45868386Y17211940D01*
X45798060Y17141614D01*
X45760000Y17049728D01*
X45220000Y17049728D01*
X45181940Y17141614D01*
X45111614Y17211940D01*
X45019728Y17250000D01*
X44332500Y17250000D01*
X44270000Y17187500D01*
X44170000Y17187500D01*
X44107500Y17250000D01*
X43420272Y17250000D01*
X43328386Y17211940D01*
X43258060Y17141614D01*
X43220000Y17049728D01*
X42634758Y17049728D01*
X42629471Y17077821D01*
X42583479Y17149295D01*
X42513302Y17197245D01*
X42430000Y17214114D01*
X40930000Y17214114D01*
X40852179Y17199471D01*
X40780705Y17153479D01*
X40732755Y17083302D01*
X40715886Y17000000D01*
X40104114Y17000000D01*
X40089471Y17077821D01*
X40043479Y17149295D01*
X39973302Y17197245D01*
X39890000Y17214114D01*
X38390000Y17214114D01*
X38312179Y17199471D01*
X38240705Y17153479D01*
X38192755Y17083302D01*
X38175886Y17000000D01*
X37564114Y17000000D01*
X37549471Y17077821D01*
X37503479Y17149295D01*
X37433302Y17197245D01*
X37350000Y17214114D01*
X35850000Y17214114D01*
X35772179Y17199471D01*
X35700705Y17153479D01*
X35652755Y17083302D01*
X35635886Y17000000D01*
X13025000Y17000000D01*
X13025000Y21048850D01*
X13074989Y26047750D01*
X13074695Y26049308D01*
X13074998Y26050862D01*
X13064998Y28660862D01*
X13061995Y28675664D01*
X13062890Y28690743D01*
X13022890Y28980743D01*
X13013038Y29009188D01*
X13006807Y29038632D01*
X12998795Y29050312D01*
X12994158Y29063700D01*
X12974171Y29086210D01*
X12957147Y29111027D01*
X12945275Y29118752D01*
X12935868Y29129346D01*
X12908790Y29142492D01*
X12883563Y29158907D01*
X12633563Y29258907D01*
X12619695Y29261490D01*
X12607006Y29267659D01*
X12197307Y29374961D01*
X11807387Y29517615D01*
X11369600Y29726991D01*
X10650548Y30187184D01*
X9933356Y30885251D01*
X9369134Y31717240D01*
X8955630Y32717341D01*
X8832018Y33287861D01*
X8774784Y33745739D01*
X8765308Y34361684D01*
X8968165Y35491889D01*
X9156417Y36018994D01*
X9580394Y36818769D01*
X9969593Y37334458D01*
X9979025Y37353976D01*
X9992154Y37371214D01*
X9997936Y37393108D01*
X10007792Y37413503D01*
X10009037Y37435142D01*
X10014570Y37456095D01*
X10011533Y37478540D01*
X10012833Y37501149D01*
X10005704Y37521613D01*
X10002797Y37543093D01*
X9991401Y37562667D01*
X9983951Y37584052D01*
X9969531Y37600233D01*
X9958627Y37618962D01*
X9940613Y37632682D01*
X9925542Y37649593D01*
X9906024Y37659025D01*
X9888786Y37672154D01*
X9866892Y37677936D01*
X9846497Y37687792D01*
X9824858Y37689037D01*
X9803905Y37694570D01*
X3388825Y38091789D01*
X-347437Y39927471D01*
X-336873Y39940494D01*
X21740855Y39940494D01*
X21745439Y39903158D01*
X21862739Y39547425D01*
X22107243Y39263659D01*
X22335992Y39148358D01*
X22335992Y39052656D01*
X22363395Y38914890D01*
X22441434Y38798098D01*
X31794090Y29445442D01*
X36494090Y24745441D01*
X36610882Y24667403D01*
X36748648Y24640000D01*
X50938753Y24640000D01*
X51010731Y24567896D01*
X51198110Y24490089D01*
X51399965Y24489913D01*
X52960409Y22929469D01*
X52826890Y22984911D01*
X52624000Y22985088D01*
X52436486Y22907609D01*
X52292896Y22764269D01*
X52215089Y22576890D01*
X52214912Y22374000D01*
X52292391Y22186486D01*
X52435731Y22042896D01*
X52623110Y21965089D01*
X52824965Y21964913D01*
X53885000Y20904878D01*
X53885000Y19831126D01*
X53742896Y19689269D01*
X53665089Y19501890D01*
X53664913Y19300033D01*
X52949938Y18585058D01*
X52887074Y18490975D01*
X52864999Y18379997D01*
X52864999Y14604049D01*
X52887074Y14493071D01*
X52949938Y14398988D01*
X53440635Y13908291D01*
X53401192Y13710000D01*
X53474268Y13342624D01*
X53682369Y13031177D01*
X53993816Y12823076D01*
X54361192Y12750000D01*
X54398808Y12750000D01*
X54766184Y12823076D01*
X55077631Y13031177D01*
X55285732Y13342624D01*
X55358808Y13710000D01*
X55941192Y13710000D01*
X56014268Y13342624D01*
X56222369Y13031177D01*
X56533816Y12823076D01*
X56901192Y12750000D01*
X56938808Y12750000D01*
X57306184Y12823076D01*
X57617631Y13031177D01*
X57825732Y13342624D01*
X57898808Y13710000D01*
X58481192Y13710000D01*
X58554268Y13342624D01*
X58762369Y13031177D01*
X59073816Y12823076D01*
X59441192Y12750000D01*
X59478808Y12750000D01*
X59846184Y12823076D01*
X60157631Y13031177D01*
X60365732Y13342624D01*
X60438808Y13710000D01*
X60365732Y14077376D01*
X60157631Y14388823D01*
X59846184Y14596924D01*
X59478808Y14670000D01*
X59441192Y14670000D01*
X59073816Y14596924D01*
X58762369Y14388823D01*
X58554268Y14077376D01*
X58481192Y13710000D01*
X57898808Y13710000D01*
X57825732Y14077376D01*
X57617631Y14388823D01*
X57306184Y14596924D01*
X56938808Y14670000D01*
X56901192Y14670000D01*
X56533816Y14596924D01*
X56222369Y14388823D01*
X56014268Y14077376D01*
X55941192Y13710000D01*
X55358808Y13710000D01*
X55285732Y14077376D01*
X55077631Y14388823D01*
X54766184Y14596924D01*
X54398808Y14670000D01*
X54361192Y14670000D01*
X53993816Y14596924D01*
X53741103Y14428067D01*
X53444999Y14724171D01*
X53444999Y15399692D01*
X53476521Y15350705D01*
X53546698Y15302755D01*
X53630000Y15285886D01*
X55130000Y15285886D01*
X55207821Y15300529D01*
X55279295Y15346521D01*
X55327245Y15416698D01*
X55344114Y15500000D01*
X55344114Y17000000D01*
X55329471Y17077821D01*
X55283479Y17149295D01*
X55213302Y17197245D01*
X55130000Y17214114D01*
X53630000Y17214114D01*
X53552179Y17199471D01*
X53480705Y17153479D01*
X53444999Y17101222D01*
X53444999Y18259875D01*
X54075211Y18890087D01*
X54276000Y18889912D01*
X54463514Y18967391D01*
X54607104Y19110731D01*
X54684911Y19298110D01*
X54685088Y19501000D01*
X54607609Y19688514D01*
X54465000Y19831372D01*
X54465000Y21025000D01*
X54442925Y21135978D01*
X54380061Y21230061D01*
X53234913Y22375209D01*
X53235088Y22576000D01*
X53179610Y22710268D01*
X56530000Y19359878D01*
X56530000Y17214114D01*
X56170000Y17214114D01*
X56092179Y17199471D01*
X56020705Y17153479D01*
X55972755Y17083302D01*
X55955886Y17000000D01*
X55955886Y15500000D01*
X55970529Y15422179D01*
X56016521Y15350705D01*
X56086698Y15302755D01*
X56170000Y15285886D01*
X57670000Y15285886D01*
X57747821Y15300529D01*
X57819295Y15346521D01*
X57867245Y15416698D01*
X57884114Y15500000D01*
X57884114Y17000000D01*
X58495886Y17000000D01*
X58495886Y15500000D01*
X58510529Y15422179D01*
X58556521Y15350705D01*
X58626698Y15302755D01*
X58710000Y15285886D01*
X60210000Y15285886D01*
X60287821Y15300529D01*
X60359295Y15346521D01*
X60407245Y15416698D01*
X60424114Y15500000D01*
X60424114Y17000000D01*
X61035886Y17000000D01*
X61035886Y15500000D01*
X61050529Y15422179D01*
X61096521Y15350705D01*
X61166698Y15302755D01*
X61250000Y15285886D01*
X62750000Y15285886D01*
X62827821Y15300529D01*
X62899295Y15346521D01*
X62947245Y15416698D01*
X62964114Y15500000D01*
X62964114Y17000000D01*
X62949471Y17077821D01*
X62903479Y17149295D01*
X62833302Y17197245D01*
X62750000Y17214114D01*
X61250000Y17214114D01*
X61172179Y17199471D01*
X61100705Y17153479D01*
X61052755Y17083302D01*
X61035886Y17000000D01*
X60424114Y17000000D01*
X60409471Y17077821D01*
X60363479Y17149295D01*
X60293302Y17197245D01*
X60210000Y17214114D01*
X58710000Y17214114D01*
X58632179Y17199471D01*
X58560705Y17153479D01*
X58512755Y17083302D01*
X58495886Y17000000D01*
X57884114Y17000000D01*
X57869471Y17077821D01*
X57823479Y17149295D01*
X57753302Y17197245D01*
X57670000Y17214114D01*
X57110000Y17214114D01*
X57110000Y19480000D01*
X57087925Y19590978D01*
X57025061Y19685061D01*
X51809913Y24900209D01*
X51810088Y25101000D01*
X51732609Y25288514D01*
X51589269Y25432104D01*
X51401890Y25509911D01*
X51199000Y25510088D01*
X51011486Y25432609D01*
X50938750Y25360000D01*
X36897765Y25360000D01*
X33958765Y28299000D01*
X34889910Y28299000D01*
X34967389Y28111486D01*
X35110729Y27967896D01*
X35298108Y27890089D01*
X35500998Y27889912D01*
X35688512Y27967391D01*
X35831370Y28110000D01*
X62325000Y28110000D01*
X62435978Y28132075D01*
X62530061Y28194939D01*
X65975209Y31640087D01*
X66176000Y31639912D01*
X66363514Y31717391D01*
X66507104Y31860731D01*
X66584911Y32048110D01*
X66585088Y32251000D01*
X66507609Y32438514D01*
X66364269Y32582104D01*
X66176890Y32659911D01*
X65974000Y32660088D01*
X65786486Y32582609D01*
X65642896Y32439269D01*
X65565089Y32251890D01*
X65564913Y32050035D01*
X62204878Y28690000D01*
X35831124Y28690000D01*
X35689267Y28832104D01*
X35501888Y28909911D01*
X35298998Y28910088D01*
X35111484Y28832609D01*
X34967894Y28689269D01*
X34890087Y28501890D01*
X34889910Y28299000D01*
X33958765Y28299000D01*
X32897764Y29360000D01*
X34993874Y29360000D01*
X35135731Y29217896D01*
X35323110Y29140089D01*
X35526000Y29139912D01*
X35713514Y29217391D01*
X35857104Y29360731D01*
X35934911Y29548110D01*
X35935088Y29751000D01*
X35857609Y29938514D01*
X35714269Y30082104D01*
X35526890Y30159911D01*
X35324000Y30160088D01*
X35136486Y30082609D01*
X34993628Y29940000D01*
X32317764Y29940000D01*
X25026913Y37230851D01*
X25047039Y37217403D01*
X25184805Y37190000D01*
X50975736Y37190000D01*
X50986560Y37192153D01*
X51035731Y37142896D01*
X51223110Y37065089D01*
X51426000Y37064912D01*
X51613514Y37142391D01*
X51757104Y37285731D01*
X51834911Y37473110D01*
X51835088Y37676000D01*
X51757609Y37863514D01*
X51614269Y38007104D01*
X51426890Y38084911D01*
X51225035Y38085087D01*
X51040000Y38270122D01*
X51040000Y38878696D01*
X77026258Y38878696D01*
X77172143Y38809853D01*
X77532467Y38889728D01*
X77854474Y39110079D01*
X78067644Y39436883D01*
X78052930Y39597503D01*
X77180139Y39751399D01*
X77026258Y38878696D01*
X51040000Y38878696D01*
X51040000Y39829876D01*
X51225211Y40015087D01*
X51426002Y40014912D01*
X51613516Y40092391D01*
X51757106Y40235731D01*
X51834913Y40423110D01*
X51835090Y40626000D01*
X51757611Y40813514D01*
X51614271Y40957104D01*
X51426892Y41034911D01*
X51224002Y41035088D01*
X51036488Y40957609D01*
X50892898Y40814269D01*
X50815091Y40626890D01*
X50814915Y40425035D01*
X50544939Y40155059D01*
X50482075Y40060976D01*
X50460000Y39949998D01*
X50460000Y38150000D01*
X50482075Y38039022D01*
X50544939Y37944939D01*
X50579878Y37910000D01*
X25333922Y37910000D01*
X23575432Y39668490D01*
X23623367Y39763590D01*
X23651129Y40137133D01*
X23646545Y40174468D01*
X23621626Y40250042D01*
X24261922Y40250042D01*
X24266506Y40212706D01*
X24383806Y39856973D01*
X24628310Y39573207D01*
X24962795Y39404610D01*
X25336338Y39376848D01*
X25692071Y39494149D01*
X25975837Y39738652D01*
X26144434Y40073138D01*
X26172196Y40446681D01*
X26167612Y40484016D01*
X26142693Y40559590D01*
X26782989Y40559590D01*
X26787573Y40522254D01*
X26904873Y40166521D01*
X27149377Y39882755D01*
X27483862Y39714158D01*
X27857405Y39686396D01*
X28213138Y39803697D01*
X28496904Y40048200D01*
X28665501Y40382686D01*
X28693263Y40756229D01*
X28688679Y40793564D01*
X28663760Y40869138D01*
X29304056Y40869138D01*
X29308640Y40831802D01*
X29425940Y40476069D01*
X29670444Y40192303D01*
X30004929Y40023706D01*
X30378472Y39995944D01*
X30734205Y40113245D01*
X31017971Y40357748D01*
X31186568Y40692234D01*
X31214330Y41065777D01*
X31209746Y41103112D01*
X31184827Y41178686D01*
X31825123Y41178686D01*
X31829707Y41141350D01*
X31947007Y40785617D01*
X32191511Y40501851D01*
X32525996Y40333254D01*
X32899539Y40305492D01*
X33255272Y40422793D01*
X33539038Y40667296D01*
X33707635Y41001782D01*
X33735397Y41375325D01*
X33730813Y41412660D01*
X33705893Y41488235D01*
X34346191Y41488235D01*
X34350775Y41450899D01*
X34468075Y41095166D01*
X34712579Y40811400D01*
X35047064Y40642803D01*
X35420607Y40615041D01*
X35776340Y40732342D01*
X36060106Y40976845D01*
X36228703Y41311331D01*
X36256465Y41684874D01*
X36251881Y41722209D01*
X36226962Y41797783D01*
X36867258Y41797783D01*
X36871842Y41760447D01*
X36989142Y41404714D01*
X37233646Y41120948D01*
X37568131Y40952351D01*
X37941674Y40924589D01*
X38297407Y41041890D01*
X38581173Y41286393D01*
X38749770Y41620879D01*
X38777532Y41994422D01*
X38772948Y42031757D01*
X38748029Y42107331D01*
X39388325Y42107331D01*
X39392909Y42069995D01*
X39510209Y41714262D01*
X39754713Y41430496D01*
X40089198Y41261899D01*
X40462741Y41234137D01*
X40818474Y41351438D01*
X41102240Y41595941D01*
X41270837Y41930427D01*
X41298599Y42303970D01*
X41295944Y42325597D01*
X58549996Y42325597D01*
X58550903Y42246416D01*
X58583785Y42168041D01*
X58644569Y42108634D01*
X58723677Y42077556D01*
X60200889Y41817084D01*
X60280070Y41817991D01*
X60358445Y41850873D01*
X60417852Y41911657D01*
X60448930Y41990765D01*
X60557042Y42603905D01*
X61182430Y42603905D01*
X61190600Y42229421D01*
X61341456Y41886568D01*
X61612034Y41627545D01*
X61961139Y41491784D01*
X62335623Y41499954D01*
X62678476Y41650810D01*
X62937499Y41921388D01*
X63031394Y42162838D01*
X63683841Y42162838D01*
X63692011Y41788354D01*
X63842867Y41445501D01*
X64113445Y41186478D01*
X64462550Y41050717D01*
X64837034Y41058887D01*
X65179887Y41209743D01*
X65438910Y41480321D01*
X65532806Y41721772D01*
X66185253Y41721772D01*
X66193423Y41347288D01*
X66344279Y41004435D01*
X66614857Y40745412D01*
X66963962Y40609651D01*
X67338446Y40617821D01*
X67681299Y40768677D01*
X67940322Y41039255D01*
X68034218Y41280706D01*
X68686665Y41280706D01*
X68694835Y40906222D01*
X68845691Y40563369D01*
X69116269Y40304346D01*
X69465374Y40168585D01*
X69839858Y40176755D01*
X70182711Y40327611D01*
X70441734Y40598189D01*
X70535629Y40839639D01*
X71188076Y40839639D01*
X71196246Y40465155D01*
X71347102Y40122302D01*
X71617680Y39863279D01*
X71966785Y39727518D01*
X72341269Y39735688D01*
X72684122Y39886544D01*
X72943145Y40157122D01*
X73037041Y40398573D01*
X73689488Y40398573D01*
X73697658Y40024089D01*
X73848514Y39681236D01*
X74119092Y39422213D01*
X74468197Y39286452D01*
X74842681Y39294622D01*
X75185534Y39445478D01*
X75444557Y39716056D01*
X75468163Y39776760D01*
X76140105Y39776760D01*
X76228647Y39396756D01*
X76455869Y39079562D01*
X76767144Y38881265D01*
X76927777Y38896061D01*
X77081658Y39768764D01*
X76621628Y39849880D01*
X77197504Y39849880D01*
X78070295Y39695983D01*
X78139057Y39841884D01*
X78050515Y40221888D01*
X77823293Y40539082D01*
X77512018Y40737379D01*
X77351385Y40722583D01*
X77197504Y39849880D01*
X76621628Y39849880D01*
X76208867Y39922661D01*
X76140105Y39776760D01*
X75468163Y39776760D01*
X75580318Y40065161D01*
X75586850Y40102205D01*
X75585115Y40181761D01*
X76211518Y40181761D01*
X76226232Y40021141D01*
X77099023Y39867245D01*
X77252904Y40739948D01*
X77107019Y40808791D01*
X76746695Y40728916D01*
X76424688Y40508565D01*
X76211518Y40181761D01*
X75585115Y40181761D01*
X75578679Y40476689D01*
X75427824Y40819541D01*
X75157245Y41078564D01*
X74808141Y41214325D01*
X74433656Y41206155D01*
X74090804Y41055299D01*
X73831781Y40784721D01*
X73696020Y40435616D01*
X73689488Y40398573D01*
X73037041Y40398573D01*
X73078906Y40506227D01*
X73085438Y40543271D01*
X73077267Y40917755D01*
X72926412Y41260607D01*
X72801580Y41380108D01*
X77467324Y41380108D01*
X77613209Y41311265D01*
X77973533Y41391140D01*
X78295540Y41611491D01*
X78508710Y41938295D01*
X78493996Y42098915D01*
X77621205Y42252811D01*
X77467324Y41380108D01*
X72801580Y41380108D01*
X72655833Y41519630D01*
X72306729Y41655391D01*
X71932244Y41647221D01*
X71589392Y41496365D01*
X71330369Y41225787D01*
X71194608Y40876682D01*
X71188076Y40839639D01*
X70535629Y40839639D01*
X70577495Y40947294D01*
X70584027Y40984338D01*
X70575856Y41358822D01*
X70425001Y41701674D01*
X70154422Y41960697D01*
X69805318Y42096458D01*
X69430833Y42088288D01*
X69087981Y41937432D01*
X68828958Y41666854D01*
X68693197Y41317749D01*
X68686665Y41280706D01*
X68034218Y41280706D01*
X68076083Y41388360D01*
X68082615Y41425404D01*
X68074444Y41799888D01*
X67923589Y42142740D01*
X67653010Y42401763D01*
X67303906Y42537524D01*
X66929421Y42529354D01*
X66586569Y42378498D01*
X66327546Y42107920D01*
X66191785Y41758815D01*
X66185253Y41721772D01*
X65532806Y41721772D01*
X65574671Y41829426D01*
X65581203Y41866470D01*
X65573032Y42240954D01*
X65422177Y42583806D01*
X65151598Y42842829D01*
X64802494Y42978590D01*
X64428009Y42970420D01*
X64085157Y42819564D01*
X63826134Y42548986D01*
X63690373Y42199881D01*
X63683841Y42162838D01*
X63031394Y42162838D01*
X63073260Y42270493D01*
X63079792Y42307537D01*
X63071621Y42682021D01*
X62920766Y43024873D01*
X62650187Y43283896D01*
X62301083Y43419657D01*
X61926598Y43411487D01*
X61583746Y43260631D01*
X61324723Y42990053D01*
X61188962Y42640948D01*
X61182430Y42603905D01*
X60557042Y42603905D01*
X60709402Y43467977D01*
X60708495Y43547158D01*
X60675613Y43625533D01*
X60614829Y43684940D01*
X60535721Y43716018D01*
X59058509Y43976490D01*
X58979328Y43975583D01*
X58900953Y43942701D01*
X58841546Y43881917D01*
X58810468Y43802809D01*
X58549996Y42325597D01*
X41295944Y42325597D01*
X41294015Y42341305D01*
X41176715Y42697038D01*
X40932211Y42980804D01*
X40597726Y43149401D01*
X40224183Y43177163D01*
X39868450Y43059863D01*
X39584684Y42815359D01*
X39416087Y42480874D01*
X39388325Y42107331D01*
X38748029Y42107331D01*
X38655648Y42387490D01*
X38411144Y42671256D01*
X38076659Y42839853D01*
X37703116Y42867615D01*
X37347383Y42750315D01*
X37063617Y42505811D01*
X36895020Y42171326D01*
X36867258Y41797783D01*
X36226962Y41797783D01*
X36134581Y42077942D01*
X35890077Y42361708D01*
X35555592Y42530305D01*
X35182049Y42558067D01*
X34826316Y42440767D01*
X34542550Y42196263D01*
X34373953Y41861778D01*
X34346191Y41488235D01*
X33705893Y41488235D01*
X33613513Y41768393D01*
X33369009Y42052159D01*
X33034524Y42220756D01*
X32660981Y42248518D01*
X32305248Y42131218D01*
X32021482Y41886714D01*
X31852885Y41552229D01*
X31825123Y41178686D01*
X31184827Y41178686D01*
X31092446Y41458845D01*
X30847942Y41742611D01*
X30513457Y41911208D01*
X30139914Y41938970D01*
X29784181Y41821670D01*
X29500415Y41577166D01*
X29331818Y41242681D01*
X29304056Y40869138D01*
X28663760Y40869138D01*
X28571379Y41149297D01*
X28326875Y41433063D01*
X27992390Y41601660D01*
X27618847Y41629422D01*
X27263114Y41512122D01*
X26979348Y41267618D01*
X26810751Y40933133D01*
X26782989Y40559590D01*
X26142693Y40559590D01*
X26050312Y40839749D01*
X25805808Y41123515D01*
X25471323Y41292112D01*
X25097780Y41319874D01*
X24742047Y41202574D01*
X24458281Y40958070D01*
X24289684Y40623585D01*
X24261922Y40250042D01*
X23621626Y40250042D01*
X23529245Y40530201D01*
X23284741Y40813967D01*
X22950256Y40982564D01*
X22576713Y41010326D01*
X22220980Y40893026D01*
X21937214Y40648522D01*
X21768617Y40314037D01*
X21740855Y39940494D01*
X-336873Y39940494D01*
X1708188Y42461561D01*
X21431306Y42461561D01*
X21435890Y42424225D01*
X21553190Y42068492D01*
X21797694Y41784726D01*
X22132179Y41616129D01*
X22505722Y41588367D01*
X22861455Y41705668D01*
X23145221Y41950171D01*
X23313818Y42284657D01*
X23341580Y42658200D01*
X23336996Y42695535D01*
X23312077Y42771109D01*
X23952374Y42771109D01*
X23956958Y42733773D01*
X24074258Y42378040D01*
X24318762Y42094274D01*
X24653247Y41925677D01*
X25026790Y41897915D01*
X25382523Y42015216D01*
X25666289Y42259719D01*
X25834886Y42594205D01*
X25862648Y42967748D01*
X25858064Y43005083D01*
X25833145Y43080657D01*
X26473441Y43080657D01*
X26478025Y43043321D01*
X26595325Y42687588D01*
X26839829Y42403822D01*
X27174314Y42235225D01*
X27547857Y42207463D01*
X27903590Y42324764D01*
X28187356Y42569267D01*
X28355953Y42903753D01*
X28383715Y43277296D01*
X28379131Y43314631D01*
X28354212Y43390205D01*
X28994508Y43390205D01*
X28999092Y43352869D01*
X29116392Y42997136D01*
X29360896Y42713370D01*
X29695381Y42544773D01*
X30068924Y42517011D01*
X30424657Y42634312D01*
X30708423Y42878815D01*
X30877020Y43213301D01*
X30904782Y43586844D01*
X30900198Y43624179D01*
X30875278Y43699754D01*
X31515575Y43699754D01*
X31520159Y43662418D01*
X31637459Y43306685D01*
X31881963Y43022919D01*
X32216448Y42854322D01*
X32589991Y42826560D01*
X32945724Y42943861D01*
X33229490Y43188364D01*
X33398087Y43522850D01*
X33425849Y43896393D01*
X33421265Y43933728D01*
X33396346Y44009302D01*
X34036643Y44009302D01*
X34041227Y43971966D01*
X34158527Y43616233D01*
X34403031Y43332467D01*
X34737516Y43163870D01*
X35111059Y43136108D01*
X35466792Y43253409D01*
X35750558Y43497912D01*
X35919155Y43832398D01*
X35946917Y44205941D01*
X35942333Y44243276D01*
X35917414Y44318850D01*
X36557710Y44318850D01*
X36562294Y44281514D01*
X36679594Y43925781D01*
X36924098Y43642015D01*
X37258583Y43473418D01*
X37632126Y43445656D01*
X37810206Y43504377D01*
X43771369Y43504377D01*
X43912601Y43163397D01*
X44185520Y42884546D01*
X44544376Y42731363D01*
X44700000Y42773745D01*
X44700000Y43660000D01*
X44800000Y43660000D01*
X44800000Y42773745D01*
X44955624Y42731363D01*
X45314480Y42884546D01*
X45587399Y43163397D01*
X45728631Y43504377D01*
X45703221Y43597500D01*
X46290000Y43597500D01*
X46290000Y42910272D01*
X46328060Y42818386D01*
X46398386Y42748060D01*
X46490272Y42710000D01*
X47177500Y42710000D01*
X47240000Y42772500D01*
X47240000Y43660000D01*
X47340000Y43660000D01*
X47340000Y42772500D01*
X47402500Y42710000D01*
X48089728Y42710000D01*
X48181614Y42748060D01*
X48251940Y42818386D01*
X48290000Y42910272D01*
X48290000Y43597500D01*
X48227500Y43660000D01*
X47340000Y43660000D01*
X47240000Y43660000D01*
X46352500Y43660000D01*
X46290000Y43597500D01*
X45703221Y43597500D01*
X45686166Y43660000D01*
X44800000Y43660000D01*
X44700000Y43660000D01*
X43813834Y43660000D01*
X43771369Y43504377D01*
X37810206Y43504377D01*
X37987859Y43562957D01*
X38271625Y43807460D01*
X38440222Y44141946D01*
X38467984Y44515489D01*
X38463400Y44552824D01*
X38346100Y44908557D01*
X38101596Y45192323D01*
X37781572Y45353631D01*
X38985584Y45353631D01*
X39168388Y43864811D01*
X39192406Y43789354D01*
X39246766Y43724018D01*
X39322263Y43684978D01*
X39407000Y43678387D01*
X40895820Y43861191D01*
X40971277Y43885209D01*
X41007831Y43915623D01*
X43771369Y43915623D01*
X43813834Y43760000D01*
X44700000Y43760000D01*
X44700000Y44646255D01*
X44800000Y44646255D01*
X44800000Y43760000D01*
X45686166Y43760000D01*
X45728631Y43915623D01*
X45587399Y44256603D01*
X45339659Y44509728D01*
X46290000Y44509728D01*
X46290000Y43822500D01*
X46352500Y43760000D01*
X47240000Y43760000D01*
X47240000Y44647500D01*
X47340000Y44647500D01*
X47340000Y43760000D01*
X48227500Y43760000D01*
X48290000Y43822500D01*
X48290000Y44509728D01*
X48251940Y44601614D01*
X48181614Y44671940D01*
X48089728Y44710000D01*
X47402500Y44710000D01*
X47340000Y44647500D01*
X47240000Y44647500D01*
X47177500Y44710000D01*
X46490272Y44710000D01*
X46398386Y44671940D01*
X46328060Y44601614D01*
X46290000Y44509728D01*
X45339659Y44509728D01*
X45314480Y44535454D01*
X44955624Y44688637D01*
X44800000Y44646255D01*
X44700000Y44646255D01*
X44544376Y44688637D01*
X44185520Y44535454D01*
X43912601Y44256603D01*
X43771369Y43915623D01*
X41007831Y43915623D01*
X41036613Y43939569D01*
X41075653Y44015066D01*
X41082244Y44099803D01*
X40899440Y45588623D01*
X40875422Y45664080D01*
X40821062Y45729416D01*
X40745565Y45768456D01*
X40660828Y45775047D01*
X39172008Y45592243D01*
X39096551Y45568225D01*
X39031215Y45513865D01*
X38992175Y45438368D01*
X38985584Y45353631D01*
X37781572Y45353631D01*
X37767111Y45360920D01*
X37393568Y45388682D01*
X37037835Y45271382D01*
X36754069Y45026878D01*
X36585472Y44692393D01*
X36557710Y44318850D01*
X35917414Y44318850D01*
X35825033Y44599009D01*
X35580529Y44882775D01*
X35246044Y45051372D01*
X34872501Y45079134D01*
X34516768Y44961834D01*
X34233002Y44717330D01*
X34064405Y44382845D01*
X34036643Y44009302D01*
X33396346Y44009302D01*
X33303965Y44289461D01*
X33059461Y44573227D01*
X32724976Y44741824D01*
X32351433Y44769586D01*
X31995700Y44652286D01*
X31711934Y44407782D01*
X31543337Y44073297D01*
X31515575Y43699754D01*
X30875278Y43699754D01*
X30782898Y43979912D01*
X30538394Y44263678D01*
X30203909Y44432275D01*
X29830366Y44460037D01*
X29474633Y44342737D01*
X29190867Y44098233D01*
X29022270Y43763748D01*
X28994508Y43390205D01*
X28354212Y43390205D01*
X28261831Y43670364D01*
X28017327Y43954130D01*
X27682842Y44122727D01*
X27309299Y44150489D01*
X26953566Y44033189D01*
X26669800Y43788685D01*
X26501203Y43454200D01*
X26473441Y43080657D01*
X25833145Y43080657D01*
X25740764Y43360816D01*
X25496260Y43644582D01*
X25161775Y43813179D01*
X24788232Y43840941D01*
X24432499Y43723641D01*
X24148733Y43479137D01*
X23980136Y43144652D01*
X23952374Y42771109D01*
X23312077Y42771109D01*
X23219696Y43051268D01*
X22975192Y43335034D01*
X22640707Y43503631D01*
X22267164Y43531393D01*
X21911431Y43414093D01*
X21627665Y43169589D01*
X21459068Y42835104D01*
X21431306Y42461561D01*
X1708188Y42461561D01*
X2374738Y43283255D01*
X2391406Y43314870D01*
X2410360Y43345165D01*
X2411754Y43353465D01*
X2415681Y43360914D01*
X2418982Y43396508D01*
X2424899Y43431743D01*
X2423010Y43439945D01*
X2423788Y43448329D01*
X2413217Y43482474D01*
X2405199Y43517295D01*
X2400315Y43524151D01*
X2397825Y43532193D01*
X2374993Y43559693D01*
X2354260Y43588795D01*
X-471455Y46250000D01*
X43771192Y46250000D01*
X43844268Y45882624D01*
X44052369Y45571177D01*
X44363816Y45363076D01*
X44731192Y45290000D01*
X44768808Y45290000D01*
X45136184Y45363076D01*
X45447631Y45571177D01*
X45655732Y45882624D01*
X45728808Y46250000D01*
X46311192Y46250000D01*
X46384268Y45882624D01*
X46592369Y45571177D01*
X46903816Y45363076D01*
X47271192Y45290000D01*
X47308808Y45290000D01*
X47676184Y45363076D01*
X47950523Y45546383D01*
X59122084Y45546383D01*
X59130254Y45171899D01*
X59281110Y44829046D01*
X59551688Y44570023D01*
X59900793Y44434262D01*
X60275277Y44442432D01*
X60618130Y44593288D01*
X60877153Y44863866D01*
X60971048Y45105316D01*
X61623496Y45105316D01*
X61631666Y44730832D01*
X61782522Y44387979D01*
X62053100Y44128956D01*
X62402205Y43993195D01*
X62776689Y44001365D01*
X63119542Y44152221D01*
X63378565Y44422799D01*
X63472461Y44664250D01*
X64124908Y44664250D01*
X64133078Y44289766D01*
X64283934Y43946913D01*
X64554512Y43687890D01*
X64903617Y43552129D01*
X65278101Y43560299D01*
X65620954Y43711155D01*
X65879977Y43981733D01*
X65973873Y44223184D01*
X66626319Y44223184D01*
X66634489Y43848700D01*
X66785345Y43505847D01*
X67055923Y43246824D01*
X67405028Y43111063D01*
X67779512Y43119233D01*
X68122365Y43270089D01*
X68381388Y43540667D01*
X68475283Y43782117D01*
X69127731Y43782117D01*
X69135901Y43407633D01*
X69286757Y43064780D01*
X69557335Y42805757D01*
X69906440Y42669996D01*
X70280924Y42678166D01*
X70623777Y42829022D01*
X70882800Y43099600D01*
X70976696Y43341051D01*
X71629143Y43341051D01*
X71637313Y42966567D01*
X71788169Y42623714D01*
X72058747Y42364691D01*
X72407852Y42228930D01*
X72782336Y42237100D01*
X73125189Y42387956D01*
X73384212Y42658534D01*
X73478107Y42899984D01*
X74130555Y42899984D01*
X74138725Y42525500D01*
X74289581Y42182647D01*
X74560159Y41923624D01*
X74909264Y41787863D01*
X75283748Y41796033D01*
X75626601Y41946889D01*
X75885624Y42217467D01*
X75909231Y42278172D01*
X76581171Y42278172D01*
X76669713Y41898168D01*
X76896935Y41580974D01*
X77208210Y41382677D01*
X77368843Y41397473D01*
X77522724Y42270176D01*
X77062694Y42351292D01*
X77638570Y42351292D01*
X78511361Y42197395D01*
X78580123Y42343296D01*
X78491581Y42723300D01*
X78264359Y43040494D01*
X77953084Y43238791D01*
X77792451Y43223995D01*
X77638570Y42351292D01*
X77062694Y42351292D01*
X76649933Y42424073D01*
X76581171Y42278172D01*
X75909231Y42278172D01*
X76021385Y42566572D01*
X76027917Y42603616D01*
X76026182Y42683173D01*
X76652584Y42683173D01*
X76667298Y42522553D01*
X77540089Y42368657D01*
X77693970Y43241360D01*
X77548085Y43310203D01*
X77187761Y43230328D01*
X76865754Y43009977D01*
X76652584Y42683173D01*
X76026182Y42683173D01*
X76019746Y42978100D01*
X75868891Y43320952D01*
X75598312Y43579975D01*
X75249208Y43715736D01*
X74874723Y43707566D01*
X74531871Y43556710D01*
X74272848Y43286132D01*
X74137087Y42937027D01*
X74130555Y42899984D01*
X73478107Y42899984D01*
X73519973Y43007639D01*
X73526505Y43044683D01*
X73518334Y43419167D01*
X73367479Y43762019D01*
X73096900Y44021042D01*
X72747796Y44156803D01*
X72373311Y44148633D01*
X72030459Y43997777D01*
X71771436Y43727199D01*
X71635675Y43378094D01*
X71629143Y43341051D01*
X70976696Y43341051D01*
X71018561Y43448705D01*
X71025093Y43485749D01*
X71016922Y43860233D01*
X70866067Y44203085D01*
X70595488Y44462108D01*
X70246384Y44597869D01*
X69871899Y44589699D01*
X69529047Y44438843D01*
X69270024Y44168265D01*
X69134263Y43819160D01*
X69127731Y43782117D01*
X68475283Y43782117D01*
X68517149Y43889772D01*
X68523681Y43926816D01*
X68515510Y44301300D01*
X68364655Y44644152D01*
X68094076Y44903175D01*
X67744972Y45038936D01*
X67370487Y45030766D01*
X67027635Y44879910D01*
X66768612Y44609332D01*
X66632851Y44260227D01*
X66626319Y44223184D01*
X65973873Y44223184D01*
X66015738Y44330838D01*
X66022270Y44367882D01*
X66014099Y44742366D01*
X65863244Y45085218D01*
X65592665Y45344241D01*
X65243561Y45480002D01*
X64869076Y45471832D01*
X64526224Y45320976D01*
X64267201Y45050398D01*
X64131440Y44701293D01*
X64124908Y44664250D01*
X63472461Y44664250D01*
X63514326Y44771904D01*
X63520858Y44808948D01*
X63512687Y45183432D01*
X63361832Y45526284D01*
X63091253Y45785307D01*
X62742149Y45921068D01*
X62367664Y45912898D01*
X62024812Y45762042D01*
X61765789Y45491464D01*
X61630028Y45142359D01*
X61623496Y45105316D01*
X60971048Y45105316D01*
X61012914Y45212971D01*
X61019446Y45250015D01*
X61011275Y45624499D01*
X60860420Y45967351D01*
X60589841Y46226374D01*
X60240737Y46362135D01*
X59866252Y46353965D01*
X59523400Y46203109D01*
X59264377Y45932531D01*
X59128616Y45583426D01*
X59122084Y45546383D01*
X47950523Y45546383D01*
X47987631Y45571177D01*
X48195732Y45882624D01*
X48268808Y46250000D01*
X48195732Y46617376D01*
X47987631Y46928823D01*
X47676184Y47136924D01*
X47308808Y47210000D01*
X47271192Y47210000D01*
X46903816Y47136924D01*
X46592369Y46928823D01*
X46384268Y46617376D01*
X46311192Y46250000D01*
X45728808Y46250000D01*
X45655732Y46617376D01*
X45447631Y46928823D01*
X45136184Y47136924D01*
X44768808Y47210000D01*
X44731192Y47210000D01*
X44363816Y47136924D01*
X44052369Y46928823D01*
X43844268Y46617376D01*
X43771192Y46250000D01*
X-471455Y46250000D01*
X-3168473Y48790000D01*
X43771192Y48790000D01*
X43844268Y48422624D01*
X44052369Y48111177D01*
X44363816Y47903076D01*
X44731192Y47830000D01*
X44768808Y47830000D01*
X45136184Y47903076D01*
X45447631Y48111177D01*
X45655732Y48422624D01*
X45728808Y48790000D01*
X46311192Y48790000D01*
X46384268Y48422624D01*
X46592369Y48111177D01*
X46903816Y47903076D01*
X47271192Y47830000D01*
X47308808Y47830000D01*
X47676184Y47903076D01*
X47987631Y48111177D01*
X48195732Y48422624D01*
X48268808Y48790000D01*
X48195732Y49157376D01*
X47987631Y49468823D01*
X47676184Y49676924D01*
X47308808Y49750000D01*
X47271192Y49750000D01*
X46903816Y49676924D01*
X46592369Y49468823D01*
X46384268Y49157376D01*
X46311192Y48790000D01*
X45728808Y48790000D01*
X45655732Y49157376D01*
X45447631Y49468823D01*
X45136184Y49676924D01*
X44768808Y49750000D01*
X44731192Y49750000D01*
X44363816Y49676924D01*
X44052369Y49468823D01*
X43844268Y49157376D01*
X43771192Y48790000D01*
X-3168473Y48790000D01*
X-4847738Y50371499D01*
X-2285407Y59888727D01*
X7917581Y64494930D01*
X7948532Y64517045D01*
X7980619Y64537495D01*
X13765933Y70077669D01*
X19399029Y67248928D01*
X19430565Y67240233D01*
X19461060Y67228395D01*
X19472567Y67228653D01*
X19483662Y67225594D01*
X19516121Y67229629D01*
X19548829Y67230362D01*
X19559363Y67235004D01*
X19570782Y67236424D01*
X19599227Y67252574D01*
X19629163Y67265767D01*
X19637117Y67274085D01*
X19647126Y67279768D01*
X19667228Y67305577D01*
X19689834Y67329219D01*
X19693999Y67339948D01*
X19701072Y67349029D01*
X19709767Y67380565D01*
X19721605Y67411060D01*
X21070479Y75087378D01*
X42952326Y79864750D01*
X49610905Y76993391D01*
X49641391Y76986868D01*
X49670925Y76976886D01*
X49683969Y76977758D01*
X49696753Y76975023D01*
X49727419Y76980664D01*
X49758520Y76982744D01*
X64424171Y80933088D01*
X68595168Y71756894D01*
X68595168Y71756894D01*
G37*
X68595168Y71756894D02*
X68607991Y71739044D01*
X68617054Y71719020D01*
X68633352Y71703742D01*
X68646389Y71685595D01*
X68665071Y71674009D01*
X68681104Y71658980D01*
X68702008Y71651102D01*
X68720997Y71639326D01*
X68742689Y71635771D01*
X68763255Y71628021D01*
X68785582Y71628742D01*
X68807632Y71625129D01*
X68829032Y71630146D01*
X68851000Y71630856D01*
X86461549Y75729221D01*
X97222663Y66022156D01*
X92873416Y57249945D01*
X92867814Y57229216D01*
X92858159Y57210041D01*
X92856475Y57187256D01*
X92850513Y57165194D01*
X92853270Y57143899D01*
X92851688Y57122489D01*
X92858853Y57100792D01*
X92861787Y57078130D01*
X92872483Y57059512D01*
X92879215Y57039125D01*
X92894137Y57021821D01*
X92905520Y57002008D01*
X92922526Y56988901D01*
X92936548Y56972641D01*
X92956957Y56962365D01*
X92975055Y56948416D01*
X92995784Y56942814D01*
X93014959Y56933159D01*
X103475326Y54036810D01*
X96722366Y49385296D01*
X96717492Y49380282D01*
X96711252Y49377127D01*
X96687052Y49348970D01*
X96661172Y49322348D01*
X96658588Y49315851D01*
X96654030Y49310548D01*
X94471788Y45442027D01*
X88568509Y40066360D01*
X88565304Y40062018D01*
X88560820Y40059018D01*
X88539350Y40026850D01*
X88516377Y39995723D01*
X88515078Y39990485D01*
X88512083Y39985998D01*
X88504556Y39948057D01*
X88495246Y39910514D01*
X88496050Y39905179D01*
X88495000Y39899885D01*
X88502567Y39861944D01*
X88508331Y39823704D01*
X88511115Y39819083D01*
X88512171Y39813790D01*
X88533677Y39781639D01*
X88553640Y39748509D01*
X88557982Y39745304D01*
X88560982Y39740820D01*
X89956392Y38346832D01*
X90694979Y36566293D01*
X90695960Y34638646D01*
X89959189Y32857354D01*
X88596831Y31493607D01*
X86797838Y30747366D01*
X86587968Y30710508D01*
X86571889Y30704268D01*
X86552510Y30701235D01*
X86532315Y30688910D01*
X86506124Y30678746D01*
X86489288Y30662651D01*
X86477572Y30655501D01*
X86467814Y30642123D01*
X86442666Y30618081D01*
X86431034Y30591693D01*
X86425840Y30584572D01*
X86423339Y30574238D01*
X86407254Y30537749D01*
X86406510Y30504700D01*
X86405190Y30499244D01*
X86185215Y25149848D01*
X86125340Y23872514D01*
X86105467Y23564486D01*
X86105966Y23560725D01*
X86105110Y23557028D01*
X86095110Y23237028D01*
X86097550Y23222386D01*
X86096117Y23207612D01*
X86103135Y23137433D01*
X86061390Y22886961D01*
X86054995Y22872145D01*
X85979994Y22522144D01*
X85979941Y22518571D01*
X85978629Y22515249D01*
X85728629Y21140249D01*
X85728886Y21124652D01*
X85725201Y21109499D01*
X85275978Y10477884D01*
X85040867Y9349351D01*
X84019239Y8090135D01*
X77645558Y3509051D01*
X76145082Y2475937D01*
X72060320Y941057D01*
X68431860Y120925D01*
X64056589Y-600000D01*
X48253016Y-600000D01*
X37632016Y-315000D01*
X45775000Y-315000D01*
X45885978Y-292925D01*
X45980061Y-230061D01*
X47221008Y1010886D01*
X48100000Y1010886D01*
X48177821Y1025529D01*
X48249295Y1071521D01*
X48297245Y1141698D01*
X48314114Y1225000D01*
X48314114Y1925000D01*
X48299471Y2002821D01*
X48253479Y2074295D01*
X48251919Y2075361D01*
X48297245Y2141698D01*
X48314114Y2225000D01*
X48314114Y2925000D01*
X48299471Y3002821D01*
X48253479Y3074295D01*
X48251919Y3075361D01*
X48297245Y3141698D01*
X48314114Y3225000D01*
X48314114Y3925000D01*
X48299471Y4002821D01*
X48253479Y4074295D01*
X48251919Y4075361D01*
X48297245Y4141698D01*
X48314114Y4225000D01*
X48314114Y4295764D01*
X48370978Y4307075D01*
X48465061Y4369939D01*
X49589955Y5494833D01*
X49589955Y4935045D01*
X49612030Y4824067D01*
X49674894Y4729984D01*
X51034939Y3369939D01*
X51129022Y3307075D01*
X51185886Y3295764D01*
X51185886Y3225000D01*
X51200529Y3147179D01*
X51246521Y3075705D01*
X51248081Y3074639D01*
X51202755Y3008302D01*
X51185886Y2925000D01*
X51185886Y2225000D01*
X51200529Y2147179D01*
X51246521Y2075705D01*
X51248081Y2074639D01*
X51202755Y2008302D01*
X51185886Y1925000D01*
X51185886Y1225000D01*
X51200529Y1147179D01*
X51246521Y1075705D01*
X51316698Y1027755D01*
X51400000Y1010886D01*
X52278992Y1010886D01*
X53544939Y-255061D01*
X53639022Y-317925D01*
X53750000Y-340000D01*
X61526764Y-340000D01*
X61637742Y-317925D01*
X61731825Y-255061D01*
X65340071Y3353185D01*
X65402935Y3447267D01*
X65425010Y3558246D01*
X65425010Y9054990D01*
X65402935Y9165968D01*
X65340071Y9260051D01*
X64759913Y9840209D01*
X64760088Y10041000D01*
X64682609Y10228514D01*
X64539269Y10372104D01*
X64351890Y10449911D01*
X64149000Y10450088D01*
X63961486Y10372609D01*
X63817896Y10229269D01*
X63740089Y10041890D01*
X63739912Y9839000D01*
X63817391Y9651486D01*
X63960731Y9507896D01*
X64148110Y9430089D01*
X64349965Y9429913D01*
X64400556Y9379322D01*
X64326890Y9409911D01*
X64124000Y9410088D01*
X63936486Y9332609D01*
X63792896Y9189269D01*
X63715089Y9001890D01*
X63715018Y8920104D01*
X62190000Y10445122D01*
X62190000Y12784052D01*
X62386184Y12823076D01*
X62697631Y13031177D01*
X62905732Y13342624D01*
X62978808Y13710000D01*
X62905732Y14077376D01*
X62697631Y14388823D01*
X62386184Y14596924D01*
X62018808Y14670000D01*
X61981192Y14670000D01*
X61613816Y14596924D01*
X61302369Y14388823D01*
X61094268Y14077376D01*
X61021192Y13710000D01*
X61094268Y13342624D01*
X61302369Y13031177D01*
X61610000Y12825626D01*
X61610000Y10735041D01*
X59560330Y10735044D01*
X58710269Y11585105D01*
X58616186Y11647969D01*
X58505208Y11670044D01*
X51612790Y11670044D01*
X51501812Y11647969D01*
X51407729Y11585105D01*
X49782653Y9960029D01*
X49777958Y9983635D01*
X49715094Y10077717D01*
X47912750Y11880061D01*
X47818667Y11942925D01*
X47707689Y11965000D01*
X40500000Y11965000D01*
X40389022Y11942925D01*
X40294939Y11880061D01*
X36009930Y7595052D01*
X36010087Y7774965D01*
X41152573Y12917451D01*
X41293816Y12823076D01*
X41661192Y12750000D01*
X41698808Y12750000D01*
X42066184Y12823076D01*
X42377631Y13031177D01*
X42585732Y13342624D01*
X42658808Y13710000D01*
X43241192Y13710000D01*
X43314268Y13342624D01*
X43522369Y13031177D01*
X43833816Y12823076D01*
X44201192Y12750000D01*
X44238808Y12750000D01*
X44606184Y12823076D01*
X44917631Y13031177D01*
X45125732Y13342624D01*
X45198808Y13710000D01*
X45781192Y13710000D01*
X45854268Y13342624D01*
X46062369Y13031177D01*
X46373816Y12823076D01*
X46741192Y12750000D01*
X46778808Y12750000D01*
X47146184Y12823076D01*
X47457631Y13031177D01*
X47665732Y13342624D01*
X47738808Y13710000D01*
X48321192Y13710000D01*
X48394268Y13342624D01*
X48602369Y13031177D01*
X48913816Y12823076D01*
X49281192Y12750000D01*
X49318808Y12750000D01*
X49686184Y12823076D01*
X49997631Y13031177D01*
X50205732Y13342624D01*
X50278808Y13710000D01*
X50861192Y13710000D01*
X50934268Y13342624D01*
X51142369Y13031177D01*
X51453816Y12823076D01*
X51821192Y12750000D01*
X51858808Y12750000D01*
X52226184Y12823076D01*
X52537631Y13031177D01*
X52745732Y13342624D01*
X52818808Y13710000D01*
X52745732Y14077376D01*
X52537631Y14388823D01*
X52226184Y14596924D01*
X51858808Y14670000D01*
X51821192Y14670000D01*
X51453816Y14596924D01*
X51142369Y14388823D01*
X50934268Y14077376D01*
X50861192Y13710000D01*
X50278808Y13710000D01*
X50205732Y14077376D01*
X49997631Y14388823D01*
X49686184Y14596924D01*
X49318808Y14670000D01*
X49281192Y14670000D01*
X48913816Y14596924D01*
X48602369Y14388823D01*
X48394268Y14077376D01*
X48321192Y13710000D01*
X47738808Y13710000D01*
X47665732Y14077376D01*
X47457631Y14388823D01*
X47146184Y14596924D01*
X46778808Y14670000D01*
X46741192Y14670000D01*
X46373816Y14596924D01*
X46062369Y14388823D01*
X45854268Y14077376D01*
X45781192Y13710000D01*
X45198808Y13710000D01*
X45125732Y14077376D01*
X44917631Y14388823D01*
X44606184Y14596924D01*
X44238808Y14670000D01*
X44201192Y14670000D01*
X43833816Y14596924D01*
X43522369Y14388823D01*
X43314268Y14077376D01*
X43241192Y13710000D01*
X42658808Y13710000D01*
X42585732Y14077376D01*
X42377631Y14388823D01*
X42066184Y14596924D01*
X41698808Y14670000D01*
X41661192Y14670000D01*
X41293816Y14596924D01*
X40982369Y14388823D01*
X40774268Y14077376D01*
X40701192Y13710000D01*
X40771486Y13356608D01*
X36034974Y8620096D01*
X36035087Y8749965D01*
X39245061Y11959939D01*
X39307925Y12054022D01*
X39330000Y12165000D01*
X39330000Y12784052D01*
X39526184Y12823076D01*
X39837631Y13031177D01*
X40045732Y13342624D01*
X40118808Y13710000D01*
X40045732Y14077376D01*
X39837631Y14388823D01*
X39526184Y14596924D01*
X39158808Y14670000D01*
X39121192Y14670000D01*
X38753816Y14596924D01*
X38442369Y14388823D01*
X38234268Y14077376D01*
X38161192Y13710000D01*
X38234268Y13342624D01*
X38442369Y13031177D01*
X38750000Y12825626D01*
X38750000Y12285122D01*
X36059996Y9595118D01*
X36060087Y9699961D01*
X36705061Y10344935D01*
X36767925Y10439018D01*
X36790000Y10549996D01*
X36790000Y12784052D01*
X36986184Y12823076D01*
X37297631Y13031177D01*
X37505732Y13342624D01*
X37578808Y13710000D01*
X37505732Y14077376D01*
X37297631Y14388823D01*
X36986184Y14596924D01*
X36618808Y14670000D01*
X36581192Y14670000D01*
X36213816Y14596924D01*
X35902369Y14388823D01*
X35694268Y14077376D01*
X35621192Y13710000D01*
X35694268Y13342624D01*
X35902369Y13031177D01*
X36210000Y12825626D01*
X36210000Y10670118D01*
X35649791Y10109909D01*
X35449000Y10110084D01*
X35261486Y10032605D01*
X35117896Y9889265D01*
X35040089Y9701886D01*
X35039913Y9500031D01*
X33945238Y8405356D01*
X33882374Y8311273D01*
X33860299Y8200295D01*
X33860299Y2345373D01*
X33882374Y2234395D01*
X33945238Y2140312D01*
X36315611Y-230061D01*
X36392972Y-281752D01*
X34285858Y-225210D01*
X29657360Y98287D01*
X25273677Y1069671D01*
X25261713Y1069931D01*
X25250310Y1073572D01*
X23934783Y1222500D01*
X22444126Y1520631D01*
X22441524Y1520634D01*
X22439102Y1521576D01*
X21613120Y1667338D01*
X21210669Y1833053D01*
X21187949Y1837523D01*
X21166465Y1846146D01*
X20811600Y1912683D01*
X20481143Y2132987D01*
X15951190Y5617567D01*
X15079391Y6537800D01*
X14695025Y7162393D01*
X13311965Y9730934D01*
X13025000Y10926621D01*
X13025000Y17000000D01*
X35635886Y17000000D01*
X35635886Y15500000D01*
X35650529Y15422179D01*
X35696521Y15350705D01*
X35766698Y15302755D01*
X35850000Y15285886D01*
X37350000Y15285886D01*
X37427821Y15300529D01*
X37499295Y15346521D01*
X37547245Y15416698D01*
X37564114Y15500000D01*
X37564114Y17000000D01*
X38175886Y17000000D01*
X38175886Y15500000D01*
X38190529Y15422179D01*
X38236521Y15350705D01*
X38306698Y15302755D01*
X38390000Y15285886D01*
X39890000Y15285886D01*
X39967821Y15300529D01*
X40039295Y15346521D01*
X40087245Y15416698D01*
X40104114Y15500000D01*
X40104114Y17000000D01*
X40715886Y17000000D01*
X40715886Y15500000D01*
X40730529Y15422179D01*
X40776521Y15350705D01*
X40846698Y15302755D01*
X40930000Y15285886D01*
X42430000Y15285886D01*
X42507821Y15300529D01*
X42579295Y15346521D01*
X42627245Y15416698D01*
X42644114Y15500000D01*
X42644114Y16137500D01*
X43220000Y16137500D01*
X43220000Y15450272D01*
X43258060Y15358386D01*
X43328386Y15288060D01*
X43420272Y15250000D01*
X44107500Y15250000D01*
X44170000Y15312500D01*
X44170000Y16200000D01*
X44270000Y16200000D01*
X44270000Y15312500D01*
X44332500Y15250000D01*
X45019728Y15250000D01*
X45111614Y15288060D01*
X45181940Y15358386D01*
X45220000Y15450272D01*
X45220000Y16137500D01*
X45760000Y16137500D01*
X45760000Y15450272D01*
X45798060Y15358386D01*
X45868386Y15288060D01*
X45960272Y15250000D01*
X46647500Y15250000D01*
X46710000Y15312500D01*
X46710000Y16200000D01*
X46810000Y16200000D01*
X46810000Y15312500D01*
X46872500Y15250000D01*
X47559728Y15250000D01*
X47651614Y15288060D01*
X47721940Y15358386D01*
X47760000Y15450272D01*
X47760000Y16137500D01*
X48300000Y16137500D01*
X48300000Y15450272D01*
X48338060Y15358386D01*
X48408386Y15288060D01*
X48500272Y15250000D01*
X49187500Y15250000D01*
X49250000Y15312500D01*
X49250000Y16200000D01*
X49350000Y16200000D01*
X49350000Y15312500D01*
X49412500Y15250000D01*
X50099728Y15250000D01*
X50191614Y15288060D01*
X50261940Y15358386D01*
X50300000Y15450272D01*
X50300000Y16137500D01*
X50840000Y16137500D01*
X50840000Y15450272D01*
X50878060Y15358386D01*
X50948386Y15288060D01*
X51040272Y15250000D01*
X51727500Y15250000D01*
X51790000Y15312500D01*
X51790000Y16200000D01*
X51890000Y16200000D01*
X51890000Y15312500D01*
X51952500Y15250000D01*
X52639728Y15250000D01*
X52731614Y15288060D01*
X52801940Y15358386D01*
X52840000Y15450272D01*
X52840000Y16137500D01*
X52777500Y16200000D01*
X51890000Y16200000D01*
X51790000Y16200000D01*
X50902500Y16200000D01*
X50840000Y16137500D01*
X50300000Y16137500D01*
X50237500Y16200000D01*
X49350000Y16200000D01*
X49250000Y16200000D01*
X48362500Y16200000D01*
X48300000Y16137500D01*
X47760000Y16137500D01*
X47697500Y16200000D01*
X46810000Y16200000D01*
X46710000Y16200000D01*
X45822500Y16200000D01*
X45760000Y16137500D01*
X45220000Y16137500D01*
X45157500Y16200000D01*
X44270000Y16200000D01*
X44170000Y16200000D01*
X43282500Y16200000D01*
X43220000Y16137500D01*
X42644114Y16137500D01*
X42644114Y17000000D01*
X42634758Y17049728D01*
X43220000Y17049728D01*
X43220000Y16362500D01*
X43282500Y16300000D01*
X44170000Y16300000D01*
X44170000Y17187500D01*
X44270000Y17187500D01*
X44270000Y16300000D01*
X45157500Y16300000D01*
X45220000Y16362500D01*
X45220000Y17049728D01*
X45760000Y17049728D01*
X45760000Y16362500D01*
X45822500Y16300000D01*
X46710000Y16300000D01*
X46710000Y17187500D01*
X46810000Y17187500D01*
X46810000Y16300000D01*
X47697500Y16300000D01*
X47760000Y16362500D01*
X47760000Y17049728D01*
X48300000Y17049728D01*
X48300000Y16362500D01*
X48362500Y16300000D01*
X49250000Y16300000D01*
X49250000Y17187500D01*
X49350000Y17187500D01*
X49350000Y16300000D01*
X50237500Y16300000D01*
X50300000Y16362500D01*
X50300000Y17049728D01*
X50840000Y17049728D01*
X50840000Y16362500D01*
X50902500Y16300000D01*
X51790000Y16300000D01*
X51790000Y17187500D01*
X51890000Y17187500D01*
X51890000Y16300000D01*
X52777500Y16300000D01*
X52840000Y16362500D01*
X52840000Y17049728D01*
X52801940Y17141614D01*
X52731614Y17211940D01*
X52639728Y17250000D01*
X51952500Y17250000D01*
X51890000Y17187500D01*
X51790000Y17187500D01*
X51727500Y17250000D01*
X51040272Y17250000D01*
X50948386Y17211940D01*
X50878060Y17141614D01*
X50840000Y17049728D01*
X50300000Y17049728D01*
X50261940Y17141614D01*
X50191614Y17211940D01*
X50099728Y17250000D01*
X49412500Y17250000D01*
X49350000Y17187500D01*
X49250000Y17187500D01*
X49187500Y17250000D01*
X48500272Y17250000D01*
X48408386Y17211940D01*
X48338060Y17141614D01*
X48300000Y17049728D01*
X47760000Y17049728D01*
X47721940Y17141614D01*
X47651614Y17211940D01*
X47559728Y17250000D01*
X46872500Y17250000D01*
X46810000Y17187500D01*
X46710000Y17187500D01*
X46647500Y17250000D01*
X45960272Y17250000D01*
X45868386Y17211940D01*
X45798060Y17141614D01*
X45760000Y17049728D01*
X45220000Y17049728D01*
X45181940Y17141614D01*
X45111614Y17211940D01*
X45019728Y17250000D01*
X44332500Y17250000D01*
X44270000Y17187500D01*
X44170000Y17187500D01*
X44107500Y17250000D01*
X43420272Y17250000D01*
X43328386Y17211940D01*
X43258060Y17141614D01*
X43220000Y17049728D01*
X42634758Y17049728D01*
X42629471Y17077821D01*
X42583479Y17149295D01*
X42513302Y17197245D01*
X42430000Y17214114D01*
X40930000Y17214114D01*
X40852179Y17199471D01*
X40780705Y17153479D01*
X40732755Y17083302D01*
X40715886Y17000000D01*
X40104114Y17000000D01*
X40089471Y17077821D01*
X40043479Y17149295D01*
X39973302Y17197245D01*
X39890000Y17214114D01*
X38390000Y17214114D01*
X38312179Y17199471D01*
X38240705Y17153479D01*
X38192755Y17083302D01*
X38175886Y17000000D01*
X37564114Y17000000D01*
X37549471Y17077821D01*
X37503479Y17149295D01*
X37433302Y17197245D01*
X37350000Y17214114D01*
X35850000Y17214114D01*
X35772179Y17199471D01*
X35700705Y17153479D01*
X35652755Y17083302D01*
X35635886Y17000000D01*
X13025000Y17000000D01*
X13025000Y21048850D01*
X13074989Y26047750D01*
X13074695Y26049308D01*
X13074998Y26050862D01*
X13064998Y28660862D01*
X13061995Y28675664D01*
X13062890Y28690743D01*
X13022890Y28980743D01*
X13013038Y29009188D01*
X13006807Y29038632D01*
X12998795Y29050312D01*
X12994158Y29063700D01*
X12974171Y29086210D01*
X12957147Y29111027D01*
X12945275Y29118752D01*
X12935868Y29129346D01*
X12908790Y29142492D01*
X12883563Y29158907D01*
X12633563Y29258907D01*
X12619695Y29261490D01*
X12607006Y29267659D01*
X12197307Y29374961D01*
X11807387Y29517615D01*
X11369600Y29726991D01*
X10650548Y30187184D01*
X9933356Y30885251D01*
X9369134Y31717240D01*
X8955630Y32717341D01*
X8832018Y33287861D01*
X8774784Y33745739D01*
X8765308Y34361684D01*
X8968165Y35491889D01*
X9156417Y36018994D01*
X9580394Y36818769D01*
X9969593Y37334458D01*
X9979025Y37353976D01*
X9992154Y37371214D01*
X9997936Y37393108D01*
X10007792Y37413503D01*
X10009037Y37435142D01*
X10014570Y37456095D01*
X10011533Y37478540D01*
X10012833Y37501149D01*
X10005704Y37521613D01*
X10002797Y37543093D01*
X9991401Y37562667D01*
X9983951Y37584052D01*
X9969531Y37600233D01*
X9958627Y37618962D01*
X9940613Y37632682D01*
X9925542Y37649593D01*
X9906024Y37659025D01*
X9888786Y37672154D01*
X9866892Y37677936D01*
X9846497Y37687792D01*
X9824858Y37689037D01*
X9803905Y37694570D01*
X3388825Y38091789D01*
X-347437Y39927471D01*
X-336873Y39940494D01*
X21740855Y39940494D01*
X21745439Y39903158D01*
X21862739Y39547425D01*
X22107243Y39263659D01*
X22335992Y39148358D01*
X22335992Y39052656D01*
X22363395Y38914890D01*
X22441434Y38798098D01*
X31794090Y29445442D01*
X36494090Y24745441D01*
X36610882Y24667403D01*
X36748648Y24640000D01*
X50938753Y24640000D01*
X51010731Y24567896D01*
X51198110Y24490089D01*
X51399965Y24489913D01*
X52960409Y22929469D01*
X52826890Y22984911D01*
X52624000Y22985088D01*
X52436486Y22907609D01*
X52292896Y22764269D01*
X52215089Y22576890D01*
X52214912Y22374000D01*
X52292391Y22186486D01*
X52435731Y22042896D01*
X52623110Y21965089D01*
X52824965Y21964913D01*
X53885000Y20904878D01*
X53885000Y19831126D01*
X53742896Y19689269D01*
X53665089Y19501890D01*
X53664913Y19300033D01*
X52949938Y18585058D01*
X52887074Y18490975D01*
X52864999Y18379997D01*
X52864999Y14604049D01*
X52887074Y14493071D01*
X52949938Y14398988D01*
X53440635Y13908291D01*
X53401192Y13710000D01*
X53474268Y13342624D01*
X53682369Y13031177D01*
X53993816Y12823076D01*
X54361192Y12750000D01*
X54398808Y12750000D01*
X54766184Y12823076D01*
X55077631Y13031177D01*
X55285732Y13342624D01*
X55358808Y13710000D01*
X55941192Y13710000D01*
X56014268Y13342624D01*
X56222369Y13031177D01*
X56533816Y12823076D01*
X56901192Y12750000D01*
X56938808Y12750000D01*
X57306184Y12823076D01*
X57617631Y13031177D01*
X57825732Y13342624D01*
X57898808Y13710000D01*
X58481192Y13710000D01*
X58554268Y13342624D01*
X58762369Y13031177D01*
X59073816Y12823076D01*
X59441192Y12750000D01*
X59478808Y12750000D01*
X59846184Y12823076D01*
X60157631Y13031177D01*
X60365732Y13342624D01*
X60438808Y13710000D01*
X60365732Y14077376D01*
X60157631Y14388823D01*
X59846184Y14596924D01*
X59478808Y14670000D01*
X59441192Y14670000D01*
X59073816Y14596924D01*
X58762369Y14388823D01*
X58554268Y14077376D01*
X58481192Y13710000D01*
X57898808Y13710000D01*
X57825732Y14077376D01*
X57617631Y14388823D01*
X57306184Y14596924D01*
X56938808Y14670000D01*
X56901192Y14670000D01*
X56533816Y14596924D01*
X56222369Y14388823D01*
X56014268Y14077376D01*
X55941192Y13710000D01*
X55358808Y13710000D01*
X55285732Y14077376D01*
X55077631Y14388823D01*
X54766184Y14596924D01*
X54398808Y14670000D01*
X54361192Y14670000D01*
X53993816Y14596924D01*
X53741103Y14428067D01*
X53444999Y14724171D01*
X53444999Y15399692D01*
X53476521Y15350705D01*
X53546698Y15302755D01*
X53630000Y15285886D01*
X55130000Y15285886D01*
X55207821Y15300529D01*
X55279295Y15346521D01*
X55327245Y15416698D01*
X55344114Y15500000D01*
X55344114Y17000000D01*
X55329471Y17077821D01*
X55283479Y17149295D01*
X55213302Y17197245D01*
X55130000Y17214114D01*
X53630000Y17214114D01*
X53552179Y17199471D01*
X53480705Y17153479D01*
X53444999Y17101222D01*
X53444999Y18259875D01*
X54075211Y18890087D01*
X54276000Y18889912D01*
X54463514Y18967391D01*
X54607104Y19110731D01*
X54684911Y19298110D01*
X54685088Y19501000D01*
X54607609Y19688514D01*
X54465000Y19831372D01*
X54465000Y21025000D01*
X54442925Y21135978D01*
X54380061Y21230061D01*
X53234913Y22375209D01*
X53235088Y22576000D01*
X53179610Y22710268D01*
X56530000Y19359878D01*
X56530000Y17214114D01*
X56170000Y17214114D01*
X56092179Y17199471D01*
X56020705Y17153479D01*
X55972755Y17083302D01*
X55955886Y17000000D01*
X55955886Y15500000D01*
X55970529Y15422179D01*
X56016521Y15350705D01*
X56086698Y15302755D01*
X56170000Y15285886D01*
X57670000Y15285886D01*
X57747821Y15300529D01*
X57819295Y15346521D01*
X57867245Y15416698D01*
X57884114Y15500000D01*
X57884114Y17000000D01*
X58495886Y17000000D01*
X58495886Y15500000D01*
X58510529Y15422179D01*
X58556521Y15350705D01*
X58626698Y15302755D01*
X58710000Y15285886D01*
X60210000Y15285886D01*
X60287821Y15300529D01*
X60359295Y15346521D01*
X60407245Y15416698D01*
X60424114Y15500000D01*
X60424114Y17000000D01*
X61035886Y17000000D01*
X61035886Y15500000D01*
X61050529Y15422179D01*
X61096521Y15350705D01*
X61166698Y15302755D01*
X61250000Y15285886D01*
X62750000Y15285886D01*
X62827821Y15300529D01*
X62899295Y15346521D01*
X62947245Y15416698D01*
X62964114Y15500000D01*
X62964114Y17000000D01*
X62949471Y17077821D01*
X62903479Y17149295D01*
X62833302Y17197245D01*
X62750000Y17214114D01*
X61250000Y17214114D01*
X61172179Y17199471D01*
X61100705Y17153479D01*
X61052755Y17083302D01*
X61035886Y17000000D01*
X60424114Y17000000D01*
X60409471Y17077821D01*
X60363479Y17149295D01*
X60293302Y17197245D01*
X60210000Y17214114D01*
X58710000Y17214114D01*
X58632179Y17199471D01*
X58560705Y17153479D01*
X58512755Y17083302D01*
X58495886Y17000000D01*
X57884114Y17000000D01*
X57869471Y17077821D01*
X57823479Y17149295D01*
X57753302Y17197245D01*
X57670000Y17214114D01*
X57110000Y17214114D01*
X57110000Y19480000D01*
X57087925Y19590978D01*
X57025061Y19685061D01*
X51809913Y24900209D01*
X51810088Y25101000D01*
X51732609Y25288514D01*
X51589269Y25432104D01*
X51401890Y25509911D01*
X51199000Y25510088D01*
X51011486Y25432609D01*
X50938750Y25360000D01*
X36897765Y25360000D01*
X33958765Y28299000D01*
X34889910Y28299000D01*
X34967389Y28111486D01*
X35110729Y27967896D01*
X35298108Y27890089D01*
X35500998Y27889912D01*
X35688512Y27967391D01*
X35831370Y28110000D01*
X62325000Y28110000D01*
X62435978Y28132075D01*
X62530061Y28194939D01*
X65975209Y31640087D01*
X66176000Y31639912D01*
X66363514Y31717391D01*
X66507104Y31860731D01*
X66584911Y32048110D01*
X66585088Y32251000D01*
X66507609Y32438514D01*
X66364269Y32582104D01*
X66176890Y32659911D01*
X65974000Y32660088D01*
X65786486Y32582609D01*
X65642896Y32439269D01*
X65565089Y32251890D01*
X65564913Y32050035D01*
X62204878Y28690000D01*
X35831124Y28690000D01*
X35689267Y28832104D01*
X35501888Y28909911D01*
X35298998Y28910088D01*
X35111484Y28832609D01*
X34967894Y28689269D01*
X34890087Y28501890D01*
X34889910Y28299000D01*
X33958765Y28299000D01*
X32897764Y29360000D01*
X34993874Y29360000D01*
X35135731Y29217896D01*
X35323110Y29140089D01*
X35526000Y29139912D01*
X35713514Y29217391D01*
X35857104Y29360731D01*
X35934911Y29548110D01*
X35935088Y29751000D01*
X35857609Y29938514D01*
X35714269Y30082104D01*
X35526890Y30159911D01*
X35324000Y30160088D01*
X35136486Y30082609D01*
X34993628Y29940000D01*
X32317764Y29940000D01*
X25026913Y37230851D01*
X25047039Y37217403D01*
X25184805Y37190000D01*
X50975736Y37190000D01*
X50986560Y37192153D01*
X51035731Y37142896D01*
X51223110Y37065089D01*
X51426000Y37064912D01*
X51613514Y37142391D01*
X51757104Y37285731D01*
X51834911Y37473110D01*
X51835088Y37676000D01*
X51757609Y37863514D01*
X51614269Y38007104D01*
X51426890Y38084911D01*
X51225035Y38085087D01*
X51040000Y38270122D01*
X51040000Y38878696D01*
X77026258Y38878696D01*
X77172143Y38809853D01*
X77532467Y38889728D01*
X77854474Y39110079D01*
X78067644Y39436883D01*
X78052930Y39597503D01*
X77180139Y39751399D01*
X77026258Y38878696D01*
X51040000Y38878696D01*
X51040000Y39829876D01*
X51225211Y40015087D01*
X51426002Y40014912D01*
X51613516Y40092391D01*
X51757106Y40235731D01*
X51834913Y40423110D01*
X51835090Y40626000D01*
X51757611Y40813514D01*
X51614271Y40957104D01*
X51426892Y41034911D01*
X51224002Y41035088D01*
X51036488Y40957609D01*
X50892898Y40814269D01*
X50815091Y40626890D01*
X50814915Y40425035D01*
X50544939Y40155059D01*
X50482075Y40060976D01*
X50460000Y39949998D01*
X50460000Y38150000D01*
X50482075Y38039022D01*
X50544939Y37944939D01*
X50579878Y37910000D01*
X25333922Y37910000D01*
X23575432Y39668490D01*
X23623367Y39763590D01*
X23651129Y40137133D01*
X23646545Y40174468D01*
X23621626Y40250042D01*
X24261922Y40250042D01*
X24266506Y40212706D01*
X24383806Y39856973D01*
X24628310Y39573207D01*
X24962795Y39404610D01*
X25336338Y39376848D01*
X25692071Y39494149D01*
X25975837Y39738652D01*
X26144434Y40073138D01*
X26172196Y40446681D01*
X26167612Y40484016D01*
X26142693Y40559590D01*
X26782989Y40559590D01*
X26787573Y40522254D01*
X26904873Y40166521D01*
X27149377Y39882755D01*
X27483862Y39714158D01*
X27857405Y39686396D01*
X28213138Y39803697D01*
X28496904Y40048200D01*
X28665501Y40382686D01*
X28693263Y40756229D01*
X28688679Y40793564D01*
X28663760Y40869138D01*
X29304056Y40869138D01*
X29308640Y40831802D01*
X29425940Y40476069D01*
X29670444Y40192303D01*
X30004929Y40023706D01*
X30378472Y39995944D01*
X30734205Y40113245D01*
X31017971Y40357748D01*
X31186568Y40692234D01*
X31214330Y41065777D01*
X31209746Y41103112D01*
X31184827Y41178686D01*
X31825123Y41178686D01*
X31829707Y41141350D01*
X31947007Y40785617D01*
X32191511Y40501851D01*
X32525996Y40333254D01*
X32899539Y40305492D01*
X33255272Y40422793D01*
X33539038Y40667296D01*
X33707635Y41001782D01*
X33735397Y41375325D01*
X33730813Y41412660D01*
X33705893Y41488235D01*
X34346191Y41488235D01*
X34350775Y41450899D01*
X34468075Y41095166D01*
X34712579Y40811400D01*
X35047064Y40642803D01*
X35420607Y40615041D01*
X35776340Y40732342D01*
X36060106Y40976845D01*
X36228703Y41311331D01*
X36256465Y41684874D01*
X36251881Y41722209D01*
X36226962Y41797783D01*
X36867258Y41797783D01*
X36871842Y41760447D01*
X36989142Y41404714D01*
X37233646Y41120948D01*
X37568131Y40952351D01*
X37941674Y40924589D01*
X38297407Y41041890D01*
X38581173Y41286393D01*
X38749770Y41620879D01*
X38777532Y41994422D01*
X38772948Y42031757D01*
X38748029Y42107331D01*
X39388325Y42107331D01*
X39392909Y42069995D01*
X39510209Y41714262D01*
X39754713Y41430496D01*
X40089198Y41261899D01*
X40462741Y41234137D01*
X40818474Y41351438D01*
X41102240Y41595941D01*
X41270837Y41930427D01*
X41298599Y42303970D01*
X41295944Y42325597D01*
X58549996Y42325597D01*
X58550903Y42246416D01*
X58583785Y42168041D01*
X58644569Y42108634D01*
X58723677Y42077556D01*
X60200889Y41817084D01*
X60280070Y41817991D01*
X60358445Y41850873D01*
X60417852Y41911657D01*
X60448930Y41990765D01*
X60557042Y42603905D01*
X61182430Y42603905D01*
X61190600Y42229421D01*
X61341456Y41886568D01*
X61612034Y41627545D01*
X61961139Y41491784D01*
X62335623Y41499954D01*
X62678476Y41650810D01*
X62937499Y41921388D01*
X63031394Y42162838D01*
X63683841Y42162838D01*
X63692011Y41788354D01*
X63842867Y41445501D01*
X64113445Y41186478D01*
X64462550Y41050717D01*
X64837034Y41058887D01*
X65179887Y41209743D01*
X65438910Y41480321D01*
X65532806Y41721772D01*
X66185253Y41721772D01*
X66193423Y41347288D01*
X66344279Y41004435D01*
X66614857Y40745412D01*
X66963962Y40609651D01*
X67338446Y40617821D01*
X67681299Y40768677D01*
X67940322Y41039255D01*
X68034218Y41280706D01*
X68686665Y41280706D01*
X68694835Y40906222D01*
X68845691Y40563369D01*
X69116269Y40304346D01*
X69465374Y40168585D01*
X69839858Y40176755D01*
X70182711Y40327611D01*
X70441734Y40598189D01*
X70535629Y40839639D01*
X71188076Y40839639D01*
X71196246Y40465155D01*
X71347102Y40122302D01*
X71617680Y39863279D01*
X71966785Y39727518D01*
X72341269Y39735688D01*
X72684122Y39886544D01*
X72943145Y40157122D01*
X73037041Y40398573D01*
X73689488Y40398573D01*
X73697658Y40024089D01*
X73848514Y39681236D01*
X74119092Y39422213D01*
X74468197Y39286452D01*
X74842681Y39294622D01*
X75185534Y39445478D01*
X75444557Y39716056D01*
X75468163Y39776760D01*
X76140105Y39776760D01*
X76228647Y39396756D01*
X76455869Y39079562D01*
X76767144Y38881265D01*
X76927777Y38896061D01*
X77081658Y39768764D01*
X76621628Y39849880D01*
X77197504Y39849880D01*
X78070295Y39695983D01*
X78139057Y39841884D01*
X78050515Y40221888D01*
X77823293Y40539082D01*
X77512018Y40737379D01*
X77351385Y40722583D01*
X77197504Y39849880D01*
X76621628Y39849880D01*
X76208867Y39922661D01*
X76140105Y39776760D01*
X75468163Y39776760D01*
X75580318Y40065161D01*
X75586850Y40102205D01*
X75585115Y40181761D01*
X76211518Y40181761D01*
X76226232Y40021141D01*
X77099023Y39867245D01*
X77252904Y40739948D01*
X77107019Y40808791D01*
X76746695Y40728916D01*
X76424688Y40508565D01*
X76211518Y40181761D01*
X75585115Y40181761D01*
X75578679Y40476689D01*
X75427824Y40819541D01*
X75157245Y41078564D01*
X74808141Y41214325D01*
X74433656Y41206155D01*
X74090804Y41055299D01*
X73831781Y40784721D01*
X73696020Y40435616D01*
X73689488Y40398573D01*
X73037041Y40398573D01*
X73078906Y40506227D01*
X73085438Y40543271D01*
X73077267Y40917755D01*
X72926412Y41260607D01*
X72801580Y41380108D01*
X77467324Y41380108D01*
X77613209Y41311265D01*
X77973533Y41391140D01*
X78295540Y41611491D01*
X78508710Y41938295D01*
X78493996Y42098915D01*
X77621205Y42252811D01*
X77467324Y41380108D01*
X72801580Y41380108D01*
X72655833Y41519630D01*
X72306729Y41655391D01*
X71932244Y41647221D01*
X71589392Y41496365D01*
X71330369Y41225787D01*
X71194608Y40876682D01*
X71188076Y40839639D01*
X70535629Y40839639D01*
X70577495Y40947294D01*
X70584027Y40984338D01*
X70575856Y41358822D01*
X70425001Y41701674D01*
X70154422Y41960697D01*
X69805318Y42096458D01*
X69430833Y42088288D01*
X69087981Y41937432D01*
X68828958Y41666854D01*
X68693197Y41317749D01*
X68686665Y41280706D01*
X68034218Y41280706D01*
X68076083Y41388360D01*
X68082615Y41425404D01*
X68074444Y41799888D01*
X67923589Y42142740D01*
X67653010Y42401763D01*
X67303906Y42537524D01*
X66929421Y42529354D01*
X66586569Y42378498D01*
X66327546Y42107920D01*
X66191785Y41758815D01*
X66185253Y41721772D01*
X65532806Y41721772D01*
X65574671Y41829426D01*
X65581203Y41866470D01*
X65573032Y42240954D01*
X65422177Y42583806D01*
X65151598Y42842829D01*
X64802494Y42978590D01*
X64428009Y42970420D01*
X64085157Y42819564D01*
X63826134Y42548986D01*
X63690373Y42199881D01*
X63683841Y42162838D01*
X63031394Y42162838D01*
X63073260Y42270493D01*
X63079792Y42307537D01*
X63071621Y42682021D01*
X62920766Y43024873D01*
X62650187Y43283896D01*
X62301083Y43419657D01*
X61926598Y43411487D01*
X61583746Y43260631D01*
X61324723Y42990053D01*
X61188962Y42640948D01*
X61182430Y42603905D01*
X60557042Y42603905D01*
X60709402Y43467977D01*
X60708495Y43547158D01*
X60675613Y43625533D01*
X60614829Y43684940D01*
X60535721Y43716018D01*
X59058509Y43976490D01*
X58979328Y43975583D01*
X58900953Y43942701D01*
X58841546Y43881917D01*
X58810468Y43802809D01*
X58549996Y42325597D01*
X41295944Y42325597D01*
X41294015Y42341305D01*
X41176715Y42697038D01*
X40932211Y42980804D01*
X40597726Y43149401D01*
X40224183Y43177163D01*
X39868450Y43059863D01*
X39584684Y42815359D01*
X39416087Y42480874D01*
X39388325Y42107331D01*
X38748029Y42107331D01*
X38655648Y42387490D01*
X38411144Y42671256D01*
X38076659Y42839853D01*
X37703116Y42867615D01*
X37347383Y42750315D01*
X37063617Y42505811D01*
X36895020Y42171326D01*
X36867258Y41797783D01*
X36226962Y41797783D01*
X36134581Y42077942D01*
X35890077Y42361708D01*
X35555592Y42530305D01*
X35182049Y42558067D01*
X34826316Y42440767D01*
X34542550Y42196263D01*
X34373953Y41861778D01*
X34346191Y41488235D01*
X33705893Y41488235D01*
X33613513Y41768393D01*
X33369009Y42052159D01*
X33034524Y42220756D01*
X32660981Y42248518D01*
X32305248Y42131218D01*
X32021482Y41886714D01*
X31852885Y41552229D01*
X31825123Y41178686D01*
X31184827Y41178686D01*
X31092446Y41458845D01*
X30847942Y41742611D01*
X30513457Y41911208D01*
X30139914Y41938970D01*
X29784181Y41821670D01*
X29500415Y41577166D01*
X29331818Y41242681D01*
X29304056Y40869138D01*
X28663760Y40869138D01*
X28571379Y41149297D01*
X28326875Y41433063D01*
X27992390Y41601660D01*
X27618847Y41629422D01*
X27263114Y41512122D01*
X26979348Y41267618D01*
X26810751Y40933133D01*
X26782989Y40559590D01*
X26142693Y40559590D01*
X26050312Y40839749D01*
X25805808Y41123515D01*
X25471323Y41292112D01*
X25097780Y41319874D01*
X24742047Y41202574D01*
X24458281Y40958070D01*
X24289684Y40623585D01*
X24261922Y40250042D01*
X23621626Y40250042D01*
X23529245Y40530201D01*
X23284741Y40813967D01*
X22950256Y40982564D01*
X22576713Y41010326D01*
X22220980Y40893026D01*
X21937214Y40648522D01*
X21768617Y40314037D01*
X21740855Y39940494D01*
X-336873Y39940494D01*
X1708188Y42461561D01*
X21431306Y42461561D01*
X21435890Y42424225D01*
X21553190Y42068492D01*
X21797694Y41784726D01*
X22132179Y41616129D01*
X22505722Y41588367D01*
X22861455Y41705668D01*
X23145221Y41950171D01*
X23313818Y42284657D01*
X23341580Y42658200D01*
X23336996Y42695535D01*
X23312077Y42771109D01*
X23952374Y42771109D01*
X23956958Y42733773D01*
X24074258Y42378040D01*
X24318762Y42094274D01*
X24653247Y41925677D01*
X25026790Y41897915D01*
X25382523Y42015216D01*
X25666289Y42259719D01*
X25834886Y42594205D01*
X25862648Y42967748D01*
X25858064Y43005083D01*
X25833145Y43080657D01*
X26473441Y43080657D01*
X26478025Y43043321D01*
X26595325Y42687588D01*
X26839829Y42403822D01*
X27174314Y42235225D01*
X27547857Y42207463D01*
X27903590Y42324764D01*
X28187356Y42569267D01*
X28355953Y42903753D01*
X28383715Y43277296D01*
X28379131Y43314631D01*
X28354212Y43390205D01*
X28994508Y43390205D01*
X28999092Y43352869D01*
X29116392Y42997136D01*
X29360896Y42713370D01*
X29695381Y42544773D01*
X30068924Y42517011D01*
X30424657Y42634312D01*
X30708423Y42878815D01*
X30877020Y43213301D01*
X30904782Y43586844D01*
X30900198Y43624179D01*
X30875278Y43699754D01*
X31515575Y43699754D01*
X31520159Y43662418D01*
X31637459Y43306685D01*
X31881963Y43022919D01*
X32216448Y42854322D01*
X32589991Y42826560D01*
X32945724Y42943861D01*
X33229490Y43188364D01*
X33398087Y43522850D01*
X33425849Y43896393D01*
X33421265Y43933728D01*
X33396346Y44009302D01*
X34036643Y44009302D01*
X34041227Y43971966D01*
X34158527Y43616233D01*
X34403031Y43332467D01*
X34737516Y43163870D01*
X35111059Y43136108D01*
X35466792Y43253409D01*
X35750558Y43497912D01*
X35919155Y43832398D01*
X35946917Y44205941D01*
X35942333Y44243276D01*
X35917414Y44318850D01*
X36557710Y44318850D01*
X36562294Y44281514D01*
X36679594Y43925781D01*
X36924098Y43642015D01*
X37258583Y43473418D01*
X37632126Y43445656D01*
X37810206Y43504377D01*
X43771369Y43504377D01*
X43912601Y43163397D01*
X44185520Y42884546D01*
X44544376Y42731363D01*
X44700000Y42773745D01*
X44700000Y43660000D01*
X44800000Y43660000D01*
X44800000Y42773745D01*
X44955624Y42731363D01*
X45314480Y42884546D01*
X45587399Y43163397D01*
X45728631Y43504377D01*
X45703221Y43597500D01*
X46290000Y43597500D01*
X46290000Y42910272D01*
X46328060Y42818386D01*
X46398386Y42748060D01*
X46490272Y42710000D01*
X47177500Y42710000D01*
X47240000Y42772500D01*
X47240000Y43660000D01*
X47340000Y43660000D01*
X47340000Y42772500D01*
X47402500Y42710000D01*
X48089728Y42710000D01*
X48181614Y42748060D01*
X48251940Y42818386D01*
X48290000Y42910272D01*
X48290000Y43597500D01*
X48227500Y43660000D01*
X47340000Y43660000D01*
X47240000Y43660000D01*
X46352500Y43660000D01*
X46290000Y43597500D01*
X45703221Y43597500D01*
X45686166Y43660000D01*
X44800000Y43660000D01*
X44700000Y43660000D01*
X43813834Y43660000D01*
X43771369Y43504377D01*
X37810206Y43504377D01*
X37987859Y43562957D01*
X38271625Y43807460D01*
X38440222Y44141946D01*
X38467984Y44515489D01*
X38463400Y44552824D01*
X38346100Y44908557D01*
X38101596Y45192323D01*
X37781572Y45353631D01*
X38985584Y45353631D01*
X39168388Y43864811D01*
X39192406Y43789354D01*
X39246766Y43724018D01*
X39322263Y43684978D01*
X39407000Y43678387D01*
X40895820Y43861191D01*
X40971277Y43885209D01*
X41007831Y43915623D01*
X43771369Y43915623D01*
X43813834Y43760000D01*
X44700000Y43760000D01*
X44700000Y44646255D01*
X44800000Y44646255D01*
X44800000Y43760000D01*
X45686166Y43760000D01*
X45728631Y43915623D01*
X45587399Y44256603D01*
X45339659Y44509728D01*
X46290000Y44509728D01*
X46290000Y43822500D01*
X46352500Y43760000D01*
X47240000Y43760000D01*
X47240000Y44647500D01*
X47340000Y44647500D01*
X47340000Y43760000D01*
X48227500Y43760000D01*
X48290000Y43822500D01*
X48290000Y44509728D01*
X48251940Y44601614D01*
X48181614Y44671940D01*
X48089728Y44710000D01*
X47402500Y44710000D01*
X47340000Y44647500D01*
X47240000Y44647500D01*
X47177500Y44710000D01*
X46490272Y44710000D01*
X46398386Y44671940D01*
X46328060Y44601614D01*
X46290000Y44509728D01*
X45339659Y44509728D01*
X45314480Y44535454D01*
X44955624Y44688637D01*
X44800000Y44646255D01*
X44700000Y44646255D01*
X44544376Y44688637D01*
X44185520Y44535454D01*
X43912601Y44256603D01*
X43771369Y43915623D01*
X41007831Y43915623D01*
X41036613Y43939569D01*
X41075653Y44015066D01*
X41082244Y44099803D01*
X40899440Y45588623D01*
X40875422Y45664080D01*
X40821062Y45729416D01*
X40745565Y45768456D01*
X40660828Y45775047D01*
X39172008Y45592243D01*
X39096551Y45568225D01*
X39031215Y45513865D01*
X38992175Y45438368D01*
X38985584Y45353631D01*
X37781572Y45353631D01*
X37767111Y45360920D01*
X37393568Y45388682D01*
X37037835Y45271382D01*
X36754069Y45026878D01*
X36585472Y44692393D01*
X36557710Y44318850D01*
X35917414Y44318850D01*
X35825033Y44599009D01*
X35580529Y44882775D01*
X35246044Y45051372D01*
X34872501Y45079134D01*
X34516768Y44961834D01*
X34233002Y44717330D01*
X34064405Y44382845D01*
X34036643Y44009302D01*
X33396346Y44009302D01*
X33303965Y44289461D01*
X33059461Y44573227D01*
X32724976Y44741824D01*
X32351433Y44769586D01*
X31995700Y44652286D01*
X31711934Y44407782D01*
X31543337Y44073297D01*
X31515575Y43699754D01*
X30875278Y43699754D01*
X30782898Y43979912D01*
X30538394Y44263678D01*
X30203909Y44432275D01*
X29830366Y44460037D01*
X29474633Y44342737D01*
X29190867Y44098233D01*
X29022270Y43763748D01*
X28994508Y43390205D01*
X28354212Y43390205D01*
X28261831Y43670364D01*
X28017327Y43954130D01*
X27682842Y44122727D01*
X27309299Y44150489D01*
X26953566Y44033189D01*
X26669800Y43788685D01*
X26501203Y43454200D01*
X26473441Y43080657D01*
X25833145Y43080657D01*
X25740764Y43360816D01*
X25496260Y43644582D01*
X25161775Y43813179D01*
X24788232Y43840941D01*
X24432499Y43723641D01*
X24148733Y43479137D01*
X23980136Y43144652D01*
X23952374Y42771109D01*
X23312077Y42771109D01*
X23219696Y43051268D01*
X22975192Y43335034D01*
X22640707Y43503631D01*
X22267164Y43531393D01*
X21911431Y43414093D01*
X21627665Y43169589D01*
X21459068Y42835104D01*
X21431306Y42461561D01*
X1708188Y42461561D01*
X2374738Y43283255D01*
X2391406Y43314870D01*
X2410360Y43345165D01*
X2411754Y43353465D01*
X2415681Y43360914D01*
X2418982Y43396508D01*
X2424899Y43431743D01*
X2423010Y43439945D01*
X2423788Y43448329D01*
X2413217Y43482474D01*
X2405199Y43517295D01*
X2400315Y43524151D01*
X2397825Y43532193D01*
X2374993Y43559693D01*
X2354260Y43588795D01*
X-471455Y46250000D01*
X43771192Y46250000D01*
X43844268Y45882624D01*
X44052369Y45571177D01*
X44363816Y45363076D01*
X44731192Y45290000D01*
X44768808Y45290000D01*
X45136184Y45363076D01*
X45447631Y45571177D01*
X45655732Y45882624D01*
X45728808Y46250000D01*
X46311192Y46250000D01*
X46384268Y45882624D01*
X46592369Y45571177D01*
X46903816Y45363076D01*
X47271192Y45290000D01*
X47308808Y45290000D01*
X47676184Y45363076D01*
X47950523Y45546383D01*
X59122084Y45546383D01*
X59130254Y45171899D01*
X59281110Y44829046D01*
X59551688Y44570023D01*
X59900793Y44434262D01*
X60275277Y44442432D01*
X60618130Y44593288D01*
X60877153Y44863866D01*
X60971048Y45105316D01*
X61623496Y45105316D01*
X61631666Y44730832D01*
X61782522Y44387979D01*
X62053100Y44128956D01*
X62402205Y43993195D01*
X62776689Y44001365D01*
X63119542Y44152221D01*
X63378565Y44422799D01*
X63472461Y44664250D01*
X64124908Y44664250D01*
X64133078Y44289766D01*
X64283934Y43946913D01*
X64554512Y43687890D01*
X64903617Y43552129D01*
X65278101Y43560299D01*
X65620954Y43711155D01*
X65879977Y43981733D01*
X65973873Y44223184D01*
X66626319Y44223184D01*
X66634489Y43848700D01*
X66785345Y43505847D01*
X67055923Y43246824D01*
X67405028Y43111063D01*
X67779512Y43119233D01*
X68122365Y43270089D01*
X68381388Y43540667D01*
X68475283Y43782117D01*
X69127731Y43782117D01*
X69135901Y43407633D01*
X69286757Y43064780D01*
X69557335Y42805757D01*
X69906440Y42669996D01*
X70280924Y42678166D01*
X70623777Y42829022D01*
X70882800Y43099600D01*
X70976696Y43341051D01*
X71629143Y43341051D01*
X71637313Y42966567D01*
X71788169Y42623714D01*
X72058747Y42364691D01*
X72407852Y42228930D01*
X72782336Y42237100D01*
X73125189Y42387956D01*
X73384212Y42658534D01*
X73478107Y42899984D01*
X74130555Y42899984D01*
X74138725Y42525500D01*
X74289581Y42182647D01*
X74560159Y41923624D01*
X74909264Y41787863D01*
X75283748Y41796033D01*
X75626601Y41946889D01*
X75885624Y42217467D01*
X75909231Y42278172D01*
X76581171Y42278172D01*
X76669713Y41898168D01*
X76896935Y41580974D01*
X77208210Y41382677D01*
X77368843Y41397473D01*
X77522724Y42270176D01*
X77062694Y42351292D01*
X77638570Y42351292D01*
X78511361Y42197395D01*
X78580123Y42343296D01*
X78491581Y42723300D01*
X78264359Y43040494D01*
X77953084Y43238791D01*
X77792451Y43223995D01*
X77638570Y42351292D01*
X77062694Y42351292D01*
X76649933Y42424073D01*
X76581171Y42278172D01*
X75909231Y42278172D01*
X76021385Y42566572D01*
X76027917Y42603616D01*
X76026182Y42683173D01*
X76652584Y42683173D01*
X76667298Y42522553D01*
X77540089Y42368657D01*
X77693970Y43241360D01*
X77548085Y43310203D01*
X77187761Y43230328D01*
X76865754Y43009977D01*
X76652584Y42683173D01*
X76026182Y42683173D01*
X76019746Y42978100D01*
X75868891Y43320952D01*
X75598312Y43579975D01*
X75249208Y43715736D01*
X74874723Y43707566D01*
X74531871Y43556710D01*
X74272848Y43286132D01*
X74137087Y42937027D01*
X74130555Y42899984D01*
X73478107Y42899984D01*
X73519973Y43007639D01*
X73526505Y43044683D01*
X73518334Y43419167D01*
X73367479Y43762019D01*
X73096900Y44021042D01*
X72747796Y44156803D01*
X72373311Y44148633D01*
X72030459Y43997777D01*
X71771436Y43727199D01*
X71635675Y43378094D01*
X71629143Y43341051D01*
X70976696Y43341051D01*
X71018561Y43448705D01*
X71025093Y43485749D01*
X71016922Y43860233D01*
X70866067Y44203085D01*
X70595488Y44462108D01*
X70246384Y44597869D01*
X69871899Y44589699D01*
X69529047Y44438843D01*
X69270024Y44168265D01*
X69134263Y43819160D01*
X69127731Y43782117D01*
X68475283Y43782117D01*
X68517149Y43889772D01*
X68523681Y43926816D01*
X68515510Y44301300D01*
X68364655Y44644152D01*
X68094076Y44903175D01*
X67744972Y45038936D01*
X67370487Y45030766D01*
X67027635Y44879910D01*
X66768612Y44609332D01*
X66632851Y44260227D01*
X66626319Y44223184D01*
X65973873Y44223184D01*
X66015738Y44330838D01*
X66022270Y44367882D01*
X66014099Y44742366D01*
X65863244Y45085218D01*
X65592665Y45344241D01*
X65243561Y45480002D01*
X64869076Y45471832D01*
X64526224Y45320976D01*
X64267201Y45050398D01*
X64131440Y44701293D01*
X64124908Y44664250D01*
X63472461Y44664250D01*
X63514326Y44771904D01*
X63520858Y44808948D01*
X63512687Y45183432D01*
X63361832Y45526284D01*
X63091253Y45785307D01*
X62742149Y45921068D01*
X62367664Y45912898D01*
X62024812Y45762042D01*
X61765789Y45491464D01*
X61630028Y45142359D01*
X61623496Y45105316D01*
X60971048Y45105316D01*
X61012914Y45212971D01*
X61019446Y45250015D01*
X61011275Y45624499D01*
X60860420Y45967351D01*
X60589841Y46226374D01*
X60240737Y46362135D01*
X59866252Y46353965D01*
X59523400Y46203109D01*
X59264377Y45932531D01*
X59128616Y45583426D01*
X59122084Y45546383D01*
X47950523Y45546383D01*
X47987631Y45571177D01*
X48195732Y45882624D01*
X48268808Y46250000D01*
X48195732Y46617376D01*
X47987631Y46928823D01*
X47676184Y47136924D01*
X47308808Y47210000D01*
X47271192Y47210000D01*
X46903816Y47136924D01*
X46592369Y46928823D01*
X46384268Y46617376D01*
X46311192Y46250000D01*
X45728808Y46250000D01*
X45655732Y46617376D01*
X45447631Y46928823D01*
X45136184Y47136924D01*
X44768808Y47210000D01*
X44731192Y47210000D01*
X44363816Y47136924D01*
X44052369Y46928823D01*
X43844268Y46617376D01*
X43771192Y46250000D01*
X-471455Y46250000D01*
X-3168473Y48790000D01*
X43771192Y48790000D01*
X43844268Y48422624D01*
X44052369Y48111177D01*
X44363816Y47903076D01*
X44731192Y47830000D01*
X44768808Y47830000D01*
X45136184Y47903076D01*
X45447631Y48111177D01*
X45655732Y48422624D01*
X45728808Y48790000D01*
X46311192Y48790000D01*
X46384268Y48422624D01*
X46592369Y48111177D01*
X46903816Y47903076D01*
X47271192Y47830000D01*
X47308808Y47830000D01*
X47676184Y47903076D01*
X47987631Y48111177D01*
X48195732Y48422624D01*
X48268808Y48790000D01*
X48195732Y49157376D01*
X47987631Y49468823D01*
X47676184Y49676924D01*
X47308808Y49750000D01*
X47271192Y49750000D01*
X46903816Y49676924D01*
X46592369Y49468823D01*
X46384268Y49157376D01*
X46311192Y48790000D01*
X45728808Y48790000D01*
X45655732Y49157376D01*
X45447631Y49468823D01*
X45136184Y49676924D01*
X44768808Y49750000D01*
X44731192Y49750000D01*
X44363816Y49676924D01*
X44052369Y49468823D01*
X43844268Y49157376D01*
X43771192Y48790000D01*
X-3168473Y48790000D01*
X-4847738Y50371499D01*
X-2285407Y59888727D01*
X7917581Y64494930D01*
X7948532Y64517045D01*
X7980619Y64537495D01*
X13765933Y70077669D01*
X19399029Y67248928D01*
X19430565Y67240233D01*
X19461060Y67228395D01*
X19472567Y67228653D01*
X19483662Y67225594D01*
X19516121Y67229629D01*
X19548829Y67230362D01*
X19559363Y67235004D01*
X19570782Y67236424D01*
X19599227Y67252574D01*
X19629163Y67265767D01*
X19637117Y67274085D01*
X19647126Y67279768D01*
X19667228Y67305577D01*
X19689834Y67329219D01*
X19693999Y67339948D01*
X19701072Y67349029D01*
X19709767Y67380565D01*
X19721605Y67411060D01*
X21070479Y75087378D01*
X42952326Y79864750D01*
X49610905Y76993391D01*
X49641391Y76986868D01*
X49670925Y76976886D01*
X49683969Y76977758D01*
X49696753Y76975023D01*
X49727419Y76980664D01*
X49758520Y76982744D01*
X64424171Y80933088D01*
X68595168Y71756894D01*
G36*
X63690087Y3974791D02*
X63689912Y3774000D01*
X63767391Y3586486D01*
X63910731Y3442896D01*
X64084726Y3370646D01*
X61274090Y560010D01*
X54125112Y560010D01*
X53790000Y895122D01*
X53790000Y2050000D01*
X53767925Y2160978D01*
X53705061Y2255061D01*
X53180061Y2780061D01*
X53114114Y2824125D01*
X53114114Y2925000D01*
X53099471Y3002821D01*
X53053479Y3074295D01*
X53051919Y3075361D01*
X53097245Y3141698D01*
X53114114Y3225000D01*
X53114114Y3925000D01*
X53099471Y4002821D01*
X53053479Y4074295D01*
X53051919Y4075361D01*
X53097245Y4141698D01*
X53114114Y4225000D01*
X53114114Y4925000D01*
X53099471Y5002821D01*
X53059465Y5064992D01*
X53150996Y5064912D01*
X53338510Y5142391D01*
X53482100Y5285731D01*
X53559907Y5473110D01*
X53560084Y5676000D01*
X53482605Y5863514D01*
X53339265Y6007104D01*
X53151886Y6084911D01*
X53058500Y6084992D01*
X53097245Y6141698D01*
X53114114Y6225000D01*
X53114114Y6925000D01*
X53099471Y7002821D01*
X53053479Y7074295D01*
X53051919Y7075361D01*
X53097245Y7141698D01*
X53114114Y7225000D01*
X53114114Y7925000D01*
X53099471Y8002821D01*
X53072809Y8044255D01*
X53111940Y8083386D01*
X53150000Y8175272D01*
X53150000Y8462500D01*
X53087500Y8525000D01*
X52200000Y8525000D01*
X52200000Y8505000D01*
X52100000Y8505000D01*
X52100000Y8525000D01*
X52080000Y8525000D01*
X52080000Y8625000D01*
X52100000Y8625000D01*
X52100000Y9112500D01*
X52200000Y9112500D01*
X52200000Y8625000D01*
X53087500Y8625000D01*
X53150000Y8687500D01*
X53150000Y8974728D01*
X53111940Y9066614D01*
X53041614Y9136940D01*
X52949728Y9175000D01*
X52262500Y9175000D01*
X52200000Y9112500D01*
X52100000Y9112500D01*
X52037500Y9175000D01*
X51628120Y9175000D01*
X51703120Y9250000D01*
X54120000Y9250000D01*
X54120000Y1175000D01*
X54137508Y1086983D01*
X54187365Y1012365D01*
X54261983Y962508D01*
X54350000Y945000D01*
X54800000Y945000D01*
X54888017Y962508D01*
X54962635Y1012365D01*
X55012492Y1086983D01*
X55030000Y1175000D01*
X55030000Y9250000D01*
X55012492Y9338017D01*
X54962635Y9412635D01*
X54888017Y9462492D01*
X54800000Y9480000D01*
X54350000Y9480000D01*
X54261983Y9462492D01*
X54187365Y9412635D01*
X54137508Y9338017D01*
X54120000Y9250000D01*
X51703120Y9250000D01*
X52263120Y9810000D01*
X57854878Y9810000D01*
X63690087Y3974791D01*
X63690087Y3974791D01*
G37*
X63690087Y3974791D02*
X63689912Y3774000D01*
X63767391Y3586486D01*
X63910731Y3442896D01*
X64084726Y3370646D01*
X61274090Y560010D01*
X54125112Y560010D01*
X53790000Y895122D01*
X53790000Y2050000D01*
X53767925Y2160978D01*
X53705061Y2255061D01*
X53180061Y2780061D01*
X53114114Y2824125D01*
X53114114Y2925000D01*
X53099471Y3002821D01*
X53053479Y3074295D01*
X53051919Y3075361D01*
X53097245Y3141698D01*
X53114114Y3225000D01*
X53114114Y3925000D01*
X53099471Y4002821D01*
X53053479Y4074295D01*
X53051919Y4075361D01*
X53097245Y4141698D01*
X53114114Y4225000D01*
X53114114Y4925000D01*
X53099471Y5002821D01*
X53059465Y5064992D01*
X53150996Y5064912D01*
X53338510Y5142391D01*
X53482100Y5285731D01*
X53559907Y5473110D01*
X53560084Y5676000D01*
X53482605Y5863514D01*
X53339265Y6007104D01*
X53151886Y6084911D01*
X53058500Y6084992D01*
X53097245Y6141698D01*
X53114114Y6225000D01*
X53114114Y6925000D01*
X53099471Y7002821D01*
X53053479Y7074295D01*
X53051919Y7075361D01*
X53097245Y7141698D01*
X53114114Y7225000D01*
X53114114Y7925000D01*
X53099471Y8002821D01*
X53072809Y8044255D01*
X53111940Y8083386D01*
X53150000Y8175272D01*
X53150000Y8462500D01*
X53087500Y8525000D01*
X52200000Y8525000D01*
X52200000Y8505000D01*
X52100000Y8505000D01*
X52100000Y8525000D01*
X52080000Y8525000D01*
X52080000Y8625000D01*
X52100000Y8625000D01*
X52100000Y9112500D01*
X52200000Y9112500D01*
X52200000Y8625000D01*
X53087500Y8625000D01*
X53150000Y8687500D01*
X53150000Y8974728D01*
X53111940Y9066614D01*
X53041614Y9136940D01*
X52949728Y9175000D01*
X52262500Y9175000D01*
X52200000Y9112500D01*
X52100000Y9112500D01*
X52037500Y9175000D01*
X51628120Y9175000D01*
X51703120Y9250000D01*
X54120000Y9250000D01*
X54120000Y1175000D01*
X54137508Y1086983D01*
X54187365Y1012365D01*
X54261983Y962508D01*
X54350000Y945000D01*
X54800000Y945000D01*
X54888017Y962508D01*
X54962635Y1012365D01*
X55012492Y1086983D01*
X55030000Y1175000D01*
X55030000Y9250000D01*
X55012492Y9338017D01*
X54962635Y9412635D01*
X54888017Y9462492D01*
X54800000Y9480000D01*
X54350000Y9480000D01*
X54261983Y9462492D01*
X54187365Y9412635D01*
X54137508Y9338017D01*
X54120000Y9250000D01*
X51703120Y9250000D01*
X52263120Y9810000D01*
X57854878Y9810000D01*
X63690087Y3974791D01*
M02*
