G04 #@! TF.FileFunction,Legend,Bot*
%FSLAX46Y46*%
G04 Gerber Fmt 4.6, Leading zero omitted, Abs format (unit mm)*
G04 Created by KiCad (PCBNEW 4.0.7) date Sun May  6 01:29:27 2018*
%MOMM*%
%LPD*%
G01*
G04 APERTURE LIST*
%ADD10C,0.100000*%
%ADD11C,0.150000*%
%ADD12C,0.140000*%
G04 APERTURE END LIST*
D10*
D11*
X57548810Y18439286D02*
X57586905Y18401190D01*
X57701191Y18363095D01*
X57777381Y18363095D01*
X57891667Y18401190D01*
X57967858Y18477381D01*
X58005953Y18553571D01*
X58044048Y18705952D01*
X58044048Y18820238D01*
X58005953Y18972619D01*
X57967858Y19048810D01*
X57891667Y19125000D01*
X57777381Y19163095D01*
X57701191Y19163095D01*
X57586905Y19125000D01*
X57548810Y19086905D01*
X57205953Y18363095D02*
X57205953Y19163095D01*
X57015477Y19163095D01*
X56901191Y19125000D01*
X56825000Y19048810D01*
X56786905Y18972619D01*
X56748810Y18820238D01*
X56748810Y18705952D01*
X56786905Y18553571D01*
X56825000Y18477381D01*
X56901191Y18401190D01*
X57015477Y18363095D01*
X57205953Y18363095D01*
X55948810Y18439286D02*
X55986905Y18401190D01*
X56101191Y18363095D01*
X56177381Y18363095D01*
X56291667Y18401190D01*
X56367858Y18477381D01*
X56405953Y18553571D01*
X56444048Y18705952D01*
X56444048Y18820238D01*
X56405953Y18972619D01*
X56367858Y19048810D01*
X56291667Y19125000D01*
X56177381Y19163095D01*
X56101191Y19163095D01*
X55986905Y19125000D01*
X55948810Y19086905D01*
X55720239Y19163095D02*
X55263096Y19163095D01*
X55491667Y18363095D02*
X55491667Y19163095D01*
X54615476Y18363095D02*
X54996429Y18363095D01*
X54996429Y19163095D01*
X54348810Y18667857D02*
X53739286Y18667857D01*
X53091667Y18782143D02*
X52977381Y18744048D01*
X52939286Y18705952D01*
X52901191Y18629762D01*
X52901191Y18515476D01*
X52939286Y18439286D01*
X52977381Y18401190D01*
X53053572Y18363095D01*
X53358334Y18363095D01*
X53358334Y19163095D01*
X53091667Y19163095D01*
X53015477Y19125000D01*
X52977381Y19086905D01*
X52939286Y19010714D01*
X52939286Y18934524D01*
X52977381Y18858333D01*
X53015477Y18820238D01*
X53091667Y18782143D01*
X53358334Y18782143D01*
X52634524Y18363095D02*
X52215477Y18896429D01*
X52634524Y18896429D02*
X52215477Y18363095D01*
X51339286Y18401190D02*
X51225000Y18363095D01*
X51034524Y18363095D01*
X50958334Y18401190D01*
X50920238Y18439286D01*
X50882143Y18515476D01*
X50882143Y18591667D01*
X50920238Y18667857D01*
X50958334Y18705952D01*
X51034524Y18744048D01*
X51186905Y18782143D01*
X51263096Y18820238D01*
X51301191Y18858333D01*
X51339286Y18934524D01*
X51339286Y19010714D01*
X51301191Y19086905D01*
X51263096Y19125000D01*
X51186905Y19163095D01*
X50996429Y19163095D01*
X50882143Y19125000D01*
X50425000Y18363095D02*
X50501191Y18401190D01*
X50539286Y18439286D01*
X50577381Y18515476D01*
X50577381Y18744048D01*
X50539286Y18820238D01*
X50501191Y18858333D01*
X50425000Y18896429D01*
X50310714Y18896429D01*
X50234524Y18858333D01*
X50196429Y18820238D01*
X50158333Y18744048D01*
X50158333Y18515476D01*
X50196429Y18439286D01*
X50234524Y18401190D01*
X50310714Y18363095D01*
X50425000Y18363095D01*
X49472619Y18401190D02*
X49548809Y18363095D01*
X49701190Y18363095D01*
X49777381Y18401190D01*
X49815476Y18439286D01*
X49853571Y18515476D01*
X49853571Y18744048D01*
X49815476Y18820238D01*
X49777381Y18858333D01*
X49701190Y18896429D01*
X49548809Y18896429D01*
X49472619Y18858333D01*
X49129762Y18363095D02*
X49129762Y19163095D01*
X49053571Y18667857D02*
X48825000Y18363095D01*
X48825000Y18896429D02*
X49129762Y18591667D01*
X48177381Y18401190D02*
X48253571Y18363095D01*
X48405952Y18363095D01*
X48482143Y18401190D01*
X48520238Y18477381D01*
X48520238Y18782143D01*
X48482143Y18858333D01*
X48405952Y18896429D01*
X48253571Y18896429D01*
X48177381Y18858333D01*
X48139286Y18782143D01*
X48139286Y18705952D01*
X48520238Y18629762D01*
X47910715Y18896429D02*
X47605953Y18896429D01*
X47796429Y19163095D02*
X47796429Y18477381D01*
X47758334Y18401190D01*
X47682143Y18363095D01*
X47605953Y18363095D01*
X46463095Y18782143D02*
X46348809Y18744048D01*
X46310714Y18705952D01*
X46272619Y18629762D01*
X46272619Y18515476D01*
X46310714Y18439286D01*
X46348809Y18401190D01*
X46425000Y18363095D01*
X46729762Y18363095D01*
X46729762Y19163095D01*
X46463095Y19163095D01*
X46386905Y19125000D01*
X46348809Y19086905D01*
X46310714Y19010714D01*
X46310714Y18934524D01*
X46348809Y18858333D01*
X46386905Y18820238D01*
X46463095Y18782143D01*
X46729762Y18782143D01*
X45815476Y18363095D02*
X45891667Y18401190D01*
X45929762Y18439286D01*
X45967857Y18515476D01*
X45967857Y18744048D01*
X45929762Y18820238D01*
X45891667Y18858333D01*
X45815476Y18896429D01*
X45701190Y18896429D01*
X45625000Y18858333D01*
X45586905Y18820238D01*
X45548809Y18744048D01*
X45548809Y18515476D01*
X45586905Y18439286D01*
X45625000Y18401190D01*
X45701190Y18363095D01*
X45815476Y18363095D01*
X44863095Y18363095D02*
X44863095Y18782143D01*
X44901190Y18858333D01*
X44977380Y18896429D01*
X45129761Y18896429D01*
X45205952Y18858333D01*
X44863095Y18401190D02*
X44939285Y18363095D01*
X45129761Y18363095D01*
X45205952Y18401190D01*
X45244047Y18477381D01*
X45244047Y18553571D01*
X45205952Y18629762D01*
X45129761Y18667857D01*
X44939285Y18667857D01*
X44863095Y18705952D01*
X44482142Y18363095D02*
X44482142Y18896429D01*
X44482142Y18744048D02*
X44444047Y18820238D01*
X44405951Y18858333D01*
X44329761Y18896429D01*
X44253570Y18896429D01*
X43644047Y18363095D02*
X43644047Y19163095D01*
X43644047Y18401190D02*
X43720237Y18363095D01*
X43872618Y18363095D01*
X43948809Y18401190D01*
X43986904Y18439286D01*
X44024999Y18515476D01*
X44024999Y18744048D01*
X43986904Y18820238D01*
X43948809Y18858333D01*
X43872618Y18896429D01*
X43720237Y18896429D01*
X43644047Y18858333D01*
X42767856Y19163095D02*
X42501189Y18363095D01*
X42234522Y19163095D01*
X42005951Y19086905D02*
X41967856Y19125000D01*
X41891665Y19163095D01*
X41701189Y19163095D01*
X41624999Y19125000D01*
X41586903Y19086905D01*
X41548808Y19010714D01*
X41548808Y18934524D01*
X41586903Y18820238D01*
X42044046Y18363095D01*
X41548808Y18363095D01*
X41205951Y18439286D02*
X41167856Y18401190D01*
X41205951Y18363095D01*
X41244046Y18401190D01*
X41205951Y18439286D01*
X41205951Y18363095D01*
X40672618Y19163095D02*
X40596427Y19163095D01*
X40520237Y19125000D01*
X40482142Y19086905D01*
X40444046Y19010714D01*
X40405951Y18858333D01*
X40405951Y18667857D01*
X40444046Y18515476D01*
X40482142Y18439286D01*
X40520237Y18401190D01*
X40596427Y18363095D01*
X40672618Y18363095D01*
X40748808Y18401190D01*
X40786904Y18439286D01*
X40824999Y18515476D01*
X40863094Y18667857D01*
X40863094Y18858333D01*
X40824999Y19010714D01*
X40786904Y19086905D01*
X40748808Y19125000D01*
X40672618Y19163095D01*
X46950000Y9375000D02*
X46950000Y9175000D01*
X49750000Y9375000D02*
X46950000Y9375000D01*
X52550000Y9375000D02*
X52550000Y9175000D01*
X49750000Y9375000D02*
X52550000Y9375000D01*
X47210555Y175000D02*
G75*
G03X47210555Y175000I-360555J0D01*
G01*
X46950000Y775000D02*
X46950000Y975000D01*
X49750000Y775000D02*
X46950000Y775000D01*
X52550000Y775000D02*
X52550000Y975000D01*
X49750000Y775000D02*
X52550000Y775000D01*
D12*
X48783333Y10658333D02*
X48783333Y10091667D01*
X48750000Y10025000D01*
X48716667Y9991667D01*
X48650000Y9958333D01*
X48516667Y9958333D01*
X48450000Y9991667D01*
X48416667Y10025000D01*
X48383333Y10091667D01*
X48383333Y10658333D01*
X47683334Y9958333D02*
X48083334Y9958333D01*
X47883334Y9958333D02*
X47883334Y10658333D01*
X47950000Y10558333D01*
X48016667Y10491667D01*
X48083334Y10458333D01*
M02*
