G04 #@! TF.FileFunction,Soldermask,Bot*
%FSLAX46Y46*%
G04 Gerber Fmt 4.6, Leading zero omitted, Abs format (unit mm)*
G04 Created by KiCad (PCBNEW 4.0.7) date Sun May  6 01:29:27 2018*
%MOMM*%
%LPD*%
G01*
G04 APERTURE LIST*
%ADD10C,0.100000*%
%ADD11R,1.640000X0.840000*%
%ADD12C,1.640000*%
%ADD13R,1.640000X1.640000*%
%ADD14O,1.640000X1.640000*%
G04 APERTURE END LIST*
D10*
D11*
X47350000Y1575000D03*
X47350000Y2575000D03*
X47350000Y3575000D03*
X47350000Y4575000D03*
X47350000Y5575000D03*
X47350000Y6575000D03*
X47350000Y7575000D03*
X47350000Y8575000D03*
X52150000Y1575000D03*
X52150000Y2575000D03*
X52150000Y3575000D03*
X52150000Y4575000D03*
X52150000Y5575000D03*
X52150000Y6575000D03*
X52150000Y7575000D03*
X52150000Y8575000D03*
D10*
G36*
X39120093Y45440672D02*
X40747869Y45640538D01*
X40947735Y44012762D01*
X39319959Y43812896D01*
X39120093Y45440672D01*
X39120093Y45440672D01*
G37*
D12*
X40343462Y42205650D02*
X40343462Y42205650D01*
X37512847Y44417169D02*
X37512847Y44417169D01*
X37822395Y41896102D02*
X37822395Y41896102D01*
X34991780Y44107621D02*
X34991780Y44107621D01*
X35301328Y41586554D02*
X35301328Y41586554D01*
X32470712Y43798073D02*
X32470712Y43798073D01*
X32780260Y41277005D02*
X32780260Y41277005D01*
X29949645Y43488524D02*
X29949645Y43488524D01*
X30259193Y40967457D02*
X30259193Y40967457D01*
X27428578Y43178976D02*
X27428578Y43178976D01*
X27738126Y40657909D02*
X27738126Y40657909D01*
X24907511Y42869428D02*
X24907511Y42869428D01*
X25217059Y40348361D02*
X25217059Y40348361D01*
X22386443Y42559880D02*
X22386443Y42559880D01*
X22695992Y40038813D02*
X22695992Y40038813D01*
D13*
X47290000Y43710000D03*
D14*
X44750000Y43710000D03*
X47290000Y46250000D03*
X44750000Y46250000D03*
X47290000Y48790000D03*
X44750000Y48790000D03*
D10*
G36*
X60294850Y41946853D02*
X58679765Y42231636D01*
X58964548Y43846721D01*
X60579633Y43561938D01*
X60294850Y41946853D01*
X60294850Y41946853D01*
G37*
D12*
X60070765Y45398199D02*
X60070765Y45398199D01*
X62131111Y42455721D02*
X62131111Y42455721D01*
X62572177Y44957132D02*
X62572177Y44957132D01*
X64632522Y42014654D02*
X64632522Y42014654D01*
X65073589Y44516066D02*
X65073589Y44516066D01*
X67133934Y41573588D02*
X67133934Y41573588D01*
X67575000Y44075000D02*
X67575000Y44075000D01*
X69635346Y41132522D02*
X69635346Y41132522D01*
X70076412Y43633933D02*
X70076412Y43633933D01*
X72136757Y40691455D02*
X72136757Y40691455D01*
X72577824Y43192867D02*
X72577824Y43192867D01*
X74638169Y40250389D02*
X74638169Y40250389D01*
X75079236Y42751800D02*
X75079236Y42751800D01*
X77139581Y39809322D02*
X77139581Y39809322D01*
X77580647Y42310734D02*
X77580647Y42310734D01*
D13*
X59460000Y16250000D03*
D14*
X59460000Y13710000D03*
D13*
X62000000Y16250000D03*
D14*
X62000000Y13710000D03*
D13*
X51840000Y16250000D03*
D14*
X51840000Y13710000D03*
D13*
X54380000Y16250000D03*
D14*
X54380000Y13710000D03*
D13*
X56920000Y16250000D03*
D14*
X56920000Y13710000D03*
D13*
X36600000Y16250000D03*
D14*
X36600000Y13710000D03*
D13*
X39140000Y16250000D03*
D14*
X39140000Y13710000D03*
D13*
X44220000Y16250000D03*
D14*
X44220000Y13710000D03*
D13*
X41680000Y16250000D03*
D14*
X41680000Y13710000D03*
D13*
X46760000Y16250000D03*
D14*
X46760000Y13710000D03*
D13*
X49300000Y16250000D03*
D14*
X49300000Y13710000D03*
M02*
