G04 #@! TF.FileFunction,Profile,NP*
%FSLAX46Y46*%
G04 Gerber Fmt 4.6, Leading zero omitted, Abs format (unit mm)*
G04 Created by KiCad (PCBNEW 4.0.7) date Sun May  6 01:29:27 2018*
%MOMM*%
%LPD*%
G01*
G04 APERTURE LIST*
%ADD10C,0.100000*%
%ADD11C,0.160000*%
%ADD12C,0.150000*%
G04 APERTURE END LIST*
D10*
D11*
X54350000Y1175000D02*
X54350000Y9250000D01*
X54800000Y1175000D02*
X54350000Y1175000D01*
X54350000Y9250000D02*
X54800000Y9250000D01*
X54800000Y9250000D02*
X54800000Y1175000D01*
X44800000Y1175000D02*
X44800000Y9250000D01*
X45250000Y1175000D02*
X44800000Y1175000D01*
X45250000Y9250000D02*
X45250000Y1175000D01*
X44800000Y9250000D02*
X45250000Y9250000D01*
D12*
X72125000Y725000D02*
X76250000Y2275000D01*
X68475000Y-100000D02*
X72125000Y725000D01*
X64075000Y-825000D02*
X68475000Y-100000D01*
X48250000Y-825000D02*
X64075000Y-825000D01*
X34275000Y-450000D02*
X48250000Y-825000D01*
X29625000Y-125000D02*
X34275000Y-450000D01*
X25225000Y850000D02*
X29625000Y-125000D01*
X23900000Y1000000D02*
X25225000Y850000D01*
X22400000Y1300000D02*
X23900000Y1000000D01*
X21550000Y1450000D02*
X22400000Y1300000D01*
X21125000Y1625000D02*
X21550000Y1450000D01*
X20725000Y1700000D02*
X21125000Y1625000D01*
X12800000Y28950000D02*
X12840000Y28660000D01*
X12550000Y29050000D02*
X12800000Y28950000D01*
X12130000Y29160000D02*
X12550000Y29050000D01*
X11720000Y29310000D02*
X12130000Y29160000D01*
X11260000Y29530000D02*
X11720000Y29310000D01*
X10510000Y30010000D02*
X11260000Y29530000D01*
X9760000Y30740000D02*
X10510000Y30010000D01*
X9170000Y31610000D02*
X9760000Y30740000D01*
X8740000Y32650000D02*
X9170000Y31610000D01*
X8610000Y33250000D02*
X8740000Y32650000D01*
X8550000Y33730000D02*
X8610000Y33250000D01*
X8540000Y34380000D02*
X8550000Y33730000D01*
X8750000Y35550000D02*
X8540000Y34380000D01*
X8950000Y36110000D02*
X8750000Y35550000D01*
X9390000Y36940000D02*
X8950000Y36110000D01*
X9790000Y37470000D02*
X9390000Y36940000D01*
X3330000Y37870000D02*
X9790000Y37470000D01*
X3330000Y37870000D02*
X-700000Y39850000D01*
X86410000Y25140000D02*
X86630000Y30490000D01*
X88720000Y39900000D02*
X94650000Y45300000D01*
X86626887Y30488899D02*
G75*
G03X88720000Y39900000I-776887J5111101D01*
G01*
X12850000Y26050000D02*
X12840000Y28660000D01*
X86330000Y23130000D02*
X86280000Y22830000D01*
X86320000Y23230000D02*
X86330000Y23130000D01*
X86330000Y23550000D02*
X86320000Y23230000D01*
X86350000Y23860000D02*
X86330000Y23550000D01*
X86410000Y25140000D02*
X86350000Y23860000D01*
X85950000Y21100000D02*
X86100000Y21925000D01*
X96850000Y49200000D02*
X94650000Y45300000D01*
X104000000Y54125000D02*
X96850000Y49200000D01*
X93075000Y57150000D02*
X104000000Y54125000D01*
X97500000Y66075000D02*
X93075000Y57150000D01*
X86525000Y75975000D02*
X97500000Y66075000D01*
X68800000Y71850000D02*
X86525000Y75975000D01*
X64550000Y81200000D02*
X68800000Y71850000D01*
X49700000Y77200000D02*
X64550000Y81200000D01*
X42975000Y80100000D02*
X49700000Y77200000D01*
X20875000Y75275000D02*
X42975000Y80100000D01*
X19500000Y67450000D02*
X20875000Y75275000D01*
X13725000Y70350000D02*
X19500000Y67450000D01*
X7825000Y64700000D02*
X13725000Y70350000D01*
X-2475000Y60050000D02*
X7825000Y64700000D01*
X-5100000Y50300000D02*
X-2475000Y60050000D01*
X2200000Y43425000D02*
X-5100000Y50300000D01*
X-700000Y39850000D02*
X2200000Y43425000D01*
X86200000Y22475000D02*
X86275000Y22825000D01*
X86100000Y21925000D02*
X86200000Y22475000D01*
X84175000Y7925000D02*
X85250000Y9250000D01*
X77775000Y3325000D02*
X84175000Y7925000D01*
X76250000Y2275000D02*
X77775000Y3325000D01*
X20350000Y1950000D02*
X20725000Y1700000D01*
X12800000Y21050000D02*
X12800000Y10900000D01*
X12800000Y21050000D02*
X12850000Y26050000D01*
X13100000Y9650000D02*
X12800000Y10900000D01*
X14500000Y7050000D02*
X13100000Y9650000D01*
X14900000Y6400000D02*
X14500000Y7050000D01*
X15800000Y5450000D02*
X14900000Y6400000D01*
X20350000Y1950000D02*
X15800000Y5450000D01*
X85500000Y10450000D02*
X85250000Y9250000D01*
X85950000Y21100000D02*
X85500000Y10450000D01*
M02*
