M48
;DRILL file {KiCad 4.0.7} date Sun May  6 01:29:30 2018
;FORMAT={-:-/ absolute / metric / decimal}
FMAT,2
METRIC,TZ
T1C0.300
T2C0.838
%
G90
G05
M71
T1
X35.4Y28.4
X35.425Y29.65
X35.45Y5.725
X35.45Y3.7
X35.475Y4.8
X35.475Y2.725
X35.5Y7.675
X35.5Y6.675
X35.525Y8.65
X35.55Y9.6
X45.725Y22.475
X46.225Y6.55
X46.25Y5.525
X46.25Y4.475
X50.825Y19.95
X51.3Y25.
X51.325Y39.575
X51.325Y37.575
X51.325Y40.525
X52.15Y9.075
X52.725Y22.475
X53.05Y5.575
X53.3Y25.
X54.175Y19.4
X61.987Y18.987
X64.2Y4.875
X64.2Y3.875
X64.225Y8.9
X64.225Y5.9
X64.25Y9.94
X64.25Y6.95
X64.275Y7.95
X66.075Y32.15
T2
X22.386Y42.56
X22.696Y40.039
X24.908Y42.869
X25.217Y40.348
X27.429Y43.179
X27.738Y40.658
X29.95Y43.489
X30.259Y40.967
X32.471Y43.798
X32.78Y41.277
X34.992Y44.108
X35.301Y41.587
X36.6Y16.25
X36.6Y13.71
X37.513Y44.417
X37.822Y41.896
X39.14Y16.25
X39.14Y13.71
X40.034Y44.727
X40.343Y42.206
X41.68Y16.25
X41.68Y13.71
X44.22Y16.25
X44.22Y13.71
X44.75Y48.79
X44.75Y46.25
X44.75Y43.71
X46.76Y16.25
X46.76Y13.71
X47.29Y48.79
X47.29Y46.25
X47.29Y43.71
X49.3Y16.25
X49.3Y13.71
X51.84Y16.25
X51.84Y13.71
X54.38Y16.25
X54.38Y13.71
X56.92Y16.25
X56.92Y13.71
X59.46Y16.25
X59.46Y13.71
X59.63Y42.897
X60.071Y45.398
X62.Y16.25
X62.Y13.71
X62.131Y42.456
X62.572Y44.957
X64.633Y42.015
X65.074Y44.516
X67.134Y41.574
X67.575Y44.075
X69.635Y41.133
X70.076Y43.634
X72.137Y40.691
X72.578Y43.193
X74.638Y40.25
X75.079Y42.752
X77.14Y39.809
X77.581Y42.311
T0
M30
