G04 #@! TF.FileFunction,Copper,L1,Top,Signal*
%FSLAX46Y46*%
G04 Gerber Fmt 4.6, Leading zero omitted, Abs format (unit mm)*
G04 Created by KiCad (PCBNEW 4.0.7) date Sun May  6 01:29:27 2018*
%MOMM*%
%LPD*%
G01*
G04 APERTURE LIST*
%ADD10C,0.100000*%
%ADD11R,0.500000X0.600000*%
%ADD12R,1.600000X0.600000*%
%ADD13R,8.000000X0.500000*%
%ADD14R,1.300000X0.500000*%
%ADD15R,0.600000X0.500000*%
%ADD16C,1.500000*%
%ADD17R,1.500000X1.500000*%
%ADD18O,1.500000X1.500000*%
%ADD19C,0.600000*%
%ADD20C,0.200000*%
%ADD21C,0.160000*%
%ADD22C,0.300000*%
G04 APERTURE END LIST*
D10*
D11*
X51800000Y25000000D03*
X52800000Y25000000D03*
D12*
X46675000Y23750000D03*
X46675000Y22475000D03*
X46675000Y21225000D03*
X46675000Y19950000D03*
X51775000Y19950000D03*
X51775000Y21225000D03*
X51775000Y22475000D03*
X51775000Y23750000D03*
D13*
X59298421Y8679907D03*
X59298421Y7679907D03*
X59298421Y6679907D03*
X59298421Y5679907D03*
X59298421Y4679907D03*
X59298421Y3679907D03*
X59298421Y2679907D03*
X59298421Y1679907D03*
X40298421Y8679907D03*
X40298421Y7679907D03*
X40298421Y6679907D03*
X40298421Y5679907D03*
X40298421Y4679907D03*
X40298421Y3679907D03*
X40298421Y2679907D03*
X40298421Y1679907D03*
D14*
X60365088Y8679907D03*
X62498421Y8679907D03*
X58231755Y8679907D03*
X62498421Y7679907D03*
X60365088Y7679907D03*
X58231755Y7679907D03*
X62498421Y6679907D03*
X60365088Y6679907D03*
X58231755Y6679907D03*
X58231755Y5679907D03*
X62498421Y5679907D03*
X60365088Y5679907D03*
X62498421Y4679907D03*
X58231755Y4679907D03*
X60365088Y4679907D03*
X62498421Y3679907D03*
X58231755Y3679907D03*
X60365088Y3679907D03*
X62498421Y2679907D03*
X58231755Y2679907D03*
X60365088Y2679907D03*
X62498421Y1679907D03*
X58231755Y1679907D03*
X60365088Y1679907D03*
X41365088Y8679907D03*
X37098422Y8679907D03*
X39231755Y8679907D03*
X41365088Y7679907D03*
X37098422Y7679907D03*
X39231755Y7679907D03*
X41365088Y6679907D03*
X37098422Y6679907D03*
X39231755Y6679907D03*
X41365088Y5679907D03*
X37098422Y5679907D03*
X39231755Y5679907D03*
X41365088Y4679907D03*
X37098422Y4679907D03*
X39231755Y4679907D03*
X41365088Y3679907D03*
X37098422Y3679907D03*
X39231755Y3679907D03*
X41365088Y2679907D03*
X37098422Y2679907D03*
X39231755Y2679907D03*
X41365088Y1679907D03*
X37098422Y1679907D03*
X39231755Y1679907D03*
X56098422Y8679907D03*
X56098422Y7679907D03*
X56098422Y6679907D03*
X56098422Y5679907D03*
X56098422Y4679907D03*
X56098422Y3679907D03*
X56098422Y2679907D03*
X56098422Y1679907D03*
X43498421Y8679907D03*
X43498421Y7679907D03*
X43498421Y6679907D03*
X43498421Y5679907D03*
X43498421Y4679907D03*
X43498421Y3679907D03*
X43498421Y2679907D03*
X43498421Y1679907D03*
D10*
G36*
X35480097Y28830898D02*
X35035597Y28061002D01*
X34177713Y28556302D01*
X34622213Y29326198D01*
X35480097Y28830898D01*
X35480097Y28830898D01*
G37*
G36*
X34072287Y29643698D02*
X33627787Y28873802D01*
X32769903Y29369102D01*
X33214403Y30138998D01*
X34072287Y29643698D01*
X34072287Y29643698D01*
G37*
G36*
X66155097Y32605898D02*
X65710597Y31836002D01*
X64852713Y32331302D01*
X65297213Y33101198D01*
X66155097Y32605898D01*
X66155097Y32605898D01*
G37*
G36*
X64747287Y33418698D02*
X64302787Y32648802D01*
X63444903Y33144102D01*
X63889403Y33913998D01*
X64747287Y33418698D01*
X64747287Y33418698D01*
G37*
G36*
X64650481Y33915192D02*
X64950481Y34434808D01*
X65383493Y34184808D01*
X65083493Y33665192D01*
X64650481Y33915192D01*
X64650481Y33915192D01*
G37*
G36*
X65516507Y33415192D02*
X65816507Y33934808D01*
X66249519Y33684808D01*
X65949519Y33165192D01*
X65516507Y33415192D01*
X65516507Y33415192D01*
G37*
D11*
X49925000Y40525000D03*
X50925000Y40525000D03*
X50925000Y39575000D03*
X49925000Y39575000D03*
D15*
X56275000Y19000000D03*
X56275000Y18000000D03*
D11*
X49925000Y38575000D03*
X50925000Y38575000D03*
X49930000Y37580000D03*
X50930000Y37580000D03*
D15*
X58350000Y18000000D03*
X58350000Y19000000D03*
D10*
G36*
X33842468Y30215192D02*
X34142468Y30734808D01*
X34575480Y30484808D01*
X34275480Y29965192D01*
X33842468Y30215192D01*
X33842468Y30215192D01*
G37*
G36*
X34708494Y29715192D02*
X35008494Y30234808D01*
X35441506Y29984808D01*
X35141506Y29465192D01*
X34708494Y29715192D01*
X34708494Y29715192D01*
G37*
D15*
X54175000Y19000000D03*
X54175000Y18000000D03*
X60620000Y18010000D03*
X60620000Y19010000D03*
D10*
G36*
X39198102Y45379725D02*
X40686922Y45562529D01*
X40869726Y44073709D01*
X39380906Y43890905D01*
X39198102Y45379725D01*
X39198102Y45379725D01*
G37*
D16*
X40343462Y42205650D02*
X40343462Y42205650D01*
X37512847Y44417169D02*
X37512847Y44417169D01*
X37822395Y41896102D02*
X37822395Y41896102D01*
X34991780Y44107621D02*
X34991780Y44107621D01*
X35301328Y41586554D02*
X35301328Y41586554D01*
X32470712Y43798073D02*
X32470712Y43798073D01*
X32780260Y41277005D02*
X32780260Y41277005D01*
X29949645Y43488524D02*
X29949645Y43488524D01*
X30259193Y40967457D02*
X30259193Y40967457D01*
X27428578Y43178976D02*
X27428578Y43178976D01*
X27738126Y40657909D02*
X27738126Y40657909D01*
X24907511Y42869428D02*
X24907511Y42869428D01*
X25217059Y40348361D02*
X25217059Y40348361D01*
X22386443Y42559880D02*
X22386443Y42559880D01*
X22695992Y40038813D02*
X22695992Y40038813D01*
D17*
X47290000Y43710000D03*
D18*
X44750000Y43710000D03*
X47290000Y46250000D03*
X44750000Y46250000D03*
X47290000Y48790000D03*
X44750000Y48790000D03*
D10*
G36*
X60238069Y42027945D02*
X58760857Y42288417D01*
X59021329Y43765629D01*
X60498541Y43505157D01*
X60238069Y42027945D01*
X60238069Y42027945D01*
G37*
D16*
X60070765Y45398199D02*
X60070765Y45398199D01*
X62131111Y42455721D02*
X62131111Y42455721D01*
X62572177Y44957132D02*
X62572177Y44957132D01*
X64632522Y42014654D02*
X64632522Y42014654D01*
X65073589Y44516066D02*
X65073589Y44516066D01*
X67133934Y41573588D02*
X67133934Y41573588D01*
X67575000Y44075000D02*
X67575000Y44075000D01*
X69635346Y41132522D02*
X69635346Y41132522D01*
X70076412Y43633933D02*
X70076412Y43633933D01*
X72136757Y40691455D02*
X72136757Y40691455D01*
X72577824Y43192867D02*
X72577824Y43192867D01*
X74638169Y40250389D02*
X74638169Y40250389D01*
X75079236Y42751800D02*
X75079236Y42751800D01*
X77139581Y39809322D02*
X77139581Y39809322D01*
X77580647Y42310734D02*
X77580647Y42310734D01*
D17*
X59460000Y16250000D03*
D18*
X59460000Y13710000D03*
D17*
X62000000Y16250000D03*
D18*
X62000000Y13710000D03*
D17*
X51840000Y16250000D03*
D18*
X51840000Y13710000D03*
D17*
X54380000Y16250000D03*
D18*
X54380000Y13710000D03*
D17*
X56920000Y16250000D03*
D18*
X56920000Y13710000D03*
D17*
X36600000Y16250000D03*
D18*
X36600000Y13710000D03*
D17*
X39140000Y16250000D03*
D18*
X39140000Y13710000D03*
D17*
X44220000Y16250000D03*
D18*
X44220000Y13710000D03*
D17*
X41680000Y16250000D03*
D18*
X41680000Y13710000D03*
D17*
X46760000Y16250000D03*
D18*
X46760000Y13710000D03*
D17*
X49300000Y16250000D03*
D18*
X49300000Y13710000D03*
D19*
X61987300Y18987300D03*
X53300000Y25000000D03*
X50824998Y19950002D03*
X45725000Y22475000D03*
X51325000Y39575000D03*
X52150000Y9075000D03*
X51325000Y37575000D03*
X51325002Y40525000D03*
X35475000Y2725000D03*
X51300000Y25000000D03*
X35425000Y29650000D03*
X35399998Y28400000D03*
X64250000Y9940000D03*
X66075000Y32150000D03*
X35450001Y3700001D03*
X64275000Y7950000D03*
X64250000Y6950000D03*
X53049996Y5575000D03*
X64225000Y5900000D03*
X64200000Y4875000D03*
X64200000Y3875000D03*
X35550000Y9599996D03*
X35525000Y8650000D03*
X35500000Y7675000D03*
X46250000Y4475000D03*
X35500000Y6675000D03*
X35475000Y4800000D03*
X46225000Y6550000D03*
X64225000Y8900000D03*
X46250000Y5525000D03*
X35450000Y5725000D03*
X54175000Y19400000D03*
X52725000Y22475000D03*
D20*
X64104907Y1679907D02*
X64218514Y1793514D01*
X59298421Y1679907D02*
X64104907Y1679907D01*
D21*
X52850000Y25000000D02*
X53300000Y25000000D01*
X51249262Y19950002D02*
X50824998Y19950002D01*
X51774998Y19950002D02*
X51249262Y19950002D01*
X51775000Y19950000D02*
X51774998Y19950002D01*
X46675000Y22475000D02*
X45725000Y22475000D01*
X50925000Y39575000D02*
X51325000Y39575000D01*
X35075000Y29850000D02*
X35328722Y29596278D01*
X65016987Y34050000D02*
X61491987Y37575000D01*
X61491987Y37575000D02*
X51325000Y37575000D01*
X51750000Y25000000D02*
X51300000Y25000000D01*
X51624999Y37275001D02*
X51325000Y37575000D01*
X60620000Y28280000D02*
X51624999Y37275001D01*
X60620000Y18910000D02*
X60620000Y28280000D01*
X51320000Y37580000D02*
X51325000Y37575000D01*
X50930000Y37580000D02*
X51320000Y37580000D01*
X50925000Y40525000D02*
X51325002Y40525000D01*
X51775000Y23750000D02*
X51775000Y24975000D01*
X51775000Y24975000D02*
X51750000Y25000000D01*
D22*
X24130001Y14069999D02*
X35475000Y2725000D01*
X35475000Y2725000D02*
X35900000Y2300000D01*
D21*
X39750000Y1675000D02*
X36500000Y1675000D01*
X36500000Y1675000D02*
X35475000Y2700000D01*
X35475000Y2700000D02*
X35475000Y2725000D01*
X50930000Y37580000D02*
X50930000Y38570000D01*
X50930000Y38570000D02*
X50925000Y38575000D01*
X36500000Y1675000D02*
X35900000Y2275000D01*
X35900000Y2275000D02*
X35900000Y2300000D01*
D22*
X24130001Y38604804D02*
X24130001Y14069999D01*
D21*
X35371278Y29596278D02*
X35425000Y29650000D01*
X35328722Y29596278D02*
X35371278Y29596278D01*
D22*
X22386444Y42559880D02*
X22386444Y40348361D01*
X22695992Y40038813D02*
X24130001Y38604804D01*
X22386444Y40348361D02*
X22695992Y40038813D01*
D21*
X70370000Y32150000D02*
X70370000Y32156486D01*
X70370000Y32156486D02*
X59629699Y42896787D01*
X59629699Y42896787D02*
X59629699Y44957133D01*
X59629699Y44957133D02*
X60070765Y45398199D01*
X60620000Y18010000D02*
X62540000Y18010000D01*
X62540000Y18010000D02*
X64250000Y16300000D01*
X64250000Y16300000D02*
X64250000Y10364264D01*
X64250000Y10364264D02*
X64250000Y9940000D01*
X34835304Y28699999D02*
X35099999Y28699999D01*
X35099999Y28699999D02*
X35399998Y28400000D01*
X34828905Y28693600D02*
X34835304Y28699999D01*
X66075000Y32150000D02*
X65822505Y32150000D01*
X65822505Y32150000D02*
X65503905Y32468600D01*
X72510000Y18200000D02*
X64250000Y9940000D01*
X59750000Y8675000D02*
X63000000Y8675000D01*
X63000000Y8675000D02*
X64250000Y9925000D01*
X64250000Y9925000D02*
X64250000Y9940000D01*
X66075000Y32150000D02*
X70370000Y32150000D01*
X72510000Y30020000D02*
X72510000Y18200000D01*
X70375000Y32155000D02*
X72510000Y30020000D01*
X70370000Y32150000D02*
X70375000Y32155000D01*
X35750000Y3400002D02*
X35450001Y3700001D01*
X36475002Y2675000D02*
X35750000Y3400002D01*
X36500000Y2675000D02*
X36475002Y2675000D01*
X39750000Y2675000D02*
X36500000Y2675000D01*
X36500000Y2675000D02*
X24520011Y14654989D01*
X24520011Y14654989D02*
X24520011Y39651313D01*
X24520011Y39651313D02*
X24609916Y39741218D01*
X24907511Y42869428D02*
X24907511Y40657909D01*
X24907511Y40657909D02*
X25217059Y40348361D01*
X24609916Y39741218D02*
X25217059Y40348361D01*
X64632522Y42014654D02*
X64632522Y44074999D01*
X64632522Y44074999D02*
X65073589Y44516066D01*
X73320011Y16995011D02*
X73320011Y33327165D01*
X73320011Y33327165D02*
X64632522Y42014654D01*
X64275000Y7950000D02*
X73320011Y16995011D01*
X59750000Y6675000D02*
X63000000Y6675000D01*
X63000000Y6675000D02*
X64275000Y7950000D01*
X67133934Y41573588D02*
X67133934Y43633934D01*
X67133934Y43633934D02*
X67575000Y44075000D01*
X73640022Y16315022D02*
X73640022Y35067500D01*
X73640022Y35067500D02*
X67133934Y41573588D01*
X63950001Y6650001D02*
X64250000Y6950000D01*
X63000000Y5700000D02*
X63950001Y6650001D01*
X63000000Y5675000D02*
X63000000Y5700000D01*
X63000000Y5675000D02*
X73640022Y16315022D01*
X59750000Y5675000D02*
X63000000Y5675000D01*
X69635346Y41132522D02*
X69635346Y43192867D01*
X69635346Y43192867D02*
X70076412Y43633933D01*
X73960033Y15635033D02*
X73960033Y36807835D01*
X73960033Y36807835D02*
X69635346Y41132522D01*
X59360000Y13710000D02*
X57250000Y11600000D01*
X53049996Y5999264D02*
X53049996Y5575000D01*
X57250000Y11600000D02*
X54700000Y11600000D01*
X54700000Y11600000D02*
X53049996Y9949996D01*
X53049996Y9949996D02*
X53049996Y5999264D01*
X59360000Y13710000D02*
X59110000Y13710000D01*
X64225000Y5900000D02*
X73960033Y15635033D01*
X59750000Y4675000D02*
X63000000Y4675000D01*
X63000000Y4675000D02*
X64225000Y5900000D01*
X72136757Y40691455D02*
X72136757Y42751800D01*
X72136757Y42751800D02*
X72577824Y43192867D01*
X74280044Y14955044D02*
X74280044Y38548168D01*
X74280044Y38548168D02*
X72136757Y40691455D01*
X64200000Y4875000D02*
X74280044Y14955044D01*
X59750000Y3675000D02*
X63000000Y3675000D01*
X63000000Y3675000D02*
X64200000Y4875000D01*
X74638169Y40250389D02*
X74638169Y42310733D01*
X74638169Y42310733D02*
X75079236Y42751800D01*
X74638169Y14313169D02*
X74638169Y40250389D01*
X64200000Y3875000D02*
X74638169Y14313169D01*
X59750000Y2675000D02*
X63000000Y2675000D01*
X63000000Y2675000D02*
X64200000Y3875000D01*
X35575004Y9599996D02*
X35550000Y9599996D01*
X36500000Y8675000D02*
X35575004Y9599996D01*
X39750000Y8675000D02*
X36500000Y8675000D01*
X35250001Y9899995D02*
X35550000Y9599996D01*
X26450000Y18699996D02*
X35250001Y9899995D01*
X40343462Y40293462D02*
X26450000Y26400000D01*
X40343462Y42205649D02*
X40343462Y40293462D01*
X26450000Y26400000D02*
X26450000Y18699996D01*
X40033914Y42515197D02*
X40343462Y42205649D01*
X40033914Y44726717D02*
X40033914Y42515197D01*
X36500000Y7675000D02*
X35525000Y8650000D01*
X35525000Y8650000D02*
X26120064Y18054936D01*
X39750000Y7675000D02*
X36500000Y7675000D01*
X26120064Y18054936D02*
X26120064Y26670064D01*
X26120064Y26670064D02*
X37822395Y38372395D01*
X39750000Y7675000D02*
X36525000Y7675000D01*
X37512847Y42205649D02*
X37822395Y41896101D01*
X37822395Y38372395D02*
X37822395Y41896101D01*
X37512847Y44417169D02*
X37512847Y42205649D01*
X35500000Y7675000D02*
X26200000Y16975000D01*
X39750000Y6675000D02*
X36500000Y6675000D01*
X36500000Y6675000D02*
X35500000Y7675000D01*
X25800054Y17374946D02*
X26200000Y16975000D01*
X26200000Y16975000D02*
X25850000Y17325000D01*
X25800054Y26850054D02*
X25800054Y17374946D01*
X35301328Y36351328D02*
X25800054Y26850054D01*
X34991780Y44107620D02*
X34991780Y41896101D01*
X34991780Y41896101D02*
X35301328Y41586553D01*
X35301328Y41586553D02*
X35301328Y36351328D01*
X32470713Y43798072D02*
X32470713Y41586553D01*
X32470713Y41586553D02*
X32780261Y41277005D01*
X32780261Y41277005D02*
X32780261Y34430261D01*
X32780261Y34430261D02*
X32500000Y34150000D01*
X25480044Y27130044D02*
X32500000Y34150000D01*
X32500000Y34150000D02*
X32700000Y34350000D01*
X25480044Y16694956D02*
X25480044Y27130044D01*
X49200000Y13710000D02*
X49200000Y7425000D01*
X49200000Y7425000D02*
X46250000Y4475000D01*
X35500000Y6675000D02*
X25480044Y16694956D01*
X39750000Y5675000D02*
X36500000Y5675000D01*
X36500000Y5675000D02*
X35500000Y6675000D01*
X44120000Y13710000D02*
X44165000Y13710000D01*
X44165000Y13710000D02*
X48024264Y9850736D01*
X48024264Y9850736D02*
X48024264Y7925000D01*
X48024264Y7925000D02*
X46649264Y6550000D01*
X46649264Y6550000D02*
X46225000Y6550000D01*
X35475000Y4700000D02*
X35475000Y4800000D01*
X35175001Y5099999D02*
X35475000Y4800000D01*
X24840022Y15434978D02*
X35175001Y5099999D01*
X27150000Y29800000D02*
X24840022Y27490022D01*
X24840022Y27490022D02*
X24840022Y15434978D01*
X39750000Y3675000D02*
X36500000Y3675000D01*
X36500000Y3675000D02*
X35475000Y4700000D01*
X27428578Y40967457D02*
X27738126Y40657909D01*
X27150000Y29800000D02*
X27300000Y29950000D01*
X27738126Y40657909D02*
X27738126Y30388126D01*
X27738126Y30388126D02*
X27150000Y29800000D01*
X27428578Y43178976D02*
X27428578Y40967457D01*
X34208974Y30350000D02*
X34208974Y30294279D01*
X34208974Y30294279D02*
X33421095Y29506400D01*
X46675000Y23750000D02*
X47175000Y23750000D01*
X47175000Y23750000D02*
X48050000Y22875000D01*
X48050000Y22875000D02*
X48050000Y19792998D01*
X48050000Y19792998D02*
X46932002Y18675000D01*
X46932002Y18675000D02*
X42450000Y18675000D01*
X42450000Y18675000D02*
X41580000Y17805000D01*
X41580000Y17805000D02*
X41580000Y16269048D01*
X46675000Y19950000D02*
X41925952Y19950000D01*
X41925952Y19950000D02*
X39040000Y17064048D01*
X39040000Y17064048D02*
X39040000Y16269048D01*
X46675000Y21225000D02*
X40660952Y21225000D01*
X40660952Y21225000D02*
X36500000Y17064048D01*
X36500000Y17064048D02*
X36500000Y16269048D01*
X58350000Y17490000D02*
X58350000Y17590000D01*
X58350000Y18000000D02*
X58350000Y17590000D01*
X58350000Y17490000D02*
X58125000Y17265000D01*
X58125000Y17265000D02*
X58125000Y14765000D01*
X58125000Y14765000D02*
X57070000Y13710000D01*
X57070000Y13710000D02*
X56820000Y13710000D01*
X56275000Y18000000D02*
X56225000Y18000000D01*
X56225000Y17900000D02*
X54594048Y16269048D01*
X54594048Y16269048D02*
X54280000Y16269048D01*
X51990000Y13710000D02*
X51740000Y13710000D01*
X54175000Y17900000D02*
X53715000Y17900000D01*
X53715000Y17900000D02*
X52865001Y17050001D01*
X52865001Y17050001D02*
X52865001Y14585001D01*
X52865001Y14585001D02*
X51990000Y13710000D01*
X61900000Y16250000D02*
X61300000Y16250000D01*
X61300000Y16250000D02*
X59830000Y17720000D01*
X59830000Y17720000D02*
X59830000Y27220000D01*
X59830000Y27220000D02*
X49930000Y37120000D01*
X49930000Y37120000D02*
X49930000Y37580000D01*
X49925000Y38575000D02*
X49925000Y38525000D01*
X49925000Y38525000D02*
X49375000Y37975000D01*
X49375000Y37975000D02*
X49375000Y36975000D01*
X49375000Y36975000D02*
X59360000Y26990000D01*
X59360000Y26990000D02*
X59360000Y17045000D01*
X59360000Y17045000D02*
X59360000Y16250000D01*
X65883013Y33550000D02*
X65406589Y33550000D01*
X65406589Y33550000D02*
X65137989Y33281400D01*
X65137989Y33281400D02*
X64768017Y33281400D01*
X64768017Y33281400D02*
X64096095Y33281400D01*
X62131111Y42455721D02*
X62131111Y44516066D01*
X62131111Y44516066D02*
X62572177Y44957132D01*
X73000000Y17675000D02*
X73000000Y31586832D01*
X73000000Y31586832D02*
X62981110Y41605722D01*
X62981110Y41605722D02*
X62131111Y42455721D01*
X64225000Y8900000D02*
X73000000Y17675000D01*
X59750000Y7675000D02*
X63000000Y7675000D01*
X63000000Y7675000D02*
X64225000Y8900000D01*
X29949645Y41277006D02*
X30259194Y40967457D01*
X30250000Y39972106D02*
X30250000Y32400000D01*
X30259194Y40967457D02*
X30259194Y39981300D01*
X30259194Y39981300D02*
X30250000Y39972106D01*
X30250000Y40958263D02*
X30259194Y40967457D01*
X30250000Y32400000D02*
X29250000Y31400000D01*
X25160033Y27310033D02*
X29250000Y31400000D01*
X29250000Y31400000D02*
X29652051Y31802051D01*
X25160033Y16014967D02*
X25160033Y27310033D01*
X29949645Y43488524D02*
X29949645Y41277006D01*
X46660000Y13710000D02*
X46660000Y13215000D01*
X46660000Y13215000D02*
X48700000Y11175000D01*
X48700000Y11175000D02*
X48700000Y7975000D01*
X48700000Y7975000D02*
X46549999Y5824999D01*
X46549999Y5824999D02*
X46250000Y5525000D01*
X35450000Y5725000D02*
X25160033Y16014967D01*
X39750000Y4675000D02*
X36500000Y4675000D01*
X36500000Y4675000D02*
X35450000Y5725000D01*
X47290000Y46250000D02*
X49925000Y43615000D01*
X49925000Y40985000D02*
X49925000Y40525000D01*
X49925000Y43615000D02*
X49925000Y40985000D01*
X44750000Y46250000D02*
X47290000Y46250000D01*
X56275000Y19310000D02*
X56275000Y19000000D01*
X56275000Y19000000D02*
X56735000Y19000000D01*
X56735000Y19000000D02*
X58350000Y19000000D01*
X51775000Y21225000D02*
X54360000Y21225000D01*
X54360000Y21225000D02*
X56275000Y19310000D01*
X48519979Y37067668D02*
X48519979Y37067667D01*
X48519979Y37067667D02*
X48514968Y37062656D01*
X48514968Y37062656D02*
X48514968Y23985032D01*
X48514968Y23985032D02*
X51275000Y21225000D01*
X51275000Y21225000D02*
X51775000Y21225000D01*
X49925000Y40475000D02*
X49925000Y40525000D01*
X48514967Y37062656D02*
X48519979Y37067668D01*
X48519980Y39069980D02*
X49925000Y40475000D01*
X48519979Y37067668D02*
X48519980Y39069980D01*
X47290000Y48790000D02*
X50434999Y45645001D01*
X50434999Y45645001D02*
X50434999Y40134999D01*
X50434999Y40134999D02*
X49925000Y39625000D01*
X49925000Y39625000D02*
X49925000Y39575000D01*
X47290000Y48790000D02*
X44750000Y48790000D01*
X54175000Y19000000D02*
X54175000Y19399998D01*
X51775000Y22475000D02*
X52725000Y22475000D01*
X48834978Y36930104D02*
X48834978Y24915022D01*
X48834978Y24915022D02*
X51275000Y22475000D01*
X51275000Y22475000D02*
X51775000Y22475000D01*
X49925000Y39525000D02*
X49925000Y39575000D01*
X48839990Y38439990D02*
X49925000Y39525000D01*
X48839990Y36935116D02*
X48839990Y38439990D01*
X48834978Y36930104D02*
X48839990Y36935116D01*
D10*
G36*
X68595168Y71756894D02*
X68607991Y71739044D01*
X68617054Y71719020D01*
X68633352Y71703742D01*
X68646389Y71685595D01*
X68665071Y71674009D01*
X68681104Y71658980D01*
X68702008Y71651102D01*
X68720997Y71639326D01*
X68742689Y71635771D01*
X68763255Y71628021D01*
X68785582Y71628742D01*
X68807632Y71625129D01*
X68829032Y71630146D01*
X68851000Y71630856D01*
X86461549Y75729221D01*
X97222663Y66022156D01*
X92873416Y57249945D01*
X92867814Y57229216D01*
X92858159Y57210041D01*
X92856475Y57187256D01*
X92850513Y57165194D01*
X92853270Y57143899D01*
X92851688Y57122489D01*
X92858853Y57100792D01*
X92861787Y57078130D01*
X92872483Y57059512D01*
X92879215Y57039125D01*
X92894137Y57021821D01*
X92905520Y57002008D01*
X92922526Y56988901D01*
X92936548Y56972641D01*
X92956957Y56962365D01*
X92975055Y56948416D01*
X92995784Y56942814D01*
X93014959Y56933159D01*
X103475326Y54036810D01*
X96722366Y49385296D01*
X96717492Y49380282D01*
X96711252Y49377127D01*
X96687052Y49348970D01*
X96661172Y49322348D01*
X96658588Y49315851D01*
X96654030Y49310548D01*
X94471788Y45442027D01*
X88568509Y40066360D01*
X88565304Y40062018D01*
X88560820Y40059018D01*
X88539350Y40026850D01*
X88516377Y39995723D01*
X88515078Y39990485D01*
X88512083Y39985998D01*
X88504556Y39948057D01*
X88495246Y39910514D01*
X88496050Y39905179D01*
X88495000Y39899885D01*
X88502567Y39861944D01*
X88508331Y39823704D01*
X88511115Y39819083D01*
X88512171Y39813790D01*
X88533677Y39781639D01*
X88553640Y39748509D01*
X88557982Y39745304D01*
X88560982Y39740820D01*
X89956392Y38346832D01*
X90694979Y36566293D01*
X90695960Y34638646D01*
X89959189Y32857354D01*
X88596831Y31493607D01*
X86797838Y30747366D01*
X86587968Y30710508D01*
X86571889Y30704268D01*
X86552510Y30701235D01*
X86532315Y30688910D01*
X86506124Y30678746D01*
X86489288Y30662651D01*
X86477572Y30655501D01*
X86467814Y30642123D01*
X86442666Y30618081D01*
X86431034Y30591693D01*
X86425840Y30584572D01*
X86423339Y30574238D01*
X86407254Y30537749D01*
X86406510Y30504700D01*
X86405190Y30499244D01*
X86185215Y25149848D01*
X86125340Y23872514D01*
X86105467Y23564486D01*
X86105966Y23560725D01*
X86105110Y23557028D01*
X86095110Y23237028D01*
X86097550Y23222386D01*
X86096117Y23207612D01*
X86103135Y23137433D01*
X86061390Y22886961D01*
X86054995Y22872145D01*
X85979994Y22522144D01*
X85979941Y22518571D01*
X85978629Y22515249D01*
X85728629Y21140249D01*
X85728886Y21124652D01*
X85725201Y21109499D01*
X85275978Y10477884D01*
X85040867Y9349351D01*
X84019239Y8090135D01*
X77645558Y3509051D01*
X76145082Y2475937D01*
X72060320Y941057D01*
X68431860Y120925D01*
X64056589Y-600000D01*
X48253016Y-600000D01*
X34285858Y-225210D01*
X29657360Y98287D01*
X25273677Y1069671D01*
X25261713Y1069931D01*
X25250310Y1073572D01*
X23934783Y1222500D01*
X22444126Y1520631D01*
X22441524Y1520634D01*
X22439102Y1521576D01*
X21613120Y1667338D01*
X21210669Y1833053D01*
X21187949Y1837523D01*
X21166465Y1846146D01*
X20811600Y1912683D01*
X20481143Y2132987D01*
X15951190Y5617567D01*
X15079391Y6537800D01*
X14695025Y7162393D01*
X13311965Y9730934D01*
X13025000Y10926621D01*
X13025000Y21048850D01*
X13074989Y26047750D01*
X13074695Y26049308D01*
X13074998Y26050862D01*
X13064998Y28660862D01*
X13061995Y28675664D01*
X13062890Y28690743D01*
X13022890Y28980743D01*
X13013038Y29009188D01*
X13006807Y29038632D01*
X12998795Y29050312D01*
X12994158Y29063700D01*
X12974171Y29086210D01*
X12957147Y29111027D01*
X12945275Y29118752D01*
X12935868Y29129346D01*
X12908790Y29142492D01*
X12883563Y29158907D01*
X12633563Y29258907D01*
X12619695Y29261490D01*
X12607006Y29267659D01*
X12197307Y29374961D01*
X11807387Y29517615D01*
X11369600Y29726991D01*
X10650548Y30187184D01*
X9933356Y30885251D01*
X9369134Y31717240D01*
X8955630Y32717341D01*
X8832018Y33287861D01*
X8774784Y33745739D01*
X8765308Y34361684D01*
X8968165Y35491889D01*
X9156417Y36018994D01*
X9580394Y36818769D01*
X9969593Y37334458D01*
X9979025Y37353976D01*
X9992154Y37371214D01*
X9997936Y37393108D01*
X10007792Y37413503D01*
X10009037Y37435142D01*
X10014570Y37456095D01*
X10011533Y37478540D01*
X10012833Y37501149D01*
X10005704Y37521613D01*
X10002797Y37543093D01*
X9991401Y37562667D01*
X9983951Y37584052D01*
X9969531Y37600233D01*
X9958627Y37618962D01*
X9940613Y37632682D01*
X9925542Y37649593D01*
X9906024Y37659025D01*
X9888786Y37672154D01*
X9866892Y37677936D01*
X9846497Y37687792D01*
X9824858Y37689037D01*
X9803905Y37694570D01*
X3388825Y38091789D01*
X-347437Y39927471D01*
X1708188Y42461561D01*
X21431306Y42461561D01*
X21435890Y42424225D01*
X21553190Y42068492D01*
X21797694Y41784726D01*
X22026444Y41669425D01*
X22026444Y40725406D01*
X21937214Y40648522D01*
X21768617Y40314037D01*
X21740855Y39940494D01*
X21745439Y39903158D01*
X21862739Y39547425D01*
X22107243Y39263659D01*
X22441728Y39095062D01*
X22815271Y39067300D01*
X23073304Y39152385D01*
X23770001Y38455688D01*
X23770001Y14069999D01*
X23797404Y13932233D01*
X23875443Y13815441D01*
X34965001Y2725882D01*
X34964912Y2624000D01*
X35042391Y2436486D01*
X35185731Y2292896D01*
X35373110Y2215089D01*
X35475884Y2214999D01*
X35645442Y2045441D01*
X35762234Y1967403D01*
X35806225Y1958653D01*
X36084307Y1680571D01*
X36084307Y1429907D01*
X36098950Y1352086D01*
X36144942Y1280612D01*
X36215119Y1232662D01*
X36298421Y1215793D01*
X44298421Y1215793D01*
X44376242Y1230436D01*
X44447716Y1276428D01*
X44495666Y1346605D01*
X44512535Y1429907D01*
X44512535Y1929907D01*
X44497892Y2007728D01*
X44451900Y2079202D01*
X44381723Y2127152D01*
X44298421Y2144021D01*
X36441101Y2144021D01*
X36369329Y2215793D01*
X44298421Y2215793D01*
X44376242Y2230436D01*
X44447716Y2276428D01*
X44495666Y2346605D01*
X44512535Y2429907D01*
X44512535Y2929907D01*
X44497892Y3007728D01*
X44451900Y3079202D01*
X44381723Y3127152D01*
X44298421Y3144021D01*
X36441101Y3144021D01*
X36369329Y3215793D01*
X44298421Y3215793D01*
X44376242Y3230436D01*
X44447716Y3276428D01*
X44495666Y3346605D01*
X44512535Y3429907D01*
X44512535Y3929907D01*
X44497892Y4007728D01*
X44451900Y4079202D01*
X44381723Y4127152D01*
X44298421Y4144021D01*
X36441101Y4144021D01*
X36369329Y4215793D01*
X44298421Y4215793D01*
X44376242Y4230436D01*
X44447716Y4276428D01*
X44495666Y4346605D01*
X44512535Y4429907D01*
X44512535Y4929907D01*
X44497892Y5007728D01*
X44451900Y5079202D01*
X44381723Y5127152D01*
X44298421Y5144021D01*
X36441101Y5144021D01*
X36369329Y5215793D01*
X44298421Y5215793D01*
X44376242Y5230436D01*
X44447716Y5276428D01*
X44495666Y5346605D01*
X44512535Y5429907D01*
X44512535Y5929907D01*
X44497892Y6007728D01*
X44451900Y6079202D01*
X44381723Y6127152D01*
X44298421Y6144021D01*
X36441101Y6144021D01*
X36369329Y6215793D01*
X44298421Y6215793D01*
X44376242Y6230436D01*
X44447716Y6276428D01*
X44495666Y6346605D01*
X44512535Y6429907D01*
X44512535Y6929907D01*
X44497892Y7007728D01*
X44451900Y7079202D01*
X44381723Y7127152D01*
X44298421Y7144021D01*
X36441101Y7144021D01*
X36369329Y7215793D01*
X44298421Y7215793D01*
X44376242Y7230436D01*
X44447716Y7276428D01*
X44495666Y7346605D01*
X44512535Y7429907D01*
X44512535Y7929907D01*
X44497892Y8007728D01*
X44451900Y8079202D01*
X44381723Y8127152D01*
X44298421Y8144021D01*
X36441101Y8144021D01*
X36369329Y8215793D01*
X44298421Y8215793D01*
X44376242Y8230436D01*
X44447716Y8276428D01*
X44495666Y8346605D01*
X44512535Y8429907D01*
X44512535Y8929907D01*
X44497892Y9007728D01*
X44451900Y9079202D01*
X44381723Y9127152D01*
X44298421Y9144021D01*
X36441101Y9144021D01*
X36335122Y9250000D01*
X44570000Y9250000D01*
X44570000Y1175000D01*
X44587508Y1086983D01*
X44637365Y1012365D01*
X44711983Y962508D01*
X44800000Y945000D01*
X45250000Y945000D01*
X45338017Y962508D01*
X45412635Y1012365D01*
X45462492Y1086983D01*
X45480000Y1175000D01*
X45480000Y9250000D01*
X45462492Y9338017D01*
X45412635Y9412635D01*
X45338017Y9462492D01*
X45250000Y9480000D01*
X44800000Y9480000D01*
X44711983Y9462492D01*
X44637365Y9412635D01*
X44587508Y9338017D01*
X44570000Y9250000D01*
X36335122Y9250000D01*
X36059935Y9525187D01*
X36060088Y9700996D01*
X35982609Y9888510D01*
X35839269Y10032100D01*
X35651890Y10109907D01*
X35450035Y10110083D01*
X31850118Y13710000D01*
X35621192Y13710000D01*
X35694268Y13342624D01*
X35902369Y13031177D01*
X36213816Y12823076D01*
X36581192Y12750000D01*
X36618808Y12750000D01*
X36986184Y12823076D01*
X37297631Y13031177D01*
X37505732Y13342624D01*
X37578808Y13710000D01*
X38161192Y13710000D01*
X38234268Y13342624D01*
X38442369Y13031177D01*
X38753816Y12823076D01*
X39121192Y12750000D01*
X39158808Y12750000D01*
X39526184Y12823076D01*
X39837631Y13031177D01*
X40045732Y13342624D01*
X40118808Y13710000D01*
X40701192Y13710000D01*
X40774268Y13342624D01*
X40982369Y13031177D01*
X41293816Y12823076D01*
X41661192Y12750000D01*
X41698808Y12750000D01*
X42066184Y12823076D01*
X42377631Y13031177D01*
X42585732Y13342624D01*
X42658808Y13710000D01*
X43241192Y13710000D01*
X43314268Y13342624D01*
X43522369Y13031177D01*
X43833816Y12823076D01*
X44201192Y12750000D01*
X44238808Y12750000D01*
X44606184Y12823076D01*
X44627535Y12837343D01*
X47734264Y9730614D01*
X47734264Y8045122D01*
X46592689Y6903547D01*
X46514269Y6982104D01*
X46326890Y7059911D01*
X46124000Y7060088D01*
X45936486Y6982609D01*
X45792896Y6839269D01*
X45715089Y6651890D01*
X45714912Y6449000D01*
X45792391Y6261486D01*
X45935731Y6117896D01*
X46123110Y6040089D01*
X46326000Y6039912D01*
X46375062Y6060184D01*
X46349791Y6034913D01*
X46149000Y6035088D01*
X45961486Y5957609D01*
X45817896Y5814269D01*
X45740089Y5626890D01*
X45739912Y5424000D01*
X45817391Y5236486D01*
X45960731Y5092896D01*
X46148110Y5015089D01*
X46351000Y5014912D01*
X46400062Y5035184D01*
X46349791Y4984913D01*
X46149000Y4985088D01*
X45961486Y4907609D01*
X45817896Y4764269D01*
X45740089Y4576890D01*
X45739912Y4374000D01*
X45817391Y4186486D01*
X45960731Y4042896D01*
X46148110Y3965089D01*
X46351000Y3964912D01*
X46538514Y4042391D01*
X46682104Y4185731D01*
X46759911Y4373110D01*
X46760087Y4574965D01*
X47659122Y5474000D01*
X52539908Y5474000D01*
X52617387Y5286486D01*
X52760727Y5142896D01*
X52948106Y5065089D01*
X53150996Y5064912D01*
X53338510Y5142391D01*
X53482100Y5285731D01*
X53559907Y5473110D01*
X53560084Y5676000D01*
X53482605Y5863514D01*
X53339996Y6006372D01*
X53339996Y9250000D01*
X54120000Y9250000D01*
X54120000Y1175000D01*
X54137508Y1086983D01*
X54187365Y1012365D01*
X54261983Y962508D01*
X54350000Y945000D01*
X54800000Y945000D01*
X54888017Y962508D01*
X54962635Y1012365D01*
X55012492Y1086983D01*
X55030000Y1175000D01*
X55030000Y1979635D01*
X55048421Y1979635D01*
X55048421Y1792407D01*
X55110921Y1729907D01*
X55200000Y1729907D01*
X55200000Y1629907D01*
X55110921Y1629907D01*
X55048421Y1567407D01*
X55048421Y1380179D01*
X55086481Y1288293D01*
X55156807Y1217967D01*
X55210585Y1195692D01*
X55214160Y1190136D01*
X55230547Y1178939D01*
X55250000Y1175000D01*
X63450000Y1175000D01*
X63468173Y1178419D01*
X63484864Y1189160D01*
X63496061Y1205547D01*
X63500000Y1225000D01*
X63500000Y1277932D01*
X63510361Y1288293D01*
X63548421Y1380179D01*
X63548421Y1567407D01*
X63500000Y1615828D01*
X63500000Y1743986D01*
X63548421Y1792407D01*
X63548421Y1979635D01*
X63510361Y2071521D01*
X63500000Y2081882D01*
X63500000Y2125000D01*
X63496581Y2143173D01*
X63485840Y2159864D01*
X63469453Y2171061D01*
X63450000Y2175000D01*
X63359996Y2175000D01*
X63348149Y2179907D01*
X59410921Y2179907D01*
X59406014Y2175000D01*
X59190828Y2175000D01*
X59185921Y2179907D01*
X55248693Y2179907D01*
X55156807Y2141847D01*
X55086481Y2071521D01*
X55048421Y1979635D01*
X55030000Y1979635D01*
X55030000Y9250000D01*
X55012492Y9338017D01*
X54962635Y9412635D01*
X54888017Y9462492D01*
X54800000Y9480000D01*
X54350000Y9480000D01*
X54261983Y9462492D01*
X54187365Y9412635D01*
X54137508Y9338017D01*
X54120000Y9250000D01*
X53339996Y9250000D01*
X53339996Y9829874D01*
X54820122Y11310000D01*
X57250000Y11310000D01*
X57360978Y11332075D01*
X57455061Y11394939D01*
X58959549Y12899427D01*
X59073816Y12823076D01*
X59441192Y12750000D01*
X59478808Y12750000D01*
X59846184Y12823076D01*
X60157631Y13031177D01*
X60365732Y13342624D01*
X60438808Y13710000D01*
X61021192Y13710000D01*
X61094268Y13342624D01*
X61302369Y13031177D01*
X61613816Y12823076D01*
X61981192Y12750000D01*
X62018808Y12750000D01*
X62386184Y12823076D01*
X62697631Y13031177D01*
X62905732Y13342624D01*
X62978808Y13710000D01*
X62905732Y14077376D01*
X62697631Y14388823D01*
X62386184Y14596924D01*
X62018808Y14670000D01*
X61981192Y14670000D01*
X61613816Y14596924D01*
X61302369Y14388823D01*
X61094268Y14077376D01*
X61021192Y13710000D01*
X60438808Y13710000D01*
X60365732Y14077376D01*
X60157631Y14388823D01*
X59846184Y14596924D01*
X59478808Y14670000D01*
X59441192Y14670000D01*
X59073816Y14596924D01*
X58762369Y14388823D01*
X58554268Y14077376D01*
X58481192Y13710000D01*
X58554268Y13342624D01*
X58565577Y13325699D01*
X57129878Y11890000D01*
X54700000Y11890000D01*
X54589022Y11867925D01*
X54494939Y11805061D01*
X52844935Y10155057D01*
X52782071Y10060974D01*
X52759996Y9949996D01*
X52759996Y6006126D01*
X52617892Y5864269D01*
X52540085Y5676890D01*
X52539908Y5474000D01*
X47659122Y5474000D01*
X49405061Y7219939D01*
X49467925Y7314022D01*
X49490000Y7425000D01*
X49490000Y12784052D01*
X49686184Y12823076D01*
X49997631Y13031177D01*
X50205732Y13342624D01*
X50278808Y13710000D01*
X50861192Y13710000D01*
X50934268Y13342624D01*
X51142369Y13031177D01*
X51453816Y12823076D01*
X51821192Y12750000D01*
X51858808Y12750000D01*
X52226184Y12823076D01*
X52537631Y13031177D01*
X52745732Y13342624D01*
X52818808Y13710000D01*
X53401192Y13710000D01*
X53474268Y13342624D01*
X53682369Y13031177D01*
X53993816Y12823076D01*
X54361192Y12750000D01*
X54398808Y12750000D01*
X54766184Y12823076D01*
X55077631Y13031177D01*
X55285732Y13342624D01*
X55358808Y13710000D01*
X55941192Y13710000D01*
X56014268Y13342624D01*
X56222369Y13031177D01*
X56533816Y12823076D01*
X56901192Y12750000D01*
X56938808Y12750000D01*
X57306184Y12823076D01*
X57617631Y13031177D01*
X57825732Y13342624D01*
X57898808Y13710000D01*
X57829343Y14059221D01*
X58330061Y14559939D01*
X58392925Y14654021D01*
X58415000Y14765000D01*
X58415000Y17144878D01*
X58555061Y17284939D01*
X58617925Y17379022D01*
X58640000Y17490000D01*
X58640000Y17535886D01*
X58650000Y17535886D01*
X58727821Y17550529D01*
X58799295Y17596521D01*
X58847245Y17666698D01*
X58864114Y17750000D01*
X58864114Y18250000D01*
X58849471Y18327821D01*
X58803479Y18399295D01*
X58733302Y18447245D01*
X58650000Y18464114D01*
X58050000Y18464114D01*
X57972179Y18449471D01*
X57900705Y18403479D01*
X57852755Y18333302D01*
X57835886Y18250000D01*
X57835886Y17750000D01*
X57850529Y17672179D01*
X57896521Y17600705D01*
X57966698Y17552755D01*
X57996581Y17546703D01*
X57919939Y17470061D01*
X57857075Y17375978D01*
X57835000Y17265000D01*
X57835000Y17131391D01*
X57823479Y17149295D01*
X57753302Y17197245D01*
X57670000Y17214114D01*
X56170000Y17214114D01*
X56092179Y17199471D01*
X56020705Y17153479D01*
X55972755Y17083302D01*
X55955886Y17000000D01*
X55955886Y15500000D01*
X55970529Y15422179D01*
X56016521Y15350705D01*
X56086698Y15302755D01*
X56170000Y15285886D01*
X57670000Y15285886D01*
X57747821Y15300529D01*
X57819295Y15346521D01*
X57835000Y15369506D01*
X57835000Y14885122D01*
X57450424Y14500546D01*
X57306184Y14596924D01*
X56938808Y14670000D01*
X56901192Y14670000D01*
X56533816Y14596924D01*
X56222369Y14388823D01*
X56014268Y14077376D01*
X55941192Y13710000D01*
X55358808Y13710000D01*
X55285732Y14077376D01*
X55077631Y14388823D01*
X54766184Y14596924D01*
X54398808Y14670000D01*
X54361192Y14670000D01*
X53993816Y14596924D01*
X53682369Y14388823D01*
X53474268Y14077376D01*
X53401192Y13710000D01*
X52818808Y13710000D01*
X52749343Y14059221D01*
X53070062Y14379940D01*
X53132926Y14474023D01*
X53155001Y14585001D01*
X53155001Y16929879D01*
X53225122Y17000000D01*
X53415886Y17000000D01*
X53415886Y15500000D01*
X53430529Y15422179D01*
X53476521Y15350705D01*
X53546698Y15302755D01*
X53630000Y15285886D01*
X55130000Y15285886D01*
X55207821Y15300529D01*
X55279295Y15346521D01*
X55327245Y15416698D01*
X55344114Y15500000D01*
X55344114Y16608992D01*
X56271008Y17535886D01*
X56575000Y17535886D01*
X56652821Y17550529D01*
X56724295Y17596521D01*
X56772245Y17666698D01*
X56789114Y17750000D01*
X56789114Y18250000D01*
X56774471Y18327821D01*
X56728479Y18399295D01*
X56658302Y18447245D01*
X56575000Y18464114D01*
X55975000Y18464114D01*
X55897179Y18449471D01*
X55825705Y18403479D01*
X55777755Y18333302D01*
X55760886Y18250000D01*
X55760886Y17846008D01*
X55128992Y17214114D01*
X53630000Y17214114D01*
X53552179Y17199471D01*
X53480705Y17153479D01*
X53432755Y17083302D01*
X53415886Y17000000D01*
X53225122Y17000000D01*
X53783487Y17558365D01*
X53791698Y17552755D01*
X53875000Y17535886D01*
X54475000Y17535886D01*
X54552821Y17550529D01*
X54624295Y17596521D01*
X54672245Y17666698D01*
X54689114Y17750000D01*
X54689114Y18250000D01*
X54674471Y18327821D01*
X54628479Y18399295D01*
X54558302Y18447245D01*
X54475000Y18464114D01*
X53875000Y18464114D01*
X53797179Y18449471D01*
X53725705Y18403479D01*
X53677755Y18333302D01*
X53660886Y18250000D01*
X53660886Y18179236D01*
X53604022Y18167925D01*
X53509939Y18105061D01*
X52659940Y17255062D01*
X52652910Y17244540D01*
X52639728Y17250000D01*
X51952500Y17250000D01*
X51890000Y17187500D01*
X51890000Y16300000D01*
X51910000Y16300000D01*
X51910000Y16200000D01*
X51890000Y16200000D01*
X51890000Y15312500D01*
X51952500Y15250000D01*
X52575001Y15250000D01*
X52575001Y14705123D01*
X52370424Y14500546D01*
X52226184Y14596924D01*
X51858808Y14670000D01*
X51821192Y14670000D01*
X51453816Y14596924D01*
X51142369Y14388823D01*
X50934268Y14077376D01*
X50861192Y13710000D01*
X50278808Y13710000D01*
X50205732Y14077376D01*
X49997631Y14388823D01*
X49686184Y14596924D01*
X49318808Y14670000D01*
X49281192Y14670000D01*
X48913816Y14596924D01*
X48602369Y14388823D01*
X48394268Y14077376D01*
X48321192Y13710000D01*
X48394268Y13342624D01*
X48602369Y13031177D01*
X48910000Y12825626D01*
X48910000Y11372669D01*
X48905061Y11380061D01*
X47335530Y12949592D01*
X47457631Y13031177D01*
X47665732Y13342624D01*
X47738808Y13710000D01*
X47665732Y14077376D01*
X47457631Y14388823D01*
X47146184Y14596924D01*
X46778808Y14670000D01*
X46741192Y14670000D01*
X46373816Y14596924D01*
X46062369Y14388823D01*
X45854268Y14077376D01*
X45781192Y13710000D01*
X45854268Y13342624D01*
X46062369Y13031177D01*
X46373816Y12823076D01*
X46708344Y12756534D01*
X48410000Y11054878D01*
X48410000Y8095122D01*
X48314264Y7999386D01*
X48314264Y9850736D01*
X48292189Y9961714D01*
X48292189Y9961715D01*
X48229325Y10055797D01*
X45052339Y13232783D01*
X45125732Y13342624D01*
X45198808Y13710000D01*
X45125732Y14077376D01*
X44917631Y14388823D01*
X44606184Y14596924D01*
X44238808Y14670000D01*
X44201192Y14670000D01*
X43833816Y14596924D01*
X43522369Y14388823D01*
X43314268Y14077376D01*
X43241192Y13710000D01*
X42658808Y13710000D01*
X42585732Y14077376D01*
X42377631Y14388823D01*
X42066184Y14596924D01*
X41698808Y14670000D01*
X41661192Y14670000D01*
X41293816Y14596924D01*
X40982369Y14388823D01*
X40774268Y14077376D01*
X40701192Y13710000D01*
X40118808Y13710000D01*
X40045732Y14077376D01*
X39837631Y14388823D01*
X39526184Y14596924D01*
X39158808Y14670000D01*
X39121192Y14670000D01*
X38753816Y14596924D01*
X38442369Y14388823D01*
X38234268Y14077376D01*
X38161192Y13710000D01*
X37578808Y13710000D01*
X37505732Y14077376D01*
X37297631Y14388823D01*
X36986184Y14596924D01*
X36618808Y14670000D01*
X36581192Y14670000D01*
X36213816Y14596924D01*
X35902369Y14388823D01*
X35694268Y14077376D01*
X35621192Y13710000D01*
X31850118Y13710000D01*
X28560118Y17000000D01*
X35635886Y17000000D01*
X35635886Y15500000D01*
X35650529Y15422179D01*
X35696521Y15350705D01*
X35766698Y15302755D01*
X35850000Y15285886D01*
X37350000Y15285886D01*
X37427821Y15300529D01*
X37499295Y15346521D01*
X37547245Y15416698D01*
X37564114Y15500000D01*
X37564114Y17000000D01*
X38175886Y17000000D01*
X38175886Y15500000D01*
X38190529Y15422179D01*
X38236521Y15350705D01*
X38306698Y15302755D01*
X38390000Y15285886D01*
X39890000Y15285886D01*
X39967821Y15300529D01*
X40039295Y15346521D01*
X40087245Y15416698D01*
X40104114Y15500000D01*
X40104114Y17000000D01*
X40089471Y17077821D01*
X40043479Y17149295D01*
X39973302Y17197245D01*
X39890000Y17214114D01*
X39600188Y17214114D01*
X42046074Y19660000D01*
X45660886Y19660000D01*
X45660886Y19650000D01*
X45675529Y19572179D01*
X45721521Y19500705D01*
X45791698Y19452755D01*
X45875000Y19435886D01*
X47282766Y19435886D01*
X46811880Y18965000D01*
X42450000Y18965000D01*
X42339022Y18942925D01*
X42244939Y18880061D01*
X41374939Y18010061D01*
X41312075Y17915978D01*
X41290000Y17805000D01*
X41290000Y17214114D01*
X40930000Y17214114D01*
X40852179Y17199471D01*
X40780705Y17153479D01*
X40732755Y17083302D01*
X40715886Y17000000D01*
X40715886Y15500000D01*
X40730529Y15422179D01*
X40776521Y15350705D01*
X40846698Y15302755D01*
X40930000Y15285886D01*
X42430000Y15285886D01*
X42507821Y15300529D01*
X42579295Y15346521D01*
X42627245Y15416698D01*
X42644114Y15500000D01*
X42644114Y16137500D01*
X43220000Y16137500D01*
X43220000Y15450272D01*
X43258060Y15358386D01*
X43328386Y15288060D01*
X43420272Y15250000D01*
X44107500Y15250000D01*
X44170000Y15312500D01*
X44170000Y16200000D01*
X44270000Y16200000D01*
X44270000Y15312500D01*
X44332500Y15250000D01*
X45019728Y15250000D01*
X45111614Y15288060D01*
X45181940Y15358386D01*
X45220000Y15450272D01*
X45220000Y16137500D01*
X45760000Y16137500D01*
X45760000Y15450272D01*
X45798060Y15358386D01*
X45868386Y15288060D01*
X45960272Y15250000D01*
X46647500Y15250000D01*
X46710000Y15312500D01*
X46710000Y16200000D01*
X46810000Y16200000D01*
X46810000Y15312500D01*
X46872500Y15250000D01*
X47559728Y15250000D01*
X47651614Y15288060D01*
X47721940Y15358386D01*
X47760000Y15450272D01*
X47760000Y16137500D01*
X48300000Y16137500D01*
X48300000Y15450272D01*
X48338060Y15358386D01*
X48408386Y15288060D01*
X48500272Y15250000D01*
X49187500Y15250000D01*
X49250000Y15312500D01*
X49250000Y16200000D01*
X49350000Y16200000D01*
X49350000Y15312500D01*
X49412500Y15250000D01*
X50099728Y15250000D01*
X50191614Y15288060D01*
X50261940Y15358386D01*
X50300000Y15450272D01*
X50300000Y16137500D01*
X50840000Y16137500D01*
X50840000Y15450272D01*
X50878060Y15358386D01*
X50948386Y15288060D01*
X51040272Y15250000D01*
X51727500Y15250000D01*
X51790000Y15312500D01*
X51790000Y16200000D01*
X50902500Y16200000D01*
X50840000Y16137500D01*
X50300000Y16137500D01*
X50237500Y16200000D01*
X49350000Y16200000D01*
X49250000Y16200000D01*
X48362500Y16200000D01*
X48300000Y16137500D01*
X47760000Y16137500D01*
X47697500Y16200000D01*
X46810000Y16200000D01*
X46710000Y16200000D01*
X45822500Y16200000D01*
X45760000Y16137500D01*
X45220000Y16137500D01*
X45157500Y16200000D01*
X44270000Y16200000D01*
X44170000Y16200000D01*
X43282500Y16200000D01*
X43220000Y16137500D01*
X42644114Y16137500D01*
X42644114Y17000000D01*
X42634758Y17049728D01*
X43220000Y17049728D01*
X43220000Y16362500D01*
X43282500Y16300000D01*
X44170000Y16300000D01*
X44170000Y17187500D01*
X44270000Y17187500D01*
X44270000Y16300000D01*
X45157500Y16300000D01*
X45220000Y16362500D01*
X45220000Y17049728D01*
X45760000Y17049728D01*
X45760000Y16362500D01*
X45822500Y16300000D01*
X46710000Y16300000D01*
X46710000Y17187500D01*
X46810000Y17187500D01*
X46810000Y16300000D01*
X47697500Y16300000D01*
X47760000Y16362500D01*
X47760000Y17049728D01*
X48300000Y17049728D01*
X48300000Y16362500D01*
X48362500Y16300000D01*
X49250000Y16300000D01*
X49250000Y17187500D01*
X49350000Y17187500D01*
X49350000Y16300000D01*
X50237500Y16300000D01*
X50300000Y16362500D01*
X50300000Y17049728D01*
X50840000Y17049728D01*
X50840000Y16362500D01*
X50902500Y16300000D01*
X51790000Y16300000D01*
X51790000Y17187500D01*
X51727500Y17250000D01*
X51040272Y17250000D01*
X50948386Y17211940D01*
X50878060Y17141614D01*
X50840000Y17049728D01*
X50300000Y17049728D01*
X50261940Y17141614D01*
X50191614Y17211940D01*
X50099728Y17250000D01*
X49412500Y17250000D01*
X49350000Y17187500D01*
X49250000Y17187500D01*
X49187500Y17250000D01*
X48500272Y17250000D01*
X48408386Y17211940D01*
X48338060Y17141614D01*
X48300000Y17049728D01*
X47760000Y17049728D01*
X47721940Y17141614D01*
X47651614Y17211940D01*
X47559728Y17250000D01*
X46872500Y17250000D01*
X46810000Y17187500D01*
X46710000Y17187500D01*
X46647500Y17250000D01*
X45960272Y17250000D01*
X45868386Y17211940D01*
X45798060Y17141614D01*
X45760000Y17049728D01*
X45220000Y17049728D01*
X45181940Y17141614D01*
X45111614Y17211940D01*
X45019728Y17250000D01*
X44332500Y17250000D01*
X44270000Y17187500D01*
X44170000Y17187500D01*
X44107500Y17250000D01*
X43420272Y17250000D01*
X43328386Y17211940D01*
X43258060Y17141614D01*
X43220000Y17049728D01*
X42634758Y17049728D01*
X42629471Y17077821D01*
X42583479Y17149295D01*
X42513302Y17197245D01*
X42430000Y17214114D01*
X41870000Y17214114D01*
X41870000Y17684878D01*
X42570122Y18385000D01*
X46932002Y18385000D01*
X47042980Y18407075D01*
X47137063Y18469939D01*
X47917124Y19250000D01*
X53660886Y19250000D01*
X53660886Y18750000D01*
X53675529Y18672179D01*
X53721521Y18600705D01*
X53791698Y18552755D01*
X53875000Y18535886D01*
X54475000Y18535886D01*
X54552821Y18550529D01*
X54624295Y18596521D01*
X54672245Y18666698D01*
X54689114Y18750000D01*
X54689114Y19250000D01*
X54681574Y19290073D01*
X54684911Y19298110D01*
X54685088Y19501000D01*
X54607609Y19688514D01*
X54464269Y19832104D01*
X54276890Y19909911D01*
X54074000Y19910088D01*
X53886486Y19832609D01*
X53742896Y19689269D01*
X53665089Y19501890D01*
X53664912Y19299000D01*
X53668869Y19289423D01*
X53660886Y19250000D01*
X47917124Y19250000D01*
X48255061Y19587937D01*
X48317925Y19682020D01*
X48340000Y19792998D01*
X48340000Y19837500D01*
X50725000Y19837500D01*
X50725000Y19600272D01*
X50763060Y19508386D01*
X50833386Y19438060D01*
X50925272Y19400000D01*
X51662500Y19400000D01*
X51725000Y19462500D01*
X51725000Y19900000D01*
X51825000Y19900000D01*
X51825000Y19462500D01*
X51887500Y19400000D01*
X52624728Y19400000D01*
X52716614Y19438060D01*
X52786940Y19508386D01*
X52825000Y19600272D01*
X52825000Y19837500D01*
X52762500Y19900000D01*
X51825000Y19900000D01*
X51725000Y19900000D01*
X50787500Y19900000D01*
X50725000Y19837500D01*
X48340000Y19837500D01*
X48340000Y20299728D01*
X50725000Y20299728D01*
X50725000Y20062500D01*
X50787500Y20000000D01*
X51725000Y20000000D01*
X51725000Y20437500D01*
X51825000Y20437500D01*
X51825000Y20000000D01*
X52762500Y20000000D01*
X52825000Y20062500D01*
X52825000Y20299728D01*
X52786940Y20391614D01*
X52716614Y20461940D01*
X52624728Y20500000D01*
X51887500Y20500000D01*
X51825000Y20437500D01*
X51725000Y20437500D01*
X51662500Y20500000D01*
X50925272Y20500000D01*
X50833386Y20461940D01*
X50763060Y20391614D01*
X50725000Y20299728D01*
X48340000Y20299728D01*
X48340000Y22875000D01*
X48317925Y22985978D01*
X48255061Y23080061D01*
X47689114Y23646008D01*
X47689114Y24050000D01*
X47674471Y24127821D01*
X47628479Y24199295D01*
X47558302Y24247245D01*
X47475000Y24264114D01*
X45875000Y24264114D01*
X45797179Y24249471D01*
X45725705Y24203479D01*
X45677755Y24133302D01*
X45660886Y24050000D01*
X45660886Y23450000D01*
X45675529Y23372179D01*
X45721521Y23300705D01*
X45791698Y23252755D01*
X45875000Y23235886D01*
X47278992Y23235886D01*
X47489878Y23025000D01*
X46787500Y23025000D01*
X46725000Y22962500D01*
X46725000Y22525000D01*
X47662500Y22525000D01*
X47725000Y22587500D01*
X47725000Y22789878D01*
X47760000Y22754878D01*
X47760000Y19913120D01*
X47689114Y19842234D01*
X47689114Y20250000D01*
X47674471Y20327821D01*
X47628479Y20399295D01*
X47558302Y20447245D01*
X47475000Y20464114D01*
X45875000Y20464114D01*
X45797179Y20449471D01*
X45725705Y20403479D01*
X45677755Y20333302D01*
X45660886Y20250000D01*
X45660886Y20240000D01*
X41925952Y20240000D01*
X41814973Y20217925D01*
X41720891Y20155061D01*
X38834939Y17269109D01*
X38798193Y17214114D01*
X38390000Y17214114D01*
X38312179Y17199471D01*
X38240705Y17153479D01*
X38192755Y17083302D01*
X38175886Y17000000D01*
X37564114Y17000000D01*
X37549471Y17077821D01*
X37503479Y17149295D01*
X37433302Y17197245D01*
X37350000Y17214114D01*
X37060188Y17214114D01*
X40781074Y20935000D01*
X45660886Y20935000D01*
X45660886Y20925000D01*
X45675529Y20847179D01*
X45721521Y20775705D01*
X45791698Y20727755D01*
X45875000Y20710886D01*
X47475000Y20710886D01*
X47552821Y20725529D01*
X47624295Y20771521D01*
X47672245Y20841698D01*
X47689114Y20925000D01*
X47689114Y21525000D01*
X47674471Y21602821D01*
X47628479Y21674295D01*
X47558302Y21722245D01*
X47475000Y21739114D01*
X45875000Y21739114D01*
X45797179Y21724471D01*
X45725705Y21678479D01*
X45677755Y21608302D01*
X45660886Y21525000D01*
X45660886Y21515000D01*
X40660952Y21515000D01*
X40549974Y21492925D01*
X40455891Y21430061D01*
X36294939Y17269109D01*
X36258193Y17214114D01*
X35850000Y17214114D01*
X35772179Y17199471D01*
X35700705Y17153479D01*
X35652755Y17083302D01*
X35635886Y17000000D01*
X28560118Y17000000D01*
X26740000Y18820118D01*
X26740000Y22362500D01*
X45625000Y22362500D01*
X45625000Y22125272D01*
X45663060Y22033386D01*
X45733386Y21963060D01*
X45825272Y21925000D01*
X46562500Y21925000D01*
X46625000Y21987500D01*
X46625000Y22425000D01*
X46725000Y22425000D01*
X46725000Y21987500D01*
X46787500Y21925000D01*
X47524728Y21925000D01*
X47616614Y21963060D01*
X47686940Y22033386D01*
X47725000Y22125272D01*
X47725000Y22362500D01*
X47662500Y22425000D01*
X46725000Y22425000D01*
X46625000Y22425000D01*
X45687500Y22425000D01*
X45625000Y22362500D01*
X26740000Y22362500D01*
X26740000Y22824728D01*
X45625000Y22824728D01*
X45625000Y22587500D01*
X45687500Y22525000D01*
X46625000Y22525000D01*
X46625000Y22962500D01*
X46562500Y23025000D01*
X45825272Y23025000D01*
X45733386Y22986940D01*
X45663060Y22916614D01*
X45625000Y22824728D01*
X26740000Y22824728D01*
X26740000Y26279878D01*
X29048764Y28588642D01*
X33966055Y28588642D01*
X33970149Y28503748D01*
X34006949Y28427134D01*
X34070656Y28370874D01*
X34928540Y27875574D01*
X35003257Y27849344D01*
X35088151Y27853438D01*
X35164765Y27890238D01*
X35200446Y27930642D01*
X35298108Y27890089D01*
X35500998Y27889912D01*
X35688512Y27967391D01*
X35832102Y28110731D01*
X35909909Y28298110D01*
X35910086Y28501000D01*
X35832607Y28688514D01*
X35690181Y28831188D01*
X35687661Y28883452D01*
X35650861Y28960066D01*
X35587154Y29016326D01*
X35372866Y29140046D01*
X35526000Y29139912D01*
X35713514Y29217391D01*
X35857104Y29360731D01*
X35934911Y29548110D01*
X35935088Y29751000D01*
X35857609Y29938514D01*
X35714269Y30082104D01*
X35589866Y30133761D01*
X35548563Y30170236D01*
X35115551Y30420236D01*
X35040834Y30446466D01*
X34955940Y30442372D01*
X34879326Y30405572D01*
X34823066Y30341865D01*
X34523066Y29822249D01*
X34496836Y29747532D01*
X34500930Y29662638D01*
X34537730Y29586024D01*
X34595499Y29535008D01*
X34569659Y29533762D01*
X34493045Y29496962D01*
X34436785Y29433255D01*
X33992285Y28663359D01*
X33966055Y28588642D01*
X29048764Y28588642D01*
X29861564Y29401442D01*
X32558245Y29401442D01*
X32562339Y29316548D01*
X32599139Y29239934D01*
X32662846Y29183674D01*
X33520730Y28688374D01*
X33595447Y28662144D01*
X33680341Y28666238D01*
X33756955Y28703038D01*
X33813215Y28766745D01*
X34257715Y29536641D01*
X34283945Y29611358D01*
X34279851Y29696252D01*
X34252129Y29753967D01*
X34328034Y29757628D01*
X34404648Y29794428D01*
X34460908Y29858135D01*
X34760908Y30377751D01*
X34787138Y30452468D01*
X34783044Y30537362D01*
X34746244Y30613976D01*
X34682537Y30670236D01*
X34249525Y30920236D01*
X34174808Y30946466D01*
X34089914Y30942372D01*
X34013300Y30905572D01*
X33957040Y30841865D01*
X33657040Y30322249D01*
X33630810Y30247532D01*
X33634904Y30162638D01*
X33645387Y30140814D01*
X33643227Y30138654D01*
X33321460Y30324426D01*
X33246743Y30350656D01*
X33161849Y30346562D01*
X33085235Y30309762D01*
X33028975Y30246055D01*
X32584475Y29476159D01*
X32558245Y29401442D01*
X29861564Y29401442D01*
X40548523Y40088401D01*
X40611387Y40182483D01*
X40633462Y40293462D01*
X40633462Y41290431D01*
X40818474Y41351438D01*
X41102240Y41595941D01*
X41270837Y41930427D01*
X41298599Y42303970D01*
X41294015Y42341305D01*
X41176715Y42697038D01*
X40932211Y42980804D01*
X40597726Y43149401D01*
X40323914Y43169751D01*
X40323914Y43504377D01*
X43771369Y43504377D01*
X43912601Y43163397D01*
X44185520Y42884546D01*
X44544376Y42731363D01*
X44700000Y42773745D01*
X44700000Y43660000D01*
X44800000Y43660000D01*
X44800000Y42773745D01*
X44955624Y42731363D01*
X45314480Y42884546D01*
X45587399Y43163397D01*
X45728631Y43504377D01*
X45703221Y43597500D01*
X46290000Y43597500D01*
X46290000Y42910272D01*
X46328060Y42818386D01*
X46398386Y42748060D01*
X46490272Y42710000D01*
X47177500Y42710000D01*
X47240000Y42772500D01*
X47240000Y43660000D01*
X47340000Y43660000D01*
X47340000Y42772500D01*
X47402500Y42710000D01*
X48089728Y42710000D01*
X48181614Y42748060D01*
X48251940Y42818386D01*
X48290000Y42910272D01*
X48290000Y43597500D01*
X48227500Y43660000D01*
X47340000Y43660000D01*
X47240000Y43660000D01*
X46352500Y43660000D01*
X46290000Y43597500D01*
X45703221Y43597500D01*
X45686166Y43660000D01*
X44800000Y43660000D01*
X44700000Y43660000D01*
X43813834Y43660000D01*
X43771369Y43504377D01*
X40323914Y43504377D01*
X40323914Y43790970D01*
X40895820Y43861191D01*
X40971277Y43885209D01*
X41007831Y43915623D01*
X43771369Y43915623D01*
X43813834Y43760000D01*
X44700000Y43760000D01*
X44700000Y44646255D01*
X44800000Y44646255D01*
X44800000Y43760000D01*
X45686166Y43760000D01*
X45728631Y43915623D01*
X45587399Y44256603D01*
X45339659Y44509728D01*
X46290000Y44509728D01*
X46290000Y43822500D01*
X46352500Y43760000D01*
X47240000Y43760000D01*
X47240000Y44647500D01*
X47340000Y44647500D01*
X47340000Y43760000D01*
X48227500Y43760000D01*
X48290000Y43822500D01*
X48290000Y44509728D01*
X48251940Y44601614D01*
X48181614Y44671940D01*
X48089728Y44710000D01*
X47402500Y44710000D01*
X47340000Y44647500D01*
X47240000Y44647500D01*
X47177500Y44710000D01*
X46490272Y44710000D01*
X46398386Y44671940D01*
X46328060Y44601614D01*
X46290000Y44509728D01*
X45339659Y44509728D01*
X45314480Y44535454D01*
X44955624Y44688637D01*
X44800000Y44646255D01*
X44700000Y44646255D01*
X44544376Y44688637D01*
X44185520Y44535454D01*
X43912601Y44256603D01*
X43771369Y43915623D01*
X41007831Y43915623D01*
X41036613Y43939569D01*
X41075653Y44015066D01*
X41082244Y44099803D01*
X40899440Y45588623D01*
X40875422Y45664080D01*
X40821062Y45729416D01*
X40745565Y45768456D01*
X40660828Y45775047D01*
X39172008Y45592243D01*
X39096551Y45568225D01*
X39031215Y45513865D01*
X38992175Y45438368D01*
X38985584Y45353631D01*
X39168388Y43864811D01*
X39192406Y43789354D01*
X39246766Y43724018D01*
X39322263Y43684978D01*
X39407000Y43678387D01*
X39743914Y43719755D01*
X39743914Y42952558D01*
X39584684Y42815359D01*
X39416087Y42480874D01*
X39388325Y42107331D01*
X39392909Y42069995D01*
X39510209Y41714262D01*
X39754713Y41430496D01*
X40053462Y41279912D01*
X40053462Y40413584D01*
X38112395Y38472517D01*
X38112395Y40980883D01*
X38297407Y41041890D01*
X38581173Y41286393D01*
X38749770Y41620879D01*
X38777532Y41994422D01*
X38772948Y42031757D01*
X38655648Y42387490D01*
X38411144Y42671256D01*
X38076659Y42839853D01*
X37802847Y42860203D01*
X37802847Y43501950D01*
X37987859Y43562957D01*
X38271625Y43807460D01*
X38440222Y44141946D01*
X38467984Y44515489D01*
X38463400Y44552824D01*
X38346100Y44908557D01*
X38101596Y45192323D01*
X37767111Y45360920D01*
X37393568Y45388682D01*
X37037835Y45271382D01*
X36754069Y45026878D01*
X36585472Y44692393D01*
X36557710Y44318850D01*
X36562294Y44281514D01*
X36679594Y43925781D01*
X36924098Y43642015D01*
X37222847Y43491431D01*
X37222847Y42643010D01*
X37063617Y42505811D01*
X36895020Y42171326D01*
X36867258Y41797783D01*
X36871842Y41760447D01*
X36989142Y41404714D01*
X37233646Y41120948D01*
X37532395Y40970364D01*
X37532395Y38492517D01*
X35591328Y36551450D01*
X35591328Y40671335D01*
X35776340Y40732342D01*
X36060106Y40976845D01*
X36228703Y41311331D01*
X36256465Y41684874D01*
X36251881Y41722209D01*
X36134581Y42077942D01*
X35890077Y42361708D01*
X35555592Y42530305D01*
X35281780Y42550655D01*
X35281780Y43192402D01*
X35466792Y43253409D01*
X35750558Y43497912D01*
X35919155Y43832398D01*
X35946917Y44205941D01*
X35942333Y44243276D01*
X35825033Y44599009D01*
X35580529Y44882775D01*
X35246044Y45051372D01*
X34872501Y45079134D01*
X34516768Y44961834D01*
X34233002Y44717330D01*
X34064405Y44382845D01*
X34036643Y44009302D01*
X34041227Y43971966D01*
X34158527Y43616233D01*
X34403031Y43332467D01*
X34701780Y43181883D01*
X34701780Y42333462D01*
X34542550Y42196263D01*
X34373953Y41861778D01*
X34346191Y41488235D01*
X34350775Y41450899D01*
X34468075Y41095166D01*
X34712579Y40811400D01*
X35011328Y40660816D01*
X35011328Y36471450D01*
X33070261Y34530383D01*
X33070261Y40361787D01*
X33255272Y40422793D01*
X33539038Y40667296D01*
X33707635Y41001782D01*
X33735397Y41375325D01*
X33730813Y41412660D01*
X33613513Y41768393D01*
X33369009Y42052159D01*
X33034524Y42220756D01*
X32760713Y42241106D01*
X32760713Y42882855D01*
X32945724Y42943861D01*
X33229490Y43188364D01*
X33398087Y43522850D01*
X33425849Y43896393D01*
X33421265Y43933728D01*
X33303965Y44289461D01*
X33059461Y44573227D01*
X32724976Y44741824D01*
X32351433Y44769586D01*
X31995700Y44652286D01*
X31711934Y44407782D01*
X31543337Y44073297D01*
X31515575Y43699754D01*
X31520159Y43662418D01*
X31637459Y43306685D01*
X31881963Y43022919D01*
X32180713Y42872334D01*
X32180713Y42023914D01*
X32021482Y41886714D01*
X31852885Y41552229D01*
X31825123Y41178686D01*
X31829707Y41141350D01*
X31947007Y40785617D01*
X32191511Y40501851D01*
X32490261Y40351266D01*
X32490261Y34550383D01*
X30540000Y32600122D01*
X30540000Y39935079D01*
X30549194Y39981300D01*
X30549194Y40052239D01*
X30734205Y40113245D01*
X31017971Y40357748D01*
X31186568Y40692234D01*
X31214330Y41065777D01*
X31209746Y41103112D01*
X31092446Y41458845D01*
X30847942Y41742611D01*
X30513457Y41911208D01*
X30239645Y41931558D01*
X30239645Y42573305D01*
X30424657Y42634312D01*
X30708423Y42878815D01*
X30877020Y43213301D01*
X30904782Y43586844D01*
X30900198Y43624179D01*
X30782898Y43979912D01*
X30538394Y44263678D01*
X30203909Y44432275D01*
X29830366Y44460037D01*
X29474633Y44342737D01*
X29190867Y44098233D01*
X29022270Y43763748D01*
X28994508Y43390205D01*
X28999092Y43352869D01*
X29116392Y42997136D01*
X29360896Y42713370D01*
X29659645Y42562786D01*
X29659645Y41714365D01*
X29500415Y41577166D01*
X29331818Y41242681D01*
X29304056Y40869138D01*
X29308640Y40831802D01*
X29425940Y40476069D01*
X29670444Y40192303D01*
X29969194Y40041718D01*
X29969194Y40018327D01*
X29960000Y39972106D01*
X29960000Y32520122D01*
X28028126Y30588248D01*
X28028126Y39742690D01*
X28213138Y39803697D01*
X28496904Y40048200D01*
X28665501Y40382686D01*
X28693263Y40756229D01*
X28688679Y40793564D01*
X28571379Y41149297D01*
X28326875Y41433063D01*
X27992390Y41601660D01*
X27718578Y41622010D01*
X27718578Y42263757D01*
X27903590Y42324764D01*
X28187356Y42569267D01*
X28355953Y42903753D01*
X28383715Y43277296D01*
X28379131Y43314631D01*
X28261831Y43670364D01*
X28017327Y43954130D01*
X27682842Y44122727D01*
X27309299Y44150489D01*
X26953566Y44033189D01*
X26669800Y43788685D01*
X26501203Y43454200D01*
X26473441Y43080657D01*
X26478025Y43043321D01*
X26595325Y42687588D01*
X26839829Y42403822D01*
X27138578Y42253238D01*
X27138578Y41404817D01*
X26979348Y41267618D01*
X26810751Y40933133D01*
X26782989Y40559590D01*
X26787573Y40522254D01*
X26904873Y40166521D01*
X27149377Y39882755D01*
X27448126Y39732171D01*
X27448126Y30508248D01*
X24810011Y27870133D01*
X24810011Y39481621D01*
X24962795Y39404610D01*
X25336338Y39376848D01*
X25692071Y39494149D01*
X25975837Y39738652D01*
X26144434Y40073138D01*
X26172196Y40446681D01*
X26167612Y40484016D01*
X26050312Y40839749D01*
X25805808Y41123515D01*
X25471323Y41292112D01*
X25197511Y41312462D01*
X25197511Y41954209D01*
X25382523Y42015216D01*
X25666289Y42259719D01*
X25834886Y42594205D01*
X25862648Y42967748D01*
X25858064Y43005083D01*
X25740764Y43360816D01*
X25496260Y43644582D01*
X25161775Y43813179D01*
X24788232Y43840941D01*
X24432499Y43723641D01*
X24148733Y43479137D01*
X23980136Y43144652D01*
X23952374Y42771109D01*
X23956958Y42733773D01*
X24074258Y42378040D01*
X24318762Y42094274D01*
X24617511Y41943690D01*
X24617511Y41095269D01*
X24458281Y40958070D01*
X24289684Y40623585D01*
X24261922Y40250042D01*
X24266506Y40212706D01*
X24366880Y39908304D01*
X24314950Y39856374D01*
X24252086Y39762291D01*
X24230011Y39651313D01*
X24230011Y39013910D01*
X23575432Y39668489D01*
X23623367Y39763590D01*
X23651129Y40137133D01*
X23646545Y40174468D01*
X23529245Y40530201D01*
X23284741Y40813967D01*
X22950256Y40982564D01*
X22746444Y40997711D01*
X22746444Y41667744D01*
X22861455Y41705668D01*
X23145221Y41950171D01*
X23313818Y42284657D01*
X23341580Y42658200D01*
X23336996Y42695535D01*
X23219696Y43051268D01*
X22975192Y43335034D01*
X22640707Y43503631D01*
X22267164Y43531393D01*
X21911431Y43414093D01*
X21627665Y43169589D01*
X21459068Y42835104D01*
X21431306Y42461561D01*
X1708188Y42461561D01*
X2374738Y43283255D01*
X2391406Y43314870D01*
X2410360Y43345165D01*
X2411754Y43353465D01*
X2415681Y43360914D01*
X2418982Y43396508D01*
X2424899Y43431743D01*
X2423010Y43439945D01*
X2423788Y43448329D01*
X2413217Y43482474D01*
X2405199Y43517295D01*
X2400315Y43524151D01*
X2397825Y43532193D01*
X2374993Y43559693D01*
X2354260Y43588795D01*
X-3168473Y48790000D01*
X43771192Y48790000D01*
X43844268Y48422624D01*
X44052369Y48111177D01*
X44363816Y47903076D01*
X44731192Y47830000D01*
X44768808Y47830000D01*
X45136184Y47903076D01*
X45447631Y48111177D01*
X45655732Y48422624D01*
X45671123Y48500000D01*
X46368877Y48500000D01*
X46384268Y48422624D01*
X46592369Y48111177D01*
X46903816Y47903076D01*
X47271192Y47830000D01*
X47308808Y47830000D01*
X47676184Y47903076D01*
X47730506Y47939372D01*
X50144999Y45524879D01*
X50144999Y43797705D01*
X50130061Y43820061D01*
X48144369Y45805753D01*
X48195732Y45882624D01*
X48268808Y46250000D01*
X48195732Y46617376D01*
X47987631Y46928823D01*
X47676184Y47136924D01*
X47308808Y47210000D01*
X47271192Y47210000D01*
X46903816Y47136924D01*
X46592369Y46928823D01*
X46384268Y46617376D01*
X46368877Y46540000D01*
X45671123Y46540000D01*
X45655732Y46617376D01*
X45447631Y46928823D01*
X45136184Y47136924D01*
X44768808Y47210000D01*
X44731192Y47210000D01*
X44363816Y47136924D01*
X44052369Y46928823D01*
X43844268Y46617376D01*
X43771192Y46250000D01*
X43844268Y45882624D01*
X44052369Y45571177D01*
X44363816Y45363076D01*
X44731192Y45290000D01*
X44768808Y45290000D01*
X45136184Y45363076D01*
X45447631Y45571177D01*
X45655732Y45882624D01*
X45671123Y45960000D01*
X46368877Y45960000D01*
X46384268Y45882624D01*
X46592369Y45571177D01*
X46903816Y45363076D01*
X47271192Y45290000D01*
X47308808Y45290000D01*
X47676184Y45363076D01*
X47730506Y45399372D01*
X49635000Y43494878D01*
X49635000Y41031587D01*
X49597179Y41024471D01*
X49525705Y40978479D01*
X49477755Y40908302D01*
X49460886Y40825000D01*
X49460886Y40421008D01*
X48314919Y39275041D01*
X48252055Y39180958D01*
X48229980Y39069980D01*
X48229979Y37087853D01*
X48224967Y37062656D01*
X48224968Y37062651D01*
X48224968Y23985032D01*
X48247043Y23874054D01*
X48309907Y23779971D01*
X50760886Y21328992D01*
X50760886Y20925000D01*
X50775529Y20847179D01*
X50821521Y20775705D01*
X50891698Y20727755D01*
X50975000Y20710886D01*
X52575000Y20710886D01*
X52652821Y20725529D01*
X52724295Y20771521D01*
X52772245Y20841698D01*
X52789114Y20925000D01*
X52789114Y20935000D01*
X54239878Y20935000D01*
X55803661Y19371217D01*
X55777755Y19333302D01*
X55760886Y19250000D01*
X55760886Y18750000D01*
X55775529Y18672179D01*
X55821521Y18600705D01*
X55891698Y18552755D01*
X55975000Y18535886D01*
X56575000Y18535886D01*
X56652821Y18550529D01*
X56724295Y18596521D01*
X56772245Y18666698D01*
X56781014Y18710000D01*
X57843413Y18710000D01*
X57850529Y18672179D01*
X57896521Y18600705D01*
X57966698Y18552755D01*
X58050000Y18535886D01*
X58650000Y18535886D01*
X58727821Y18550529D01*
X58799295Y18596521D01*
X58847245Y18666698D01*
X58864114Y18750000D01*
X58864114Y19250000D01*
X58849471Y19327821D01*
X58803479Y19399295D01*
X58733302Y19447245D01*
X58650000Y19464114D01*
X58050000Y19464114D01*
X57972179Y19449471D01*
X57900705Y19403479D01*
X57852755Y19333302D01*
X57843986Y19290000D01*
X56781587Y19290000D01*
X56774471Y19327821D01*
X56728479Y19399295D01*
X56658302Y19447245D01*
X56575000Y19464114D01*
X56514103Y19464114D01*
X56480061Y19515061D01*
X54565061Y21430061D01*
X54470978Y21492925D01*
X54360000Y21515000D01*
X52789114Y21515000D01*
X52789114Y21525000D01*
X52774471Y21602821D01*
X52728479Y21674295D01*
X52658302Y21722245D01*
X52575000Y21739114D01*
X51171008Y21739114D01*
X50942694Y21967428D01*
X50975000Y21960886D01*
X52575000Y21960886D01*
X52615073Y21968426D01*
X52623110Y21965089D01*
X52826000Y21964912D01*
X53013514Y22042391D01*
X53157104Y22185731D01*
X53234911Y22373110D01*
X53235088Y22576000D01*
X53157609Y22763514D01*
X53014269Y22907104D01*
X52826890Y22984911D01*
X52624000Y22985088D01*
X52614423Y22981131D01*
X52575000Y22989114D01*
X51171008Y22989114D01*
X50911346Y23248776D01*
X50975000Y23235886D01*
X52575000Y23235886D01*
X52652821Y23250529D01*
X52724295Y23296521D01*
X52772245Y23366698D01*
X52789114Y23450000D01*
X52789114Y24050000D01*
X52774471Y24127821D01*
X52728479Y24199295D01*
X52658302Y24247245D01*
X52575000Y24264114D01*
X52065000Y24264114D01*
X52065000Y24488708D01*
X52127821Y24500529D01*
X52199295Y24546521D01*
X52247245Y24616698D01*
X52264114Y24700000D01*
X52264114Y24887500D01*
X52300000Y24887500D01*
X52300000Y24650272D01*
X52338060Y24558386D01*
X52408386Y24488060D01*
X52500272Y24450000D01*
X52687500Y24450000D01*
X52750000Y24512500D01*
X52750000Y24950000D01*
X52850000Y24950000D01*
X52850000Y24512500D01*
X52912500Y24450000D01*
X53099728Y24450000D01*
X53191614Y24488060D01*
X53261940Y24558386D01*
X53300000Y24650272D01*
X53300000Y24887500D01*
X53237500Y24950000D01*
X52850000Y24950000D01*
X52750000Y24950000D01*
X52362500Y24950000D01*
X52300000Y24887500D01*
X52264114Y24887500D01*
X52264114Y25300000D01*
X52254758Y25349728D01*
X52300000Y25349728D01*
X52300000Y25112500D01*
X52362500Y25050000D01*
X52750000Y25050000D01*
X52750000Y25487500D01*
X52850000Y25487500D01*
X52850000Y25050000D01*
X53237500Y25050000D01*
X53300000Y25112500D01*
X53300000Y25349728D01*
X53261940Y25441614D01*
X53191614Y25511940D01*
X53099728Y25550000D01*
X52912500Y25550000D01*
X52850000Y25487500D01*
X52750000Y25487500D01*
X52687500Y25550000D01*
X52500272Y25550000D01*
X52408386Y25511940D01*
X52338060Y25441614D01*
X52300000Y25349728D01*
X52254758Y25349728D01*
X52249471Y25377821D01*
X52203479Y25449295D01*
X52133302Y25497245D01*
X52050000Y25514114D01*
X51550000Y25514114D01*
X51472179Y25499471D01*
X51454472Y25488077D01*
X51401890Y25509911D01*
X51199000Y25510088D01*
X51011486Y25432609D01*
X50867896Y25289269D01*
X50790089Y25101890D01*
X50789912Y24899000D01*
X50867391Y24711486D01*
X51010731Y24567896D01*
X51198110Y24490089D01*
X51401000Y24489912D01*
X51453654Y24511668D01*
X51466698Y24502755D01*
X51485000Y24499049D01*
X51485000Y24264114D01*
X50975000Y24264114D01*
X50897179Y24249471D01*
X50825705Y24203479D01*
X50777755Y24133302D01*
X50760886Y24050000D01*
X50760886Y23450000D01*
X50772652Y23387470D01*
X49124978Y25035144D01*
X49124978Y36837228D01*
X49169939Y36769939D01*
X59070000Y26869878D01*
X59070000Y17214114D01*
X58710000Y17214114D01*
X58632179Y17199471D01*
X58560705Y17153479D01*
X58512755Y17083302D01*
X58495886Y17000000D01*
X58495886Y15500000D01*
X58510529Y15422179D01*
X58556521Y15350705D01*
X58626698Y15302755D01*
X58710000Y15285886D01*
X60210000Y15285886D01*
X60287821Y15300529D01*
X60359295Y15346521D01*
X60407245Y15416698D01*
X60424114Y15500000D01*
X60424114Y16715764D01*
X61035886Y16103992D01*
X61035886Y15500000D01*
X61050529Y15422179D01*
X61096521Y15350705D01*
X61166698Y15302755D01*
X61250000Y15285886D01*
X62750000Y15285886D01*
X62827821Y15300529D01*
X62899295Y15346521D01*
X62947245Y15416698D01*
X62964114Y15500000D01*
X62964114Y17000000D01*
X62949471Y17077821D01*
X62903479Y17149295D01*
X62833302Y17197245D01*
X62750000Y17214114D01*
X61250000Y17214114D01*
X61172179Y17199471D01*
X61100705Y17153479D01*
X61052755Y17083302D01*
X61035886Y17000000D01*
X61035886Y16924236D01*
X60414236Y17545886D01*
X60920000Y17545886D01*
X60997821Y17560529D01*
X61069295Y17606521D01*
X61117245Y17676698D01*
X61126014Y17720000D01*
X62419878Y17720000D01*
X63960000Y16179878D01*
X63960000Y10371126D01*
X63817896Y10229269D01*
X63740089Y10041890D01*
X63739912Y9839000D01*
X63743995Y9829117D01*
X63058899Y9144021D01*
X55298421Y9144021D01*
X55220600Y9129378D01*
X55149126Y9083386D01*
X55101176Y9013209D01*
X55084307Y8929907D01*
X55084307Y8429907D01*
X55098950Y8352086D01*
X55144942Y8280612D01*
X55215119Y8232662D01*
X55298421Y8215793D01*
X63130671Y8215793D01*
X63058899Y8144021D01*
X55298421Y8144021D01*
X55220600Y8129378D01*
X55149126Y8083386D01*
X55101176Y8013209D01*
X55084307Y7929907D01*
X55084307Y7429907D01*
X55098950Y7352086D01*
X55144942Y7280612D01*
X55215119Y7232662D01*
X55298421Y7215793D01*
X63130671Y7215793D01*
X63058899Y7144021D01*
X55298421Y7144021D01*
X55220600Y7129378D01*
X55149126Y7083386D01*
X55101176Y7013209D01*
X55084307Y6929907D01*
X55084307Y6429907D01*
X55098950Y6352086D01*
X55144942Y6280612D01*
X55215119Y6232662D01*
X55298421Y6215793D01*
X63105671Y6215793D01*
X63033899Y6144021D01*
X55298421Y6144021D01*
X55220600Y6129378D01*
X55149126Y6083386D01*
X55101176Y6013209D01*
X55084307Y5929907D01*
X55084307Y5429907D01*
X55098950Y5352086D01*
X55144942Y5280612D01*
X55215119Y5232662D01*
X55298421Y5215793D01*
X63130671Y5215793D01*
X63058899Y5144021D01*
X55298421Y5144021D01*
X55220600Y5129378D01*
X55149126Y5083386D01*
X55101176Y5013209D01*
X55084307Y4929907D01*
X55084307Y4429907D01*
X55098950Y4352086D01*
X55144942Y4280612D01*
X55215119Y4232662D01*
X55298421Y4215793D01*
X63130671Y4215793D01*
X63058899Y4144021D01*
X55298421Y4144021D01*
X55220600Y4129378D01*
X55149126Y4083386D01*
X55101176Y4013209D01*
X55084307Y3929907D01*
X55084307Y3429907D01*
X55098950Y3352086D01*
X55144942Y3280612D01*
X55215119Y3232662D01*
X55298421Y3215793D01*
X63130671Y3215793D01*
X63058899Y3144021D01*
X55298421Y3144021D01*
X55220600Y3129378D01*
X55149126Y3083386D01*
X55101176Y3013209D01*
X55084307Y2929907D01*
X55084307Y2429907D01*
X55098950Y2352086D01*
X55144942Y2280612D01*
X55215119Y2232662D01*
X55298421Y2215793D01*
X63298421Y2215793D01*
X63376242Y2230436D01*
X63447716Y2276428D01*
X63495666Y2346605D01*
X63512535Y2429907D01*
X63512535Y2777413D01*
X64100209Y3365087D01*
X64301000Y3364912D01*
X64488514Y3442391D01*
X64632104Y3585731D01*
X64709911Y3773110D01*
X64710087Y3974965D01*
X74843230Y14108108D01*
X74906094Y14202191D01*
X74928169Y14313169D01*
X74928169Y38878696D01*
X77026258Y38878696D01*
X77172143Y38809853D01*
X77532467Y38889728D01*
X77854474Y39110079D01*
X78067644Y39436883D01*
X78052930Y39597503D01*
X77180139Y39751399D01*
X77026258Y38878696D01*
X74928169Y38878696D01*
X74928169Y39332237D01*
X75185534Y39445478D01*
X75444557Y39716056D01*
X75468163Y39776760D01*
X76140105Y39776760D01*
X76228647Y39396756D01*
X76455869Y39079562D01*
X76767144Y38881265D01*
X76927777Y38896061D01*
X77081658Y39768764D01*
X76621628Y39849880D01*
X77197504Y39849880D01*
X78070295Y39695983D01*
X78139057Y39841884D01*
X78050515Y40221888D01*
X77823293Y40539082D01*
X77512018Y40737379D01*
X77351385Y40722583D01*
X77197504Y39849880D01*
X76621628Y39849880D01*
X76208867Y39922661D01*
X76140105Y39776760D01*
X75468163Y39776760D01*
X75580318Y40065161D01*
X75586850Y40102205D01*
X75585115Y40181761D01*
X76211518Y40181761D01*
X76226232Y40021141D01*
X77099023Y39867245D01*
X77252904Y40739948D01*
X77107019Y40808791D01*
X76746695Y40728916D01*
X76424688Y40508565D01*
X76211518Y40181761D01*
X75585115Y40181761D01*
X75578679Y40476689D01*
X75427824Y40819541D01*
X75157245Y41078564D01*
X74928169Y41167648D01*
X74928169Y41380108D01*
X77467324Y41380108D01*
X77613209Y41311265D01*
X77973533Y41391140D01*
X78295540Y41611491D01*
X78508710Y41938295D01*
X78493996Y42098915D01*
X77621205Y42252811D01*
X77467324Y41380108D01*
X74928169Y41380108D01*
X74928169Y41788275D01*
X75283748Y41796033D01*
X75626601Y41946889D01*
X75885624Y42217467D01*
X75909231Y42278172D01*
X76581171Y42278172D01*
X76669713Y41898168D01*
X76896935Y41580974D01*
X77208210Y41382677D01*
X77368843Y41397473D01*
X77522724Y42270176D01*
X77062694Y42351292D01*
X77638570Y42351292D01*
X78511361Y42197395D01*
X78580123Y42343296D01*
X78491581Y42723300D01*
X78264359Y43040494D01*
X77953084Y43238791D01*
X77792451Y43223995D01*
X77638570Y42351292D01*
X77062694Y42351292D01*
X76649933Y42424073D01*
X76581171Y42278172D01*
X75909231Y42278172D01*
X76021385Y42566572D01*
X76027917Y42603616D01*
X76026182Y42683173D01*
X76652584Y42683173D01*
X76667298Y42522553D01*
X77540089Y42368657D01*
X77693970Y43241360D01*
X77548085Y43310203D01*
X77187761Y43230328D01*
X76865754Y43009977D01*
X76652584Y42683173D01*
X76026182Y42683173D01*
X76019746Y42978100D01*
X75868891Y43320952D01*
X75598312Y43579975D01*
X75249208Y43715736D01*
X74874723Y43707566D01*
X74531871Y43556710D01*
X74272848Y43286132D01*
X74137087Y42937027D01*
X74130555Y42899984D01*
X74138725Y42525500D01*
X74289581Y42182647D01*
X74348169Y42126561D01*
X74348169Y41168540D01*
X74090804Y41055299D01*
X73831781Y40784721D01*
X73696020Y40435616D01*
X73689488Y40398573D01*
X73697658Y40024089D01*
X73848514Y39681236D01*
X74119092Y39422213D01*
X74348169Y39333129D01*
X74348169Y38890165D01*
X72981803Y40256531D01*
X73078906Y40506227D01*
X73085438Y40543271D01*
X73077267Y40917755D01*
X72926412Y41260607D01*
X72655833Y41519630D01*
X72426757Y41608714D01*
X72426757Y42229342D01*
X72782336Y42237100D01*
X73125189Y42387956D01*
X73384212Y42658534D01*
X73519973Y43007639D01*
X73526505Y43044683D01*
X73518334Y43419167D01*
X73367479Y43762019D01*
X73096900Y44021042D01*
X72747796Y44156803D01*
X72373311Y44148633D01*
X72030459Y43997777D01*
X71771436Y43727199D01*
X71635675Y43378094D01*
X71629143Y43341051D01*
X71637313Y42966567D01*
X71788169Y42623714D01*
X71846757Y42567628D01*
X71846757Y41609606D01*
X71589392Y41496365D01*
X71330369Y41225787D01*
X71194608Y40876682D01*
X71188076Y40839639D01*
X71196246Y40465155D01*
X71347102Y40122302D01*
X71617680Y39863279D01*
X71966785Y39727518D01*
X72341269Y39735688D01*
X72578167Y39839923D01*
X73990044Y38428046D01*
X73990044Y37187946D01*
X70480392Y40697598D01*
X70577495Y40947294D01*
X70584027Y40984338D01*
X70575856Y41358822D01*
X70425001Y41701674D01*
X70154422Y41960697D01*
X69925346Y42049781D01*
X69925346Y42670408D01*
X70280924Y42678166D01*
X70623777Y42829022D01*
X70882800Y43099600D01*
X71018561Y43448705D01*
X71025093Y43485749D01*
X71016922Y43860233D01*
X70866067Y44203085D01*
X70595488Y44462108D01*
X70246384Y44597869D01*
X69871899Y44589699D01*
X69529047Y44438843D01*
X69270024Y44168265D01*
X69134263Y43819160D01*
X69127731Y43782117D01*
X69135901Y43407633D01*
X69286757Y43064780D01*
X69345346Y43008693D01*
X69345346Y42050673D01*
X69087981Y41937432D01*
X68828958Y41666854D01*
X68693197Y41317749D01*
X68686665Y41280706D01*
X68694835Y40906222D01*
X68845691Y40563369D01*
X69116269Y40304346D01*
X69465374Y40168585D01*
X69839858Y40176755D01*
X70076756Y40280990D01*
X73670033Y36687713D01*
X73670033Y35447611D01*
X67978980Y41138664D01*
X68076083Y41388360D01*
X68082615Y41425404D01*
X68074444Y41799888D01*
X67923589Y42142740D01*
X67653010Y42401763D01*
X67423934Y42490847D01*
X67423934Y43111475D01*
X67779512Y43119233D01*
X68122365Y43270089D01*
X68381388Y43540667D01*
X68517149Y43889772D01*
X68523681Y43926816D01*
X68515510Y44301300D01*
X68364655Y44644152D01*
X68094076Y44903175D01*
X67744972Y45038936D01*
X67370487Y45030766D01*
X67027635Y44879910D01*
X66768612Y44609332D01*
X66632851Y44260227D01*
X66626319Y44223184D01*
X66634489Y43848700D01*
X66785345Y43505847D01*
X66843934Y43449760D01*
X66843934Y42491739D01*
X66586569Y42378498D01*
X66327546Y42107920D01*
X66191785Y41758815D01*
X66185253Y41721772D01*
X66193423Y41347288D01*
X66344279Y41004435D01*
X66614857Y40745412D01*
X66963962Y40609651D01*
X67338446Y40617821D01*
X67575344Y40722056D01*
X73350022Y34947378D01*
X73350022Y33707276D01*
X65477568Y41579730D01*
X65574671Y41829426D01*
X65581203Y41866470D01*
X65573032Y42240954D01*
X65422177Y42583806D01*
X65151598Y42842829D01*
X64922522Y42931913D01*
X64922522Y43552541D01*
X65278101Y43560299D01*
X65620954Y43711155D01*
X65879977Y43981733D01*
X66015738Y44330838D01*
X66022270Y44367882D01*
X66014099Y44742366D01*
X65863244Y45085218D01*
X65592665Y45344241D01*
X65243561Y45480002D01*
X64869076Y45471832D01*
X64526224Y45320976D01*
X64267201Y45050398D01*
X64131440Y44701293D01*
X64124908Y44664250D01*
X64133078Y44289766D01*
X64283934Y43946913D01*
X64342522Y43890827D01*
X64342522Y42932805D01*
X64085157Y42819564D01*
X63826134Y42548986D01*
X63690373Y42199881D01*
X63683841Y42162838D01*
X63692011Y41788354D01*
X63842867Y41445501D01*
X64113445Y41186478D01*
X64462550Y41050717D01*
X64837034Y41058887D01*
X65073932Y41163122D01*
X73030011Y33207043D01*
X73030011Y31966943D01*
X62976157Y42020797D01*
X63073260Y42270493D01*
X63079792Y42307537D01*
X63071621Y42682021D01*
X62920766Y43024873D01*
X62650187Y43283896D01*
X62421111Y43372980D01*
X62421111Y43993607D01*
X62776689Y44001365D01*
X63119542Y44152221D01*
X63378565Y44422799D01*
X63514326Y44771904D01*
X63520858Y44808948D01*
X63512687Y45183432D01*
X63361832Y45526284D01*
X63091253Y45785307D01*
X62742149Y45921068D01*
X62367664Y45912898D01*
X62024812Y45762042D01*
X61765789Y45491464D01*
X61630028Y45142359D01*
X61623496Y45105316D01*
X61631666Y44730832D01*
X61782522Y44387979D01*
X61841111Y44331892D01*
X61841111Y43373872D01*
X61583746Y43260631D01*
X61324723Y42990053D01*
X61188962Y42640948D01*
X61182430Y42603905D01*
X61190600Y42229421D01*
X61341456Y41886568D01*
X61612034Y41627545D01*
X61961139Y41491784D01*
X62335623Y41499954D01*
X62572521Y41604189D01*
X72710000Y31466710D01*
X72710000Y30230122D01*
X70580061Y32360061D01*
X70569471Y32367137D01*
X60523415Y42413193D01*
X60709402Y43467977D01*
X60708495Y43547158D01*
X60675613Y43625533D01*
X60614829Y43684940D01*
X60535721Y43716018D01*
X59919699Y43824639D01*
X59919699Y44434674D01*
X60275277Y44442432D01*
X60618130Y44593288D01*
X60877153Y44863866D01*
X61012914Y45212971D01*
X61019446Y45250015D01*
X61011275Y45624499D01*
X60860420Y45967351D01*
X60589841Y46226374D01*
X60240737Y46362135D01*
X59866252Y46353965D01*
X59523400Y46203109D01*
X59264377Y45932531D01*
X59128616Y45583426D01*
X59122084Y45546383D01*
X59130254Y45171899D01*
X59281110Y44829046D01*
X59339699Y44772959D01*
X59339699Y43926909D01*
X59058509Y43976490D01*
X58979328Y43975583D01*
X58900953Y43942701D01*
X58841546Y43881917D01*
X58810468Y43802809D01*
X58549996Y42325597D01*
X58550903Y42246416D01*
X58583785Y42168041D01*
X58644569Y42108634D01*
X58723677Y42077556D01*
X60200889Y41817084D01*
X60280070Y41817991D01*
X60292964Y41823400D01*
X69676364Y32440000D01*
X66506126Y32440000D01*
X66366448Y32579921D01*
X66362661Y32658452D01*
X66325861Y32735066D01*
X66262154Y32791326D01*
X65976266Y32956383D01*
X66002073Y32957628D01*
X66078687Y32994428D01*
X66134947Y33058135D01*
X66434947Y33577751D01*
X66461177Y33652468D01*
X66457083Y33737362D01*
X66420283Y33813976D01*
X66356576Y33870236D01*
X65923564Y34120236D01*
X65848847Y34146466D01*
X65763953Y34142372D01*
X65687339Y34105572D01*
X65631079Y34041865D01*
X65514532Y33840000D01*
X65431656Y33840000D01*
X65568921Y34077751D01*
X65595151Y34152468D01*
X65591057Y34237362D01*
X65554257Y34313976D01*
X65490550Y34370236D01*
X65057538Y34620236D01*
X64982821Y34646466D01*
X64897927Y34642372D01*
X64855241Y34621868D01*
X61697048Y37780061D01*
X61602965Y37842925D01*
X61491987Y37865000D01*
X51756126Y37865000D01*
X51614269Y38007104D01*
X51426890Y38084911D01*
X51267617Y38085050D01*
X51324295Y38121521D01*
X51372245Y38191698D01*
X51389114Y38275000D01*
X51389114Y38875000D01*
X51374471Y38952821D01*
X51328479Y39024295D01*
X51288679Y39051489D01*
X51316614Y39063060D01*
X51386940Y39133386D01*
X51425000Y39225272D01*
X51425000Y39462500D01*
X51362500Y39525000D01*
X50975000Y39525000D01*
X50975000Y39505000D01*
X50875000Y39505000D01*
X50875000Y39525000D01*
X50487500Y39525000D01*
X50425000Y39462500D01*
X50425000Y39225272D01*
X50463060Y39133386D01*
X50533386Y39063060D01*
X50561408Y39051453D01*
X50525705Y39028479D01*
X50477755Y38958302D01*
X50460886Y38875000D01*
X50460886Y38275000D01*
X50475529Y38197179D01*
X50521521Y38125705D01*
X50591698Y38077755D01*
X50597642Y38076551D01*
X50530705Y38033479D01*
X50482755Y37963302D01*
X50465886Y37880000D01*
X50465886Y37280000D01*
X50480529Y37202179D01*
X50526521Y37130705D01*
X50596698Y37082755D01*
X50680000Y37065886D01*
X51180000Y37065886D01*
X51208346Y37071220D01*
X51223110Y37065089D01*
X51424965Y37064913D01*
X60330000Y28159878D01*
X60330000Y19474114D01*
X60320000Y19474114D01*
X60242179Y19459471D01*
X60170705Y19413479D01*
X60122755Y19343302D01*
X60120000Y19329697D01*
X60120000Y27220000D01*
X60097925Y27330978D01*
X60035061Y27425061D01*
X50331043Y37129079D01*
X50377245Y37196698D01*
X50394114Y37280000D01*
X50394114Y37880000D01*
X50379471Y37957821D01*
X50333479Y38029295D01*
X50263302Y38077245D01*
X50257358Y38078449D01*
X50324295Y38121521D01*
X50372245Y38191698D01*
X50389114Y38275000D01*
X50389114Y38875000D01*
X50374471Y38952821D01*
X50328479Y39024295D01*
X50258302Y39072245D01*
X50247256Y39074482D01*
X50252821Y39075529D01*
X50324295Y39121521D01*
X50372245Y39191698D01*
X50389114Y39275000D01*
X50389114Y39678992D01*
X50425000Y39714878D01*
X50425000Y39687500D01*
X50487500Y39625000D01*
X50875000Y39625000D01*
X50875000Y39645000D01*
X50975000Y39645000D01*
X50975000Y39625000D01*
X51362500Y39625000D01*
X51425000Y39687500D01*
X51425000Y39924728D01*
X51387631Y40014945D01*
X51426002Y40014912D01*
X51613516Y40092391D01*
X51757106Y40235731D01*
X51834913Y40423110D01*
X51835090Y40626000D01*
X51757611Y40813514D01*
X51614271Y40957104D01*
X51426892Y41034911D01*
X51224002Y41035088D01*
X51214424Y41031130D01*
X51175000Y41039114D01*
X50724999Y41039114D01*
X50724999Y45645001D01*
X50702924Y45755979D01*
X50640060Y45850062D01*
X48144369Y48345753D01*
X48195732Y48422624D01*
X48268808Y48790000D01*
X48195732Y49157376D01*
X47987631Y49468823D01*
X47676184Y49676924D01*
X47308808Y49750000D01*
X47271192Y49750000D01*
X46903816Y49676924D01*
X46592369Y49468823D01*
X46384268Y49157376D01*
X46368877Y49080000D01*
X45671123Y49080000D01*
X45655732Y49157376D01*
X45447631Y49468823D01*
X45136184Y49676924D01*
X44768808Y49750000D01*
X44731192Y49750000D01*
X44363816Y49676924D01*
X44052369Y49468823D01*
X43844268Y49157376D01*
X43771192Y48790000D01*
X-3168473Y48790000D01*
X-4847738Y50371499D01*
X-2285407Y59888727D01*
X7917581Y64494930D01*
X7948532Y64517045D01*
X7980619Y64537495D01*
X13765933Y70077669D01*
X19399029Y67248928D01*
X19430565Y67240233D01*
X19461060Y67228395D01*
X19472567Y67228653D01*
X19483662Y67225594D01*
X19516121Y67229629D01*
X19548829Y67230362D01*
X19559363Y67235004D01*
X19570782Y67236424D01*
X19599227Y67252574D01*
X19629163Y67265767D01*
X19637117Y67274085D01*
X19647126Y67279768D01*
X19667228Y67305577D01*
X19689834Y67329219D01*
X19693999Y67339948D01*
X19701072Y67349029D01*
X19709767Y67380565D01*
X19721605Y67411060D01*
X21070479Y75087378D01*
X42952326Y79864750D01*
X49610905Y76993391D01*
X49641391Y76986868D01*
X49670925Y76976886D01*
X49683969Y76977758D01*
X49696753Y76975023D01*
X49727419Y76980664D01*
X49758520Y76982744D01*
X64424171Y80933088D01*
X68595168Y71756894D01*
X68595168Y71756894D01*
G37*
X68595168Y71756894D02*
X68607991Y71739044D01*
X68617054Y71719020D01*
X68633352Y71703742D01*
X68646389Y71685595D01*
X68665071Y71674009D01*
X68681104Y71658980D01*
X68702008Y71651102D01*
X68720997Y71639326D01*
X68742689Y71635771D01*
X68763255Y71628021D01*
X68785582Y71628742D01*
X68807632Y71625129D01*
X68829032Y71630146D01*
X68851000Y71630856D01*
X86461549Y75729221D01*
X97222663Y66022156D01*
X92873416Y57249945D01*
X92867814Y57229216D01*
X92858159Y57210041D01*
X92856475Y57187256D01*
X92850513Y57165194D01*
X92853270Y57143899D01*
X92851688Y57122489D01*
X92858853Y57100792D01*
X92861787Y57078130D01*
X92872483Y57059512D01*
X92879215Y57039125D01*
X92894137Y57021821D01*
X92905520Y57002008D01*
X92922526Y56988901D01*
X92936548Y56972641D01*
X92956957Y56962365D01*
X92975055Y56948416D01*
X92995784Y56942814D01*
X93014959Y56933159D01*
X103475326Y54036810D01*
X96722366Y49385296D01*
X96717492Y49380282D01*
X96711252Y49377127D01*
X96687052Y49348970D01*
X96661172Y49322348D01*
X96658588Y49315851D01*
X96654030Y49310548D01*
X94471788Y45442027D01*
X88568509Y40066360D01*
X88565304Y40062018D01*
X88560820Y40059018D01*
X88539350Y40026850D01*
X88516377Y39995723D01*
X88515078Y39990485D01*
X88512083Y39985998D01*
X88504556Y39948057D01*
X88495246Y39910514D01*
X88496050Y39905179D01*
X88495000Y39899885D01*
X88502567Y39861944D01*
X88508331Y39823704D01*
X88511115Y39819083D01*
X88512171Y39813790D01*
X88533677Y39781639D01*
X88553640Y39748509D01*
X88557982Y39745304D01*
X88560982Y39740820D01*
X89956392Y38346832D01*
X90694979Y36566293D01*
X90695960Y34638646D01*
X89959189Y32857354D01*
X88596831Y31493607D01*
X86797838Y30747366D01*
X86587968Y30710508D01*
X86571889Y30704268D01*
X86552510Y30701235D01*
X86532315Y30688910D01*
X86506124Y30678746D01*
X86489288Y30662651D01*
X86477572Y30655501D01*
X86467814Y30642123D01*
X86442666Y30618081D01*
X86431034Y30591693D01*
X86425840Y30584572D01*
X86423339Y30574238D01*
X86407254Y30537749D01*
X86406510Y30504700D01*
X86405190Y30499244D01*
X86185215Y25149848D01*
X86125340Y23872514D01*
X86105467Y23564486D01*
X86105966Y23560725D01*
X86105110Y23557028D01*
X86095110Y23237028D01*
X86097550Y23222386D01*
X86096117Y23207612D01*
X86103135Y23137433D01*
X86061390Y22886961D01*
X86054995Y22872145D01*
X85979994Y22522144D01*
X85979941Y22518571D01*
X85978629Y22515249D01*
X85728629Y21140249D01*
X85728886Y21124652D01*
X85725201Y21109499D01*
X85275978Y10477884D01*
X85040867Y9349351D01*
X84019239Y8090135D01*
X77645558Y3509051D01*
X76145082Y2475937D01*
X72060320Y941057D01*
X68431860Y120925D01*
X64056589Y-600000D01*
X48253016Y-600000D01*
X34285858Y-225210D01*
X29657360Y98287D01*
X25273677Y1069671D01*
X25261713Y1069931D01*
X25250310Y1073572D01*
X23934783Y1222500D01*
X22444126Y1520631D01*
X22441524Y1520634D01*
X22439102Y1521576D01*
X21613120Y1667338D01*
X21210669Y1833053D01*
X21187949Y1837523D01*
X21166465Y1846146D01*
X20811600Y1912683D01*
X20481143Y2132987D01*
X15951190Y5617567D01*
X15079391Y6537800D01*
X14695025Y7162393D01*
X13311965Y9730934D01*
X13025000Y10926621D01*
X13025000Y21048850D01*
X13074989Y26047750D01*
X13074695Y26049308D01*
X13074998Y26050862D01*
X13064998Y28660862D01*
X13061995Y28675664D01*
X13062890Y28690743D01*
X13022890Y28980743D01*
X13013038Y29009188D01*
X13006807Y29038632D01*
X12998795Y29050312D01*
X12994158Y29063700D01*
X12974171Y29086210D01*
X12957147Y29111027D01*
X12945275Y29118752D01*
X12935868Y29129346D01*
X12908790Y29142492D01*
X12883563Y29158907D01*
X12633563Y29258907D01*
X12619695Y29261490D01*
X12607006Y29267659D01*
X12197307Y29374961D01*
X11807387Y29517615D01*
X11369600Y29726991D01*
X10650548Y30187184D01*
X9933356Y30885251D01*
X9369134Y31717240D01*
X8955630Y32717341D01*
X8832018Y33287861D01*
X8774784Y33745739D01*
X8765308Y34361684D01*
X8968165Y35491889D01*
X9156417Y36018994D01*
X9580394Y36818769D01*
X9969593Y37334458D01*
X9979025Y37353976D01*
X9992154Y37371214D01*
X9997936Y37393108D01*
X10007792Y37413503D01*
X10009037Y37435142D01*
X10014570Y37456095D01*
X10011533Y37478540D01*
X10012833Y37501149D01*
X10005704Y37521613D01*
X10002797Y37543093D01*
X9991401Y37562667D01*
X9983951Y37584052D01*
X9969531Y37600233D01*
X9958627Y37618962D01*
X9940613Y37632682D01*
X9925542Y37649593D01*
X9906024Y37659025D01*
X9888786Y37672154D01*
X9866892Y37677936D01*
X9846497Y37687792D01*
X9824858Y37689037D01*
X9803905Y37694570D01*
X3388825Y38091789D01*
X-347437Y39927471D01*
X1708188Y42461561D01*
X21431306Y42461561D01*
X21435890Y42424225D01*
X21553190Y42068492D01*
X21797694Y41784726D01*
X22026444Y41669425D01*
X22026444Y40725406D01*
X21937214Y40648522D01*
X21768617Y40314037D01*
X21740855Y39940494D01*
X21745439Y39903158D01*
X21862739Y39547425D01*
X22107243Y39263659D01*
X22441728Y39095062D01*
X22815271Y39067300D01*
X23073304Y39152385D01*
X23770001Y38455688D01*
X23770001Y14069999D01*
X23797404Y13932233D01*
X23875443Y13815441D01*
X34965001Y2725882D01*
X34964912Y2624000D01*
X35042391Y2436486D01*
X35185731Y2292896D01*
X35373110Y2215089D01*
X35475884Y2214999D01*
X35645442Y2045441D01*
X35762234Y1967403D01*
X35806225Y1958653D01*
X36084307Y1680571D01*
X36084307Y1429907D01*
X36098950Y1352086D01*
X36144942Y1280612D01*
X36215119Y1232662D01*
X36298421Y1215793D01*
X44298421Y1215793D01*
X44376242Y1230436D01*
X44447716Y1276428D01*
X44495666Y1346605D01*
X44512535Y1429907D01*
X44512535Y1929907D01*
X44497892Y2007728D01*
X44451900Y2079202D01*
X44381723Y2127152D01*
X44298421Y2144021D01*
X36441101Y2144021D01*
X36369329Y2215793D01*
X44298421Y2215793D01*
X44376242Y2230436D01*
X44447716Y2276428D01*
X44495666Y2346605D01*
X44512535Y2429907D01*
X44512535Y2929907D01*
X44497892Y3007728D01*
X44451900Y3079202D01*
X44381723Y3127152D01*
X44298421Y3144021D01*
X36441101Y3144021D01*
X36369329Y3215793D01*
X44298421Y3215793D01*
X44376242Y3230436D01*
X44447716Y3276428D01*
X44495666Y3346605D01*
X44512535Y3429907D01*
X44512535Y3929907D01*
X44497892Y4007728D01*
X44451900Y4079202D01*
X44381723Y4127152D01*
X44298421Y4144021D01*
X36441101Y4144021D01*
X36369329Y4215793D01*
X44298421Y4215793D01*
X44376242Y4230436D01*
X44447716Y4276428D01*
X44495666Y4346605D01*
X44512535Y4429907D01*
X44512535Y4929907D01*
X44497892Y5007728D01*
X44451900Y5079202D01*
X44381723Y5127152D01*
X44298421Y5144021D01*
X36441101Y5144021D01*
X36369329Y5215793D01*
X44298421Y5215793D01*
X44376242Y5230436D01*
X44447716Y5276428D01*
X44495666Y5346605D01*
X44512535Y5429907D01*
X44512535Y5929907D01*
X44497892Y6007728D01*
X44451900Y6079202D01*
X44381723Y6127152D01*
X44298421Y6144021D01*
X36441101Y6144021D01*
X36369329Y6215793D01*
X44298421Y6215793D01*
X44376242Y6230436D01*
X44447716Y6276428D01*
X44495666Y6346605D01*
X44512535Y6429907D01*
X44512535Y6929907D01*
X44497892Y7007728D01*
X44451900Y7079202D01*
X44381723Y7127152D01*
X44298421Y7144021D01*
X36441101Y7144021D01*
X36369329Y7215793D01*
X44298421Y7215793D01*
X44376242Y7230436D01*
X44447716Y7276428D01*
X44495666Y7346605D01*
X44512535Y7429907D01*
X44512535Y7929907D01*
X44497892Y8007728D01*
X44451900Y8079202D01*
X44381723Y8127152D01*
X44298421Y8144021D01*
X36441101Y8144021D01*
X36369329Y8215793D01*
X44298421Y8215793D01*
X44376242Y8230436D01*
X44447716Y8276428D01*
X44495666Y8346605D01*
X44512535Y8429907D01*
X44512535Y8929907D01*
X44497892Y9007728D01*
X44451900Y9079202D01*
X44381723Y9127152D01*
X44298421Y9144021D01*
X36441101Y9144021D01*
X36335122Y9250000D01*
X44570000Y9250000D01*
X44570000Y1175000D01*
X44587508Y1086983D01*
X44637365Y1012365D01*
X44711983Y962508D01*
X44800000Y945000D01*
X45250000Y945000D01*
X45338017Y962508D01*
X45412635Y1012365D01*
X45462492Y1086983D01*
X45480000Y1175000D01*
X45480000Y9250000D01*
X45462492Y9338017D01*
X45412635Y9412635D01*
X45338017Y9462492D01*
X45250000Y9480000D01*
X44800000Y9480000D01*
X44711983Y9462492D01*
X44637365Y9412635D01*
X44587508Y9338017D01*
X44570000Y9250000D01*
X36335122Y9250000D01*
X36059935Y9525187D01*
X36060088Y9700996D01*
X35982609Y9888510D01*
X35839269Y10032100D01*
X35651890Y10109907D01*
X35450035Y10110083D01*
X31850118Y13710000D01*
X35621192Y13710000D01*
X35694268Y13342624D01*
X35902369Y13031177D01*
X36213816Y12823076D01*
X36581192Y12750000D01*
X36618808Y12750000D01*
X36986184Y12823076D01*
X37297631Y13031177D01*
X37505732Y13342624D01*
X37578808Y13710000D01*
X38161192Y13710000D01*
X38234268Y13342624D01*
X38442369Y13031177D01*
X38753816Y12823076D01*
X39121192Y12750000D01*
X39158808Y12750000D01*
X39526184Y12823076D01*
X39837631Y13031177D01*
X40045732Y13342624D01*
X40118808Y13710000D01*
X40701192Y13710000D01*
X40774268Y13342624D01*
X40982369Y13031177D01*
X41293816Y12823076D01*
X41661192Y12750000D01*
X41698808Y12750000D01*
X42066184Y12823076D01*
X42377631Y13031177D01*
X42585732Y13342624D01*
X42658808Y13710000D01*
X43241192Y13710000D01*
X43314268Y13342624D01*
X43522369Y13031177D01*
X43833816Y12823076D01*
X44201192Y12750000D01*
X44238808Y12750000D01*
X44606184Y12823076D01*
X44627535Y12837343D01*
X47734264Y9730614D01*
X47734264Y8045122D01*
X46592689Y6903547D01*
X46514269Y6982104D01*
X46326890Y7059911D01*
X46124000Y7060088D01*
X45936486Y6982609D01*
X45792896Y6839269D01*
X45715089Y6651890D01*
X45714912Y6449000D01*
X45792391Y6261486D01*
X45935731Y6117896D01*
X46123110Y6040089D01*
X46326000Y6039912D01*
X46375062Y6060184D01*
X46349791Y6034913D01*
X46149000Y6035088D01*
X45961486Y5957609D01*
X45817896Y5814269D01*
X45740089Y5626890D01*
X45739912Y5424000D01*
X45817391Y5236486D01*
X45960731Y5092896D01*
X46148110Y5015089D01*
X46351000Y5014912D01*
X46400062Y5035184D01*
X46349791Y4984913D01*
X46149000Y4985088D01*
X45961486Y4907609D01*
X45817896Y4764269D01*
X45740089Y4576890D01*
X45739912Y4374000D01*
X45817391Y4186486D01*
X45960731Y4042896D01*
X46148110Y3965089D01*
X46351000Y3964912D01*
X46538514Y4042391D01*
X46682104Y4185731D01*
X46759911Y4373110D01*
X46760087Y4574965D01*
X47659122Y5474000D01*
X52539908Y5474000D01*
X52617387Y5286486D01*
X52760727Y5142896D01*
X52948106Y5065089D01*
X53150996Y5064912D01*
X53338510Y5142391D01*
X53482100Y5285731D01*
X53559907Y5473110D01*
X53560084Y5676000D01*
X53482605Y5863514D01*
X53339996Y6006372D01*
X53339996Y9250000D01*
X54120000Y9250000D01*
X54120000Y1175000D01*
X54137508Y1086983D01*
X54187365Y1012365D01*
X54261983Y962508D01*
X54350000Y945000D01*
X54800000Y945000D01*
X54888017Y962508D01*
X54962635Y1012365D01*
X55012492Y1086983D01*
X55030000Y1175000D01*
X55030000Y1979635D01*
X55048421Y1979635D01*
X55048421Y1792407D01*
X55110921Y1729907D01*
X55200000Y1729907D01*
X55200000Y1629907D01*
X55110921Y1629907D01*
X55048421Y1567407D01*
X55048421Y1380179D01*
X55086481Y1288293D01*
X55156807Y1217967D01*
X55210585Y1195692D01*
X55214160Y1190136D01*
X55230547Y1178939D01*
X55250000Y1175000D01*
X63450000Y1175000D01*
X63468173Y1178419D01*
X63484864Y1189160D01*
X63496061Y1205547D01*
X63500000Y1225000D01*
X63500000Y1277932D01*
X63510361Y1288293D01*
X63548421Y1380179D01*
X63548421Y1567407D01*
X63500000Y1615828D01*
X63500000Y1743986D01*
X63548421Y1792407D01*
X63548421Y1979635D01*
X63510361Y2071521D01*
X63500000Y2081882D01*
X63500000Y2125000D01*
X63496581Y2143173D01*
X63485840Y2159864D01*
X63469453Y2171061D01*
X63450000Y2175000D01*
X63359996Y2175000D01*
X63348149Y2179907D01*
X59410921Y2179907D01*
X59406014Y2175000D01*
X59190828Y2175000D01*
X59185921Y2179907D01*
X55248693Y2179907D01*
X55156807Y2141847D01*
X55086481Y2071521D01*
X55048421Y1979635D01*
X55030000Y1979635D01*
X55030000Y9250000D01*
X55012492Y9338017D01*
X54962635Y9412635D01*
X54888017Y9462492D01*
X54800000Y9480000D01*
X54350000Y9480000D01*
X54261983Y9462492D01*
X54187365Y9412635D01*
X54137508Y9338017D01*
X54120000Y9250000D01*
X53339996Y9250000D01*
X53339996Y9829874D01*
X54820122Y11310000D01*
X57250000Y11310000D01*
X57360978Y11332075D01*
X57455061Y11394939D01*
X58959549Y12899427D01*
X59073816Y12823076D01*
X59441192Y12750000D01*
X59478808Y12750000D01*
X59846184Y12823076D01*
X60157631Y13031177D01*
X60365732Y13342624D01*
X60438808Y13710000D01*
X61021192Y13710000D01*
X61094268Y13342624D01*
X61302369Y13031177D01*
X61613816Y12823076D01*
X61981192Y12750000D01*
X62018808Y12750000D01*
X62386184Y12823076D01*
X62697631Y13031177D01*
X62905732Y13342624D01*
X62978808Y13710000D01*
X62905732Y14077376D01*
X62697631Y14388823D01*
X62386184Y14596924D01*
X62018808Y14670000D01*
X61981192Y14670000D01*
X61613816Y14596924D01*
X61302369Y14388823D01*
X61094268Y14077376D01*
X61021192Y13710000D01*
X60438808Y13710000D01*
X60365732Y14077376D01*
X60157631Y14388823D01*
X59846184Y14596924D01*
X59478808Y14670000D01*
X59441192Y14670000D01*
X59073816Y14596924D01*
X58762369Y14388823D01*
X58554268Y14077376D01*
X58481192Y13710000D01*
X58554268Y13342624D01*
X58565577Y13325699D01*
X57129878Y11890000D01*
X54700000Y11890000D01*
X54589022Y11867925D01*
X54494939Y11805061D01*
X52844935Y10155057D01*
X52782071Y10060974D01*
X52759996Y9949996D01*
X52759996Y6006126D01*
X52617892Y5864269D01*
X52540085Y5676890D01*
X52539908Y5474000D01*
X47659122Y5474000D01*
X49405061Y7219939D01*
X49467925Y7314022D01*
X49490000Y7425000D01*
X49490000Y12784052D01*
X49686184Y12823076D01*
X49997631Y13031177D01*
X50205732Y13342624D01*
X50278808Y13710000D01*
X50861192Y13710000D01*
X50934268Y13342624D01*
X51142369Y13031177D01*
X51453816Y12823076D01*
X51821192Y12750000D01*
X51858808Y12750000D01*
X52226184Y12823076D01*
X52537631Y13031177D01*
X52745732Y13342624D01*
X52818808Y13710000D01*
X53401192Y13710000D01*
X53474268Y13342624D01*
X53682369Y13031177D01*
X53993816Y12823076D01*
X54361192Y12750000D01*
X54398808Y12750000D01*
X54766184Y12823076D01*
X55077631Y13031177D01*
X55285732Y13342624D01*
X55358808Y13710000D01*
X55941192Y13710000D01*
X56014268Y13342624D01*
X56222369Y13031177D01*
X56533816Y12823076D01*
X56901192Y12750000D01*
X56938808Y12750000D01*
X57306184Y12823076D01*
X57617631Y13031177D01*
X57825732Y13342624D01*
X57898808Y13710000D01*
X57829343Y14059221D01*
X58330061Y14559939D01*
X58392925Y14654021D01*
X58415000Y14765000D01*
X58415000Y17144878D01*
X58555061Y17284939D01*
X58617925Y17379022D01*
X58640000Y17490000D01*
X58640000Y17535886D01*
X58650000Y17535886D01*
X58727821Y17550529D01*
X58799295Y17596521D01*
X58847245Y17666698D01*
X58864114Y17750000D01*
X58864114Y18250000D01*
X58849471Y18327821D01*
X58803479Y18399295D01*
X58733302Y18447245D01*
X58650000Y18464114D01*
X58050000Y18464114D01*
X57972179Y18449471D01*
X57900705Y18403479D01*
X57852755Y18333302D01*
X57835886Y18250000D01*
X57835886Y17750000D01*
X57850529Y17672179D01*
X57896521Y17600705D01*
X57966698Y17552755D01*
X57996581Y17546703D01*
X57919939Y17470061D01*
X57857075Y17375978D01*
X57835000Y17265000D01*
X57835000Y17131391D01*
X57823479Y17149295D01*
X57753302Y17197245D01*
X57670000Y17214114D01*
X56170000Y17214114D01*
X56092179Y17199471D01*
X56020705Y17153479D01*
X55972755Y17083302D01*
X55955886Y17000000D01*
X55955886Y15500000D01*
X55970529Y15422179D01*
X56016521Y15350705D01*
X56086698Y15302755D01*
X56170000Y15285886D01*
X57670000Y15285886D01*
X57747821Y15300529D01*
X57819295Y15346521D01*
X57835000Y15369506D01*
X57835000Y14885122D01*
X57450424Y14500546D01*
X57306184Y14596924D01*
X56938808Y14670000D01*
X56901192Y14670000D01*
X56533816Y14596924D01*
X56222369Y14388823D01*
X56014268Y14077376D01*
X55941192Y13710000D01*
X55358808Y13710000D01*
X55285732Y14077376D01*
X55077631Y14388823D01*
X54766184Y14596924D01*
X54398808Y14670000D01*
X54361192Y14670000D01*
X53993816Y14596924D01*
X53682369Y14388823D01*
X53474268Y14077376D01*
X53401192Y13710000D01*
X52818808Y13710000D01*
X52749343Y14059221D01*
X53070062Y14379940D01*
X53132926Y14474023D01*
X53155001Y14585001D01*
X53155001Y16929879D01*
X53225122Y17000000D01*
X53415886Y17000000D01*
X53415886Y15500000D01*
X53430529Y15422179D01*
X53476521Y15350705D01*
X53546698Y15302755D01*
X53630000Y15285886D01*
X55130000Y15285886D01*
X55207821Y15300529D01*
X55279295Y15346521D01*
X55327245Y15416698D01*
X55344114Y15500000D01*
X55344114Y16608992D01*
X56271008Y17535886D01*
X56575000Y17535886D01*
X56652821Y17550529D01*
X56724295Y17596521D01*
X56772245Y17666698D01*
X56789114Y17750000D01*
X56789114Y18250000D01*
X56774471Y18327821D01*
X56728479Y18399295D01*
X56658302Y18447245D01*
X56575000Y18464114D01*
X55975000Y18464114D01*
X55897179Y18449471D01*
X55825705Y18403479D01*
X55777755Y18333302D01*
X55760886Y18250000D01*
X55760886Y17846008D01*
X55128992Y17214114D01*
X53630000Y17214114D01*
X53552179Y17199471D01*
X53480705Y17153479D01*
X53432755Y17083302D01*
X53415886Y17000000D01*
X53225122Y17000000D01*
X53783487Y17558365D01*
X53791698Y17552755D01*
X53875000Y17535886D01*
X54475000Y17535886D01*
X54552821Y17550529D01*
X54624295Y17596521D01*
X54672245Y17666698D01*
X54689114Y17750000D01*
X54689114Y18250000D01*
X54674471Y18327821D01*
X54628479Y18399295D01*
X54558302Y18447245D01*
X54475000Y18464114D01*
X53875000Y18464114D01*
X53797179Y18449471D01*
X53725705Y18403479D01*
X53677755Y18333302D01*
X53660886Y18250000D01*
X53660886Y18179236D01*
X53604022Y18167925D01*
X53509939Y18105061D01*
X52659940Y17255062D01*
X52652910Y17244540D01*
X52639728Y17250000D01*
X51952500Y17250000D01*
X51890000Y17187500D01*
X51890000Y16300000D01*
X51910000Y16300000D01*
X51910000Y16200000D01*
X51890000Y16200000D01*
X51890000Y15312500D01*
X51952500Y15250000D01*
X52575001Y15250000D01*
X52575001Y14705123D01*
X52370424Y14500546D01*
X52226184Y14596924D01*
X51858808Y14670000D01*
X51821192Y14670000D01*
X51453816Y14596924D01*
X51142369Y14388823D01*
X50934268Y14077376D01*
X50861192Y13710000D01*
X50278808Y13710000D01*
X50205732Y14077376D01*
X49997631Y14388823D01*
X49686184Y14596924D01*
X49318808Y14670000D01*
X49281192Y14670000D01*
X48913816Y14596924D01*
X48602369Y14388823D01*
X48394268Y14077376D01*
X48321192Y13710000D01*
X48394268Y13342624D01*
X48602369Y13031177D01*
X48910000Y12825626D01*
X48910000Y11372669D01*
X48905061Y11380061D01*
X47335530Y12949592D01*
X47457631Y13031177D01*
X47665732Y13342624D01*
X47738808Y13710000D01*
X47665732Y14077376D01*
X47457631Y14388823D01*
X47146184Y14596924D01*
X46778808Y14670000D01*
X46741192Y14670000D01*
X46373816Y14596924D01*
X46062369Y14388823D01*
X45854268Y14077376D01*
X45781192Y13710000D01*
X45854268Y13342624D01*
X46062369Y13031177D01*
X46373816Y12823076D01*
X46708344Y12756534D01*
X48410000Y11054878D01*
X48410000Y8095122D01*
X48314264Y7999386D01*
X48314264Y9850736D01*
X48292189Y9961714D01*
X48292189Y9961715D01*
X48229325Y10055797D01*
X45052339Y13232783D01*
X45125732Y13342624D01*
X45198808Y13710000D01*
X45125732Y14077376D01*
X44917631Y14388823D01*
X44606184Y14596924D01*
X44238808Y14670000D01*
X44201192Y14670000D01*
X43833816Y14596924D01*
X43522369Y14388823D01*
X43314268Y14077376D01*
X43241192Y13710000D01*
X42658808Y13710000D01*
X42585732Y14077376D01*
X42377631Y14388823D01*
X42066184Y14596924D01*
X41698808Y14670000D01*
X41661192Y14670000D01*
X41293816Y14596924D01*
X40982369Y14388823D01*
X40774268Y14077376D01*
X40701192Y13710000D01*
X40118808Y13710000D01*
X40045732Y14077376D01*
X39837631Y14388823D01*
X39526184Y14596924D01*
X39158808Y14670000D01*
X39121192Y14670000D01*
X38753816Y14596924D01*
X38442369Y14388823D01*
X38234268Y14077376D01*
X38161192Y13710000D01*
X37578808Y13710000D01*
X37505732Y14077376D01*
X37297631Y14388823D01*
X36986184Y14596924D01*
X36618808Y14670000D01*
X36581192Y14670000D01*
X36213816Y14596924D01*
X35902369Y14388823D01*
X35694268Y14077376D01*
X35621192Y13710000D01*
X31850118Y13710000D01*
X28560118Y17000000D01*
X35635886Y17000000D01*
X35635886Y15500000D01*
X35650529Y15422179D01*
X35696521Y15350705D01*
X35766698Y15302755D01*
X35850000Y15285886D01*
X37350000Y15285886D01*
X37427821Y15300529D01*
X37499295Y15346521D01*
X37547245Y15416698D01*
X37564114Y15500000D01*
X37564114Y17000000D01*
X38175886Y17000000D01*
X38175886Y15500000D01*
X38190529Y15422179D01*
X38236521Y15350705D01*
X38306698Y15302755D01*
X38390000Y15285886D01*
X39890000Y15285886D01*
X39967821Y15300529D01*
X40039295Y15346521D01*
X40087245Y15416698D01*
X40104114Y15500000D01*
X40104114Y17000000D01*
X40089471Y17077821D01*
X40043479Y17149295D01*
X39973302Y17197245D01*
X39890000Y17214114D01*
X39600188Y17214114D01*
X42046074Y19660000D01*
X45660886Y19660000D01*
X45660886Y19650000D01*
X45675529Y19572179D01*
X45721521Y19500705D01*
X45791698Y19452755D01*
X45875000Y19435886D01*
X47282766Y19435886D01*
X46811880Y18965000D01*
X42450000Y18965000D01*
X42339022Y18942925D01*
X42244939Y18880061D01*
X41374939Y18010061D01*
X41312075Y17915978D01*
X41290000Y17805000D01*
X41290000Y17214114D01*
X40930000Y17214114D01*
X40852179Y17199471D01*
X40780705Y17153479D01*
X40732755Y17083302D01*
X40715886Y17000000D01*
X40715886Y15500000D01*
X40730529Y15422179D01*
X40776521Y15350705D01*
X40846698Y15302755D01*
X40930000Y15285886D01*
X42430000Y15285886D01*
X42507821Y15300529D01*
X42579295Y15346521D01*
X42627245Y15416698D01*
X42644114Y15500000D01*
X42644114Y16137500D01*
X43220000Y16137500D01*
X43220000Y15450272D01*
X43258060Y15358386D01*
X43328386Y15288060D01*
X43420272Y15250000D01*
X44107500Y15250000D01*
X44170000Y15312500D01*
X44170000Y16200000D01*
X44270000Y16200000D01*
X44270000Y15312500D01*
X44332500Y15250000D01*
X45019728Y15250000D01*
X45111614Y15288060D01*
X45181940Y15358386D01*
X45220000Y15450272D01*
X45220000Y16137500D01*
X45760000Y16137500D01*
X45760000Y15450272D01*
X45798060Y15358386D01*
X45868386Y15288060D01*
X45960272Y15250000D01*
X46647500Y15250000D01*
X46710000Y15312500D01*
X46710000Y16200000D01*
X46810000Y16200000D01*
X46810000Y15312500D01*
X46872500Y15250000D01*
X47559728Y15250000D01*
X47651614Y15288060D01*
X47721940Y15358386D01*
X47760000Y15450272D01*
X47760000Y16137500D01*
X48300000Y16137500D01*
X48300000Y15450272D01*
X48338060Y15358386D01*
X48408386Y15288060D01*
X48500272Y15250000D01*
X49187500Y15250000D01*
X49250000Y15312500D01*
X49250000Y16200000D01*
X49350000Y16200000D01*
X49350000Y15312500D01*
X49412500Y15250000D01*
X50099728Y15250000D01*
X50191614Y15288060D01*
X50261940Y15358386D01*
X50300000Y15450272D01*
X50300000Y16137500D01*
X50840000Y16137500D01*
X50840000Y15450272D01*
X50878060Y15358386D01*
X50948386Y15288060D01*
X51040272Y15250000D01*
X51727500Y15250000D01*
X51790000Y15312500D01*
X51790000Y16200000D01*
X50902500Y16200000D01*
X50840000Y16137500D01*
X50300000Y16137500D01*
X50237500Y16200000D01*
X49350000Y16200000D01*
X49250000Y16200000D01*
X48362500Y16200000D01*
X48300000Y16137500D01*
X47760000Y16137500D01*
X47697500Y16200000D01*
X46810000Y16200000D01*
X46710000Y16200000D01*
X45822500Y16200000D01*
X45760000Y16137500D01*
X45220000Y16137500D01*
X45157500Y16200000D01*
X44270000Y16200000D01*
X44170000Y16200000D01*
X43282500Y16200000D01*
X43220000Y16137500D01*
X42644114Y16137500D01*
X42644114Y17000000D01*
X42634758Y17049728D01*
X43220000Y17049728D01*
X43220000Y16362500D01*
X43282500Y16300000D01*
X44170000Y16300000D01*
X44170000Y17187500D01*
X44270000Y17187500D01*
X44270000Y16300000D01*
X45157500Y16300000D01*
X45220000Y16362500D01*
X45220000Y17049728D01*
X45760000Y17049728D01*
X45760000Y16362500D01*
X45822500Y16300000D01*
X46710000Y16300000D01*
X46710000Y17187500D01*
X46810000Y17187500D01*
X46810000Y16300000D01*
X47697500Y16300000D01*
X47760000Y16362500D01*
X47760000Y17049728D01*
X48300000Y17049728D01*
X48300000Y16362500D01*
X48362500Y16300000D01*
X49250000Y16300000D01*
X49250000Y17187500D01*
X49350000Y17187500D01*
X49350000Y16300000D01*
X50237500Y16300000D01*
X50300000Y16362500D01*
X50300000Y17049728D01*
X50840000Y17049728D01*
X50840000Y16362500D01*
X50902500Y16300000D01*
X51790000Y16300000D01*
X51790000Y17187500D01*
X51727500Y17250000D01*
X51040272Y17250000D01*
X50948386Y17211940D01*
X50878060Y17141614D01*
X50840000Y17049728D01*
X50300000Y17049728D01*
X50261940Y17141614D01*
X50191614Y17211940D01*
X50099728Y17250000D01*
X49412500Y17250000D01*
X49350000Y17187500D01*
X49250000Y17187500D01*
X49187500Y17250000D01*
X48500272Y17250000D01*
X48408386Y17211940D01*
X48338060Y17141614D01*
X48300000Y17049728D01*
X47760000Y17049728D01*
X47721940Y17141614D01*
X47651614Y17211940D01*
X47559728Y17250000D01*
X46872500Y17250000D01*
X46810000Y17187500D01*
X46710000Y17187500D01*
X46647500Y17250000D01*
X45960272Y17250000D01*
X45868386Y17211940D01*
X45798060Y17141614D01*
X45760000Y17049728D01*
X45220000Y17049728D01*
X45181940Y17141614D01*
X45111614Y17211940D01*
X45019728Y17250000D01*
X44332500Y17250000D01*
X44270000Y17187500D01*
X44170000Y17187500D01*
X44107500Y17250000D01*
X43420272Y17250000D01*
X43328386Y17211940D01*
X43258060Y17141614D01*
X43220000Y17049728D01*
X42634758Y17049728D01*
X42629471Y17077821D01*
X42583479Y17149295D01*
X42513302Y17197245D01*
X42430000Y17214114D01*
X41870000Y17214114D01*
X41870000Y17684878D01*
X42570122Y18385000D01*
X46932002Y18385000D01*
X47042980Y18407075D01*
X47137063Y18469939D01*
X47917124Y19250000D01*
X53660886Y19250000D01*
X53660886Y18750000D01*
X53675529Y18672179D01*
X53721521Y18600705D01*
X53791698Y18552755D01*
X53875000Y18535886D01*
X54475000Y18535886D01*
X54552821Y18550529D01*
X54624295Y18596521D01*
X54672245Y18666698D01*
X54689114Y18750000D01*
X54689114Y19250000D01*
X54681574Y19290073D01*
X54684911Y19298110D01*
X54685088Y19501000D01*
X54607609Y19688514D01*
X54464269Y19832104D01*
X54276890Y19909911D01*
X54074000Y19910088D01*
X53886486Y19832609D01*
X53742896Y19689269D01*
X53665089Y19501890D01*
X53664912Y19299000D01*
X53668869Y19289423D01*
X53660886Y19250000D01*
X47917124Y19250000D01*
X48255061Y19587937D01*
X48317925Y19682020D01*
X48340000Y19792998D01*
X48340000Y19837500D01*
X50725000Y19837500D01*
X50725000Y19600272D01*
X50763060Y19508386D01*
X50833386Y19438060D01*
X50925272Y19400000D01*
X51662500Y19400000D01*
X51725000Y19462500D01*
X51725000Y19900000D01*
X51825000Y19900000D01*
X51825000Y19462500D01*
X51887500Y19400000D01*
X52624728Y19400000D01*
X52716614Y19438060D01*
X52786940Y19508386D01*
X52825000Y19600272D01*
X52825000Y19837500D01*
X52762500Y19900000D01*
X51825000Y19900000D01*
X51725000Y19900000D01*
X50787500Y19900000D01*
X50725000Y19837500D01*
X48340000Y19837500D01*
X48340000Y20299728D01*
X50725000Y20299728D01*
X50725000Y20062500D01*
X50787500Y20000000D01*
X51725000Y20000000D01*
X51725000Y20437500D01*
X51825000Y20437500D01*
X51825000Y20000000D01*
X52762500Y20000000D01*
X52825000Y20062500D01*
X52825000Y20299728D01*
X52786940Y20391614D01*
X52716614Y20461940D01*
X52624728Y20500000D01*
X51887500Y20500000D01*
X51825000Y20437500D01*
X51725000Y20437500D01*
X51662500Y20500000D01*
X50925272Y20500000D01*
X50833386Y20461940D01*
X50763060Y20391614D01*
X50725000Y20299728D01*
X48340000Y20299728D01*
X48340000Y22875000D01*
X48317925Y22985978D01*
X48255061Y23080061D01*
X47689114Y23646008D01*
X47689114Y24050000D01*
X47674471Y24127821D01*
X47628479Y24199295D01*
X47558302Y24247245D01*
X47475000Y24264114D01*
X45875000Y24264114D01*
X45797179Y24249471D01*
X45725705Y24203479D01*
X45677755Y24133302D01*
X45660886Y24050000D01*
X45660886Y23450000D01*
X45675529Y23372179D01*
X45721521Y23300705D01*
X45791698Y23252755D01*
X45875000Y23235886D01*
X47278992Y23235886D01*
X47489878Y23025000D01*
X46787500Y23025000D01*
X46725000Y22962500D01*
X46725000Y22525000D01*
X47662500Y22525000D01*
X47725000Y22587500D01*
X47725000Y22789878D01*
X47760000Y22754878D01*
X47760000Y19913120D01*
X47689114Y19842234D01*
X47689114Y20250000D01*
X47674471Y20327821D01*
X47628479Y20399295D01*
X47558302Y20447245D01*
X47475000Y20464114D01*
X45875000Y20464114D01*
X45797179Y20449471D01*
X45725705Y20403479D01*
X45677755Y20333302D01*
X45660886Y20250000D01*
X45660886Y20240000D01*
X41925952Y20240000D01*
X41814973Y20217925D01*
X41720891Y20155061D01*
X38834939Y17269109D01*
X38798193Y17214114D01*
X38390000Y17214114D01*
X38312179Y17199471D01*
X38240705Y17153479D01*
X38192755Y17083302D01*
X38175886Y17000000D01*
X37564114Y17000000D01*
X37549471Y17077821D01*
X37503479Y17149295D01*
X37433302Y17197245D01*
X37350000Y17214114D01*
X37060188Y17214114D01*
X40781074Y20935000D01*
X45660886Y20935000D01*
X45660886Y20925000D01*
X45675529Y20847179D01*
X45721521Y20775705D01*
X45791698Y20727755D01*
X45875000Y20710886D01*
X47475000Y20710886D01*
X47552821Y20725529D01*
X47624295Y20771521D01*
X47672245Y20841698D01*
X47689114Y20925000D01*
X47689114Y21525000D01*
X47674471Y21602821D01*
X47628479Y21674295D01*
X47558302Y21722245D01*
X47475000Y21739114D01*
X45875000Y21739114D01*
X45797179Y21724471D01*
X45725705Y21678479D01*
X45677755Y21608302D01*
X45660886Y21525000D01*
X45660886Y21515000D01*
X40660952Y21515000D01*
X40549974Y21492925D01*
X40455891Y21430061D01*
X36294939Y17269109D01*
X36258193Y17214114D01*
X35850000Y17214114D01*
X35772179Y17199471D01*
X35700705Y17153479D01*
X35652755Y17083302D01*
X35635886Y17000000D01*
X28560118Y17000000D01*
X26740000Y18820118D01*
X26740000Y22362500D01*
X45625000Y22362500D01*
X45625000Y22125272D01*
X45663060Y22033386D01*
X45733386Y21963060D01*
X45825272Y21925000D01*
X46562500Y21925000D01*
X46625000Y21987500D01*
X46625000Y22425000D01*
X46725000Y22425000D01*
X46725000Y21987500D01*
X46787500Y21925000D01*
X47524728Y21925000D01*
X47616614Y21963060D01*
X47686940Y22033386D01*
X47725000Y22125272D01*
X47725000Y22362500D01*
X47662500Y22425000D01*
X46725000Y22425000D01*
X46625000Y22425000D01*
X45687500Y22425000D01*
X45625000Y22362500D01*
X26740000Y22362500D01*
X26740000Y22824728D01*
X45625000Y22824728D01*
X45625000Y22587500D01*
X45687500Y22525000D01*
X46625000Y22525000D01*
X46625000Y22962500D01*
X46562500Y23025000D01*
X45825272Y23025000D01*
X45733386Y22986940D01*
X45663060Y22916614D01*
X45625000Y22824728D01*
X26740000Y22824728D01*
X26740000Y26279878D01*
X29048764Y28588642D01*
X33966055Y28588642D01*
X33970149Y28503748D01*
X34006949Y28427134D01*
X34070656Y28370874D01*
X34928540Y27875574D01*
X35003257Y27849344D01*
X35088151Y27853438D01*
X35164765Y27890238D01*
X35200446Y27930642D01*
X35298108Y27890089D01*
X35500998Y27889912D01*
X35688512Y27967391D01*
X35832102Y28110731D01*
X35909909Y28298110D01*
X35910086Y28501000D01*
X35832607Y28688514D01*
X35690181Y28831188D01*
X35687661Y28883452D01*
X35650861Y28960066D01*
X35587154Y29016326D01*
X35372866Y29140046D01*
X35526000Y29139912D01*
X35713514Y29217391D01*
X35857104Y29360731D01*
X35934911Y29548110D01*
X35935088Y29751000D01*
X35857609Y29938514D01*
X35714269Y30082104D01*
X35589866Y30133761D01*
X35548563Y30170236D01*
X35115551Y30420236D01*
X35040834Y30446466D01*
X34955940Y30442372D01*
X34879326Y30405572D01*
X34823066Y30341865D01*
X34523066Y29822249D01*
X34496836Y29747532D01*
X34500930Y29662638D01*
X34537730Y29586024D01*
X34595499Y29535008D01*
X34569659Y29533762D01*
X34493045Y29496962D01*
X34436785Y29433255D01*
X33992285Y28663359D01*
X33966055Y28588642D01*
X29048764Y28588642D01*
X29861564Y29401442D01*
X32558245Y29401442D01*
X32562339Y29316548D01*
X32599139Y29239934D01*
X32662846Y29183674D01*
X33520730Y28688374D01*
X33595447Y28662144D01*
X33680341Y28666238D01*
X33756955Y28703038D01*
X33813215Y28766745D01*
X34257715Y29536641D01*
X34283945Y29611358D01*
X34279851Y29696252D01*
X34252129Y29753967D01*
X34328034Y29757628D01*
X34404648Y29794428D01*
X34460908Y29858135D01*
X34760908Y30377751D01*
X34787138Y30452468D01*
X34783044Y30537362D01*
X34746244Y30613976D01*
X34682537Y30670236D01*
X34249525Y30920236D01*
X34174808Y30946466D01*
X34089914Y30942372D01*
X34013300Y30905572D01*
X33957040Y30841865D01*
X33657040Y30322249D01*
X33630810Y30247532D01*
X33634904Y30162638D01*
X33645387Y30140814D01*
X33643227Y30138654D01*
X33321460Y30324426D01*
X33246743Y30350656D01*
X33161849Y30346562D01*
X33085235Y30309762D01*
X33028975Y30246055D01*
X32584475Y29476159D01*
X32558245Y29401442D01*
X29861564Y29401442D01*
X40548523Y40088401D01*
X40611387Y40182483D01*
X40633462Y40293462D01*
X40633462Y41290431D01*
X40818474Y41351438D01*
X41102240Y41595941D01*
X41270837Y41930427D01*
X41298599Y42303970D01*
X41294015Y42341305D01*
X41176715Y42697038D01*
X40932211Y42980804D01*
X40597726Y43149401D01*
X40323914Y43169751D01*
X40323914Y43504377D01*
X43771369Y43504377D01*
X43912601Y43163397D01*
X44185520Y42884546D01*
X44544376Y42731363D01*
X44700000Y42773745D01*
X44700000Y43660000D01*
X44800000Y43660000D01*
X44800000Y42773745D01*
X44955624Y42731363D01*
X45314480Y42884546D01*
X45587399Y43163397D01*
X45728631Y43504377D01*
X45703221Y43597500D01*
X46290000Y43597500D01*
X46290000Y42910272D01*
X46328060Y42818386D01*
X46398386Y42748060D01*
X46490272Y42710000D01*
X47177500Y42710000D01*
X47240000Y42772500D01*
X47240000Y43660000D01*
X47340000Y43660000D01*
X47340000Y42772500D01*
X47402500Y42710000D01*
X48089728Y42710000D01*
X48181614Y42748060D01*
X48251940Y42818386D01*
X48290000Y42910272D01*
X48290000Y43597500D01*
X48227500Y43660000D01*
X47340000Y43660000D01*
X47240000Y43660000D01*
X46352500Y43660000D01*
X46290000Y43597500D01*
X45703221Y43597500D01*
X45686166Y43660000D01*
X44800000Y43660000D01*
X44700000Y43660000D01*
X43813834Y43660000D01*
X43771369Y43504377D01*
X40323914Y43504377D01*
X40323914Y43790970D01*
X40895820Y43861191D01*
X40971277Y43885209D01*
X41007831Y43915623D01*
X43771369Y43915623D01*
X43813834Y43760000D01*
X44700000Y43760000D01*
X44700000Y44646255D01*
X44800000Y44646255D01*
X44800000Y43760000D01*
X45686166Y43760000D01*
X45728631Y43915623D01*
X45587399Y44256603D01*
X45339659Y44509728D01*
X46290000Y44509728D01*
X46290000Y43822500D01*
X46352500Y43760000D01*
X47240000Y43760000D01*
X47240000Y44647500D01*
X47340000Y44647500D01*
X47340000Y43760000D01*
X48227500Y43760000D01*
X48290000Y43822500D01*
X48290000Y44509728D01*
X48251940Y44601614D01*
X48181614Y44671940D01*
X48089728Y44710000D01*
X47402500Y44710000D01*
X47340000Y44647500D01*
X47240000Y44647500D01*
X47177500Y44710000D01*
X46490272Y44710000D01*
X46398386Y44671940D01*
X46328060Y44601614D01*
X46290000Y44509728D01*
X45339659Y44509728D01*
X45314480Y44535454D01*
X44955624Y44688637D01*
X44800000Y44646255D01*
X44700000Y44646255D01*
X44544376Y44688637D01*
X44185520Y44535454D01*
X43912601Y44256603D01*
X43771369Y43915623D01*
X41007831Y43915623D01*
X41036613Y43939569D01*
X41075653Y44015066D01*
X41082244Y44099803D01*
X40899440Y45588623D01*
X40875422Y45664080D01*
X40821062Y45729416D01*
X40745565Y45768456D01*
X40660828Y45775047D01*
X39172008Y45592243D01*
X39096551Y45568225D01*
X39031215Y45513865D01*
X38992175Y45438368D01*
X38985584Y45353631D01*
X39168388Y43864811D01*
X39192406Y43789354D01*
X39246766Y43724018D01*
X39322263Y43684978D01*
X39407000Y43678387D01*
X39743914Y43719755D01*
X39743914Y42952558D01*
X39584684Y42815359D01*
X39416087Y42480874D01*
X39388325Y42107331D01*
X39392909Y42069995D01*
X39510209Y41714262D01*
X39754713Y41430496D01*
X40053462Y41279912D01*
X40053462Y40413584D01*
X38112395Y38472517D01*
X38112395Y40980883D01*
X38297407Y41041890D01*
X38581173Y41286393D01*
X38749770Y41620879D01*
X38777532Y41994422D01*
X38772948Y42031757D01*
X38655648Y42387490D01*
X38411144Y42671256D01*
X38076659Y42839853D01*
X37802847Y42860203D01*
X37802847Y43501950D01*
X37987859Y43562957D01*
X38271625Y43807460D01*
X38440222Y44141946D01*
X38467984Y44515489D01*
X38463400Y44552824D01*
X38346100Y44908557D01*
X38101596Y45192323D01*
X37767111Y45360920D01*
X37393568Y45388682D01*
X37037835Y45271382D01*
X36754069Y45026878D01*
X36585472Y44692393D01*
X36557710Y44318850D01*
X36562294Y44281514D01*
X36679594Y43925781D01*
X36924098Y43642015D01*
X37222847Y43491431D01*
X37222847Y42643010D01*
X37063617Y42505811D01*
X36895020Y42171326D01*
X36867258Y41797783D01*
X36871842Y41760447D01*
X36989142Y41404714D01*
X37233646Y41120948D01*
X37532395Y40970364D01*
X37532395Y38492517D01*
X35591328Y36551450D01*
X35591328Y40671335D01*
X35776340Y40732342D01*
X36060106Y40976845D01*
X36228703Y41311331D01*
X36256465Y41684874D01*
X36251881Y41722209D01*
X36134581Y42077942D01*
X35890077Y42361708D01*
X35555592Y42530305D01*
X35281780Y42550655D01*
X35281780Y43192402D01*
X35466792Y43253409D01*
X35750558Y43497912D01*
X35919155Y43832398D01*
X35946917Y44205941D01*
X35942333Y44243276D01*
X35825033Y44599009D01*
X35580529Y44882775D01*
X35246044Y45051372D01*
X34872501Y45079134D01*
X34516768Y44961834D01*
X34233002Y44717330D01*
X34064405Y44382845D01*
X34036643Y44009302D01*
X34041227Y43971966D01*
X34158527Y43616233D01*
X34403031Y43332467D01*
X34701780Y43181883D01*
X34701780Y42333462D01*
X34542550Y42196263D01*
X34373953Y41861778D01*
X34346191Y41488235D01*
X34350775Y41450899D01*
X34468075Y41095166D01*
X34712579Y40811400D01*
X35011328Y40660816D01*
X35011328Y36471450D01*
X33070261Y34530383D01*
X33070261Y40361787D01*
X33255272Y40422793D01*
X33539038Y40667296D01*
X33707635Y41001782D01*
X33735397Y41375325D01*
X33730813Y41412660D01*
X33613513Y41768393D01*
X33369009Y42052159D01*
X33034524Y42220756D01*
X32760713Y42241106D01*
X32760713Y42882855D01*
X32945724Y42943861D01*
X33229490Y43188364D01*
X33398087Y43522850D01*
X33425849Y43896393D01*
X33421265Y43933728D01*
X33303965Y44289461D01*
X33059461Y44573227D01*
X32724976Y44741824D01*
X32351433Y44769586D01*
X31995700Y44652286D01*
X31711934Y44407782D01*
X31543337Y44073297D01*
X31515575Y43699754D01*
X31520159Y43662418D01*
X31637459Y43306685D01*
X31881963Y43022919D01*
X32180713Y42872334D01*
X32180713Y42023914D01*
X32021482Y41886714D01*
X31852885Y41552229D01*
X31825123Y41178686D01*
X31829707Y41141350D01*
X31947007Y40785617D01*
X32191511Y40501851D01*
X32490261Y40351266D01*
X32490261Y34550383D01*
X30540000Y32600122D01*
X30540000Y39935079D01*
X30549194Y39981300D01*
X30549194Y40052239D01*
X30734205Y40113245D01*
X31017971Y40357748D01*
X31186568Y40692234D01*
X31214330Y41065777D01*
X31209746Y41103112D01*
X31092446Y41458845D01*
X30847942Y41742611D01*
X30513457Y41911208D01*
X30239645Y41931558D01*
X30239645Y42573305D01*
X30424657Y42634312D01*
X30708423Y42878815D01*
X30877020Y43213301D01*
X30904782Y43586844D01*
X30900198Y43624179D01*
X30782898Y43979912D01*
X30538394Y44263678D01*
X30203909Y44432275D01*
X29830366Y44460037D01*
X29474633Y44342737D01*
X29190867Y44098233D01*
X29022270Y43763748D01*
X28994508Y43390205D01*
X28999092Y43352869D01*
X29116392Y42997136D01*
X29360896Y42713370D01*
X29659645Y42562786D01*
X29659645Y41714365D01*
X29500415Y41577166D01*
X29331818Y41242681D01*
X29304056Y40869138D01*
X29308640Y40831802D01*
X29425940Y40476069D01*
X29670444Y40192303D01*
X29969194Y40041718D01*
X29969194Y40018327D01*
X29960000Y39972106D01*
X29960000Y32520122D01*
X28028126Y30588248D01*
X28028126Y39742690D01*
X28213138Y39803697D01*
X28496904Y40048200D01*
X28665501Y40382686D01*
X28693263Y40756229D01*
X28688679Y40793564D01*
X28571379Y41149297D01*
X28326875Y41433063D01*
X27992390Y41601660D01*
X27718578Y41622010D01*
X27718578Y42263757D01*
X27903590Y42324764D01*
X28187356Y42569267D01*
X28355953Y42903753D01*
X28383715Y43277296D01*
X28379131Y43314631D01*
X28261831Y43670364D01*
X28017327Y43954130D01*
X27682842Y44122727D01*
X27309299Y44150489D01*
X26953566Y44033189D01*
X26669800Y43788685D01*
X26501203Y43454200D01*
X26473441Y43080657D01*
X26478025Y43043321D01*
X26595325Y42687588D01*
X26839829Y42403822D01*
X27138578Y42253238D01*
X27138578Y41404817D01*
X26979348Y41267618D01*
X26810751Y40933133D01*
X26782989Y40559590D01*
X26787573Y40522254D01*
X26904873Y40166521D01*
X27149377Y39882755D01*
X27448126Y39732171D01*
X27448126Y30508248D01*
X24810011Y27870133D01*
X24810011Y39481621D01*
X24962795Y39404610D01*
X25336338Y39376848D01*
X25692071Y39494149D01*
X25975837Y39738652D01*
X26144434Y40073138D01*
X26172196Y40446681D01*
X26167612Y40484016D01*
X26050312Y40839749D01*
X25805808Y41123515D01*
X25471323Y41292112D01*
X25197511Y41312462D01*
X25197511Y41954209D01*
X25382523Y42015216D01*
X25666289Y42259719D01*
X25834886Y42594205D01*
X25862648Y42967748D01*
X25858064Y43005083D01*
X25740764Y43360816D01*
X25496260Y43644582D01*
X25161775Y43813179D01*
X24788232Y43840941D01*
X24432499Y43723641D01*
X24148733Y43479137D01*
X23980136Y43144652D01*
X23952374Y42771109D01*
X23956958Y42733773D01*
X24074258Y42378040D01*
X24318762Y42094274D01*
X24617511Y41943690D01*
X24617511Y41095269D01*
X24458281Y40958070D01*
X24289684Y40623585D01*
X24261922Y40250042D01*
X24266506Y40212706D01*
X24366880Y39908304D01*
X24314950Y39856374D01*
X24252086Y39762291D01*
X24230011Y39651313D01*
X24230011Y39013910D01*
X23575432Y39668489D01*
X23623367Y39763590D01*
X23651129Y40137133D01*
X23646545Y40174468D01*
X23529245Y40530201D01*
X23284741Y40813967D01*
X22950256Y40982564D01*
X22746444Y40997711D01*
X22746444Y41667744D01*
X22861455Y41705668D01*
X23145221Y41950171D01*
X23313818Y42284657D01*
X23341580Y42658200D01*
X23336996Y42695535D01*
X23219696Y43051268D01*
X22975192Y43335034D01*
X22640707Y43503631D01*
X22267164Y43531393D01*
X21911431Y43414093D01*
X21627665Y43169589D01*
X21459068Y42835104D01*
X21431306Y42461561D01*
X1708188Y42461561D01*
X2374738Y43283255D01*
X2391406Y43314870D01*
X2410360Y43345165D01*
X2411754Y43353465D01*
X2415681Y43360914D01*
X2418982Y43396508D01*
X2424899Y43431743D01*
X2423010Y43439945D01*
X2423788Y43448329D01*
X2413217Y43482474D01*
X2405199Y43517295D01*
X2400315Y43524151D01*
X2397825Y43532193D01*
X2374993Y43559693D01*
X2354260Y43588795D01*
X-3168473Y48790000D01*
X43771192Y48790000D01*
X43844268Y48422624D01*
X44052369Y48111177D01*
X44363816Y47903076D01*
X44731192Y47830000D01*
X44768808Y47830000D01*
X45136184Y47903076D01*
X45447631Y48111177D01*
X45655732Y48422624D01*
X45671123Y48500000D01*
X46368877Y48500000D01*
X46384268Y48422624D01*
X46592369Y48111177D01*
X46903816Y47903076D01*
X47271192Y47830000D01*
X47308808Y47830000D01*
X47676184Y47903076D01*
X47730506Y47939372D01*
X50144999Y45524879D01*
X50144999Y43797705D01*
X50130061Y43820061D01*
X48144369Y45805753D01*
X48195732Y45882624D01*
X48268808Y46250000D01*
X48195732Y46617376D01*
X47987631Y46928823D01*
X47676184Y47136924D01*
X47308808Y47210000D01*
X47271192Y47210000D01*
X46903816Y47136924D01*
X46592369Y46928823D01*
X46384268Y46617376D01*
X46368877Y46540000D01*
X45671123Y46540000D01*
X45655732Y46617376D01*
X45447631Y46928823D01*
X45136184Y47136924D01*
X44768808Y47210000D01*
X44731192Y47210000D01*
X44363816Y47136924D01*
X44052369Y46928823D01*
X43844268Y46617376D01*
X43771192Y46250000D01*
X43844268Y45882624D01*
X44052369Y45571177D01*
X44363816Y45363076D01*
X44731192Y45290000D01*
X44768808Y45290000D01*
X45136184Y45363076D01*
X45447631Y45571177D01*
X45655732Y45882624D01*
X45671123Y45960000D01*
X46368877Y45960000D01*
X46384268Y45882624D01*
X46592369Y45571177D01*
X46903816Y45363076D01*
X47271192Y45290000D01*
X47308808Y45290000D01*
X47676184Y45363076D01*
X47730506Y45399372D01*
X49635000Y43494878D01*
X49635000Y41031587D01*
X49597179Y41024471D01*
X49525705Y40978479D01*
X49477755Y40908302D01*
X49460886Y40825000D01*
X49460886Y40421008D01*
X48314919Y39275041D01*
X48252055Y39180958D01*
X48229980Y39069980D01*
X48229979Y37087853D01*
X48224967Y37062656D01*
X48224968Y37062651D01*
X48224968Y23985032D01*
X48247043Y23874054D01*
X48309907Y23779971D01*
X50760886Y21328992D01*
X50760886Y20925000D01*
X50775529Y20847179D01*
X50821521Y20775705D01*
X50891698Y20727755D01*
X50975000Y20710886D01*
X52575000Y20710886D01*
X52652821Y20725529D01*
X52724295Y20771521D01*
X52772245Y20841698D01*
X52789114Y20925000D01*
X52789114Y20935000D01*
X54239878Y20935000D01*
X55803661Y19371217D01*
X55777755Y19333302D01*
X55760886Y19250000D01*
X55760886Y18750000D01*
X55775529Y18672179D01*
X55821521Y18600705D01*
X55891698Y18552755D01*
X55975000Y18535886D01*
X56575000Y18535886D01*
X56652821Y18550529D01*
X56724295Y18596521D01*
X56772245Y18666698D01*
X56781014Y18710000D01*
X57843413Y18710000D01*
X57850529Y18672179D01*
X57896521Y18600705D01*
X57966698Y18552755D01*
X58050000Y18535886D01*
X58650000Y18535886D01*
X58727821Y18550529D01*
X58799295Y18596521D01*
X58847245Y18666698D01*
X58864114Y18750000D01*
X58864114Y19250000D01*
X58849471Y19327821D01*
X58803479Y19399295D01*
X58733302Y19447245D01*
X58650000Y19464114D01*
X58050000Y19464114D01*
X57972179Y19449471D01*
X57900705Y19403479D01*
X57852755Y19333302D01*
X57843986Y19290000D01*
X56781587Y19290000D01*
X56774471Y19327821D01*
X56728479Y19399295D01*
X56658302Y19447245D01*
X56575000Y19464114D01*
X56514103Y19464114D01*
X56480061Y19515061D01*
X54565061Y21430061D01*
X54470978Y21492925D01*
X54360000Y21515000D01*
X52789114Y21515000D01*
X52789114Y21525000D01*
X52774471Y21602821D01*
X52728479Y21674295D01*
X52658302Y21722245D01*
X52575000Y21739114D01*
X51171008Y21739114D01*
X50942694Y21967428D01*
X50975000Y21960886D01*
X52575000Y21960886D01*
X52615073Y21968426D01*
X52623110Y21965089D01*
X52826000Y21964912D01*
X53013514Y22042391D01*
X53157104Y22185731D01*
X53234911Y22373110D01*
X53235088Y22576000D01*
X53157609Y22763514D01*
X53014269Y22907104D01*
X52826890Y22984911D01*
X52624000Y22985088D01*
X52614423Y22981131D01*
X52575000Y22989114D01*
X51171008Y22989114D01*
X50911346Y23248776D01*
X50975000Y23235886D01*
X52575000Y23235886D01*
X52652821Y23250529D01*
X52724295Y23296521D01*
X52772245Y23366698D01*
X52789114Y23450000D01*
X52789114Y24050000D01*
X52774471Y24127821D01*
X52728479Y24199295D01*
X52658302Y24247245D01*
X52575000Y24264114D01*
X52065000Y24264114D01*
X52065000Y24488708D01*
X52127821Y24500529D01*
X52199295Y24546521D01*
X52247245Y24616698D01*
X52264114Y24700000D01*
X52264114Y24887500D01*
X52300000Y24887500D01*
X52300000Y24650272D01*
X52338060Y24558386D01*
X52408386Y24488060D01*
X52500272Y24450000D01*
X52687500Y24450000D01*
X52750000Y24512500D01*
X52750000Y24950000D01*
X52850000Y24950000D01*
X52850000Y24512500D01*
X52912500Y24450000D01*
X53099728Y24450000D01*
X53191614Y24488060D01*
X53261940Y24558386D01*
X53300000Y24650272D01*
X53300000Y24887500D01*
X53237500Y24950000D01*
X52850000Y24950000D01*
X52750000Y24950000D01*
X52362500Y24950000D01*
X52300000Y24887500D01*
X52264114Y24887500D01*
X52264114Y25300000D01*
X52254758Y25349728D01*
X52300000Y25349728D01*
X52300000Y25112500D01*
X52362500Y25050000D01*
X52750000Y25050000D01*
X52750000Y25487500D01*
X52850000Y25487500D01*
X52850000Y25050000D01*
X53237500Y25050000D01*
X53300000Y25112500D01*
X53300000Y25349728D01*
X53261940Y25441614D01*
X53191614Y25511940D01*
X53099728Y25550000D01*
X52912500Y25550000D01*
X52850000Y25487500D01*
X52750000Y25487500D01*
X52687500Y25550000D01*
X52500272Y25550000D01*
X52408386Y25511940D01*
X52338060Y25441614D01*
X52300000Y25349728D01*
X52254758Y25349728D01*
X52249471Y25377821D01*
X52203479Y25449295D01*
X52133302Y25497245D01*
X52050000Y25514114D01*
X51550000Y25514114D01*
X51472179Y25499471D01*
X51454472Y25488077D01*
X51401890Y25509911D01*
X51199000Y25510088D01*
X51011486Y25432609D01*
X50867896Y25289269D01*
X50790089Y25101890D01*
X50789912Y24899000D01*
X50867391Y24711486D01*
X51010731Y24567896D01*
X51198110Y24490089D01*
X51401000Y24489912D01*
X51453654Y24511668D01*
X51466698Y24502755D01*
X51485000Y24499049D01*
X51485000Y24264114D01*
X50975000Y24264114D01*
X50897179Y24249471D01*
X50825705Y24203479D01*
X50777755Y24133302D01*
X50760886Y24050000D01*
X50760886Y23450000D01*
X50772652Y23387470D01*
X49124978Y25035144D01*
X49124978Y36837228D01*
X49169939Y36769939D01*
X59070000Y26869878D01*
X59070000Y17214114D01*
X58710000Y17214114D01*
X58632179Y17199471D01*
X58560705Y17153479D01*
X58512755Y17083302D01*
X58495886Y17000000D01*
X58495886Y15500000D01*
X58510529Y15422179D01*
X58556521Y15350705D01*
X58626698Y15302755D01*
X58710000Y15285886D01*
X60210000Y15285886D01*
X60287821Y15300529D01*
X60359295Y15346521D01*
X60407245Y15416698D01*
X60424114Y15500000D01*
X60424114Y16715764D01*
X61035886Y16103992D01*
X61035886Y15500000D01*
X61050529Y15422179D01*
X61096521Y15350705D01*
X61166698Y15302755D01*
X61250000Y15285886D01*
X62750000Y15285886D01*
X62827821Y15300529D01*
X62899295Y15346521D01*
X62947245Y15416698D01*
X62964114Y15500000D01*
X62964114Y17000000D01*
X62949471Y17077821D01*
X62903479Y17149295D01*
X62833302Y17197245D01*
X62750000Y17214114D01*
X61250000Y17214114D01*
X61172179Y17199471D01*
X61100705Y17153479D01*
X61052755Y17083302D01*
X61035886Y17000000D01*
X61035886Y16924236D01*
X60414236Y17545886D01*
X60920000Y17545886D01*
X60997821Y17560529D01*
X61069295Y17606521D01*
X61117245Y17676698D01*
X61126014Y17720000D01*
X62419878Y17720000D01*
X63960000Y16179878D01*
X63960000Y10371126D01*
X63817896Y10229269D01*
X63740089Y10041890D01*
X63739912Y9839000D01*
X63743995Y9829117D01*
X63058899Y9144021D01*
X55298421Y9144021D01*
X55220600Y9129378D01*
X55149126Y9083386D01*
X55101176Y9013209D01*
X55084307Y8929907D01*
X55084307Y8429907D01*
X55098950Y8352086D01*
X55144942Y8280612D01*
X55215119Y8232662D01*
X55298421Y8215793D01*
X63130671Y8215793D01*
X63058899Y8144021D01*
X55298421Y8144021D01*
X55220600Y8129378D01*
X55149126Y8083386D01*
X55101176Y8013209D01*
X55084307Y7929907D01*
X55084307Y7429907D01*
X55098950Y7352086D01*
X55144942Y7280612D01*
X55215119Y7232662D01*
X55298421Y7215793D01*
X63130671Y7215793D01*
X63058899Y7144021D01*
X55298421Y7144021D01*
X55220600Y7129378D01*
X55149126Y7083386D01*
X55101176Y7013209D01*
X55084307Y6929907D01*
X55084307Y6429907D01*
X55098950Y6352086D01*
X55144942Y6280612D01*
X55215119Y6232662D01*
X55298421Y6215793D01*
X63105671Y6215793D01*
X63033899Y6144021D01*
X55298421Y6144021D01*
X55220600Y6129378D01*
X55149126Y6083386D01*
X55101176Y6013209D01*
X55084307Y5929907D01*
X55084307Y5429907D01*
X55098950Y5352086D01*
X55144942Y5280612D01*
X55215119Y5232662D01*
X55298421Y5215793D01*
X63130671Y5215793D01*
X63058899Y5144021D01*
X55298421Y5144021D01*
X55220600Y5129378D01*
X55149126Y5083386D01*
X55101176Y5013209D01*
X55084307Y4929907D01*
X55084307Y4429907D01*
X55098950Y4352086D01*
X55144942Y4280612D01*
X55215119Y4232662D01*
X55298421Y4215793D01*
X63130671Y4215793D01*
X63058899Y4144021D01*
X55298421Y4144021D01*
X55220600Y4129378D01*
X55149126Y4083386D01*
X55101176Y4013209D01*
X55084307Y3929907D01*
X55084307Y3429907D01*
X55098950Y3352086D01*
X55144942Y3280612D01*
X55215119Y3232662D01*
X55298421Y3215793D01*
X63130671Y3215793D01*
X63058899Y3144021D01*
X55298421Y3144021D01*
X55220600Y3129378D01*
X55149126Y3083386D01*
X55101176Y3013209D01*
X55084307Y2929907D01*
X55084307Y2429907D01*
X55098950Y2352086D01*
X55144942Y2280612D01*
X55215119Y2232662D01*
X55298421Y2215793D01*
X63298421Y2215793D01*
X63376242Y2230436D01*
X63447716Y2276428D01*
X63495666Y2346605D01*
X63512535Y2429907D01*
X63512535Y2777413D01*
X64100209Y3365087D01*
X64301000Y3364912D01*
X64488514Y3442391D01*
X64632104Y3585731D01*
X64709911Y3773110D01*
X64710087Y3974965D01*
X74843230Y14108108D01*
X74906094Y14202191D01*
X74928169Y14313169D01*
X74928169Y38878696D01*
X77026258Y38878696D01*
X77172143Y38809853D01*
X77532467Y38889728D01*
X77854474Y39110079D01*
X78067644Y39436883D01*
X78052930Y39597503D01*
X77180139Y39751399D01*
X77026258Y38878696D01*
X74928169Y38878696D01*
X74928169Y39332237D01*
X75185534Y39445478D01*
X75444557Y39716056D01*
X75468163Y39776760D01*
X76140105Y39776760D01*
X76228647Y39396756D01*
X76455869Y39079562D01*
X76767144Y38881265D01*
X76927777Y38896061D01*
X77081658Y39768764D01*
X76621628Y39849880D01*
X77197504Y39849880D01*
X78070295Y39695983D01*
X78139057Y39841884D01*
X78050515Y40221888D01*
X77823293Y40539082D01*
X77512018Y40737379D01*
X77351385Y40722583D01*
X77197504Y39849880D01*
X76621628Y39849880D01*
X76208867Y39922661D01*
X76140105Y39776760D01*
X75468163Y39776760D01*
X75580318Y40065161D01*
X75586850Y40102205D01*
X75585115Y40181761D01*
X76211518Y40181761D01*
X76226232Y40021141D01*
X77099023Y39867245D01*
X77252904Y40739948D01*
X77107019Y40808791D01*
X76746695Y40728916D01*
X76424688Y40508565D01*
X76211518Y40181761D01*
X75585115Y40181761D01*
X75578679Y40476689D01*
X75427824Y40819541D01*
X75157245Y41078564D01*
X74928169Y41167648D01*
X74928169Y41380108D01*
X77467324Y41380108D01*
X77613209Y41311265D01*
X77973533Y41391140D01*
X78295540Y41611491D01*
X78508710Y41938295D01*
X78493996Y42098915D01*
X77621205Y42252811D01*
X77467324Y41380108D01*
X74928169Y41380108D01*
X74928169Y41788275D01*
X75283748Y41796033D01*
X75626601Y41946889D01*
X75885624Y42217467D01*
X75909231Y42278172D01*
X76581171Y42278172D01*
X76669713Y41898168D01*
X76896935Y41580974D01*
X77208210Y41382677D01*
X77368843Y41397473D01*
X77522724Y42270176D01*
X77062694Y42351292D01*
X77638570Y42351292D01*
X78511361Y42197395D01*
X78580123Y42343296D01*
X78491581Y42723300D01*
X78264359Y43040494D01*
X77953084Y43238791D01*
X77792451Y43223995D01*
X77638570Y42351292D01*
X77062694Y42351292D01*
X76649933Y42424073D01*
X76581171Y42278172D01*
X75909231Y42278172D01*
X76021385Y42566572D01*
X76027917Y42603616D01*
X76026182Y42683173D01*
X76652584Y42683173D01*
X76667298Y42522553D01*
X77540089Y42368657D01*
X77693970Y43241360D01*
X77548085Y43310203D01*
X77187761Y43230328D01*
X76865754Y43009977D01*
X76652584Y42683173D01*
X76026182Y42683173D01*
X76019746Y42978100D01*
X75868891Y43320952D01*
X75598312Y43579975D01*
X75249208Y43715736D01*
X74874723Y43707566D01*
X74531871Y43556710D01*
X74272848Y43286132D01*
X74137087Y42937027D01*
X74130555Y42899984D01*
X74138725Y42525500D01*
X74289581Y42182647D01*
X74348169Y42126561D01*
X74348169Y41168540D01*
X74090804Y41055299D01*
X73831781Y40784721D01*
X73696020Y40435616D01*
X73689488Y40398573D01*
X73697658Y40024089D01*
X73848514Y39681236D01*
X74119092Y39422213D01*
X74348169Y39333129D01*
X74348169Y38890165D01*
X72981803Y40256531D01*
X73078906Y40506227D01*
X73085438Y40543271D01*
X73077267Y40917755D01*
X72926412Y41260607D01*
X72655833Y41519630D01*
X72426757Y41608714D01*
X72426757Y42229342D01*
X72782336Y42237100D01*
X73125189Y42387956D01*
X73384212Y42658534D01*
X73519973Y43007639D01*
X73526505Y43044683D01*
X73518334Y43419167D01*
X73367479Y43762019D01*
X73096900Y44021042D01*
X72747796Y44156803D01*
X72373311Y44148633D01*
X72030459Y43997777D01*
X71771436Y43727199D01*
X71635675Y43378094D01*
X71629143Y43341051D01*
X71637313Y42966567D01*
X71788169Y42623714D01*
X71846757Y42567628D01*
X71846757Y41609606D01*
X71589392Y41496365D01*
X71330369Y41225787D01*
X71194608Y40876682D01*
X71188076Y40839639D01*
X71196246Y40465155D01*
X71347102Y40122302D01*
X71617680Y39863279D01*
X71966785Y39727518D01*
X72341269Y39735688D01*
X72578167Y39839923D01*
X73990044Y38428046D01*
X73990044Y37187946D01*
X70480392Y40697598D01*
X70577495Y40947294D01*
X70584027Y40984338D01*
X70575856Y41358822D01*
X70425001Y41701674D01*
X70154422Y41960697D01*
X69925346Y42049781D01*
X69925346Y42670408D01*
X70280924Y42678166D01*
X70623777Y42829022D01*
X70882800Y43099600D01*
X71018561Y43448705D01*
X71025093Y43485749D01*
X71016922Y43860233D01*
X70866067Y44203085D01*
X70595488Y44462108D01*
X70246384Y44597869D01*
X69871899Y44589699D01*
X69529047Y44438843D01*
X69270024Y44168265D01*
X69134263Y43819160D01*
X69127731Y43782117D01*
X69135901Y43407633D01*
X69286757Y43064780D01*
X69345346Y43008693D01*
X69345346Y42050673D01*
X69087981Y41937432D01*
X68828958Y41666854D01*
X68693197Y41317749D01*
X68686665Y41280706D01*
X68694835Y40906222D01*
X68845691Y40563369D01*
X69116269Y40304346D01*
X69465374Y40168585D01*
X69839858Y40176755D01*
X70076756Y40280990D01*
X73670033Y36687713D01*
X73670033Y35447611D01*
X67978980Y41138664D01*
X68076083Y41388360D01*
X68082615Y41425404D01*
X68074444Y41799888D01*
X67923589Y42142740D01*
X67653010Y42401763D01*
X67423934Y42490847D01*
X67423934Y43111475D01*
X67779512Y43119233D01*
X68122365Y43270089D01*
X68381388Y43540667D01*
X68517149Y43889772D01*
X68523681Y43926816D01*
X68515510Y44301300D01*
X68364655Y44644152D01*
X68094076Y44903175D01*
X67744972Y45038936D01*
X67370487Y45030766D01*
X67027635Y44879910D01*
X66768612Y44609332D01*
X66632851Y44260227D01*
X66626319Y44223184D01*
X66634489Y43848700D01*
X66785345Y43505847D01*
X66843934Y43449760D01*
X66843934Y42491739D01*
X66586569Y42378498D01*
X66327546Y42107920D01*
X66191785Y41758815D01*
X66185253Y41721772D01*
X66193423Y41347288D01*
X66344279Y41004435D01*
X66614857Y40745412D01*
X66963962Y40609651D01*
X67338446Y40617821D01*
X67575344Y40722056D01*
X73350022Y34947378D01*
X73350022Y33707276D01*
X65477568Y41579730D01*
X65574671Y41829426D01*
X65581203Y41866470D01*
X65573032Y42240954D01*
X65422177Y42583806D01*
X65151598Y42842829D01*
X64922522Y42931913D01*
X64922522Y43552541D01*
X65278101Y43560299D01*
X65620954Y43711155D01*
X65879977Y43981733D01*
X66015738Y44330838D01*
X66022270Y44367882D01*
X66014099Y44742366D01*
X65863244Y45085218D01*
X65592665Y45344241D01*
X65243561Y45480002D01*
X64869076Y45471832D01*
X64526224Y45320976D01*
X64267201Y45050398D01*
X64131440Y44701293D01*
X64124908Y44664250D01*
X64133078Y44289766D01*
X64283934Y43946913D01*
X64342522Y43890827D01*
X64342522Y42932805D01*
X64085157Y42819564D01*
X63826134Y42548986D01*
X63690373Y42199881D01*
X63683841Y42162838D01*
X63692011Y41788354D01*
X63842867Y41445501D01*
X64113445Y41186478D01*
X64462550Y41050717D01*
X64837034Y41058887D01*
X65073932Y41163122D01*
X73030011Y33207043D01*
X73030011Y31966943D01*
X62976157Y42020797D01*
X63073260Y42270493D01*
X63079792Y42307537D01*
X63071621Y42682021D01*
X62920766Y43024873D01*
X62650187Y43283896D01*
X62421111Y43372980D01*
X62421111Y43993607D01*
X62776689Y44001365D01*
X63119542Y44152221D01*
X63378565Y44422799D01*
X63514326Y44771904D01*
X63520858Y44808948D01*
X63512687Y45183432D01*
X63361832Y45526284D01*
X63091253Y45785307D01*
X62742149Y45921068D01*
X62367664Y45912898D01*
X62024812Y45762042D01*
X61765789Y45491464D01*
X61630028Y45142359D01*
X61623496Y45105316D01*
X61631666Y44730832D01*
X61782522Y44387979D01*
X61841111Y44331892D01*
X61841111Y43373872D01*
X61583746Y43260631D01*
X61324723Y42990053D01*
X61188962Y42640948D01*
X61182430Y42603905D01*
X61190600Y42229421D01*
X61341456Y41886568D01*
X61612034Y41627545D01*
X61961139Y41491784D01*
X62335623Y41499954D01*
X62572521Y41604189D01*
X72710000Y31466710D01*
X72710000Y30230122D01*
X70580061Y32360061D01*
X70569471Y32367137D01*
X60523415Y42413193D01*
X60709402Y43467977D01*
X60708495Y43547158D01*
X60675613Y43625533D01*
X60614829Y43684940D01*
X60535721Y43716018D01*
X59919699Y43824639D01*
X59919699Y44434674D01*
X60275277Y44442432D01*
X60618130Y44593288D01*
X60877153Y44863866D01*
X61012914Y45212971D01*
X61019446Y45250015D01*
X61011275Y45624499D01*
X60860420Y45967351D01*
X60589841Y46226374D01*
X60240737Y46362135D01*
X59866252Y46353965D01*
X59523400Y46203109D01*
X59264377Y45932531D01*
X59128616Y45583426D01*
X59122084Y45546383D01*
X59130254Y45171899D01*
X59281110Y44829046D01*
X59339699Y44772959D01*
X59339699Y43926909D01*
X59058509Y43976490D01*
X58979328Y43975583D01*
X58900953Y43942701D01*
X58841546Y43881917D01*
X58810468Y43802809D01*
X58549996Y42325597D01*
X58550903Y42246416D01*
X58583785Y42168041D01*
X58644569Y42108634D01*
X58723677Y42077556D01*
X60200889Y41817084D01*
X60280070Y41817991D01*
X60292964Y41823400D01*
X69676364Y32440000D01*
X66506126Y32440000D01*
X66366448Y32579921D01*
X66362661Y32658452D01*
X66325861Y32735066D01*
X66262154Y32791326D01*
X65976266Y32956383D01*
X66002073Y32957628D01*
X66078687Y32994428D01*
X66134947Y33058135D01*
X66434947Y33577751D01*
X66461177Y33652468D01*
X66457083Y33737362D01*
X66420283Y33813976D01*
X66356576Y33870236D01*
X65923564Y34120236D01*
X65848847Y34146466D01*
X65763953Y34142372D01*
X65687339Y34105572D01*
X65631079Y34041865D01*
X65514532Y33840000D01*
X65431656Y33840000D01*
X65568921Y34077751D01*
X65595151Y34152468D01*
X65591057Y34237362D01*
X65554257Y34313976D01*
X65490550Y34370236D01*
X65057538Y34620236D01*
X64982821Y34646466D01*
X64897927Y34642372D01*
X64855241Y34621868D01*
X61697048Y37780061D01*
X61602965Y37842925D01*
X61491987Y37865000D01*
X51756126Y37865000D01*
X51614269Y38007104D01*
X51426890Y38084911D01*
X51267617Y38085050D01*
X51324295Y38121521D01*
X51372245Y38191698D01*
X51389114Y38275000D01*
X51389114Y38875000D01*
X51374471Y38952821D01*
X51328479Y39024295D01*
X51288679Y39051489D01*
X51316614Y39063060D01*
X51386940Y39133386D01*
X51425000Y39225272D01*
X51425000Y39462500D01*
X51362500Y39525000D01*
X50975000Y39525000D01*
X50975000Y39505000D01*
X50875000Y39505000D01*
X50875000Y39525000D01*
X50487500Y39525000D01*
X50425000Y39462500D01*
X50425000Y39225272D01*
X50463060Y39133386D01*
X50533386Y39063060D01*
X50561408Y39051453D01*
X50525705Y39028479D01*
X50477755Y38958302D01*
X50460886Y38875000D01*
X50460886Y38275000D01*
X50475529Y38197179D01*
X50521521Y38125705D01*
X50591698Y38077755D01*
X50597642Y38076551D01*
X50530705Y38033479D01*
X50482755Y37963302D01*
X50465886Y37880000D01*
X50465886Y37280000D01*
X50480529Y37202179D01*
X50526521Y37130705D01*
X50596698Y37082755D01*
X50680000Y37065886D01*
X51180000Y37065886D01*
X51208346Y37071220D01*
X51223110Y37065089D01*
X51424965Y37064913D01*
X60330000Y28159878D01*
X60330000Y19474114D01*
X60320000Y19474114D01*
X60242179Y19459471D01*
X60170705Y19413479D01*
X60122755Y19343302D01*
X60120000Y19329697D01*
X60120000Y27220000D01*
X60097925Y27330978D01*
X60035061Y27425061D01*
X50331043Y37129079D01*
X50377245Y37196698D01*
X50394114Y37280000D01*
X50394114Y37880000D01*
X50379471Y37957821D01*
X50333479Y38029295D01*
X50263302Y38077245D01*
X50257358Y38078449D01*
X50324295Y38121521D01*
X50372245Y38191698D01*
X50389114Y38275000D01*
X50389114Y38875000D01*
X50374471Y38952821D01*
X50328479Y39024295D01*
X50258302Y39072245D01*
X50247256Y39074482D01*
X50252821Y39075529D01*
X50324295Y39121521D01*
X50372245Y39191698D01*
X50389114Y39275000D01*
X50389114Y39678992D01*
X50425000Y39714878D01*
X50425000Y39687500D01*
X50487500Y39625000D01*
X50875000Y39625000D01*
X50875000Y39645000D01*
X50975000Y39645000D01*
X50975000Y39625000D01*
X51362500Y39625000D01*
X51425000Y39687500D01*
X51425000Y39924728D01*
X51387631Y40014945D01*
X51426002Y40014912D01*
X51613516Y40092391D01*
X51757106Y40235731D01*
X51834913Y40423110D01*
X51835090Y40626000D01*
X51757611Y40813514D01*
X51614271Y40957104D01*
X51426892Y41034911D01*
X51224002Y41035088D01*
X51214424Y41031130D01*
X51175000Y41039114D01*
X50724999Y41039114D01*
X50724999Y45645001D01*
X50702924Y45755979D01*
X50640060Y45850062D01*
X48144369Y48345753D01*
X48195732Y48422624D01*
X48268808Y48790000D01*
X48195732Y49157376D01*
X47987631Y49468823D01*
X47676184Y49676924D01*
X47308808Y49750000D01*
X47271192Y49750000D01*
X46903816Y49676924D01*
X46592369Y49468823D01*
X46384268Y49157376D01*
X46368877Y49080000D01*
X45671123Y49080000D01*
X45655732Y49157376D01*
X45447631Y49468823D01*
X45136184Y49676924D01*
X44768808Y49750000D01*
X44731192Y49750000D01*
X44363816Y49676924D01*
X44052369Y49468823D01*
X43844268Y49157376D01*
X43771192Y48790000D01*
X-3168473Y48790000D01*
X-4847738Y50371499D01*
X-2285407Y59888727D01*
X7917581Y64494930D01*
X7948532Y64517045D01*
X7980619Y64537495D01*
X13765933Y70077669D01*
X19399029Y67248928D01*
X19430565Y67240233D01*
X19461060Y67228395D01*
X19472567Y67228653D01*
X19483662Y67225594D01*
X19516121Y67229629D01*
X19548829Y67230362D01*
X19559363Y67235004D01*
X19570782Y67236424D01*
X19599227Y67252574D01*
X19629163Y67265767D01*
X19637117Y67274085D01*
X19647126Y67279768D01*
X19667228Y67305577D01*
X19689834Y67329219D01*
X19693999Y67339948D01*
X19701072Y67349029D01*
X19709767Y67380565D01*
X19721605Y67411060D01*
X21070479Y75087378D01*
X42952326Y79864750D01*
X49610905Y76993391D01*
X49641391Y76986868D01*
X49670925Y76976886D01*
X49683969Y76977758D01*
X49696753Y76975023D01*
X49727419Y76980664D01*
X49758520Y76982744D01*
X64424171Y80933088D01*
X68595168Y71756894D01*
G36*
X64527117Y34129748D02*
X64465053Y34022249D01*
X64438823Y33947532D01*
X64442917Y33862638D01*
X64456858Y33833615D01*
X63996460Y34099426D01*
X63921743Y34125656D01*
X63836849Y34121562D01*
X63760235Y34084762D01*
X63703975Y34021055D01*
X63259475Y33251159D01*
X63233245Y33176442D01*
X63237339Y33091548D01*
X63274139Y33014934D01*
X63337846Y32958674D01*
X64195730Y32463374D01*
X64270447Y32437144D01*
X64355341Y32441238D01*
X64431955Y32478038D01*
X64488215Y32541745D01*
X64747824Y32991400D01*
X64986584Y32991400D01*
X64667285Y32438359D01*
X64641055Y32363642D01*
X64645149Y32278748D01*
X64681949Y32202134D01*
X64745656Y32145874D01*
X65603540Y31650574D01*
X65678257Y31624344D01*
X65763151Y31628438D01*
X65839765Y31665238D01*
X65859293Y31687350D01*
X65973110Y31640089D01*
X66176000Y31639912D01*
X66363514Y31717391D01*
X66506372Y31860000D01*
X70259878Y31860000D01*
X72220000Y29899878D01*
X72220000Y18320122D01*
X64540000Y10640122D01*
X64540000Y16300000D01*
X64517925Y16410978D01*
X64455061Y16505061D01*
X62745061Y18215061D01*
X62650978Y18277925D01*
X62540000Y18300000D01*
X61126587Y18300000D01*
X61119471Y18337821D01*
X61073479Y18409295D01*
X61003302Y18457245D01*
X60920000Y18474114D01*
X60320000Y18474114D01*
X60242179Y18459471D01*
X60170705Y18413479D01*
X60122755Y18343302D01*
X60120000Y18329697D01*
X60120000Y18684990D01*
X60120529Y18682179D01*
X60166521Y18610705D01*
X60236698Y18562755D01*
X60320000Y18545886D01*
X60920000Y18545886D01*
X60997821Y18560529D01*
X61069295Y18606521D01*
X61117245Y18676698D01*
X61134114Y18760000D01*
X61134114Y19260000D01*
X61119471Y19337821D01*
X61073479Y19409295D01*
X61003302Y19457245D01*
X60920000Y19474114D01*
X60910000Y19474114D01*
X60910000Y28280000D01*
X60887925Y28390978D01*
X60887925Y28390979D01*
X60825061Y28485061D01*
X52025122Y37285000D01*
X61371865Y37285000D01*
X64527117Y34129748D01*
X64527117Y34129748D01*
G37*
X64527117Y34129748D02*
X64465053Y34022249D01*
X64438823Y33947532D01*
X64442917Y33862638D01*
X64456858Y33833615D01*
X63996460Y34099426D01*
X63921743Y34125656D01*
X63836849Y34121562D01*
X63760235Y34084762D01*
X63703975Y34021055D01*
X63259475Y33251159D01*
X63233245Y33176442D01*
X63237339Y33091548D01*
X63274139Y33014934D01*
X63337846Y32958674D01*
X64195730Y32463374D01*
X64270447Y32437144D01*
X64355341Y32441238D01*
X64431955Y32478038D01*
X64488215Y32541745D01*
X64747824Y32991400D01*
X64986584Y32991400D01*
X64667285Y32438359D01*
X64641055Y32363642D01*
X64645149Y32278748D01*
X64681949Y32202134D01*
X64745656Y32145874D01*
X65603540Y31650574D01*
X65678257Y31624344D01*
X65763151Y31628438D01*
X65839765Y31665238D01*
X65859293Y31687350D01*
X65973110Y31640089D01*
X66176000Y31639912D01*
X66363514Y31717391D01*
X66506372Y31860000D01*
X70259878Y31860000D01*
X72220000Y29899878D01*
X72220000Y18320122D01*
X64540000Y10640122D01*
X64540000Y16300000D01*
X64517925Y16410978D01*
X64455061Y16505061D01*
X62745061Y18215061D01*
X62650978Y18277925D01*
X62540000Y18300000D01*
X61126587Y18300000D01*
X61119471Y18337821D01*
X61073479Y18409295D01*
X61003302Y18457245D01*
X60920000Y18474114D01*
X60320000Y18474114D01*
X60242179Y18459471D01*
X60170705Y18413479D01*
X60122755Y18343302D01*
X60120000Y18329697D01*
X60120000Y18684990D01*
X60120529Y18682179D01*
X60166521Y18610705D01*
X60236698Y18562755D01*
X60320000Y18545886D01*
X60920000Y18545886D01*
X60997821Y18560529D01*
X61069295Y18606521D01*
X61117245Y18676698D01*
X61134114Y18760000D01*
X61134114Y19260000D01*
X61119471Y19337821D01*
X61073479Y19409295D01*
X61003302Y19457245D01*
X60920000Y19474114D01*
X60910000Y19474114D01*
X60910000Y28280000D01*
X60887925Y28390978D01*
X60887925Y28390979D01*
X60825061Y28485061D01*
X52025122Y37285000D01*
X61371865Y37285000D01*
X64527117Y34129748D01*
M02*
