G04 #@! TF.GenerationSoftware,KiCad,Pcbnew,5.1.10*
G04 #@! TF.CreationDate,2021-08-13T17:50:11+08:00*
G04 #@! TF.ProjectId,kudo-printer,6b75646f-2d70-4726-996e-7465722e6b69,rev?*
G04 #@! TF.SameCoordinates,PX2160ec0PY2255100*
G04 #@! TF.FileFunction,Soldermask,Bot*
G04 #@! TF.FilePolarity,Negative*
%FSLAX46Y46*%
G04 Gerber Fmt 4.6, Leading zero omitted, Abs format (unit mm)*
G04 Created by KiCad (PCBNEW 5.1.10) date 2021-08-13 17:50:11*
%MOMM*%
%LPD*%
G01*
G04 APERTURE LIST*
%ADD10O,1.800000X1.800000*%
%ADD11O,1.600000X1.600000*%
G04 APERTURE END LIST*
D10*
X1625000Y-26220000D03*
X1625000Y-23680000D03*
X1625000Y-21140000D03*
X1625000Y-18600000D03*
X1625000Y-16060000D03*
X1625000Y-13520000D03*
X1625000Y-10980000D03*
X1625000Y-8440000D03*
G36*
G01*
X725000Y-6750000D02*
X725000Y-5050000D01*
G75*
G02*
X775000Y-5000000I50000J0D01*
G01*
X2475000Y-5000000D01*
G75*
G02*
X2525000Y-5050000I0J-50000D01*
G01*
X2525000Y-6750000D01*
G75*
G02*
X2475000Y-6800000I-50000J0D01*
G01*
X775000Y-6800000D01*
G75*
G02*
X725000Y-6750000I0J50000D01*
G01*
G37*
X8985000Y-1575000D03*
X11525000Y-1575000D03*
X14065000Y-1575000D03*
X16605000Y-1575000D03*
G36*
G01*
X18295000Y-675000D02*
X19995000Y-675000D01*
G75*
G02*
X20045000Y-725000I0J-50000D01*
G01*
X20045000Y-2425000D01*
G75*
G02*
X19995000Y-2475000I-50000J0D01*
G01*
X18295000Y-2475000D01*
G75*
G02*
X18245000Y-2425000I0J50000D01*
G01*
X18245000Y-725000D01*
G75*
G02*
X18295000Y-675000I50000J0D01*
G01*
G37*
X19140000Y-28000000D03*
X16600000Y-28000000D03*
X14060000Y-28000000D03*
X11520000Y-28000000D03*
G36*
G01*
X9830000Y-28900000D02*
X8130000Y-28900000D01*
G75*
G02*
X8080000Y-28850000I0J50000D01*
G01*
X8080000Y-27150000D01*
G75*
G02*
X8130000Y-27100000I50000J0D01*
G01*
X9830000Y-27100000D01*
G75*
G02*
X9880000Y-27150000I0J-50000D01*
G01*
X9880000Y-28850000D01*
G75*
G02*
X9830000Y-28900000I-50000J0D01*
G01*
G37*
X27025000Y-5905000D03*
X27025000Y-8445000D03*
X27025000Y-10985000D03*
X27025000Y-13525000D03*
X27025000Y-16065000D03*
X27025000Y-18605000D03*
X27025000Y-21145000D03*
X27025000Y-23685000D03*
G36*
G01*
X27925000Y-25375000D02*
X27925000Y-27075000D01*
G75*
G02*
X27875000Y-27125000I-50000J0D01*
G01*
X26175000Y-27125000D01*
G75*
G02*
X26125000Y-27075000I0J50000D01*
G01*
X26125000Y-25375000D01*
G75*
G02*
X26175000Y-25325000I50000J0D01*
G01*
X27875000Y-25325000D01*
G75*
G02*
X27925000Y-25375000I0J-50000D01*
G01*
G37*
D11*
X34510000Y-5900000D03*
G36*
G01*
X36300000Y-5100000D02*
X37800000Y-5100000D01*
G75*
G02*
X37850000Y-5150000I0J-50000D01*
G01*
X37850000Y-6650000D01*
G75*
G02*
X37800000Y-6700000I-50000J0D01*
G01*
X36300000Y-6700000D01*
G75*
G02*
X36250000Y-6650000I0J50000D01*
G01*
X36250000Y-5150000D01*
G75*
G02*
X36300000Y-5100000I50000J0D01*
G01*
G37*
X37065000Y-14315000D03*
X34525000Y-14315000D03*
X37065000Y-16855000D03*
X34525000Y-16855000D03*
X37065000Y-19395000D03*
X34525000Y-19395000D03*
X37065000Y-21935000D03*
X34525000Y-21935000D03*
X37065000Y-24475000D03*
G36*
G01*
X33725000Y-25225000D02*
X33725000Y-23725000D01*
G75*
G02*
X33775000Y-23675000I50000J0D01*
G01*
X35275000Y-23675000D01*
G75*
G02*
X35325000Y-23725000I0J-50000D01*
G01*
X35325000Y-25225000D01*
G75*
G02*
X35275000Y-25275000I-50000J0D01*
G01*
X33775000Y-25275000D01*
G75*
G02*
X33725000Y-25225000I0J50000D01*
G01*
G37*
M02*
