G04 #@! TF.GenerationSoftware,KiCad,Pcbnew,5.1.10*
G04 #@! TF.CreationDate,2021-08-13T17:50:11+08:00*
G04 #@! TF.ProjectId,kudo-printer,6b75646f-2d70-4726-996e-7465722e6b69,rev?*
G04 #@! TF.SameCoordinates,PX2160ec0PY2255100*
G04 #@! TF.FileFunction,Soldermask,Top*
G04 #@! TF.FilePolarity,Negative*
%FSLAX46Y46*%
G04 Gerber Fmt 4.6, Leading zero omitted, Abs format (unit mm)*
G04 Created by KiCad (PCBNEW 5.1.10) date 2021-08-13 17:50:11*
%MOMM*%
%LPD*%
G01*
G04 APERTURE LIST*
%ADD10C,1.000000*%
%ADD11O,1.800000X1.800000*%
%ADD12O,1.600000X1.600000*%
G04 APERTURE END LIST*
D10*
X39000000Y-1000000D03*
X1000000Y-28500000D03*
G36*
G01*
X11837500Y-5700000D02*
X11237500Y-5700000D01*
G75*
G02*
X11187500Y-5650000I0J50000D01*
G01*
X11187500Y-5150000D01*
G75*
G02*
X11237500Y-5100000I50000J0D01*
G01*
X11837500Y-5100000D01*
G75*
G02*
X11887500Y-5150000I0J-50000D01*
G01*
X11887500Y-5650000D01*
G75*
G02*
X11837500Y-5700000I-50000J0D01*
G01*
G37*
G36*
G01*
X11837500Y-6700000D02*
X11237500Y-6700000D01*
G75*
G02*
X11187500Y-6650000I0J50000D01*
G01*
X11187500Y-6150000D01*
G75*
G02*
X11237500Y-6100000I50000J0D01*
G01*
X11837500Y-6100000D01*
G75*
G02*
X11887500Y-6150000I0J-50000D01*
G01*
X11887500Y-6650000D01*
G75*
G02*
X11837500Y-6700000I-50000J0D01*
G01*
G37*
G36*
G01*
X22900000Y-24000000D02*
X22900000Y-23400000D01*
G75*
G02*
X22950000Y-23350000I50000J0D01*
G01*
X23450000Y-23350000D01*
G75*
G02*
X23500000Y-23400000I0J-50000D01*
G01*
X23500000Y-24000000D01*
G75*
G02*
X23450000Y-24050000I-50000J0D01*
G01*
X22950000Y-24050000D01*
G75*
G02*
X22900000Y-24000000I0J50000D01*
G01*
G37*
G36*
G01*
X21900000Y-24000000D02*
X21900000Y-23400000D01*
G75*
G02*
X21950000Y-23350000I50000J0D01*
G01*
X22450000Y-23350000D01*
G75*
G02*
X22500000Y-23400000I0J-50000D01*
G01*
X22500000Y-24000000D01*
G75*
G02*
X22450000Y-24050000I-50000J0D01*
G01*
X21950000Y-24050000D01*
G75*
G02*
X21900000Y-24000000I0J50000D01*
G01*
G37*
D11*
X1625000Y-26220000D03*
X1625000Y-23680000D03*
X1625000Y-21140000D03*
X1625000Y-18600000D03*
X1625000Y-16060000D03*
X1625000Y-13520000D03*
X1625000Y-10980000D03*
X1625000Y-8440000D03*
G36*
G01*
X725000Y-6750000D02*
X725000Y-5050000D01*
G75*
G02*
X775000Y-5000000I50000J0D01*
G01*
X2475000Y-5000000D01*
G75*
G02*
X2525000Y-5050000I0J-50000D01*
G01*
X2525000Y-6750000D01*
G75*
G02*
X2475000Y-6800000I-50000J0D01*
G01*
X775000Y-6800000D01*
G75*
G02*
X725000Y-6750000I0J50000D01*
G01*
G37*
G36*
G01*
X22900000Y-13839284D02*
X22900000Y-13239284D01*
G75*
G02*
X22950000Y-13189284I50000J0D01*
G01*
X23450000Y-13189284D01*
G75*
G02*
X23500000Y-13239284I0J-50000D01*
G01*
X23500000Y-13839284D01*
G75*
G02*
X23450000Y-13889284I-50000J0D01*
G01*
X22950000Y-13889284D01*
G75*
G02*
X22900000Y-13839284I0J50000D01*
G01*
G37*
G36*
G01*
X21900000Y-13839284D02*
X21900000Y-13239284D01*
G75*
G02*
X21950000Y-13189284I50000J0D01*
G01*
X22450000Y-13189284D01*
G75*
G02*
X22500000Y-13239284I0J-50000D01*
G01*
X22500000Y-13839284D01*
G75*
G02*
X22450000Y-13889284I-50000J0D01*
G01*
X21950000Y-13889284D01*
G75*
G02*
X21900000Y-13839284I0J50000D01*
G01*
G37*
G36*
G01*
X22900000Y-16385712D02*
X22900000Y-15785712D01*
G75*
G02*
X22950000Y-15735712I50000J0D01*
G01*
X23450000Y-15735712D01*
G75*
G02*
X23500000Y-15785712I0J-50000D01*
G01*
X23500000Y-16385712D01*
G75*
G02*
X23450000Y-16435712I-50000J0D01*
G01*
X22950000Y-16435712D01*
G75*
G02*
X22900000Y-16385712I0J50000D01*
G01*
G37*
G36*
G01*
X21900000Y-16385712D02*
X21900000Y-15785712D01*
G75*
G02*
X21950000Y-15735712I50000J0D01*
G01*
X22450000Y-15735712D01*
G75*
G02*
X22500000Y-15785712I0J-50000D01*
G01*
X22500000Y-16385712D01*
G75*
G02*
X22450000Y-16435712I-50000J0D01*
G01*
X21950000Y-16435712D01*
G75*
G02*
X21900000Y-16385712I0J50000D01*
G01*
G37*
G36*
G01*
X22900000Y-18932140D02*
X22900000Y-18332140D01*
G75*
G02*
X22950000Y-18282140I50000J0D01*
G01*
X23450000Y-18282140D01*
G75*
G02*
X23500000Y-18332140I0J-50000D01*
G01*
X23500000Y-18932140D01*
G75*
G02*
X23450000Y-18982140I-50000J0D01*
G01*
X22950000Y-18982140D01*
G75*
G02*
X22900000Y-18932140I0J50000D01*
G01*
G37*
G36*
G01*
X21900000Y-18932140D02*
X21900000Y-18332140D01*
G75*
G02*
X21950000Y-18282140I50000J0D01*
G01*
X22450000Y-18282140D01*
G75*
G02*
X22500000Y-18332140I0J-50000D01*
G01*
X22500000Y-18932140D01*
G75*
G02*
X22450000Y-18982140I-50000J0D01*
G01*
X21950000Y-18982140D01*
G75*
G02*
X21900000Y-18932140I0J50000D01*
G01*
G37*
G36*
G01*
X22900000Y-21478568D02*
X22900000Y-20878568D01*
G75*
G02*
X22950000Y-20828568I50000J0D01*
G01*
X23450000Y-20828568D01*
G75*
G02*
X23500000Y-20878568I0J-50000D01*
G01*
X23500000Y-21478568D01*
G75*
G02*
X23450000Y-21528568I-50000J0D01*
G01*
X22950000Y-21528568D01*
G75*
G02*
X22900000Y-21478568I0J50000D01*
G01*
G37*
G36*
G01*
X21900000Y-21478568D02*
X21900000Y-20878568D01*
G75*
G02*
X21950000Y-20828568I50000J0D01*
G01*
X22450000Y-20828568D01*
G75*
G02*
X22500000Y-20878568I0J-50000D01*
G01*
X22500000Y-21478568D01*
G75*
G02*
X22450000Y-21528568I-50000J0D01*
G01*
X21950000Y-21528568D01*
G75*
G02*
X21900000Y-21478568I0J50000D01*
G01*
G37*
G36*
G01*
X13762500Y-23875000D02*
X14362500Y-23875000D01*
G75*
G02*
X14412500Y-23925000I0J-50000D01*
G01*
X14412500Y-24425000D01*
G75*
G02*
X14362500Y-24475000I-50000J0D01*
G01*
X13762500Y-24475000D01*
G75*
G02*
X13712500Y-24425000I0J50000D01*
G01*
X13712500Y-23925000D01*
G75*
G02*
X13762500Y-23875000I50000J0D01*
G01*
G37*
G36*
G01*
X13762500Y-22875000D02*
X14362500Y-22875000D01*
G75*
G02*
X14412500Y-22925000I0J-50000D01*
G01*
X14412500Y-23425000D01*
G75*
G02*
X14362500Y-23475000I-50000J0D01*
G01*
X13762500Y-23475000D01*
G75*
G02*
X13712500Y-23425000I0J50000D01*
G01*
X13712500Y-22925000D01*
G75*
G02*
X13762500Y-22875000I50000J0D01*
G01*
G37*
G36*
G01*
X9300000Y-5700000D02*
X8700000Y-5700000D01*
G75*
G02*
X8650000Y-5650000I0J50000D01*
G01*
X8650000Y-5150000D01*
G75*
G02*
X8700000Y-5100000I50000J0D01*
G01*
X9300000Y-5100000D01*
G75*
G02*
X9350000Y-5150000I0J-50000D01*
G01*
X9350000Y-5650000D01*
G75*
G02*
X9300000Y-5700000I-50000J0D01*
G01*
G37*
G36*
G01*
X9300000Y-6700000D02*
X8700000Y-6700000D01*
G75*
G02*
X8650000Y-6650000I0J50000D01*
G01*
X8650000Y-6150000D01*
G75*
G02*
X8700000Y-6100000I50000J0D01*
G01*
X9300000Y-6100000D01*
G75*
G02*
X9350000Y-6150000I0J-50000D01*
G01*
X9350000Y-6650000D01*
G75*
G02*
X9300000Y-6700000I-50000J0D01*
G01*
G37*
G36*
G01*
X5750000Y-15771428D02*
X5750000Y-16371428D01*
G75*
G02*
X5700000Y-16421428I-50000J0D01*
G01*
X5200000Y-16421428D01*
G75*
G02*
X5150000Y-16371428I0J50000D01*
G01*
X5150000Y-15771428D01*
G75*
G02*
X5200000Y-15721428I50000J0D01*
G01*
X5700000Y-15721428D01*
G75*
G02*
X5750000Y-15771428I0J-50000D01*
G01*
G37*
G36*
G01*
X6750000Y-15771428D02*
X6750000Y-16371428D01*
G75*
G02*
X6700000Y-16421428I-50000J0D01*
G01*
X6200000Y-16421428D01*
G75*
G02*
X6150000Y-16371428I0J50000D01*
G01*
X6150000Y-15771428D01*
G75*
G02*
X6200000Y-15721428I50000J0D01*
G01*
X6700000Y-15721428D01*
G75*
G02*
X6750000Y-15771428I0J-50000D01*
G01*
G37*
X8985000Y-1575000D03*
X11525000Y-1575000D03*
X14065000Y-1575000D03*
X16605000Y-1575000D03*
G36*
G01*
X18295000Y-675000D02*
X19995000Y-675000D01*
G75*
G02*
X20045000Y-725000I0J-50000D01*
G01*
X20045000Y-2425000D01*
G75*
G02*
X19995000Y-2475000I-50000J0D01*
G01*
X18295000Y-2475000D01*
G75*
G02*
X18245000Y-2425000I0J50000D01*
G01*
X18245000Y-725000D01*
G75*
G02*
X18295000Y-675000I50000J0D01*
G01*
G37*
X19140000Y-28000000D03*
X16600000Y-28000000D03*
X14060000Y-28000000D03*
X11520000Y-28000000D03*
G36*
G01*
X9830000Y-28900000D02*
X8130000Y-28900000D01*
G75*
G02*
X8080000Y-28850000I0J50000D01*
G01*
X8080000Y-27150000D01*
G75*
G02*
X8130000Y-27100000I50000J0D01*
G01*
X9830000Y-27100000D01*
G75*
G02*
X9880000Y-27150000I0J-50000D01*
G01*
X9880000Y-28850000D01*
G75*
G02*
X9830000Y-28900000I-50000J0D01*
G01*
G37*
G36*
G01*
X5750000Y-13228571D02*
X5750000Y-13828571D01*
G75*
G02*
X5700000Y-13878571I-50000J0D01*
G01*
X5200000Y-13878571D01*
G75*
G02*
X5150000Y-13828571I0J50000D01*
G01*
X5150000Y-13228571D01*
G75*
G02*
X5200000Y-13178571I50000J0D01*
G01*
X5700000Y-13178571D01*
G75*
G02*
X5750000Y-13228571I0J-50000D01*
G01*
G37*
G36*
G01*
X6750000Y-13228571D02*
X6750000Y-13828571D01*
G75*
G02*
X6700000Y-13878571I-50000J0D01*
G01*
X6200000Y-13878571D01*
G75*
G02*
X6150000Y-13828571I0J50000D01*
G01*
X6150000Y-13228571D01*
G75*
G02*
X6200000Y-13178571I50000J0D01*
G01*
X6700000Y-13178571D01*
G75*
G02*
X6750000Y-13228571I0J-50000D01*
G01*
G37*
G36*
G01*
X5750000Y-5600000D02*
X5750000Y-6200000D01*
G75*
G02*
X5700000Y-6250000I-50000J0D01*
G01*
X5200000Y-6250000D01*
G75*
G02*
X5150000Y-6200000I0J50000D01*
G01*
X5150000Y-5600000D01*
G75*
G02*
X5200000Y-5550000I50000J0D01*
G01*
X5700000Y-5550000D01*
G75*
G02*
X5750000Y-5600000I0J-50000D01*
G01*
G37*
G36*
G01*
X6750000Y-5600000D02*
X6750000Y-6200000D01*
G75*
G02*
X6700000Y-6250000I-50000J0D01*
G01*
X6200000Y-6250000D01*
G75*
G02*
X6150000Y-6200000I0J50000D01*
G01*
X6150000Y-5600000D01*
G75*
G02*
X6200000Y-5550000I50000J0D01*
G01*
X6700000Y-5550000D01*
G75*
G02*
X6750000Y-5600000I0J-50000D01*
G01*
G37*
G36*
G01*
X5750000Y-23400000D02*
X5750000Y-24000000D01*
G75*
G02*
X5700000Y-24050000I-50000J0D01*
G01*
X5200000Y-24050000D01*
G75*
G02*
X5150000Y-24000000I0J50000D01*
G01*
X5150000Y-23400000D01*
G75*
G02*
X5200000Y-23350000I50000J0D01*
G01*
X5700000Y-23350000D01*
G75*
G02*
X5750000Y-23400000I0J-50000D01*
G01*
G37*
G36*
G01*
X6750000Y-23400000D02*
X6750000Y-24000000D01*
G75*
G02*
X6700000Y-24050000I-50000J0D01*
G01*
X6200000Y-24050000D01*
G75*
G02*
X6150000Y-24000000I0J50000D01*
G01*
X6150000Y-23400000D01*
G75*
G02*
X6200000Y-23350000I50000J0D01*
G01*
X6700000Y-23350000D01*
G75*
G02*
X6750000Y-23400000I0J-50000D01*
G01*
G37*
G36*
G01*
X14375000Y-5700000D02*
X13775000Y-5700000D01*
G75*
G02*
X13725000Y-5650000I0J50000D01*
G01*
X13725000Y-5150000D01*
G75*
G02*
X13775000Y-5100000I50000J0D01*
G01*
X14375000Y-5100000D01*
G75*
G02*
X14425000Y-5150000I0J-50000D01*
G01*
X14425000Y-5650000D01*
G75*
G02*
X14375000Y-5700000I-50000J0D01*
G01*
G37*
G36*
G01*
X14375000Y-6700000D02*
X13775000Y-6700000D01*
G75*
G02*
X13725000Y-6650000I0J50000D01*
G01*
X13725000Y-6150000D01*
G75*
G02*
X13775000Y-6100000I50000J0D01*
G01*
X14375000Y-6100000D01*
G75*
G02*
X14425000Y-6150000I0J-50000D01*
G01*
X14425000Y-6650000D01*
G75*
G02*
X14375000Y-6700000I-50000J0D01*
G01*
G37*
G36*
G01*
X5750000Y-10685714D02*
X5750000Y-11285714D01*
G75*
G02*
X5700000Y-11335714I-50000J0D01*
G01*
X5200000Y-11335714D01*
G75*
G02*
X5150000Y-11285714I0J50000D01*
G01*
X5150000Y-10685714D01*
G75*
G02*
X5200000Y-10635714I50000J0D01*
G01*
X5700000Y-10635714D01*
G75*
G02*
X5750000Y-10685714I0J-50000D01*
G01*
G37*
G36*
G01*
X6750000Y-10685714D02*
X6750000Y-11285714D01*
G75*
G02*
X6700000Y-11335714I-50000J0D01*
G01*
X6200000Y-11335714D01*
G75*
G02*
X6150000Y-11285714I0J50000D01*
G01*
X6150000Y-10685714D01*
G75*
G02*
X6200000Y-10635714I50000J0D01*
G01*
X6700000Y-10635714D01*
G75*
G02*
X6750000Y-10685714I0J-50000D01*
G01*
G37*
G36*
G01*
X8675000Y-23875000D02*
X9275000Y-23875000D01*
G75*
G02*
X9325000Y-23925000I0J-50000D01*
G01*
X9325000Y-24425000D01*
G75*
G02*
X9275000Y-24475000I-50000J0D01*
G01*
X8675000Y-24475000D01*
G75*
G02*
X8625000Y-24425000I0J50000D01*
G01*
X8625000Y-23925000D01*
G75*
G02*
X8675000Y-23875000I50000J0D01*
G01*
G37*
G36*
G01*
X8675000Y-22875000D02*
X9275000Y-22875000D01*
G75*
G02*
X9325000Y-22925000I0J-50000D01*
G01*
X9325000Y-23425000D01*
G75*
G02*
X9275000Y-23475000I-50000J0D01*
G01*
X8675000Y-23475000D01*
G75*
G02*
X8625000Y-23425000I0J50000D01*
G01*
X8625000Y-22925000D01*
G75*
G02*
X8675000Y-22875000I50000J0D01*
G01*
G37*
G36*
G01*
X18850000Y-23875000D02*
X19450000Y-23875000D01*
G75*
G02*
X19500000Y-23925000I0J-50000D01*
G01*
X19500000Y-24425000D01*
G75*
G02*
X19450000Y-24475000I-50000J0D01*
G01*
X18850000Y-24475000D01*
G75*
G02*
X18800000Y-24425000I0J50000D01*
G01*
X18800000Y-23925000D01*
G75*
G02*
X18850000Y-23875000I50000J0D01*
G01*
G37*
G36*
G01*
X18850000Y-22875000D02*
X19450000Y-22875000D01*
G75*
G02*
X19500000Y-22925000I0J-50000D01*
G01*
X19500000Y-23425000D01*
G75*
G02*
X19450000Y-23475000I-50000J0D01*
G01*
X18850000Y-23475000D01*
G75*
G02*
X18800000Y-23425000I0J50000D01*
G01*
X18800000Y-22925000D01*
G75*
G02*
X18850000Y-22875000I50000J0D01*
G01*
G37*
G36*
G01*
X22900000Y-6200000D02*
X22900000Y-5600000D01*
G75*
G02*
X22950000Y-5550000I50000J0D01*
G01*
X23450000Y-5550000D01*
G75*
G02*
X23500000Y-5600000I0J-50000D01*
G01*
X23500000Y-6200000D01*
G75*
G02*
X23450000Y-6250000I-50000J0D01*
G01*
X22950000Y-6250000D01*
G75*
G02*
X22900000Y-6200000I0J50000D01*
G01*
G37*
G36*
G01*
X21900000Y-6200000D02*
X21900000Y-5600000D01*
G75*
G02*
X21950000Y-5550000I50000J0D01*
G01*
X22450000Y-5550000D01*
G75*
G02*
X22500000Y-5600000I0J-50000D01*
G01*
X22500000Y-6200000D01*
G75*
G02*
X22450000Y-6250000I-50000J0D01*
G01*
X21950000Y-6250000D01*
G75*
G02*
X21900000Y-6200000I0J50000D01*
G01*
G37*
G36*
G01*
X22900000Y-8746428D02*
X22900000Y-8146428D01*
G75*
G02*
X22950000Y-8096428I50000J0D01*
G01*
X23450000Y-8096428D01*
G75*
G02*
X23500000Y-8146428I0J-50000D01*
G01*
X23500000Y-8746428D01*
G75*
G02*
X23450000Y-8796428I-50000J0D01*
G01*
X22950000Y-8796428D01*
G75*
G02*
X22900000Y-8746428I0J50000D01*
G01*
G37*
G36*
G01*
X21900000Y-8746428D02*
X21900000Y-8146428D01*
G75*
G02*
X21950000Y-8096428I50000J0D01*
G01*
X22450000Y-8096428D01*
G75*
G02*
X22500000Y-8146428I0J-50000D01*
G01*
X22500000Y-8746428D01*
G75*
G02*
X22450000Y-8796428I-50000J0D01*
G01*
X21950000Y-8796428D01*
G75*
G02*
X21900000Y-8746428I0J50000D01*
G01*
G37*
G36*
G01*
X22900000Y-11292856D02*
X22900000Y-10692856D01*
G75*
G02*
X22950000Y-10642856I50000J0D01*
G01*
X23450000Y-10642856D01*
G75*
G02*
X23500000Y-10692856I0J-50000D01*
G01*
X23500000Y-11292856D01*
G75*
G02*
X23450000Y-11342856I-50000J0D01*
G01*
X22950000Y-11342856D01*
G75*
G02*
X22900000Y-11292856I0J50000D01*
G01*
G37*
G36*
G01*
X21900000Y-11292856D02*
X21900000Y-10692856D01*
G75*
G02*
X21950000Y-10642856I50000J0D01*
G01*
X22450000Y-10642856D01*
G75*
G02*
X22500000Y-10692856I0J-50000D01*
G01*
X22500000Y-11292856D01*
G75*
G02*
X22450000Y-11342856I-50000J0D01*
G01*
X21950000Y-11342856D01*
G75*
G02*
X21900000Y-11292856I0J50000D01*
G01*
G37*
G36*
G01*
X5750000Y-8142857D02*
X5750000Y-8742857D01*
G75*
G02*
X5700000Y-8792857I-50000J0D01*
G01*
X5200000Y-8792857D01*
G75*
G02*
X5150000Y-8742857I0J50000D01*
G01*
X5150000Y-8142857D01*
G75*
G02*
X5200000Y-8092857I50000J0D01*
G01*
X5700000Y-8092857D01*
G75*
G02*
X5750000Y-8142857I0J-50000D01*
G01*
G37*
G36*
G01*
X6750000Y-8142857D02*
X6750000Y-8742857D01*
G75*
G02*
X6700000Y-8792857I-50000J0D01*
G01*
X6200000Y-8792857D01*
G75*
G02*
X6150000Y-8742857I0J50000D01*
G01*
X6150000Y-8142857D01*
G75*
G02*
X6200000Y-8092857I50000J0D01*
G01*
X6700000Y-8092857D01*
G75*
G02*
X6750000Y-8142857I0J-50000D01*
G01*
G37*
G36*
G01*
X11218750Y-23875000D02*
X11818750Y-23875000D01*
G75*
G02*
X11868750Y-23925000I0J-50000D01*
G01*
X11868750Y-24425000D01*
G75*
G02*
X11818750Y-24475000I-50000J0D01*
G01*
X11218750Y-24475000D01*
G75*
G02*
X11168750Y-24425000I0J50000D01*
G01*
X11168750Y-23925000D01*
G75*
G02*
X11218750Y-23875000I50000J0D01*
G01*
G37*
G36*
G01*
X11218750Y-22875000D02*
X11818750Y-22875000D01*
G75*
G02*
X11868750Y-22925000I0J-50000D01*
G01*
X11868750Y-23425000D01*
G75*
G02*
X11818750Y-23475000I-50000J0D01*
G01*
X11218750Y-23475000D01*
G75*
G02*
X11168750Y-23425000I0J50000D01*
G01*
X11168750Y-22925000D01*
G75*
G02*
X11218750Y-22875000I50000J0D01*
G01*
G37*
G36*
G01*
X5750000Y-18314285D02*
X5750000Y-18914285D01*
G75*
G02*
X5700000Y-18964285I-50000J0D01*
G01*
X5200000Y-18964285D01*
G75*
G02*
X5150000Y-18914285I0J50000D01*
G01*
X5150000Y-18314285D01*
G75*
G02*
X5200000Y-18264285I50000J0D01*
G01*
X5700000Y-18264285D01*
G75*
G02*
X5750000Y-18314285I0J-50000D01*
G01*
G37*
G36*
G01*
X6750000Y-18314285D02*
X6750000Y-18914285D01*
G75*
G02*
X6700000Y-18964285I-50000J0D01*
G01*
X6200000Y-18964285D01*
G75*
G02*
X6150000Y-18914285I0J50000D01*
G01*
X6150000Y-18314285D01*
G75*
G02*
X6200000Y-18264285I50000J0D01*
G01*
X6700000Y-18264285D01*
G75*
G02*
X6750000Y-18314285I0J-50000D01*
G01*
G37*
G36*
G01*
X5750000Y-20857142D02*
X5750000Y-21457142D01*
G75*
G02*
X5700000Y-21507142I-50000J0D01*
G01*
X5200000Y-21507142D01*
G75*
G02*
X5150000Y-21457142I0J50000D01*
G01*
X5150000Y-20857142D01*
G75*
G02*
X5200000Y-20807142I50000J0D01*
G01*
X5700000Y-20807142D01*
G75*
G02*
X5750000Y-20857142I0J-50000D01*
G01*
G37*
G36*
G01*
X6750000Y-20857142D02*
X6750000Y-21457142D01*
G75*
G02*
X6700000Y-21507142I-50000J0D01*
G01*
X6200000Y-21507142D01*
G75*
G02*
X6150000Y-21457142I0J50000D01*
G01*
X6150000Y-20857142D01*
G75*
G02*
X6200000Y-20807142I50000J0D01*
G01*
X6700000Y-20807142D01*
G75*
G02*
X6750000Y-20857142I0J-50000D01*
G01*
G37*
G36*
G01*
X4575000Y-26560001D02*
X4575000Y-25889999D01*
G75*
G02*
X4624999Y-25840000I49999J0D01*
G01*
X5325001Y-25840000D01*
G75*
G02*
X5375000Y-25889999I0J-49999D01*
G01*
X5375000Y-26560001D01*
G75*
G02*
X5325001Y-26610000I-49999J0D01*
G01*
X4624999Y-26610000D01*
G75*
G02*
X4575000Y-26560001I0J49999D01*
G01*
G37*
G36*
G01*
X3375000Y-26560001D02*
X3375000Y-25889999D01*
G75*
G02*
X3424999Y-25840000I49999J0D01*
G01*
X4125001Y-25840000D01*
G75*
G02*
X4175000Y-25889999I0J-49999D01*
G01*
X4175000Y-26560001D01*
G75*
G02*
X4125001Y-26610000I-49999J0D01*
G01*
X3424999Y-26610000D01*
G75*
G02*
X3375000Y-26560001I0J49999D01*
G01*
G37*
X27025000Y-5905000D03*
X27025000Y-8445000D03*
X27025000Y-10985000D03*
X27025000Y-13525000D03*
X27025000Y-16065000D03*
X27025000Y-18605000D03*
X27025000Y-21145000D03*
X27025000Y-23685000D03*
G36*
G01*
X27925000Y-25375000D02*
X27925000Y-27075000D01*
G75*
G02*
X27875000Y-27125000I-50000J0D01*
G01*
X26175000Y-27125000D01*
G75*
G02*
X26125000Y-27075000I0J50000D01*
G01*
X26125000Y-25375000D01*
G75*
G02*
X26175000Y-25325000I50000J0D01*
G01*
X27875000Y-25325000D01*
G75*
G02*
X27925000Y-25375000I0J-50000D01*
G01*
G37*
G36*
G01*
X4375000Y-6200000D02*
X4375000Y-5600000D01*
G75*
G02*
X4425000Y-5550000I50000J0D01*
G01*
X4925000Y-5550000D01*
G75*
G02*
X4975000Y-5600000I0J-50000D01*
G01*
X4975000Y-6200000D01*
G75*
G02*
X4925000Y-6250000I-50000J0D01*
G01*
X4425000Y-6250000D01*
G75*
G02*
X4375000Y-6200000I0J50000D01*
G01*
G37*
G36*
G01*
X3375000Y-6200000D02*
X3375000Y-5600000D01*
G75*
G02*
X3425000Y-5550000I50000J0D01*
G01*
X3925000Y-5550000D01*
G75*
G02*
X3975000Y-5600000I0J-50000D01*
G01*
X3975000Y-6200000D01*
G75*
G02*
X3925000Y-6250000I-50000J0D01*
G01*
X3425000Y-6250000D01*
G75*
G02*
X3375000Y-6200000I0J50000D01*
G01*
G37*
G36*
G01*
X4375000Y-8742857D02*
X4375000Y-8142857D01*
G75*
G02*
X4425000Y-8092857I50000J0D01*
G01*
X4925000Y-8092857D01*
G75*
G02*
X4975000Y-8142857I0J-50000D01*
G01*
X4975000Y-8742857D01*
G75*
G02*
X4925000Y-8792857I-50000J0D01*
G01*
X4425000Y-8792857D01*
G75*
G02*
X4375000Y-8742857I0J50000D01*
G01*
G37*
G36*
G01*
X3375000Y-8742857D02*
X3375000Y-8142857D01*
G75*
G02*
X3425000Y-8092857I50000J0D01*
G01*
X3925000Y-8092857D01*
G75*
G02*
X3975000Y-8142857I0J-50000D01*
G01*
X3975000Y-8742857D01*
G75*
G02*
X3925000Y-8792857I-50000J0D01*
G01*
X3425000Y-8792857D01*
G75*
G02*
X3375000Y-8742857I0J50000D01*
G01*
G37*
G36*
G01*
X4375000Y-11285714D02*
X4375000Y-10685714D01*
G75*
G02*
X4425000Y-10635714I50000J0D01*
G01*
X4925000Y-10635714D01*
G75*
G02*
X4975000Y-10685714I0J-50000D01*
G01*
X4975000Y-11285714D01*
G75*
G02*
X4925000Y-11335714I-50000J0D01*
G01*
X4425000Y-11335714D01*
G75*
G02*
X4375000Y-11285714I0J50000D01*
G01*
G37*
G36*
G01*
X3375000Y-11285714D02*
X3375000Y-10685714D01*
G75*
G02*
X3425000Y-10635714I50000J0D01*
G01*
X3925000Y-10635714D01*
G75*
G02*
X3975000Y-10685714I0J-50000D01*
G01*
X3975000Y-11285714D01*
G75*
G02*
X3925000Y-11335714I-50000J0D01*
G01*
X3425000Y-11335714D01*
G75*
G02*
X3375000Y-11285714I0J50000D01*
G01*
G37*
G36*
G01*
X4375000Y-13828571D02*
X4375000Y-13228571D01*
G75*
G02*
X4425000Y-13178571I50000J0D01*
G01*
X4925000Y-13178571D01*
G75*
G02*
X4975000Y-13228571I0J-50000D01*
G01*
X4975000Y-13828571D01*
G75*
G02*
X4925000Y-13878571I-50000J0D01*
G01*
X4425000Y-13878571D01*
G75*
G02*
X4375000Y-13828571I0J50000D01*
G01*
G37*
G36*
G01*
X3375000Y-13828571D02*
X3375000Y-13228571D01*
G75*
G02*
X3425000Y-13178571I50000J0D01*
G01*
X3925000Y-13178571D01*
G75*
G02*
X3975000Y-13228571I0J-50000D01*
G01*
X3975000Y-13828571D01*
G75*
G02*
X3925000Y-13878571I-50000J0D01*
G01*
X3425000Y-13878571D01*
G75*
G02*
X3375000Y-13828571I0J50000D01*
G01*
G37*
G36*
G01*
X4375000Y-16371428D02*
X4375000Y-15771428D01*
G75*
G02*
X4425000Y-15721428I50000J0D01*
G01*
X4925000Y-15721428D01*
G75*
G02*
X4975000Y-15771428I0J-50000D01*
G01*
X4975000Y-16371428D01*
G75*
G02*
X4925000Y-16421428I-50000J0D01*
G01*
X4425000Y-16421428D01*
G75*
G02*
X4375000Y-16371428I0J50000D01*
G01*
G37*
G36*
G01*
X3375000Y-16371428D02*
X3375000Y-15771428D01*
G75*
G02*
X3425000Y-15721428I50000J0D01*
G01*
X3925000Y-15721428D01*
G75*
G02*
X3975000Y-15771428I0J-50000D01*
G01*
X3975000Y-16371428D01*
G75*
G02*
X3925000Y-16421428I-50000J0D01*
G01*
X3425000Y-16421428D01*
G75*
G02*
X3375000Y-16371428I0J50000D01*
G01*
G37*
G36*
G01*
X4375000Y-18914285D02*
X4375000Y-18314285D01*
G75*
G02*
X4425000Y-18264285I50000J0D01*
G01*
X4925000Y-18264285D01*
G75*
G02*
X4975000Y-18314285I0J-50000D01*
G01*
X4975000Y-18914285D01*
G75*
G02*
X4925000Y-18964285I-50000J0D01*
G01*
X4425000Y-18964285D01*
G75*
G02*
X4375000Y-18914285I0J50000D01*
G01*
G37*
G36*
G01*
X3375000Y-18914285D02*
X3375000Y-18314285D01*
G75*
G02*
X3425000Y-18264285I50000J0D01*
G01*
X3925000Y-18264285D01*
G75*
G02*
X3975000Y-18314285I0J-50000D01*
G01*
X3975000Y-18914285D01*
G75*
G02*
X3925000Y-18964285I-50000J0D01*
G01*
X3425000Y-18964285D01*
G75*
G02*
X3375000Y-18914285I0J50000D01*
G01*
G37*
G36*
G01*
X4375000Y-21457142D02*
X4375000Y-20857142D01*
G75*
G02*
X4425000Y-20807142I50000J0D01*
G01*
X4925000Y-20807142D01*
G75*
G02*
X4975000Y-20857142I0J-50000D01*
G01*
X4975000Y-21457142D01*
G75*
G02*
X4925000Y-21507142I-50000J0D01*
G01*
X4425000Y-21507142D01*
G75*
G02*
X4375000Y-21457142I0J50000D01*
G01*
G37*
G36*
G01*
X3375000Y-21457142D02*
X3375000Y-20857142D01*
G75*
G02*
X3425000Y-20807142I50000J0D01*
G01*
X3925000Y-20807142D01*
G75*
G02*
X3975000Y-20857142I0J-50000D01*
G01*
X3975000Y-21457142D01*
G75*
G02*
X3925000Y-21507142I-50000J0D01*
G01*
X3425000Y-21507142D01*
G75*
G02*
X3375000Y-21457142I0J50000D01*
G01*
G37*
G36*
G01*
X4375000Y-24000000D02*
X4375000Y-23400000D01*
G75*
G02*
X4425000Y-23350000I50000J0D01*
G01*
X4925000Y-23350000D01*
G75*
G02*
X4975000Y-23400000I0J-50000D01*
G01*
X4975000Y-24000000D01*
G75*
G02*
X4925000Y-24050000I-50000J0D01*
G01*
X4425000Y-24050000D01*
G75*
G02*
X4375000Y-24000000I0J50000D01*
G01*
G37*
G36*
G01*
X3375000Y-24000000D02*
X3375000Y-23400000D01*
G75*
G02*
X3425000Y-23350000I50000J0D01*
G01*
X3925000Y-23350000D01*
G75*
G02*
X3975000Y-23400000I0J-50000D01*
G01*
X3975000Y-24000000D01*
G75*
G02*
X3925000Y-24050000I-50000J0D01*
G01*
X3425000Y-24050000D01*
G75*
G02*
X3375000Y-24000000I0J50000D01*
G01*
G37*
G36*
G01*
X8700000Y-4325000D02*
X9300000Y-4325000D01*
G75*
G02*
X9350000Y-4375000I0J-50000D01*
G01*
X9350000Y-4875000D01*
G75*
G02*
X9300000Y-4925000I-50000J0D01*
G01*
X8700000Y-4925000D01*
G75*
G02*
X8650000Y-4875000I0J50000D01*
G01*
X8650000Y-4375000D01*
G75*
G02*
X8700000Y-4325000I50000J0D01*
G01*
G37*
G36*
G01*
X8700000Y-3325000D02*
X9300000Y-3325000D01*
G75*
G02*
X9350000Y-3375000I0J-50000D01*
G01*
X9350000Y-3875000D01*
G75*
G02*
X9300000Y-3925000I-50000J0D01*
G01*
X8700000Y-3925000D01*
G75*
G02*
X8650000Y-3875000I0J50000D01*
G01*
X8650000Y-3375000D01*
G75*
G02*
X8700000Y-3325000I50000J0D01*
G01*
G37*
G36*
G01*
X9275000Y-25250000D02*
X8675000Y-25250000D01*
G75*
G02*
X8625000Y-25200000I0J50000D01*
G01*
X8625000Y-24700000D01*
G75*
G02*
X8675000Y-24650000I50000J0D01*
G01*
X9275000Y-24650000D01*
G75*
G02*
X9325000Y-24700000I0J-50000D01*
G01*
X9325000Y-25200000D01*
G75*
G02*
X9275000Y-25250000I-50000J0D01*
G01*
G37*
G36*
G01*
X9275000Y-26250000D02*
X8675000Y-26250000D01*
G75*
G02*
X8625000Y-26200000I0J50000D01*
G01*
X8625000Y-25700000D01*
G75*
G02*
X8675000Y-25650000I50000J0D01*
G01*
X9275000Y-25650000D01*
G75*
G02*
X9325000Y-25700000I0J-50000D01*
G01*
X9325000Y-26200000D01*
G75*
G02*
X9275000Y-26250000I-50000J0D01*
G01*
G37*
G36*
G01*
X11237500Y-4325000D02*
X11837500Y-4325000D01*
G75*
G02*
X11887500Y-4375000I0J-50000D01*
G01*
X11887500Y-4875000D01*
G75*
G02*
X11837500Y-4925000I-50000J0D01*
G01*
X11237500Y-4925000D01*
G75*
G02*
X11187500Y-4875000I0J50000D01*
G01*
X11187500Y-4375000D01*
G75*
G02*
X11237500Y-4325000I50000J0D01*
G01*
G37*
G36*
G01*
X11237500Y-3325000D02*
X11837500Y-3325000D01*
G75*
G02*
X11887500Y-3375000I0J-50000D01*
G01*
X11887500Y-3875000D01*
G75*
G02*
X11837500Y-3925000I-50000J0D01*
G01*
X11237500Y-3925000D01*
G75*
G02*
X11187500Y-3875000I0J50000D01*
G01*
X11187500Y-3375000D01*
G75*
G02*
X11237500Y-3325000I50000J0D01*
G01*
G37*
G36*
G01*
X11818750Y-25250000D02*
X11218750Y-25250000D01*
G75*
G02*
X11168750Y-25200000I0J50000D01*
G01*
X11168750Y-24700000D01*
G75*
G02*
X11218750Y-24650000I50000J0D01*
G01*
X11818750Y-24650000D01*
G75*
G02*
X11868750Y-24700000I0J-50000D01*
G01*
X11868750Y-25200000D01*
G75*
G02*
X11818750Y-25250000I-50000J0D01*
G01*
G37*
G36*
G01*
X11818750Y-26250000D02*
X11218750Y-26250000D01*
G75*
G02*
X11168750Y-26200000I0J50000D01*
G01*
X11168750Y-25700000D01*
G75*
G02*
X11218750Y-25650000I50000J0D01*
G01*
X11818750Y-25650000D01*
G75*
G02*
X11868750Y-25700000I0J-50000D01*
G01*
X11868750Y-26200000D01*
G75*
G02*
X11818750Y-26250000I-50000J0D01*
G01*
G37*
G36*
G01*
X13775000Y-4325000D02*
X14375000Y-4325000D01*
G75*
G02*
X14425000Y-4375000I0J-50000D01*
G01*
X14425000Y-4875000D01*
G75*
G02*
X14375000Y-4925000I-50000J0D01*
G01*
X13775000Y-4925000D01*
G75*
G02*
X13725000Y-4875000I0J50000D01*
G01*
X13725000Y-4375000D01*
G75*
G02*
X13775000Y-4325000I50000J0D01*
G01*
G37*
G36*
G01*
X13775000Y-3325000D02*
X14375000Y-3325000D01*
G75*
G02*
X14425000Y-3375000I0J-50000D01*
G01*
X14425000Y-3875000D01*
G75*
G02*
X14375000Y-3925000I-50000J0D01*
G01*
X13775000Y-3925000D01*
G75*
G02*
X13725000Y-3875000I0J50000D01*
G01*
X13725000Y-3375000D01*
G75*
G02*
X13775000Y-3325000I50000J0D01*
G01*
G37*
G36*
G01*
X14362500Y-25250000D02*
X13762500Y-25250000D01*
G75*
G02*
X13712500Y-25200000I0J50000D01*
G01*
X13712500Y-24700000D01*
G75*
G02*
X13762500Y-24650000I50000J0D01*
G01*
X14362500Y-24650000D01*
G75*
G02*
X14412500Y-24700000I0J-50000D01*
G01*
X14412500Y-25200000D01*
G75*
G02*
X14362500Y-25250000I-50000J0D01*
G01*
G37*
G36*
G01*
X14362500Y-26250000D02*
X13762500Y-26250000D01*
G75*
G02*
X13712500Y-26200000I0J50000D01*
G01*
X13712500Y-25700000D01*
G75*
G02*
X13762500Y-25650000I50000J0D01*
G01*
X14362500Y-25650000D01*
G75*
G02*
X14412500Y-25700000I0J-50000D01*
G01*
X14412500Y-26200000D01*
G75*
G02*
X14362500Y-26250000I-50000J0D01*
G01*
G37*
G36*
G01*
X16312500Y-4325000D02*
X16912500Y-4325000D01*
G75*
G02*
X16962500Y-4375000I0J-50000D01*
G01*
X16962500Y-4875000D01*
G75*
G02*
X16912500Y-4925000I-50000J0D01*
G01*
X16312500Y-4925000D01*
G75*
G02*
X16262500Y-4875000I0J50000D01*
G01*
X16262500Y-4375000D01*
G75*
G02*
X16312500Y-4325000I50000J0D01*
G01*
G37*
G36*
G01*
X16312500Y-3325000D02*
X16912500Y-3325000D01*
G75*
G02*
X16962500Y-3375000I0J-50000D01*
G01*
X16962500Y-3875000D01*
G75*
G02*
X16912500Y-3925000I-50000J0D01*
G01*
X16312500Y-3925000D01*
G75*
G02*
X16262500Y-3875000I0J50000D01*
G01*
X16262500Y-3375000D01*
G75*
G02*
X16312500Y-3325000I50000J0D01*
G01*
G37*
G36*
G01*
X16906250Y-25250000D02*
X16306250Y-25250000D01*
G75*
G02*
X16256250Y-25200000I0J50000D01*
G01*
X16256250Y-24700000D01*
G75*
G02*
X16306250Y-24650000I50000J0D01*
G01*
X16906250Y-24650000D01*
G75*
G02*
X16956250Y-24700000I0J-50000D01*
G01*
X16956250Y-25200000D01*
G75*
G02*
X16906250Y-25250000I-50000J0D01*
G01*
G37*
G36*
G01*
X16906250Y-26250000D02*
X16306250Y-26250000D01*
G75*
G02*
X16256250Y-26200000I0J50000D01*
G01*
X16256250Y-25700000D01*
G75*
G02*
X16306250Y-25650000I50000J0D01*
G01*
X16906250Y-25650000D01*
G75*
G02*
X16956250Y-25700000I0J-50000D01*
G01*
X16956250Y-26200000D01*
G75*
G02*
X16906250Y-26250000I-50000J0D01*
G01*
G37*
G36*
G01*
X18850000Y-4325000D02*
X19450000Y-4325000D01*
G75*
G02*
X19500000Y-4375000I0J-50000D01*
G01*
X19500000Y-4875000D01*
G75*
G02*
X19450000Y-4925000I-50000J0D01*
G01*
X18850000Y-4925000D01*
G75*
G02*
X18800000Y-4875000I0J50000D01*
G01*
X18800000Y-4375000D01*
G75*
G02*
X18850000Y-4325000I50000J0D01*
G01*
G37*
G36*
G01*
X18850000Y-3325000D02*
X19450000Y-3325000D01*
G75*
G02*
X19500000Y-3375000I0J-50000D01*
G01*
X19500000Y-3875000D01*
G75*
G02*
X19450000Y-3925000I-50000J0D01*
G01*
X18850000Y-3925000D01*
G75*
G02*
X18800000Y-3875000I0J50000D01*
G01*
X18800000Y-3375000D01*
G75*
G02*
X18850000Y-3325000I50000J0D01*
G01*
G37*
G36*
G01*
X19450000Y-25250000D02*
X18850000Y-25250000D01*
G75*
G02*
X18800000Y-25200000I0J50000D01*
G01*
X18800000Y-24700000D01*
G75*
G02*
X18850000Y-24650000I50000J0D01*
G01*
X19450000Y-24650000D01*
G75*
G02*
X19500000Y-24700000I0J-50000D01*
G01*
X19500000Y-25200000D01*
G75*
G02*
X19450000Y-25250000I-50000J0D01*
G01*
G37*
G36*
G01*
X19450000Y-26250000D02*
X18850000Y-26250000D01*
G75*
G02*
X18800000Y-26200000I0J50000D01*
G01*
X18800000Y-25700000D01*
G75*
G02*
X18850000Y-25650000I50000J0D01*
G01*
X19450000Y-25650000D01*
G75*
G02*
X19500000Y-25700000I0J-50000D01*
G01*
X19500000Y-26200000D01*
G75*
G02*
X19450000Y-26250000I-50000J0D01*
G01*
G37*
G36*
G01*
X24275000Y-5600000D02*
X24275000Y-6200000D01*
G75*
G02*
X24225000Y-6250000I-50000J0D01*
G01*
X23725000Y-6250000D01*
G75*
G02*
X23675000Y-6200000I0J50000D01*
G01*
X23675000Y-5600000D01*
G75*
G02*
X23725000Y-5550000I50000J0D01*
G01*
X24225000Y-5550000D01*
G75*
G02*
X24275000Y-5600000I0J-50000D01*
G01*
G37*
G36*
G01*
X25275000Y-5600000D02*
X25275000Y-6200000D01*
G75*
G02*
X25225000Y-6250000I-50000J0D01*
G01*
X24725000Y-6250000D01*
G75*
G02*
X24675000Y-6200000I0J50000D01*
G01*
X24675000Y-5600000D01*
G75*
G02*
X24725000Y-5550000I50000J0D01*
G01*
X25225000Y-5550000D01*
G75*
G02*
X25275000Y-5600000I0J-50000D01*
G01*
G37*
G36*
G01*
X24275000Y-8142857D02*
X24275000Y-8742857D01*
G75*
G02*
X24225000Y-8792857I-50000J0D01*
G01*
X23725000Y-8792857D01*
G75*
G02*
X23675000Y-8742857I0J50000D01*
G01*
X23675000Y-8142857D01*
G75*
G02*
X23725000Y-8092857I50000J0D01*
G01*
X24225000Y-8092857D01*
G75*
G02*
X24275000Y-8142857I0J-50000D01*
G01*
G37*
G36*
G01*
X25275000Y-8142857D02*
X25275000Y-8742857D01*
G75*
G02*
X25225000Y-8792857I-50000J0D01*
G01*
X24725000Y-8792857D01*
G75*
G02*
X24675000Y-8742857I0J50000D01*
G01*
X24675000Y-8142857D01*
G75*
G02*
X24725000Y-8092857I50000J0D01*
G01*
X25225000Y-8092857D01*
G75*
G02*
X25275000Y-8142857I0J-50000D01*
G01*
G37*
G36*
G01*
X24275000Y-10685714D02*
X24275000Y-11285714D01*
G75*
G02*
X24225000Y-11335714I-50000J0D01*
G01*
X23725000Y-11335714D01*
G75*
G02*
X23675000Y-11285714I0J50000D01*
G01*
X23675000Y-10685714D01*
G75*
G02*
X23725000Y-10635714I50000J0D01*
G01*
X24225000Y-10635714D01*
G75*
G02*
X24275000Y-10685714I0J-50000D01*
G01*
G37*
G36*
G01*
X25275000Y-10685714D02*
X25275000Y-11285714D01*
G75*
G02*
X25225000Y-11335714I-50000J0D01*
G01*
X24725000Y-11335714D01*
G75*
G02*
X24675000Y-11285714I0J50000D01*
G01*
X24675000Y-10685714D01*
G75*
G02*
X24725000Y-10635714I50000J0D01*
G01*
X25225000Y-10635714D01*
G75*
G02*
X25275000Y-10685714I0J-50000D01*
G01*
G37*
G36*
G01*
X24275000Y-13228571D02*
X24275000Y-13828571D01*
G75*
G02*
X24225000Y-13878571I-50000J0D01*
G01*
X23725000Y-13878571D01*
G75*
G02*
X23675000Y-13828571I0J50000D01*
G01*
X23675000Y-13228571D01*
G75*
G02*
X23725000Y-13178571I50000J0D01*
G01*
X24225000Y-13178571D01*
G75*
G02*
X24275000Y-13228571I0J-50000D01*
G01*
G37*
G36*
G01*
X25275000Y-13228571D02*
X25275000Y-13828571D01*
G75*
G02*
X25225000Y-13878571I-50000J0D01*
G01*
X24725000Y-13878571D01*
G75*
G02*
X24675000Y-13828571I0J50000D01*
G01*
X24675000Y-13228571D01*
G75*
G02*
X24725000Y-13178571I50000J0D01*
G01*
X25225000Y-13178571D01*
G75*
G02*
X25275000Y-13228571I0J-50000D01*
G01*
G37*
G36*
G01*
X24275000Y-15771428D02*
X24275000Y-16371428D01*
G75*
G02*
X24225000Y-16421428I-50000J0D01*
G01*
X23725000Y-16421428D01*
G75*
G02*
X23675000Y-16371428I0J50000D01*
G01*
X23675000Y-15771428D01*
G75*
G02*
X23725000Y-15721428I50000J0D01*
G01*
X24225000Y-15721428D01*
G75*
G02*
X24275000Y-15771428I0J-50000D01*
G01*
G37*
G36*
G01*
X25275000Y-15771428D02*
X25275000Y-16371428D01*
G75*
G02*
X25225000Y-16421428I-50000J0D01*
G01*
X24725000Y-16421428D01*
G75*
G02*
X24675000Y-16371428I0J50000D01*
G01*
X24675000Y-15771428D01*
G75*
G02*
X24725000Y-15721428I50000J0D01*
G01*
X25225000Y-15721428D01*
G75*
G02*
X25275000Y-15771428I0J-50000D01*
G01*
G37*
G36*
G01*
X24275000Y-18314285D02*
X24275000Y-18914285D01*
G75*
G02*
X24225000Y-18964285I-50000J0D01*
G01*
X23725000Y-18964285D01*
G75*
G02*
X23675000Y-18914285I0J50000D01*
G01*
X23675000Y-18314285D01*
G75*
G02*
X23725000Y-18264285I50000J0D01*
G01*
X24225000Y-18264285D01*
G75*
G02*
X24275000Y-18314285I0J-50000D01*
G01*
G37*
G36*
G01*
X25275000Y-18314285D02*
X25275000Y-18914285D01*
G75*
G02*
X25225000Y-18964285I-50000J0D01*
G01*
X24725000Y-18964285D01*
G75*
G02*
X24675000Y-18914285I0J50000D01*
G01*
X24675000Y-18314285D01*
G75*
G02*
X24725000Y-18264285I50000J0D01*
G01*
X25225000Y-18264285D01*
G75*
G02*
X25275000Y-18314285I0J-50000D01*
G01*
G37*
G36*
G01*
X24275000Y-20875000D02*
X24275000Y-21475000D01*
G75*
G02*
X24225000Y-21525000I-50000J0D01*
G01*
X23725000Y-21525000D01*
G75*
G02*
X23675000Y-21475000I0J50000D01*
G01*
X23675000Y-20875000D01*
G75*
G02*
X23725000Y-20825000I50000J0D01*
G01*
X24225000Y-20825000D01*
G75*
G02*
X24275000Y-20875000I0J-50000D01*
G01*
G37*
G36*
G01*
X25275000Y-20875000D02*
X25275000Y-21475000D01*
G75*
G02*
X25225000Y-21525000I-50000J0D01*
G01*
X24725000Y-21525000D01*
G75*
G02*
X24675000Y-21475000I0J50000D01*
G01*
X24675000Y-20875000D01*
G75*
G02*
X24725000Y-20825000I50000J0D01*
G01*
X25225000Y-20825000D01*
G75*
G02*
X25275000Y-20875000I0J-50000D01*
G01*
G37*
G36*
G01*
X24275000Y-23400000D02*
X24275000Y-24000000D01*
G75*
G02*
X24225000Y-24050000I-50000J0D01*
G01*
X23725000Y-24050000D01*
G75*
G02*
X23675000Y-24000000I0J50000D01*
G01*
X23675000Y-23400000D01*
G75*
G02*
X23725000Y-23350000I50000J0D01*
G01*
X24225000Y-23350000D01*
G75*
G02*
X24275000Y-23400000I0J-50000D01*
G01*
G37*
G36*
G01*
X25275000Y-23400000D02*
X25275000Y-24000000D01*
G75*
G02*
X25225000Y-24050000I-50000J0D01*
G01*
X24725000Y-24050000D01*
G75*
G02*
X24675000Y-24000000I0J50000D01*
G01*
X24675000Y-23400000D01*
G75*
G02*
X24725000Y-23350000I50000J0D01*
G01*
X25225000Y-23350000D01*
G75*
G02*
X25275000Y-23400000I0J-50000D01*
G01*
G37*
G36*
G01*
X11725000Y-10175000D02*
X12425000Y-10175000D01*
G75*
G02*
X12475000Y-10225000I0J-50000D01*
G01*
X12475000Y-11725000D01*
G75*
G02*
X12425000Y-11775000I-50000J0D01*
G01*
X11725000Y-11775000D01*
G75*
G02*
X11675000Y-11725000I0J50000D01*
G01*
X11675000Y-10225000D01*
G75*
G02*
X11725000Y-10175000I50000J0D01*
G01*
G37*
G36*
G01*
X12725000Y-10175000D02*
X13425000Y-10175000D01*
G75*
G02*
X13475000Y-10225000I0J-50000D01*
G01*
X13475000Y-11725000D01*
G75*
G02*
X13425000Y-11775000I-50000J0D01*
G01*
X12725000Y-11775000D01*
G75*
G02*
X12675000Y-11725000I0J50000D01*
G01*
X12675000Y-10225000D01*
G75*
G02*
X12725000Y-10175000I50000J0D01*
G01*
G37*
G36*
G01*
X13725000Y-10175000D02*
X14425000Y-10175000D01*
G75*
G02*
X14475000Y-10225000I0J-50000D01*
G01*
X14475000Y-11725000D01*
G75*
G02*
X14425000Y-11775000I-50000J0D01*
G01*
X13725000Y-11775000D01*
G75*
G02*
X13675000Y-11725000I0J50000D01*
G01*
X13675000Y-10225000D01*
G75*
G02*
X13725000Y-10175000I50000J0D01*
G01*
G37*
G36*
G01*
X14725000Y-10175000D02*
X15425000Y-10175000D01*
G75*
G02*
X15475000Y-10225000I0J-50000D01*
G01*
X15475000Y-11725000D01*
G75*
G02*
X15425000Y-11775000I-50000J0D01*
G01*
X14725000Y-11775000D01*
G75*
G02*
X14675000Y-11725000I0J50000D01*
G01*
X14675000Y-10225000D01*
G75*
G02*
X14725000Y-10175000I50000J0D01*
G01*
G37*
G36*
G01*
X15725000Y-10175000D02*
X16425000Y-10175000D01*
G75*
G02*
X16475000Y-10225000I0J-50000D01*
G01*
X16475000Y-11725000D01*
G75*
G02*
X16425000Y-11775000I-50000J0D01*
G01*
X15725000Y-11775000D01*
G75*
G02*
X15675000Y-11725000I0J50000D01*
G01*
X15675000Y-10225000D01*
G75*
G02*
X15725000Y-10175000I50000J0D01*
G01*
G37*
G36*
G01*
X18525000Y-10925000D02*
X18525000Y-11625000D01*
G75*
G02*
X18475000Y-11675000I-50000J0D01*
G01*
X16975000Y-11675000D01*
G75*
G02*
X16925000Y-11625000I0J50000D01*
G01*
X16925000Y-10925000D01*
G75*
G02*
X16975000Y-10875000I50000J0D01*
G01*
X18475000Y-10875000D01*
G75*
G02*
X18525000Y-10925000I0J-50000D01*
G01*
G37*
G36*
G01*
X18525000Y-11925000D02*
X18525000Y-12625000D01*
G75*
G02*
X18475000Y-12675000I-50000J0D01*
G01*
X16975000Y-12675000D01*
G75*
G02*
X16925000Y-12625000I0J50000D01*
G01*
X16925000Y-11925000D01*
G75*
G02*
X16975000Y-11875000I50000J0D01*
G01*
X18475000Y-11875000D01*
G75*
G02*
X18525000Y-11925000I0J-50000D01*
G01*
G37*
G36*
G01*
X18525000Y-12925000D02*
X18525000Y-13625000D01*
G75*
G02*
X18475000Y-13675000I-50000J0D01*
G01*
X16975000Y-13675000D01*
G75*
G02*
X16925000Y-13625000I0J50000D01*
G01*
X16925000Y-12925000D01*
G75*
G02*
X16975000Y-12875000I50000J0D01*
G01*
X18475000Y-12875000D01*
G75*
G02*
X18525000Y-12925000I0J-50000D01*
G01*
G37*
G36*
G01*
X18525000Y-13925000D02*
X18525000Y-14625000D01*
G75*
G02*
X18475000Y-14675000I-50000J0D01*
G01*
X16975000Y-14675000D01*
G75*
G02*
X16925000Y-14625000I0J50000D01*
G01*
X16925000Y-13925000D01*
G75*
G02*
X16975000Y-13875000I50000J0D01*
G01*
X18475000Y-13875000D01*
G75*
G02*
X18525000Y-13925000I0J-50000D01*
G01*
G37*
G36*
G01*
X18525000Y-14925000D02*
X18525000Y-15625000D01*
G75*
G02*
X18475000Y-15675000I-50000J0D01*
G01*
X16975000Y-15675000D01*
G75*
G02*
X16925000Y-15625000I0J50000D01*
G01*
X16925000Y-14925000D01*
G75*
G02*
X16975000Y-14875000I50000J0D01*
G01*
X18475000Y-14875000D01*
G75*
G02*
X18525000Y-14925000I0J-50000D01*
G01*
G37*
G36*
G01*
X18525000Y-15925000D02*
X18525000Y-16625000D01*
G75*
G02*
X18475000Y-16675000I-50000J0D01*
G01*
X16975000Y-16675000D01*
G75*
G02*
X16925000Y-16625000I0J50000D01*
G01*
X16925000Y-15925000D01*
G75*
G02*
X16975000Y-15875000I50000J0D01*
G01*
X18475000Y-15875000D01*
G75*
G02*
X18525000Y-15925000I0J-50000D01*
G01*
G37*
G36*
G01*
X18525000Y-16925000D02*
X18525000Y-17625000D01*
G75*
G02*
X18475000Y-17675000I-50000J0D01*
G01*
X16975000Y-17675000D01*
G75*
G02*
X16925000Y-17625000I0J50000D01*
G01*
X16925000Y-16925000D01*
G75*
G02*
X16975000Y-16875000I50000J0D01*
G01*
X18475000Y-16875000D01*
G75*
G02*
X18525000Y-16925000I0J-50000D01*
G01*
G37*
G36*
G01*
X18525000Y-17925000D02*
X18525000Y-18625000D01*
G75*
G02*
X18475000Y-18675000I-50000J0D01*
G01*
X16975000Y-18675000D01*
G75*
G02*
X16925000Y-18625000I0J50000D01*
G01*
X16925000Y-17925000D01*
G75*
G02*
X16975000Y-17875000I50000J0D01*
G01*
X18475000Y-17875000D01*
G75*
G02*
X18525000Y-17925000I0J-50000D01*
G01*
G37*
G36*
G01*
X18525000Y-18925000D02*
X18525000Y-19625000D01*
G75*
G02*
X18475000Y-19675000I-50000J0D01*
G01*
X16975000Y-19675000D01*
G75*
G02*
X16925000Y-19625000I0J50000D01*
G01*
X16925000Y-18925000D01*
G75*
G02*
X16975000Y-18875000I50000J0D01*
G01*
X18475000Y-18875000D01*
G75*
G02*
X18525000Y-18925000I0J-50000D01*
G01*
G37*
G36*
G01*
X16425000Y-20375000D02*
X15725000Y-20375000D01*
G75*
G02*
X15675000Y-20325000I0J50000D01*
G01*
X15675000Y-18825000D01*
G75*
G02*
X15725000Y-18775000I50000J0D01*
G01*
X16425000Y-18775000D01*
G75*
G02*
X16475000Y-18825000I0J-50000D01*
G01*
X16475000Y-20325000D01*
G75*
G02*
X16425000Y-20375000I-50000J0D01*
G01*
G37*
G36*
G01*
X15425000Y-20375000D02*
X14725000Y-20375000D01*
G75*
G02*
X14675000Y-20325000I0J50000D01*
G01*
X14675000Y-18825000D01*
G75*
G02*
X14725000Y-18775000I50000J0D01*
G01*
X15425000Y-18775000D01*
G75*
G02*
X15475000Y-18825000I0J-50000D01*
G01*
X15475000Y-20325000D01*
G75*
G02*
X15425000Y-20375000I-50000J0D01*
G01*
G37*
G36*
G01*
X14425000Y-20375000D02*
X13725000Y-20375000D01*
G75*
G02*
X13675000Y-20325000I0J50000D01*
G01*
X13675000Y-18825000D01*
G75*
G02*
X13725000Y-18775000I50000J0D01*
G01*
X14425000Y-18775000D01*
G75*
G02*
X14475000Y-18825000I0J-50000D01*
G01*
X14475000Y-20325000D01*
G75*
G02*
X14425000Y-20375000I-50000J0D01*
G01*
G37*
G36*
G01*
X13425000Y-20375000D02*
X12725000Y-20375000D01*
G75*
G02*
X12675000Y-20325000I0J50000D01*
G01*
X12675000Y-18825000D01*
G75*
G02*
X12725000Y-18775000I50000J0D01*
G01*
X13425000Y-18775000D01*
G75*
G02*
X13475000Y-18825000I0J-50000D01*
G01*
X13475000Y-20325000D01*
G75*
G02*
X13425000Y-20375000I-50000J0D01*
G01*
G37*
G36*
G01*
X12425000Y-20375000D02*
X11725000Y-20375000D01*
G75*
G02*
X11675000Y-20325000I0J50000D01*
G01*
X11675000Y-18825000D01*
G75*
G02*
X11725000Y-18775000I50000J0D01*
G01*
X12425000Y-18775000D01*
G75*
G02*
X12475000Y-18825000I0J-50000D01*
G01*
X12475000Y-20325000D01*
G75*
G02*
X12425000Y-20375000I-50000J0D01*
G01*
G37*
G36*
G01*
X9625000Y-19625000D02*
X9625000Y-18925000D01*
G75*
G02*
X9675000Y-18875000I50000J0D01*
G01*
X11175000Y-18875000D01*
G75*
G02*
X11225000Y-18925000I0J-50000D01*
G01*
X11225000Y-19625000D01*
G75*
G02*
X11175000Y-19675000I-50000J0D01*
G01*
X9675000Y-19675000D01*
G75*
G02*
X9625000Y-19625000I0J50000D01*
G01*
G37*
G36*
G01*
X9625000Y-18625000D02*
X9625000Y-17925000D01*
G75*
G02*
X9675000Y-17875000I50000J0D01*
G01*
X11175000Y-17875000D01*
G75*
G02*
X11225000Y-17925000I0J-50000D01*
G01*
X11225000Y-18625000D01*
G75*
G02*
X11175000Y-18675000I-50000J0D01*
G01*
X9675000Y-18675000D01*
G75*
G02*
X9625000Y-18625000I0J50000D01*
G01*
G37*
G36*
G01*
X9625000Y-17625000D02*
X9625000Y-16925000D01*
G75*
G02*
X9675000Y-16875000I50000J0D01*
G01*
X11175000Y-16875000D01*
G75*
G02*
X11225000Y-16925000I0J-50000D01*
G01*
X11225000Y-17625000D01*
G75*
G02*
X11175000Y-17675000I-50000J0D01*
G01*
X9675000Y-17675000D01*
G75*
G02*
X9625000Y-17625000I0J50000D01*
G01*
G37*
G36*
G01*
X9625000Y-16625000D02*
X9625000Y-15925000D01*
G75*
G02*
X9675000Y-15875000I50000J0D01*
G01*
X11175000Y-15875000D01*
G75*
G02*
X11225000Y-15925000I0J-50000D01*
G01*
X11225000Y-16625000D01*
G75*
G02*
X11175000Y-16675000I-50000J0D01*
G01*
X9675000Y-16675000D01*
G75*
G02*
X9625000Y-16625000I0J50000D01*
G01*
G37*
G36*
G01*
X9625000Y-15625000D02*
X9625000Y-14925000D01*
G75*
G02*
X9675000Y-14875000I50000J0D01*
G01*
X11175000Y-14875000D01*
G75*
G02*
X11225000Y-14925000I0J-50000D01*
G01*
X11225000Y-15625000D01*
G75*
G02*
X11175000Y-15675000I-50000J0D01*
G01*
X9675000Y-15675000D01*
G75*
G02*
X9625000Y-15625000I0J50000D01*
G01*
G37*
G36*
G01*
X9625000Y-14625000D02*
X9625000Y-13925000D01*
G75*
G02*
X9675000Y-13875000I50000J0D01*
G01*
X11175000Y-13875000D01*
G75*
G02*
X11225000Y-13925000I0J-50000D01*
G01*
X11225000Y-14625000D01*
G75*
G02*
X11175000Y-14675000I-50000J0D01*
G01*
X9675000Y-14675000D01*
G75*
G02*
X9625000Y-14625000I0J50000D01*
G01*
G37*
G36*
G01*
X9625000Y-13625000D02*
X9625000Y-12925000D01*
G75*
G02*
X9675000Y-12875000I50000J0D01*
G01*
X11175000Y-12875000D01*
G75*
G02*
X11225000Y-12925000I0J-50000D01*
G01*
X11225000Y-13625000D01*
G75*
G02*
X11175000Y-13675000I-50000J0D01*
G01*
X9675000Y-13675000D01*
G75*
G02*
X9625000Y-13625000I0J50000D01*
G01*
G37*
G36*
G01*
X9625000Y-12625000D02*
X9625000Y-11925000D01*
G75*
G02*
X9675000Y-11875000I50000J0D01*
G01*
X11175000Y-11875000D01*
G75*
G02*
X11225000Y-11925000I0J-50000D01*
G01*
X11225000Y-12625000D01*
G75*
G02*
X11175000Y-12675000I-50000J0D01*
G01*
X9675000Y-12675000D01*
G75*
G02*
X9625000Y-12625000I0J50000D01*
G01*
G37*
G36*
G01*
X9625000Y-11625000D02*
X9625000Y-10925000D01*
G75*
G02*
X9675000Y-10875000I50000J0D01*
G01*
X11175000Y-10875000D01*
G75*
G02*
X11225000Y-10925000I0J-50000D01*
G01*
X11225000Y-11625000D01*
G75*
G02*
X11175000Y-11675000I-50000J0D01*
G01*
X9675000Y-11675000D01*
G75*
G02*
X9625000Y-11625000I0J50000D01*
G01*
G37*
G36*
G01*
X16306250Y-23875000D02*
X16906250Y-23875000D01*
G75*
G02*
X16956250Y-23925000I0J-50000D01*
G01*
X16956250Y-24425000D01*
G75*
G02*
X16906250Y-24475000I-50000J0D01*
G01*
X16306250Y-24475000D01*
G75*
G02*
X16256250Y-24425000I0J50000D01*
G01*
X16256250Y-23925000D01*
G75*
G02*
X16306250Y-23875000I50000J0D01*
G01*
G37*
G36*
G01*
X16306250Y-22875000D02*
X16906250Y-22875000D01*
G75*
G02*
X16956250Y-22925000I0J-50000D01*
G01*
X16956250Y-23425000D01*
G75*
G02*
X16906250Y-23475000I-50000J0D01*
G01*
X16306250Y-23475000D01*
G75*
G02*
X16256250Y-23425000I0J50000D01*
G01*
X16256250Y-22925000D01*
G75*
G02*
X16306250Y-22875000I50000J0D01*
G01*
G37*
G36*
G01*
X19450000Y-5700000D02*
X18850000Y-5700000D01*
G75*
G02*
X18800000Y-5650000I0J50000D01*
G01*
X18800000Y-5150000D01*
G75*
G02*
X18850000Y-5100000I50000J0D01*
G01*
X19450000Y-5100000D01*
G75*
G02*
X19500000Y-5150000I0J-50000D01*
G01*
X19500000Y-5650000D01*
G75*
G02*
X19450000Y-5700000I-50000J0D01*
G01*
G37*
G36*
G01*
X19450000Y-6700000D02*
X18850000Y-6700000D01*
G75*
G02*
X18800000Y-6650000I0J50000D01*
G01*
X18800000Y-6150000D01*
G75*
G02*
X18850000Y-6100000I50000J0D01*
G01*
X19450000Y-6100000D01*
G75*
G02*
X19500000Y-6150000I0J-50000D01*
G01*
X19500000Y-6650000D01*
G75*
G02*
X19450000Y-6700000I-50000J0D01*
G01*
G37*
G36*
G01*
X16912500Y-5700000D02*
X16312500Y-5700000D01*
G75*
G02*
X16262500Y-5650000I0J50000D01*
G01*
X16262500Y-5150000D01*
G75*
G02*
X16312500Y-5100000I50000J0D01*
G01*
X16912500Y-5100000D01*
G75*
G02*
X16962500Y-5150000I0J-50000D01*
G01*
X16962500Y-5650000D01*
G75*
G02*
X16912500Y-5700000I-50000J0D01*
G01*
G37*
G36*
G01*
X16912500Y-6700000D02*
X16312500Y-6700000D01*
G75*
G02*
X16262500Y-6650000I0J50000D01*
G01*
X16262500Y-6150000D01*
G75*
G02*
X16312500Y-6100000I50000J0D01*
G01*
X16912500Y-6100000D01*
G75*
G02*
X16962500Y-6150000I0J-50000D01*
G01*
X16962500Y-6650000D01*
G75*
G02*
X16912500Y-6700000I-50000J0D01*
G01*
G37*
D12*
X34510000Y-5900000D03*
G36*
G01*
X36300000Y-5100000D02*
X37800000Y-5100000D01*
G75*
G02*
X37850000Y-5150000I0J-50000D01*
G01*
X37850000Y-6650000D01*
G75*
G02*
X37800000Y-6700000I-50000J0D01*
G01*
X36300000Y-6700000D01*
G75*
G02*
X36250000Y-6650000I0J50000D01*
G01*
X36250000Y-5150000D01*
G75*
G02*
X36300000Y-5100000I50000J0D01*
G01*
G37*
X37065000Y-14315000D03*
X34525000Y-14315000D03*
X37065000Y-16855000D03*
X34525000Y-16855000D03*
X37065000Y-19395000D03*
X34525000Y-19395000D03*
X37065000Y-21935000D03*
X34525000Y-21935000D03*
X37065000Y-24475000D03*
G36*
G01*
X33725000Y-25225000D02*
X33725000Y-23725000D01*
G75*
G02*
X33775000Y-23675000I50000J0D01*
G01*
X35275000Y-23675000D01*
G75*
G02*
X35325000Y-23725000I0J-50000D01*
G01*
X35325000Y-25225000D01*
G75*
G02*
X35275000Y-25275000I-50000J0D01*
G01*
X33775000Y-25275000D01*
G75*
G02*
X33725000Y-25225000I0J50000D01*
G01*
G37*
M02*
