G04 #@! TF.GenerationSoftware,KiCad,Pcbnew,5.1.10*
G04 #@! TF.CreationDate,2021-08-13T17:50:11+08:00*
G04 #@! TF.ProjectId,kudo-printer,6b75646f-2d70-4726-996e-7465722e6b69,rev?*
G04 #@! TF.SameCoordinates,PX2160ec0PY2255100*
G04 #@! TF.FileFunction,Paste,Top*
G04 #@! TF.FilePolarity,Positive*
%FSLAX46Y46*%
G04 Gerber Fmt 4.6, Leading zero omitted, Abs format (unit mm)*
G04 Created by KiCad (PCBNEW 5.1.10) date 2021-08-13 17:50:11*
%MOMM*%
%LPD*%
G01*
G04 APERTURE LIST*
%ADD10R,0.600000X0.500000*%
%ADD11R,0.500000X0.600000*%
%ADD12R,0.700000X0.670000*%
%ADD13R,0.700000X1.500000*%
%ADD14R,1.500000X0.700000*%
G04 APERTURE END LIST*
D10*
X11537500Y-5400000D03*
X11537500Y-6400000D03*
D11*
X23200000Y-23700000D03*
X22200000Y-23700000D03*
X23200000Y-13539284D03*
X22200000Y-13539284D03*
X23200000Y-16085712D03*
X22200000Y-16085712D03*
X23200000Y-18632140D03*
X22200000Y-18632140D03*
X23200000Y-21178568D03*
X22200000Y-21178568D03*
D10*
X14062500Y-24175000D03*
X14062500Y-23175000D03*
X9000000Y-5400000D03*
X9000000Y-6400000D03*
D11*
X5450000Y-16071428D03*
X6450000Y-16071428D03*
X5450000Y-13528571D03*
X6450000Y-13528571D03*
X5450000Y-5900000D03*
X6450000Y-5900000D03*
X5450000Y-23700000D03*
X6450000Y-23700000D03*
D10*
X14075000Y-5400000D03*
X14075000Y-6400000D03*
D11*
X5450000Y-10985714D03*
X6450000Y-10985714D03*
D10*
X8975000Y-24175000D03*
X8975000Y-23175000D03*
X19150000Y-24175000D03*
X19150000Y-23175000D03*
D11*
X23200000Y-5900000D03*
X22200000Y-5900000D03*
X23200000Y-8446428D03*
X22200000Y-8446428D03*
X23200000Y-10992856D03*
X22200000Y-10992856D03*
X5450000Y-8442857D03*
X6450000Y-8442857D03*
D10*
X11518750Y-24175000D03*
X11518750Y-23175000D03*
D11*
X5450000Y-18614285D03*
X6450000Y-18614285D03*
X5450000Y-21157142D03*
X6450000Y-21157142D03*
D12*
X4975000Y-26225000D03*
X3775000Y-26225000D03*
D11*
X4675000Y-5900000D03*
X3675000Y-5900000D03*
X4675000Y-8442857D03*
X3675000Y-8442857D03*
X4675000Y-10985714D03*
X3675000Y-10985714D03*
X4675000Y-13528571D03*
X3675000Y-13528571D03*
X4675000Y-16071428D03*
X3675000Y-16071428D03*
X4675000Y-18614285D03*
X3675000Y-18614285D03*
X4675000Y-21157142D03*
X3675000Y-21157142D03*
X4675000Y-23700000D03*
X3675000Y-23700000D03*
D10*
X9000000Y-4625000D03*
X9000000Y-3625000D03*
X8975000Y-24950000D03*
X8975000Y-25950000D03*
X11537500Y-4625000D03*
X11537500Y-3625000D03*
X11518750Y-24950000D03*
X11518750Y-25950000D03*
X14075000Y-4625000D03*
X14075000Y-3625000D03*
X14062500Y-24950000D03*
X14062500Y-25950000D03*
X16612500Y-4625000D03*
X16612500Y-3625000D03*
X16606250Y-24950000D03*
X16606250Y-25950000D03*
X19150000Y-4625000D03*
X19150000Y-3625000D03*
X19150000Y-24950000D03*
X19150000Y-25950000D03*
D11*
X23975000Y-5900000D03*
X24975000Y-5900000D03*
X23975000Y-8442857D03*
X24975000Y-8442857D03*
X23975000Y-10985714D03*
X24975000Y-10985714D03*
X23975000Y-13528571D03*
X24975000Y-13528571D03*
X23975000Y-16071428D03*
X24975000Y-16071428D03*
X23975000Y-18614285D03*
X24975000Y-18614285D03*
X23975000Y-21175000D03*
X24975000Y-21175000D03*
X23975000Y-23700000D03*
X24975000Y-23700000D03*
D13*
X12075000Y-10975000D03*
X13075000Y-10975000D03*
X14075000Y-10975000D03*
X15075000Y-10975000D03*
X16075000Y-10975000D03*
D14*
X17725000Y-11275000D03*
X17725000Y-12275000D03*
X17725000Y-13275000D03*
X17725000Y-14275000D03*
X17725000Y-15275000D03*
X17725000Y-16275000D03*
X17725000Y-17275000D03*
X17725000Y-18275000D03*
X17725000Y-19275000D03*
D13*
X16075000Y-19575000D03*
X15075000Y-19575000D03*
X14075000Y-19575000D03*
X13075000Y-19575000D03*
X12075000Y-19575000D03*
D14*
X10425000Y-19275000D03*
X10425000Y-18275000D03*
X10425000Y-17275000D03*
X10425000Y-16275000D03*
X10425000Y-15275000D03*
X10425000Y-14275000D03*
X10425000Y-13275000D03*
X10425000Y-12275000D03*
X10425000Y-11275000D03*
D10*
X16606250Y-24175000D03*
X16606250Y-23175000D03*
X19150000Y-5400000D03*
X19150000Y-6400000D03*
X16612500Y-5400000D03*
X16612500Y-6400000D03*
M02*
