M48
; DRILL file {KiCad 5.1.10} date Fri Aug 13 17:50:14 2021
; FORMAT={-:-/ absolute / metric / decimal}
; #@! TF.CreationDate,2021-08-13T17:50:14+08:00
; #@! TF.GenerationSoftware,Kicad,Pcbnew,5.1.10
; #@! TF.FileFunction,Plated,1,2,PTH
FMAT,2
METRIC
T1C0.300
T2C0.838
T3C1.000
%
G90
G05
T1
X1.625Y-1.575
X3.675Y-5.275
X3.675Y-9.075
X3.675Y-11.6
X3.675Y-14.15
X3.675Y-16.7
X3.675Y-19.25
X3.675Y-21.775
X3.675Y-24.325
X5.65Y-26.225
X8.35Y-25.95
X8.375Y-3.625
X10.9Y-25.95
X10.925Y-3.625
X13.425Y-25.95
X13.45Y-3.625
X14.075Y-15.275
X15.975Y-25.95
X16.0Y-3.625
X17.725Y-19.975
X18.525Y-25.95
X19.775Y-3.625
X24.975Y-5.275
X24.975Y-9.075
X24.975Y-11.6
X24.975Y-14.15
X24.975Y-16.7
X24.975Y-19.25
X24.975Y-21.8
X24.975Y-24.325
T2
X34.51Y-5.9
X34.525Y-14.315
X34.525Y-16.855
X34.525Y-19.395
X34.525Y-21.935
X34.525Y-24.475
X37.05Y-5.9
X37.065Y-14.315
X37.065Y-16.855
X37.065Y-19.395
X37.065Y-21.935
X37.065Y-24.475
T3
X1.625Y-5.9
X1.625Y-8.44
X1.625Y-10.98
X1.625Y-13.52
X1.625Y-16.06
X1.625Y-18.6
X1.625Y-21.14
X1.625Y-23.68
X1.625Y-26.22
X8.98Y-28.0
X8.985Y-1.575
X11.52Y-28.0
X11.525Y-1.575
X14.06Y-28.0
X14.065Y-1.575
X16.6Y-28.0
X16.605Y-1.575
X19.14Y-28.0
X19.145Y-1.575
X27.025Y-5.905
X27.025Y-8.445
X27.025Y-10.985
X27.025Y-13.525
X27.025Y-16.065
X27.025Y-18.605
X27.025Y-21.145
X27.025Y-23.685
X27.025Y-26.225
T0
M30
