G04 #@! TF.GenerationSoftware,KiCad,Pcbnew,5.1.10*
G04 #@! TF.CreationDate,2021-08-13T17:50:11+08:00*
G04 #@! TF.ProjectId,kudo-printer,6b75646f-2d70-4726-996e-7465722e6b69,rev?*
G04 #@! TF.SameCoordinates,PX2160ec0PY2255100*
G04 #@! TF.FileFunction,Copper,L2,Bot*
G04 #@! TF.FilePolarity,Positive*
%FSLAX46Y46*%
G04 Gerber Fmt 4.6, Leading zero omitted, Abs format (unit mm)*
G04 Created by KiCad (PCBNEW 5.1.10) date 2021-08-13 17:50:11*
%MOMM*%
%LPD*%
G01*
G04 APERTURE LIST*
G04 #@! TA.AperFunction,ComponentPad*
%ADD10O,1.700000X1.700000*%
G04 #@! TD*
G04 #@! TA.AperFunction,ComponentPad*
%ADD11R,1.700000X1.700000*%
G04 #@! TD*
G04 #@! TA.AperFunction,ComponentPad*
%ADD12O,1.500000X1.500000*%
G04 #@! TD*
G04 #@! TA.AperFunction,ComponentPad*
%ADD13R,1.500000X1.500000*%
G04 #@! TD*
G04 #@! TA.AperFunction,ViaPad*
%ADD14C,0.600000*%
G04 #@! TD*
G04 #@! TA.AperFunction,Conductor*
%ADD15C,0.160000*%
G04 #@! TD*
G04 #@! TA.AperFunction,Conductor*
%ADD16C,0.300000*%
G04 #@! TD*
G04 #@! TA.AperFunction,Conductor*
%ADD17C,0.100000*%
G04 #@! TD*
G04 APERTURE END LIST*
D10*
X1625000Y-26220000D03*
X1625000Y-23680000D03*
X1625000Y-21140000D03*
X1625000Y-18600000D03*
X1625000Y-16060000D03*
X1625000Y-13520000D03*
X1625000Y-10980000D03*
X1625000Y-8440000D03*
D11*
X1625000Y-5900000D03*
D10*
X8985000Y-1575000D03*
X11525000Y-1575000D03*
X14065000Y-1575000D03*
X16605000Y-1575000D03*
D11*
X19145000Y-1575000D03*
D10*
X19140000Y-28000000D03*
X16600000Y-28000000D03*
X14060000Y-28000000D03*
X11520000Y-28000000D03*
D11*
X8980000Y-28000000D03*
D10*
X27025000Y-5905000D03*
X27025000Y-8445000D03*
X27025000Y-10985000D03*
X27025000Y-13525000D03*
X27025000Y-16065000D03*
X27025000Y-18605000D03*
X27025000Y-21145000D03*
X27025000Y-23685000D03*
D11*
X27025000Y-26225000D03*
D12*
X34510000Y-5900000D03*
D13*
X37050000Y-5900000D03*
D12*
X37065000Y-14315000D03*
X34525000Y-14315000D03*
X37065000Y-16855000D03*
X34525000Y-16855000D03*
X37065000Y-19395000D03*
X34525000Y-19395000D03*
X37065000Y-21935000D03*
X34525000Y-21935000D03*
X37065000Y-24475000D03*
D13*
X34525000Y-24475000D03*
D14*
X17725000Y-19975000D03*
X5650000Y-26225000D03*
X14075000Y-15275000D03*
X1625000Y-1575000D03*
X3675000Y-9075000D03*
X3675000Y-11600000D03*
X3675000Y-14150000D03*
X3675000Y-16700000D03*
X3675000Y-19250000D03*
X3675000Y-21775000D03*
X3675000Y-24325000D03*
X24975000Y-9075000D03*
X24975000Y-11600000D03*
X24975000Y-14150000D03*
X24975000Y-16700000D03*
X24975000Y-19250000D03*
X24975000Y-21800000D03*
X24975000Y-24325000D03*
X18525000Y-25950000D03*
X15975000Y-25950000D03*
X13425000Y-25950000D03*
X10900000Y-25950000D03*
X8350000Y-25950000D03*
X8375000Y-3625000D03*
X10925000Y-3625000D03*
X13450000Y-3625000D03*
X16000000Y-3625000D03*
X24975000Y-5275000D03*
X19775000Y-3625000D03*
X3675000Y-5275000D03*
D15*
X8350000Y-25950000D02*
X10900000Y-25950000D01*
X10900000Y-25950000D02*
X18525000Y-25950000D01*
X24975000Y-5275000D02*
X24975000Y-24325000D01*
X8375000Y-3625000D02*
X19775000Y-3625000D01*
X3675000Y-24325000D02*
X3675000Y-5275000D01*
D16*
X1625000Y-26220000D02*
X2305000Y-26900000D01*
X2305000Y-26900000D02*
X7725000Y-26900000D01*
X7725000Y-26900000D02*
X7900000Y-26725000D01*
X7900000Y-26725000D02*
X22475000Y-26725000D01*
X22475000Y-26725000D02*
X23650000Y-27900000D01*
X23650000Y-27900000D02*
X37575000Y-27900000D01*
X37575000Y-27900000D02*
X38375000Y-27100000D01*
X38375000Y-23245000D02*
X37065000Y-21935000D01*
X38375000Y-27100000D02*
X38375000Y-23245000D01*
D17*
X39675000Y-29175000D02*
X325000Y-29175000D01*
X325000Y-26111659D01*
X525000Y-26111659D01*
X525000Y-26328341D01*
X567273Y-26540858D01*
X650193Y-26741045D01*
X770575Y-26921209D01*
X923791Y-27074425D01*
X1103955Y-27194807D01*
X1304142Y-27277727D01*
X1516659Y-27320000D01*
X1733341Y-27320000D01*
X1945858Y-27277727D01*
X2071383Y-27225733D01*
X2081697Y-27234197D01*
X2151186Y-27271340D01*
X2226586Y-27294212D01*
X2285353Y-27300000D01*
X2285363Y-27300000D01*
X2304999Y-27301934D01*
X2324635Y-27300000D01*
X7705354Y-27300000D01*
X7725000Y-27301935D01*
X7744646Y-27300000D01*
X7744647Y-27300000D01*
X7803414Y-27294212D01*
X7878791Y-27271347D01*
X7878791Y-28850000D01*
X7883618Y-28899008D01*
X7897913Y-28946134D01*
X7921127Y-28989564D01*
X7952368Y-29027632D01*
X7990436Y-29058873D01*
X8033866Y-29082087D01*
X8080992Y-29096382D01*
X8130000Y-29101209D01*
X9830000Y-29101209D01*
X9879008Y-29096382D01*
X9926134Y-29082087D01*
X9969564Y-29058873D01*
X10007632Y-29027632D01*
X10038873Y-28989564D01*
X10062087Y-28946134D01*
X10076382Y-28899008D01*
X10081209Y-28850000D01*
X10081209Y-27150000D01*
X10078747Y-27125000D01*
X10849584Y-27125000D01*
X10818791Y-27145575D01*
X10665575Y-27298791D01*
X10545193Y-27478955D01*
X10462273Y-27679142D01*
X10420000Y-27891659D01*
X10420000Y-28108341D01*
X10462273Y-28320858D01*
X10545193Y-28521045D01*
X10665575Y-28701209D01*
X10818791Y-28854425D01*
X10998955Y-28974807D01*
X11199142Y-29057727D01*
X11411659Y-29100000D01*
X11628341Y-29100000D01*
X11840858Y-29057727D01*
X12041045Y-28974807D01*
X12221209Y-28854425D01*
X12374425Y-28701209D01*
X12494807Y-28521045D01*
X12577727Y-28320858D01*
X12620000Y-28108341D01*
X12620000Y-27891659D01*
X12577727Y-27679142D01*
X12494807Y-27478955D01*
X12374425Y-27298791D01*
X12221209Y-27145575D01*
X12190416Y-27125000D01*
X13389584Y-27125000D01*
X13358791Y-27145575D01*
X13205575Y-27298791D01*
X13085193Y-27478955D01*
X13002273Y-27679142D01*
X12960000Y-27891659D01*
X12960000Y-28108341D01*
X13002273Y-28320858D01*
X13085193Y-28521045D01*
X13205575Y-28701209D01*
X13358791Y-28854425D01*
X13538955Y-28974807D01*
X13739142Y-29057727D01*
X13951659Y-29100000D01*
X14168341Y-29100000D01*
X14380858Y-29057727D01*
X14581045Y-28974807D01*
X14761209Y-28854425D01*
X14914425Y-28701209D01*
X15034807Y-28521045D01*
X15117727Y-28320858D01*
X15160000Y-28108341D01*
X15160000Y-27891659D01*
X15117727Y-27679142D01*
X15034807Y-27478955D01*
X14914425Y-27298791D01*
X14761209Y-27145575D01*
X14730416Y-27125000D01*
X15929584Y-27125000D01*
X15898791Y-27145575D01*
X15745575Y-27298791D01*
X15625193Y-27478955D01*
X15542273Y-27679142D01*
X15500000Y-27891659D01*
X15500000Y-28108341D01*
X15542273Y-28320858D01*
X15625193Y-28521045D01*
X15745575Y-28701209D01*
X15898791Y-28854425D01*
X16078955Y-28974807D01*
X16279142Y-29057727D01*
X16491659Y-29100000D01*
X16708341Y-29100000D01*
X16920858Y-29057727D01*
X17121045Y-28974807D01*
X17301209Y-28854425D01*
X17454425Y-28701209D01*
X17574807Y-28521045D01*
X17657727Y-28320858D01*
X17700000Y-28108341D01*
X17700000Y-27891659D01*
X17657727Y-27679142D01*
X17574807Y-27478955D01*
X17454425Y-27298791D01*
X17301209Y-27145575D01*
X17270416Y-27125000D01*
X18469584Y-27125000D01*
X18438791Y-27145575D01*
X18285575Y-27298791D01*
X18165193Y-27478955D01*
X18082273Y-27679142D01*
X18040000Y-27891659D01*
X18040000Y-28108341D01*
X18082273Y-28320858D01*
X18165193Y-28521045D01*
X18285575Y-28701209D01*
X18438791Y-28854425D01*
X18618955Y-28974807D01*
X18819142Y-29057727D01*
X19031659Y-29100000D01*
X19248341Y-29100000D01*
X19460858Y-29057727D01*
X19661045Y-28974807D01*
X19841209Y-28854425D01*
X19994425Y-28701209D01*
X20114807Y-28521045D01*
X20197727Y-28320858D01*
X20240000Y-28108341D01*
X20240000Y-27891659D01*
X20197727Y-27679142D01*
X20114807Y-27478955D01*
X19994425Y-27298791D01*
X19841209Y-27145575D01*
X19810416Y-27125000D01*
X22309315Y-27125000D01*
X23353267Y-28168953D01*
X23365789Y-28184211D01*
X23381047Y-28196733D01*
X23381049Y-28196735D01*
X23426697Y-28234197D01*
X23496186Y-28271340D01*
X23571586Y-28294212D01*
X23650000Y-28301935D01*
X23669646Y-28300000D01*
X37555354Y-28300000D01*
X37575000Y-28301935D01*
X37594646Y-28300000D01*
X37594647Y-28300000D01*
X37653414Y-28294212D01*
X37728814Y-28271340D01*
X37798303Y-28234197D01*
X37859211Y-28184211D01*
X37871737Y-28168948D01*
X38643954Y-27396732D01*
X38659211Y-27384211D01*
X38709197Y-27323303D01*
X38736973Y-27271339D01*
X38746340Y-27253815D01*
X38769212Y-27178414D01*
X38771444Y-27155752D01*
X38775000Y-27119647D01*
X38775000Y-27119646D01*
X38776935Y-27100000D01*
X38775000Y-27080353D01*
X38775000Y-23264647D01*
X38776935Y-23245000D01*
X38769212Y-23166586D01*
X38746340Y-23091186D01*
X38709197Y-23021697D01*
X38671735Y-22976049D01*
X38671733Y-22976047D01*
X38659211Y-22960789D01*
X38643953Y-22948267D01*
X37996053Y-22300367D01*
X38026571Y-22226689D01*
X38065000Y-22033491D01*
X38065000Y-21836509D01*
X38026571Y-21643311D01*
X37951189Y-21461322D01*
X37841751Y-21297537D01*
X37702463Y-21158249D01*
X37538678Y-21048811D01*
X37356689Y-20973429D01*
X37163491Y-20935000D01*
X36966509Y-20935000D01*
X36773311Y-20973429D01*
X36591322Y-21048811D01*
X36427537Y-21158249D01*
X36288249Y-21297537D01*
X36178811Y-21461322D01*
X36103429Y-21643311D01*
X36065000Y-21836509D01*
X36065000Y-22033491D01*
X36103429Y-22226689D01*
X36178811Y-22408678D01*
X36288249Y-22572463D01*
X36427537Y-22711751D01*
X36591322Y-22821189D01*
X36773311Y-22896571D01*
X36966509Y-22935000D01*
X37163491Y-22935000D01*
X37356689Y-22896571D01*
X37430367Y-22866053D01*
X37975001Y-23410687D01*
X37975001Y-24169563D01*
X37973946Y-24166085D01*
X37896215Y-23994694D01*
X37786540Y-23841761D01*
X37649137Y-23713163D01*
X37489286Y-23613842D01*
X37313130Y-23547615D01*
X37165000Y-23572717D01*
X37165000Y-24375000D01*
X37185000Y-24375000D01*
X37185000Y-24575000D01*
X37165000Y-24575000D01*
X37165000Y-25377283D01*
X37313130Y-25402385D01*
X37489286Y-25336158D01*
X37649137Y-25236837D01*
X37786540Y-25108239D01*
X37896215Y-24955306D01*
X37973946Y-24783915D01*
X37975001Y-24780437D01*
X37975000Y-26934314D01*
X37409315Y-27500000D01*
X23815686Y-27500000D01*
X23390686Y-27075000D01*
X25963984Y-27075000D01*
X25968039Y-27116167D01*
X25980047Y-27155752D01*
X25999547Y-27192234D01*
X26025789Y-27224211D01*
X26057766Y-27250453D01*
X26094248Y-27269953D01*
X26133833Y-27281961D01*
X26175000Y-27286016D01*
X26872500Y-27285000D01*
X26925000Y-27232500D01*
X26925000Y-26325000D01*
X27125000Y-26325000D01*
X27125000Y-27232500D01*
X27177500Y-27285000D01*
X27875000Y-27286016D01*
X27916167Y-27281961D01*
X27955752Y-27269953D01*
X27992234Y-27250453D01*
X28024211Y-27224211D01*
X28050453Y-27192234D01*
X28069953Y-27155752D01*
X28081961Y-27116167D01*
X28086016Y-27075000D01*
X28085000Y-26377500D01*
X28032500Y-26325000D01*
X27125000Y-26325000D01*
X26925000Y-26325000D01*
X26017500Y-26325000D01*
X25965000Y-26377500D01*
X25963984Y-27075000D01*
X23390686Y-27075000D01*
X22771737Y-26456052D01*
X22759211Y-26440789D01*
X22698303Y-26390803D01*
X22628814Y-26353660D01*
X22553414Y-26330788D01*
X22494647Y-26325000D01*
X22494646Y-26325000D01*
X22475000Y-26323065D01*
X22455354Y-26325000D01*
X18927817Y-26325000D01*
X18952213Y-26300604D01*
X19012403Y-26210523D01*
X19053864Y-26110429D01*
X19075000Y-26004170D01*
X19075000Y-25895830D01*
X19053864Y-25789571D01*
X19012403Y-25689477D01*
X18952213Y-25599396D01*
X18875604Y-25522787D01*
X18785523Y-25462597D01*
X18685429Y-25421136D01*
X18579170Y-25400000D01*
X18470830Y-25400000D01*
X18364571Y-25421136D01*
X18264477Y-25462597D01*
X18174396Y-25522787D01*
X18097787Y-25599396D01*
X18084020Y-25620000D01*
X16415980Y-25620000D01*
X16402213Y-25599396D01*
X16325604Y-25522787D01*
X16235523Y-25462597D01*
X16135429Y-25421136D01*
X16029170Y-25400000D01*
X15920830Y-25400000D01*
X15814571Y-25421136D01*
X15714477Y-25462597D01*
X15624396Y-25522787D01*
X15547787Y-25599396D01*
X15534020Y-25620000D01*
X13865980Y-25620000D01*
X13852213Y-25599396D01*
X13775604Y-25522787D01*
X13685523Y-25462597D01*
X13585429Y-25421136D01*
X13479170Y-25400000D01*
X13370830Y-25400000D01*
X13264571Y-25421136D01*
X13164477Y-25462597D01*
X13074396Y-25522787D01*
X12997787Y-25599396D01*
X12984020Y-25620000D01*
X11340980Y-25620000D01*
X11327213Y-25599396D01*
X11250604Y-25522787D01*
X11160523Y-25462597D01*
X11060429Y-25421136D01*
X10954170Y-25400000D01*
X10845830Y-25400000D01*
X10739571Y-25421136D01*
X10639477Y-25462597D01*
X10549396Y-25522787D01*
X10472787Y-25599396D01*
X10459020Y-25620000D01*
X8790980Y-25620000D01*
X8777213Y-25599396D01*
X8700604Y-25522787D01*
X8610523Y-25462597D01*
X8510429Y-25421136D01*
X8404170Y-25400000D01*
X8295830Y-25400000D01*
X8189571Y-25421136D01*
X8089477Y-25462597D01*
X7999396Y-25522787D01*
X7922787Y-25599396D01*
X7862597Y-25689477D01*
X7821136Y-25789571D01*
X7800000Y-25895830D01*
X7800000Y-26004170D01*
X7821136Y-26110429D01*
X7862597Y-26210523D01*
X7922787Y-26300604D01*
X7947183Y-26325000D01*
X7919635Y-26325000D01*
X7899999Y-26323066D01*
X7880363Y-26325000D01*
X7880353Y-26325000D01*
X7821586Y-26330788D01*
X7746186Y-26353660D01*
X7676697Y-26390803D01*
X7615789Y-26440789D01*
X7603259Y-26456057D01*
X7559316Y-26500000D01*
X2690854Y-26500000D01*
X2725000Y-26328341D01*
X2725000Y-26111659D01*
X2682727Y-25899142D01*
X2599807Y-25698955D01*
X2479425Y-25518791D01*
X2335634Y-25375000D01*
X25963984Y-25375000D01*
X25965000Y-26072500D01*
X26017500Y-26125000D01*
X26925000Y-26125000D01*
X26925000Y-25217500D01*
X27125000Y-25217500D01*
X27125000Y-26125000D01*
X28032500Y-26125000D01*
X28085000Y-26072500D01*
X28086016Y-25375000D01*
X28081961Y-25333833D01*
X28069953Y-25294248D01*
X28050453Y-25257766D01*
X28024211Y-25225789D01*
X27992234Y-25199547D01*
X27955752Y-25180047D01*
X27916167Y-25168039D01*
X27875000Y-25163984D01*
X27177500Y-25165000D01*
X27125000Y-25217500D01*
X26925000Y-25217500D01*
X26872500Y-25165000D01*
X26175000Y-25163984D01*
X26133833Y-25168039D01*
X26094248Y-25180047D01*
X26057766Y-25199547D01*
X26025789Y-25225789D01*
X25999547Y-25257766D01*
X25980047Y-25294248D01*
X25968039Y-25333833D01*
X25963984Y-25375000D01*
X2335634Y-25375000D01*
X2326209Y-25365575D01*
X2146045Y-25245193D01*
X1945858Y-25162273D01*
X1733341Y-25120000D01*
X1516659Y-25120000D01*
X1304142Y-25162273D01*
X1103955Y-25245193D01*
X923791Y-25365575D01*
X770575Y-25518791D01*
X650193Y-25698955D01*
X567273Y-25899142D01*
X525000Y-26111659D01*
X325000Y-26111659D01*
X325000Y-23571659D01*
X525000Y-23571659D01*
X525000Y-23788341D01*
X567273Y-24000858D01*
X650193Y-24201045D01*
X770575Y-24381209D01*
X923791Y-24534425D01*
X1103955Y-24654807D01*
X1304142Y-24737727D01*
X1516659Y-24780000D01*
X1733341Y-24780000D01*
X1945858Y-24737727D01*
X2146045Y-24654807D01*
X2326209Y-24534425D01*
X2479425Y-24381209D01*
X2599807Y-24201045D01*
X2682727Y-24000858D01*
X2725000Y-23788341D01*
X2725000Y-23571659D01*
X2682727Y-23359142D01*
X2599807Y-23158955D01*
X2479425Y-22978791D01*
X2326209Y-22825575D01*
X2146045Y-22705193D01*
X1945858Y-22622273D01*
X1733341Y-22580000D01*
X1516659Y-22580000D01*
X1304142Y-22622273D01*
X1103955Y-22705193D01*
X923791Y-22825575D01*
X770575Y-22978791D01*
X650193Y-23158955D01*
X567273Y-23359142D01*
X525000Y-23571659D01*
X325000Y-23571659D01*
X325000Y-21031659D01*
X525000Y-21031659D01*
X525000Y-21248341D01*
X567273Y-21460858D01*
X650193Y-21661045D01*
X770575Y-21841209D01*
X923791Y-21994425D01*
X1103955Y-22114807D01*
X1304142Y-22197727D01*
X1516659Y-22240000D01*
X1733341Y-22240000D01*
X1945858Y-22197727D01*
X2146045Y-22114807D01*
X2326209Y-21994425D01*
X2479425Y-21841209D01*
X2599807Y-21661045D01*
X2682727Y-21460858D01*
X2725000Y-21248341D01*
X2725000Y-21031659D01*
X2682727Y-20819142D01*
X2599807Y-20618955D01*
X2479425Y-20438791D01*
X2326209Y-20285575D01*
X2146045Y-20165193D01*
X1945858Y-20082273D01*
X1733341Y-20040000D01*
X1516659Y-20040000D01*
X1304142Y-20082273D01*
X1103955Y-20165193D01*
X923791Y-20285575D01*
X770575Y-20438791D01*
X650193Y-20618955D01*
X567273Y-20819142D01*
X525000Y-21031659D01*
X325000Y-21031659D01*
X325000Y-18491659D01*
X525000Y-18491659D01*
X525000Y-18708341D01*
X567273Y-18920858D01*
X650193Y-19121045D01*
X770575Y-19301209D01*
X923791Y-19454425D01*
X1103955Y-19574807D01*
X1304142Y-19657727D01*
X1516659Y-19700000D01*
X1733341Y-19700000D01*
X1945858Y-19657727D01*
X2146045Y-19574807D01*
X2326209Y-19454425D01*
X2479425Y-19301209D01*
X2599807Y-19121045D01*
X2682727Y-18920858D01*
X2725000Y-18708341D01*
X2725000Y-18491659D01*
X2682727Y-18279142D01*
X2599807Y-18078955D01*
X2479425Y-17898791D01*
X2326209Y-17745575D01*
X2146045Y-17625193D01*
X1945858Y-17542273D01*
X1733341Y-17500000D01*
X1516659Y-17500000D01*
X1304142Y-17542273D01*
X1103955Y-17625193D01*
X923791Y-17745575D01*
X770575Y-17898791D01*
X650193Y-18078955D01*
X567273Y-18279142D01*
X525000Y-18491659D01*
X325000Y-18491659D01*
X325000Y-15951659D01*
X525000Y-15951659D01*
X525000Y-16168341D01*
X567273Y-16380858D01*
X650193Y-16581045D01*
X770575Y-16761209D01*
X923791Y-16914425D01*
X1103955Y-17034807D01*
X1304142Y-17117727D01*
X1516659Y-17160000D01*
X1733341Y-17160000D01*
X1945858Y-17117727D01*
X2146045Y-17034807D01*
X2326209Y-16914425D01*
X2479425Y-16761209D01*
X2599807Y-16581045D01*
X2682727Y-16380858D01*
X2725000Y-16168341D01*
X2725000Y-15951659D01*
X2682727Y-15739142D01*
X2599807Y-15538955D01*
X2479425Y-15358791D01*
X2326209Y-15205575D01*
X2146045Y-15085193D01*
X1945858Y-15002273D01*
X1733341Y-14960000D01*
X1516659Y-14960000D01*
X1304142Y-15002273D01*
X1103955Y-15085193D01*
X923791Y-15205575D01*
X770575Y-15358791D01*
X650193Y-15538955D01*
X567273Y-15739142D01*
X525000Y-15951659D01*
X325000Y-15951659D01*
X325000Y-13411659D01*
X525000Y-13411659D01*
X525000Y-13628341D01*
X567273Y-13840858D01*
X650193Y-14041045D01*
X770575Y-14221209D01*
X923791Y-14374425D01*
X1103955Y-14494807D01*
X1304142Y-14577727D01*
X1516659Y-14620000D01*
X1733341Y-14620000D01*
X1945858Y-14577727D01*
X2146045Y-14494807D01*
X2326209Y-14374425D01*
X2479425Y-14221209D01*
X2599807Y-14041045D01*
X2682727Y-13840858D01*
X2725000Y-13628341D01*
X2725000Y-13411659D01*
X2682727Y-13199142D01*
X2599807Y-12998955D01*
X2479425Y-12818791D01*
X2326209Y-12665575D01*
X2146045Y-12545193D01*
X1945858Y-12462273D01*
X1733341Y-12420000D01*
X1516659Y-12420000D01*
X1304142Y-12462273D01*
X1103955Y-12545193D01*
X923791Y-12665575D01*
X770575Y-12818791D01*
X650193Y-12998955D01*
X567273Y-13199142D01*
X525000Y-13411659D01*
X325000Y-13411659D01*
X325000Y-10871659D01*
X525000Y-10871659D01*
X525000Y-11088341D01*
X567273Y-11300858D01*
X650193Y-11501045D01*
X770575Y-11681209D01*
X923791Y-11834425D01*
X1103955Y-11954807D01*
X1304142Y-12037727D01*
X1516659Y-12080000D01*
X1733341Y-12080000D01*
X1945858Y-12037727D01*
X2146045Y-11954807D01*
X2326209Y-11834425D01*
X2479425Y-11681209D01*
X2599807Y-11501045D01*
X2682727Y-11300858D01*
X2725000Y-11088341D01*
X2725000Y-10871659D01*
X2682727Y-10659142D01*
X2599807Y-10458955D01*
X2479425Y-10278791D01*
X2326209Y-10125575D01*
X2146045Y-10005193D01*
X1945858Y-9922273D01*
X1733341Y-9880000D01*
X1516659Y-9880000D01*
X1304142Y-9922273D01*
X1103955Y-10005193D01*
X923791Y-10125575D01*
X770575Y-10278791D01*
X650193Y-10458955D01*
X567273Y-10659142D01*
X525000Y-10871659D01*
X325000Y-10871659D01*
X325000Y-8331659D01*
X525000Y-8331659D01*
X525000Y-8548341D01*
X567273Y-8760858D01*
X650193Y-8961045D01*
X770575Y-9141209D01*
X923791Y-9294425D01*
X1103955Y-9414807D01*
X1304142Y-9497727D01*
X1516659Y-9540000D01*
X1733341Y-9540000D01*
X1945858Y-9497727D01*
X2146045Y-9414807D01*
X2326209Y-9294425D01*
X2479425Y-9141209D01*
X2599807Y-8961045D01*
X2682727Y-8760858D01*
X2725000Y-8548341D01*
X2725000Y-8331659D01*
X2682727Y-8119142D01*
X2599807Y-7918955D01*
X2479425Y-7738791D01*
X2326209Y-7585575D01*
X2146045Y-7465193D01*
X1945858Y-7382273D01*
X1733341Y-7340000D01*
X1516659Y-7340000D01*
X1304142Y-7382273D01*
X1103955Y-7465193D01*
X923791Y-7585575D01*
X770575Y-7738791D01*
X650193Y-7918955D01*
X567273Y-8119142D01*
X525000Y-8331659D01*
X325000Y-8331659D01*
X325000Y-5050000D01*
X523791Y-5050000D01*
X523791Y-6750000D01*
X528618Y-6799008D01*
X542913Y-6846134D01*
X566127Y-6889564D01*
X597368Y-6927632D01*
X635436Y-6958873D01*
X678866Y-6982087D01*
X725992Y-6996382D01*
X775000Y-7001209D01*
X2475000Y-7001209D01*
X2524008Y-6996382D01*
X2571134Y-6982087D01*
X2614564Y-6958873D01*
X2652632Y-6927632D01*
X2683873Y-6889564D01*
X2707087Y-6846134D01*
X2721382Y-6799008D01*
X2726209Y-6750000D01*
X2726209Y-5220830D01*
X3125000Y-5220830D01*
X3125000Y-5329170D01*
X3146136Y-5435429D01*
X3187597Y-5535523D01*
X3247787Y-5625604D01*
X3324396Y-5702213D01*
X3345001Y-5715981D01*
X3345001Y-8634019D01*
X3324396Y-8647787D01*
X3247787Y-8724396D01*
X3187597Y-8814477D01*
X3146136Y-8914571D01*
X3125000Y-9020830D01*
X3125000Y-9129170D01*
X3146136Y-9235429D01*
X3187597Y-9335523D01*
X3247787Y-9425604D01*
X3324396Y-9502213D01*
X3345001Y-9515981D01*
X3345001Y-11159019D01*
X3324396Y-11172787D01*
X3247787Y-11249396D01*
X3187597Y-11339477D01*
X3146136Y-11439571D01*
X3125000Y-11545830D01*
X3125000Y-11654170D01*
X3146136Y-11760429D01*
X3187597Y-11860523D01*
X3247787Y-11950604D01*
X3324396Y-12027213D01*
X3345001Y-12040981D01*
X3345001Y-13709020D01*
X3324396Y-13722787D01*
X3247787Y-13799396D01*
X3187597Y-13889477D01*
X3146136Y-13989571D01*
X3125000Y-14095830D01*
X3125000Y-14204170D01*
X3146136Y-14310429D01*
X3187597Y-14410523D01*
X3247787Y-14500604D01*
X3324396Y-14577213D01*
X3345001Y-14590980D01*
X3345000Y-16259020D01*
X3324396Y-16272787D01*
X3247787Y-16349396D01*
X3187597Y-16439477D01*
X3146136Y-16539571D01*
X3125000Y-16645830D01*
X3125000Y-16754170D01*
X3146136Y-16860429D01*
X3187597Y-16960523D01*
X3247787Y-17050604D01*
X3324396Y-17127213D01*
X3345000Y-17140980D01*
X3345000Y-18809020D01*
X3324396Y-18822787D01*
X3247787Y-18899396D01*
X3187597Y-18989477D01*
X3146136Y-19089571D01*
X3125000Y-19195830D01*
X3125000Y-19304170D01*
X3146136Y-19410429D01*
X3187597Y-19510523D01*
X3247787Y-19600604D01*
X3324396Y-19677213D01*
X3345000Y-19690980D01*
X3345000Y-21334020D01*
X3324396Y-21347787D01*
X3247787Y-21424396D01*
X3187597Y-21514477D01*
X3146136Y-21614571D01*
X3125000Y-21720830D01*
X3125000Y-21829170D01*
X3146136Y-21935429D01*
X3187597Y-22035523D01*
X3247787Y-22125604D01*
X3324396Y-22202213D01*
X3345000Y-22215980D01*
X3345000Y-23884020D01*
X3324396Y-23897787D01*
X3247787Y-23974396D01*
X3187597Y-24064477D01*
X3146136Y-24164571D01*
X3125000Y-24270830D01*
X3125000Y-24379170D01*
X3146136Y-24485429D01*
X3187597Y-24585523D01*
X3247787Y-24675604D01*
X3324396Y-24752213D01*
X3414477Y-24812403D01*
X3514571Y-24853864D01*
X3620830Y-24875000D01*
X3729170Y-24875000D01*
X3835429Y-24853864D01*
X3935523Y-24812403D01*
X4025604Y-24752213D01*
X4102213Y-24675604D01*
X4162403Y-24585523D01*
X4203864Y-24485429D01*
X4225000Y-24379170D01*
X4225000Y-24270830D01*
X4203864Y-24164571D01*
X4162403Y-24064477D01*
X4102213Y-23974396D01*
X4025604Y-23897787D01*
X4005000Y-23884020D01*
X4005000Y-22215980D01*
X4025604Y-22202213D01*
X4102213Y-22125604D01*
X4162403Y-22035523D01*
X4203864Y-21935429D01*
X4225000Y-21829170D01*
X4225000Y-21720830D01*
X4203864Y-21614571D01*
X4162403Y-21514477D01*
X4102213Y-21424396D01*
X4025604Y-21347787D01*
X4005000Y-21334020D01*
X4005000Y-19690980D01*
X4025604Y-19677213D01*
X4102213Y-19600604D01*
X4162403Y-19510523D01*
X4203864Y-19410429D01*
X4225000Y-19304170D01*
X4225000Y-19195830D01*
X4203864Y-19089571D01*
X4162403Y-18989477D01*
X4102213Y-18899396D01*
X4025604Y-18822787D01*
X4005000Y-18809020D01*
X4005000Y-17140980D01*
X4025604Y-17127213D01*
X4102213Y-17050604D01*
X4162403Y-16960523D01*
X4203864Y-16860429D01*
X4225000Y-16754170D01*
X4225000Y-16645830D01*
X4203864Y-16539571D01*
X4162403Y-16439477D01*
X4102213Y-16349396D01*
X4025604Y-16272787D01*
X4005000Y-16259020D01*
X4005000Y-14590980D01*
X4025604Y-14577213D01*
X4102213Y-14500604D01*
X4162403Y-14410523D01*
X4203864Y-14310429D01*
X4225000Y-14204170D01*
X4225000Y-14095830D01*
X4203864Y-13989571D01*
X4162403Y-13889477D01*
X4102213Y-13799396D01*
X4025604Y-13722787D01*
X4005000Y-13709020D01*
X4005000Y-12040980D01*
X4025604Y-12027213D01*
X4102213Y-11950604D01*
X4162403Y-11860523D01*
X4203864Y-11760429D01*
X4225000Y-11654170D01*
X4225000Y-11545830D01*
X4203864Y-11439571D01*
X4162403Y-11339477D01*
X4102213Y-11249396D01*
X4025604Y-11172787D01*
X4005000Y-11159020D01*
X4005000Y-9515980D01*
X4025604Y-9502213D01*
X4102213Y-9425604D01*
X4162403Y-9335523D01*
X4203864Y-9235429D01*
X4225000Y-9129170D01*
X4225000Y-9020830D01*
X4203864Y-8914571D01*
X4162403Y-8814477D01*
X4102213Y-8724396D01*
X4025604Y-8647787D01*
X4005000Y-8634020D01*
X4005000Y-5715980D01*
X4025604Y-5702213D01*
X4102213Y-5625604D01*
X4162403Y-5535523D01*
X4203864Y-5435429D01*
X4225000Y-5329170D01*
X4225000Y-5220830D01*
X24425000Y-5220830D01*
X24425000Y-5329170D01*
X24446136Y-5435429D01*
X24487597Y-5535523D01*
X24547787Y-5625604D01*
X24624396Y-5702213D01*
X24645000Y-5715980D01*
X24645000Y-8634020D01*
X24624396Y-8647787D01*
X24547787Y-8724396D01*
X24487597Y-8814477D01*
X24446136Y-8914571D01*
X24425000Y-9020830D01*
X24425000Y-9129170D01*
X24446136Y-9235429D01*
X24487597Y-9335523D01*
X24547787Y-9425604D01*
X24624396Y-9502213D01*
X24645000Y-9515980D01*
X24645000Y-11159020D01*
X24624396Y-11172787D01*
X24547787Y-11249396D01*
X24487597Y-11339477D01*
X24446136Y-11439571D01*
X24425000Y-11545830D01*
X24425000Y-11654170D01*
X24446136Y-11760429D01*
X24487597Y-11860523D01*
X24547787Y-11950604D01*
X24624396Y-12027213D01*
X24645000Y-12040980D01*
X24645000Y-13709020D01*
X24624396Y-13722787D01*
X24547787Y-13799396D01*
X24487597Y-13889477D01*
X24446136Y-13989571D01*
X24425000Y-14095830D01*
X24425000Y-14204170D01*
X24446136Y-14310429D01*
X24487597Y-14410523D01*
X24547787Y-14500604D01*
X24624396Y-14577213D01*
X24645000Y-14590980D01*
X24645001Y-16259020D01*
X24624396Y-16272787D01*
X24547787Y-16349396D01*
X24487597Y-16439477D01*
X24446136Y-16539571D01*
X24425000Y-16645830D01*
X24425000Y-16754170D01*
X24446136Y-16860429D01*
X24487597Y-16960523D01*
X24547787Y-17050604D01*
X24624396Y-17127213D01*
X24645001Y-17140981D01*
X24645001Y-18809019D01*
X24624396Y-18822787D01*
X24547787Y-18899396D01*
X24487597Y-18989477D01*
X24446136Y-19089571D01*
X24425000Y-19195830D01*
X24425000Y-19304170D01*
X24446136Y-19410429D01*
X24487597Y-19510523D01*
X24547787Y-19600604D01*
X24624396Y-19677213D01*
X24645001Y-19690981D01*
X24645001Y-21359019D01*
X24624396Y-21372787D01*
X24547787Y-21449396D01*
X24487597Y-21539477D01*
X24446136Y-21639571D01*
X24425000Y-21745830D01*
X24425000Y-21854170D01*
X24446136Y-21960429D01*
X24487597Y-22060523D01*
X24547787Y-22150604D01*
X24624396Y-22227213D01*
X24645001Y-22240981D01*
X24645001Y-23884019D01*
X24624396Y-23897787D01*
X24547787Y-23974396D01*
X24487597Y-24064477D01*
X24446136Y-24164571D01*
X24425000Y-24270830D01*
X24425000Y-24379170D01*
X24446136Y-24485429D01*
X24487597Y-24585523D01*
X24547787Y-24675604D01*
X24624396Y-24752213D01*
X24714477Y-24812403D01*
X24814571Y-24853864D01*
X24920830Y-24875000D01*
X25029170Y-24875000D01*
X25135429Y-24853864D01*
X25235523Y-24812403D01*
X25325604Y-24752213D01*
X25402213Y-24675604D01*
X25462403Y-24585523D01*
X25503864Y-24485429D01*
X25525000Y-24379170D01*
X25525000Y-24270830D01*
X25503864Y-24164571D01*
X25462403Y-24064477D01*
X25402213Y-23974396D01*
X25325604Y-23897787D01*
X25305000Y-23884020D01*
X25305000Y-23576659D01*
X25925000Y-23576659D01*
X25925000Y-23793341D01*
X25967273Y-24005858D01*
X26050193Y-24206045D01*
X26170575Y-24386209D01*
X26323791Y-24539425D01*
X26503955Y-24659807D01*
X26704142Y-24742727D01*
X26916659Y-24785000D01*
X27133341Y-24785000D01*
X27345858Y-24742727D01*
X27546045Y-24659807D01*
X27726209Y-24539425D01*
X27879425Y-24386209D01*
X27999807Y-24206045D01*
X28082727Y-24005858D01*
X28125000Y-23793341D01*
X28125000Y-23725000D01*
X33523791Y-23725000D01*
X33523791Y-25225000D01*
X33528618Y-25274008D01*
X33542913Y-25321134D01*
X33566127Y-25364564D01*
X33597368Y-25402632D01*
X33635436Y-25433873D01*
X33678866Y-25457087D01*
X33725992Y-25471382D01*
X33775000Y-25476209D01*
X35275000Y-25476209D01*
X35324008Y-25471382D01*
X35371134Y-25457087D01*
X35414564Y-25433873D01*
X35452632Y-25402632D01*
X35483873Y-25364564D01*
X35507087Y-25321134D01*
X35521382Y-25274008D01*
X35526209Y-25225000D01*
X35526209Y-24723129D01*
X36137621Y-24723129D01*
X36156054Y-24783915D01*
X36233785Y-24955306D01*
X36343460Y-25108239D01*
X36480863Y-25236837D01*
X36640714Y-25336158D01*
X36816870Y-25402385D01*
X36965000Y-25377283D01*
X36965000Y-24575000D01*
X36163026Y-24575000D01*
X36137621Y-24723129D01*
X35526209Y-24723129D01*
X35526209Y-24226871D01*
X36137621Y-24226871D01*
X36163026Y-24375000D01*
X36965000Y-24375000D01*
X36965000Y-23572717D01*
X36816870Y-23547615D01*
X36640714Y-23613842D01*
X36480863Y-23713163D01*
X36343460Y-23841761D01*
X36233785Y-23994694D01*
X36156054Y-24166085D01*
X36137621Y-24226871D01*
X35526209Y-24226871D01*
X35526209Y-23725000D01*
X35521382Y-23675992D01*
X35507087Y-23628866D01*
X35483873Y-23585436D01*
X35452632Y-23547368D01*
X35414564Y-23516127D01*
X35371134Y-23492913D01*
X35324008Y-23478618D01*
X35275000Y-23473791D01*
X33775000Y-23473791D01*
X33725992Y-23478618D01*
X33678866Y-23492913D01*
X33635436Y-23516127D01*
X33597368Y-23547368D01*
X33566127Y-23585436D01*
X33542913Y-23628866D01*
X33528618Y-23675992D01*
X33523791Y-23725000D01*
X28125000Y-23725000D01*
X28125000Y-23576659D01*
X28082727Y-23364142D01*
X27999807Y-23163955D01*
X27879425Y-22983791D01*
X27726209Y-22830575D01*
X27546045Y-22710193D01*
X27345858Y-22627273D01*
X27133341Y-22585000D01*
X26916659Y-22585000D01*
X26704142Y-22627273D01*
X26503955Y-22710193D01*
X26323791Y-22830575D01*
X26170575Y-22983791D01*
X26050193Y-23163955D01*
X25967273Y-23364142D01*
X25925000Y-23576659D01*
X25305000Y-23576659D01*
X25305000Y-22240980D01*
X25325604Y-22227213D01*
X25402213Y-22150604D01*
X25462403Y-22060523D01*
X25503864Y-21960429D01*
X25525000Y-21854170D01*
X25525000Y-21745830D01*
X25503864Y-21639571D01*
X25462403Y-21539477D01*
X25402213Y-21449396D01*
X25325604Y-21372787D01*
X25305000Y-21359020D01*
X25305000Y-21036659D01*
X25925000Y-21036659D01*
X25925000Y-21253341D01*
X25967273Y-21465858D01*
X26050193Y-21666045D01*
X26170575Y-21846209D01*
X26323791Y-21999425D01*
X26503955Y-22119807D01*
X26704142Y-22202727D01*
X26916659Y-22245000D01*
X27133341Y-22245000D01*
X27345858Y-22202727D01*
X27546045Y-22119807D01*
X27726209Y-21999425D01*
X27879425Y-21846209D01*
X27885906Y-21836509D01*
X33525000Y-21836509D01*
X33525000Y-22033491D01*
X33563429Y-22226689D01*
X33638811Y-22408678D01*
X33748249Y-22572463D01*
X33887537Y-22711751D01*
X34051322Y-22821189D01*
X34233311Y-22896571D01*
X34426509Y-22935000D01*
X34623491Y-22935000D01*
X34816689Y-22896571D01*
X34998678Y-22821189D01*
X35162463Y-22711751D01*
X35301751Y-22572463D01*
X35411189Y-22408678D01*
X35486571Y-22226689D01*
X35525000Y-22033491D01*
X35525000Y-21836509D01*
X35486571Y-21643311D01*
X35411189Y-21461322D01*
X35301751Y-21297537D01*
X35162463Y-21158249D01*
X34998678Y-21048811D01*
X34816689Y-20973429D01*
X34623491Y-20935000D01*
X34426509Y-20935000D01*
X34233311Y-20973429D01*
X34051322Y-21048811D01*
X33887537Y-21158249D01*
X33748249Y-21297537D01*
X33638811Y-21461322D01*
X33563429Y-21643311D01*
X33525000Y-21836509D01*
X27885906Y-21836509D01*
X27999807Y-21666045D01*
X28082727Y-21465858D01*
X28125000Y-21253341D01*
X28125000Y-21036659D01*
X28082727Y-20824142D01*
X27999807Y-20623955D01*
X27879425Y-20443791D01*
X27726209Y-20290575D01*
X27546045Y-20170193D01*
X27345858Y-20087273D01*
X27133341Y-20045000D01*
X26916659Y-20045000D01*
X26704142Y-20087273D01*
X26503955Y-20170193D01*
X26323791Y-20290575D01*
X26170575Y-20443791D01*
X26050193Y-20623955D01*
X25967273Y-20824142D01*
X25925000Y-21036659D01*
X25305000Y-21036659D01*
X25305000Y-19690980D01*
X25325604Y-19677213D01*
X25402213Y-19600604D01*
X25462403Y-19510523D01*
X25503864Y-19410429D01*
X25525000Y-19304170D01*
X25525000Y-19195830D01*
X25503864Y-19089571D01*
X25462403Y-18989477D01*
X25402213Y-18899396D01*
X25325604Y-18822787D01*
X25305000Y-18809020D01*
X25305000Y-18496659D01*
X25925000Y-18496659D01*
X25925000Y-18713341D01*
X25967273Y-18925858D01*
X26050193Y-19126045D01*
X26170575Y-19306209D01*
X26323791Y-19459425D01*
X26503955Y-19579807D01*
X26704142Y-19662727D01*
X26916659Y-19705000D01*
X27133341Y-19705000D01*
X27345858Y-19662727D01*
X27546045Y-19579807D01*
X27726209Y-19459425D01*
X27879425Y-19306209D01*
X27885906Y-19296509D01*
X33525000Y-19296509D01*
X33525000Y-19493491D01*
X33563429Y-19686689D01*
X33638811Y-19868678D01*
X33748249Y-20032463D01*
X33887537Y-20171751D01*
X34051322Y-20281189D01*
X34233311Y-20356571D01*
X34426509Y-20395000D01*
X34623491Y-20395000D01*
X34816689Y-20356571D01*
X34998678Y-20281189D01*
X35162463Y-20171751D01*
X35301751Y-20032463D01*
X35411189Y-19868678D01*
X35486571Y-19686689D01*
X35525000Y-19493491D01*
X35525000Y-19296509D01*
X36065000Y-19296509D01*
X36065000Y-19493491D01*
X36103429Y-19686689D01*
X36178811Y-19868678D01*
X36288249Y-20032463D01*
X36427537Y-20171751D01*
X36591322Y-20281189D01*
X36773311Y-20356571D01*
X36966509Y-20395000D01*
X37163491Y-20395000D01*
X37356689Y-20356571D01*
X37538678Y-20281189D01*
X37702463Y-20171751D01*
X37841751Y-20032463D01*
X37951189Y-19868678D01*
X38026571Y-19686689D01*
X38065000Y-19493491D01*
X38065000Y-19296509D01*
X38026571Y-19103311D01*
X37951189Y-18921322D01*
X37841751Y-18757537D01*
X37702463Y-18618249D01*
X37538678Y-18508811D01*
X37356689Y-18433429D01*
X37163491Y-18395000D01*
X36966509Y-18395000D01*
X36773311Y-18433429D01*
X36591322Y-18508811D01*
X36427537Y-18618249D01*
X36288249Y-18757537D01*
X36178811Y-18921322D01*
X36103429Y-19103311D01*
X36065000Y-19296509D01*
X35525000Y-19296509D01*
X35486571Y-19103311D01*
X35411189Y-18921322D01*
X35301751Y-18757537D01*
X35162463Y-18618249D01*
X34998678Y-18508811D01*
X34816689Y-18433429D01*
X34623491Y-18395000D01*
X34426509Y-18395000D01*
X34233311Y-18433429D01*
X34051322Y-18508811D01*
X33887537Y-18618249D01*
X33748249Y-18757537D01*
X33638811Y-18921322D01*
X33563429Y-19103311D01*
X33525000Y-19296509D01*
X27885906Y-19296509D01*
X27999807Y-19126045D01*
X28082727Y-18925858D01*
X28125000Y-18713341D01*
X28125000Y-18496659D01*
X28082727Y-18284142D01*
X27999807Y-18083955D01*
X27879425Y-17903791D01*
X27726209Y-17750575D01*
X27546045Y-17630193D01*
X27345858Y-17547273D01*
X27133341Y-17505000D01*
X26916659Y-17505000D01*
X26704142Y-17547273D01*
X26503955Y-17630193D01*
X26323791Y-17750575D01*
X26170575Y-17903791D01*
X26050193Y-18083955D01*
X25967273Y-18284142D01*
X25925000Y-18496659D01*
X25305000Y-18496659D01*
X25305000Y-17140980D01*
X25325604Y-17127213D01*
X25402213Y-17050604D01*
X25462403Y-16960523D01*
X25503864Y-16860429D01*
X25525000Y-16754170D01*
X25525000Y-16645830D01*
X25503864Y-16539571D01*
X25462403Y-16439477D01*
X25402213Y-16349396D01*
X25325604Y-16272787D01*
X25305000Y-16259020D01*
X25305000Y-15956659D01*
X25925000Y-15956659D01*
X25925000Y-16173341D01*
X25967273Y-16385858D01*
X26050193Y-16586045D01*
X26170575Y-16766209D01*
X26323791Y-16919425D01*
X26503955Y-17039807D01*
X26704142Y-17122727D01*
X26916659Y-17165000D01*
X27133341Y-17165000D01*
X27345858Y-17122727D01*
X27546045Y-17039807D01*
X27726209Y-16919425D01*
X27879425Y-16766209D01*
X27885906Y-16756509D01*
X33525000Y-16756509D01*
X33525000Y-16953491D01*
X33563429Y-17146689D01*
X33638811Y-17328678D01*
X33748249Y-17492463D01*
X33887537Y-17631751D01*
X34051322Y-17741189D01*
X34233311Y-17816571D01*
X34426509Y-17855000D01*
X34623491Y-17855000D01*
X34816689Y-17816571D01*
X34998678Y-17741189D01*
X35162463Y-17631751D01*
X35301751Y-17492463D01*
X35411189Y-17328678D01*
X35486571Y-17146689D01*
X35525000Y-16953491D01*
X35525000Y-16756509D01*
X36065000Y-16756509D01*
X36065000Y-16953491D01*
X36103429Y-17146689D01*
X36178811Y-17328678D01*
X36288249Y-17492463D01*
X36427537Y-17631751D01*
X36591322Y-17741189D01*
X36773311Y-17816571D01*
X36966509Y-17855000D01*
X37163491Y-17855000D01*
X37356689Y-17816571D01*
X37538678Y-17741189D01*
X37702463Y-17631751D01*
X37841751Y-17492463D01*
X37951189Y-17328678D01*
X38026571Y-17146689D01*
X38065000Y-16953491D01*
X38065000Y-16756509D01*
X38026571Y-16563311D01*
X37951189Y-16381322D01*
X37841751Y-16217537D01*
X37702463Y-16078249D01*
X37538678Y-15968811D01*
X37356689Y-15893429D01*
X37163491Y-15855000D01*
X36966509Y-15855000D01*
X36773311Y-15893429D01*
X36591322Y-15968811D01*
X36427537Y-16078249D01*
X36288249Y-16217537D01*
X36178811Y-16381322D01*
X36103429Y-16563311D01*
X36065000Y-16756509D01*
X35525000Y-16756509D01*
X35486571Y-16563311D01*
X35411189Y-16381322D01*
X35301751Y-16217537D01*
X35162463Y-16078249D01*
X34998678Y-15968811D01*
X34816689Y-15893429D01*
X34623491Y-15855000D01*
X34426509Y-15855000D01*
X34233311Y-15893429D01*
X34051322Y-15968811D01*
X33887537Y-16078249D01*
X33748249Y-16217537D01*
X33638811Y-16381322D01*
X33563429Y-16563311D01*
X33525000Y-16756509D01*
X27885906Y-16756509D01*
X27999807Y-16586045D01*
X28082727Y-16385858D01*
X28125000Y-16173341D01*
X28125000Y-15956659D01*
X28082727Y-15744142D01*
X27999807Y-15543955D01*
X27879425Y-15363791D01*
X27726209Y-15210575D01*
X27546045Y-15090193D01*
X27345858Y-15007273D01*
X27133341Y-14965000D01*
X26916659Y-14965000D01*
X26704142Y-15007273D01*
X26503955Y-15090193D01*
X26323791Y-15210575D01*
X26170575Y-15363791D01*
X26050193Y-15543955D01*
X25967273Y-15744142D01*
X25925000Y-15956659D01*
X25305000Y-15956659D01*
X25305000Y-14590980D01*
X25325604Y-14577213D01*
X25402213Y-14500604D01*
X25462403Y-14410523D01*
X25503864Y-14310429D01*
X25525000Y-14204170D01*
X25525000Y-14095830D01*
X25503864Y-13989571D01*
X25462403Y-13889477D01*
X25402213Y-13799396D01*
X25325604Y-13722787D01*
X25305000Y-13709020D01*
X25305000Y-13416659D01*
X25925000Y-13416659D01*
X25925000Y-13633341D01*
X25967273Y-13845858D01*
X26050193Y-14046045D01*
X26170575Y-14226209D01*
X26323791Y-14379425D01*
X26503955Y-14499807D01*
X26704142Y-14582727D01*
X26916659Y-14625000D01*
X27133341Y-14625000D01*
X27345858Y-14582727D01*
X27546045Y-14499807D01*
X27726209Y-14379425D01*
X27879425Y-14226209D01*
X27885906Y-14216509D01*
X33525000Y-14216509D01*
X33525000Y-14413491D01*
X33563429Y-14606689D01*
X33638811Y-14788678D01*
X33748249Y-14952463D01*
X33887537Y-15091751D01*
X34051322Y-15201189D01*
X34233311Y-15276571D01*
X34426509Y-15315000D01*
X34623491Y-15315000D01*
X34816689Y-15276571D01*
X34998678Y-15201189D01*
X35162463Y-15091751D01*
X35301751Y-14952463D01*
X35411189Y-14788678D01*
X35486571Y-14606689D01*
X35495235Y-14563129D01*
X36137621Y-14563129D01*
X36156054Y-14623915D01*
X36233785Y-14795306D01*
X36343460Y-14948239D01*
X36480863Y-15076837D01*
X36640714Y-15176158D01*
X36816870Y-15242385D01*
X36965000Y-15217283D01*
X36965000Y-14415000D01*
X37165000Y-14415000D01*
X37165000Y-15217283D01*
X37313130Y-15242385D01*
X37489286Y-15176158D01*
X37649137Y-15076837D01*
X37786540Y-14948239D01*
X37896215Y-14795306D01*
X37973946Y-14623915D01*
X37992379Y-14563129D01*
X37966974Y-14415000D01*
X37165000Y-14415000D01*
X36965000Y-14415000D01*
X36163026Y-14415000D01*
X36137621Y-14563129D01*
X35495235Y-14563129D01*
X35525000Y-14413491D01*
X35525000Y-14216509D01*
X35495236Y-14066871D01*
X36137621Y-14066871D01*
X36163026Y-14215000D01*
X36965000Y-14215000D01*
X36965000Y-13412717D01*
X37165000Y-13412717D01*
X37165000Y-14215000D01*
X37966974Y-14215000D01*
X37992379Y-14066871D01*
X37973946Y-14006085D01*
X37896215Y-13834694D01*
X37786540Y-13681761D01*
X37649137Y-13553163D01*
X37489286Y-13453842D01*
X37313130Y-13387615D01*
X37165000Y-13412717D01*
X36965000Y-13412717D01*
X36816870Y-13387615D01*
X36640714Y-13453842D01*
X36480863Y-13553163D01*
X36343460Y-13681761D01*
X36233785Y-13834694D01*
X36156054Y-14006085D01*
X36137621Y-14066871D01*
X35495236Y-14066871D01*
X35486571Y-14023311D01*
X35411189Y-13841322D01*
X35301751Y-13677537D01*
X35162463Y-13538249D01*
X34998678Y-13428811D01*
X34816689Y-13353429D01*
X34623491Y-13315000D01*
X34426509Y-13315000D01*
X34233311Y-13353429D01*
X34051322Y-13428811D01*
X33887537Y-13538249D01*
X33748249Y-13677537D01*
X33638811Y-13841322D01*
X33563429Y-14023311D01*
X33525000Y-14216509D01*
X27885906Y-14216509D01*
X27999807Y-14046045D01*
X28082727Y-13845858D01*
X28125000Y-13633341D01*
X28125000Y-13416659D01*
X28082727Y-13204142D01*
X27999807Y-13003955D01*
X27879425Y-12823791D01*
X27726209Y-12670575D01*
X27546045Y-12550193D01*
X27345858Y-12467273D01*
X27133341Y-12425000D01*
X26916659Y-12425000D01*
X26704142Y-12467273D01*
X26503955Y-12550193D01*
X26323791Y-12670575D01*
X26170575Y-12823791D01*
X26050193Y-13003955D01*
X25967273Y-13204142D01*
X25925000Y-13416659D01*
X25305000Y-13416659D01*
X25305000Y-12040980D01*
X25325604Y-12027213D01*
X25402213Y-11950604D01*
X25462403Y-11860523D01*
X25503864Y-11760429D01*
X25525000Y-11654170D01*
X25525000Y-11545830D01*
X25503864Y-11439571D01*
X25462403Y-11339477D01*
X25402213Y-11249396D01*
X25325604Y-11172787D01*
X25305000Y-11159020D01*
X25305000Y-10876659D01*
X25925000Y-10876659D01*
X25925000Y-11093341D01*
X25967273Y-11305858D01*
X26050193Y-11506045D01*
X26170575Y-11686209D01*
X26323791Y-11839425D01*
X26503955Y-11959807D01*
X26704142Y-12042727D01*
X26916659Y-12085000D01*
X27133341Y-12085000D01*
X27345858Y-12042727D01*
X27546045Y-11959807D01*
X27726209Y-11839425D01*
X27879425Y-11686209D01*
X27999807Y-11506045D01*
X28082727Y-11305858D01*
X28125000Y-11093341D01*
X28125000Y-10876659D01*
X28082727Y-10664142D01*
X27999807Y-10463955D01*
X27879425Y-10283791D01*
X27726209Y-10130575D01*
X27546045Y-10010193D01*
X27345858Y-9927273D01*
X27133341Y-9885000D01*
X26916659Y-9885000D01*
X26704142Y-9927273D01*
X26503955Y-10010193D01*
X26323791Y-10130575D01*
X26170575Y-10283791D01*
X26050193Y-10463955D01*
X25967273Y-10664142D01*
X25925000Y-10876659D01*
X25305000Y-10876659D01*
X25305000Y-9515980D01*
X25325604Y-9502213D01*
X25402213Y-9425604D01*
X25462403Y-9335523D01*
X25503864Y-9235429D01*
X25525000Y-9129170D01*
X25525000Y-9020830D01*
X25503864Y-8914571D01*
X25462403Y-8814477D01*
X25402213Y-8724396D01*
X25325604Y-8647787D01*
X25305000Y-8634020D01*
X25305000Y-8336659D01*
X25925000Y-8336659D01*
X25925000Y-8553341D01*
X25967273Y-8765858D01*
X26050193Y-8966045D01*
X26170575Y-9146209D01*
X26323791Y-9299425D01*
X26503955Y-9419807D01*
X26704142Y-9502727D01*
X26916659Y-9545000D01*
X27133341Y-9545000D01*
X27345858Y-9502727D01*
X27546045Y-9419807D01*
X27726209Y-9299425D01*
X27879425Y-9146209D01*
X27999807Y-8966045D01*
X28082727Y-8765858D01*
X28125000Y-8553341D01*
X28125000Y-8336659D01*
X28082727Y-8124142D01*
X27999807Y-7923955D01*
X27879425Y-7743791D01*
X27726209Y-7590575D01*
X27546045Y-7470193D01*
X27345858Y-7387273D01*
X27133341Y-7345000D01*
X26916659Y-7345000D01*
X26704142Y-7387273D01*
X26503955Y-7470193D01*
X26323791Y-7590575D01*
X26170575Y-7743791D01*
X26050193Y-7923955D01*
X25967273Y-8124142D01*
X25925000Y-8336659D01*
X25305000Y-8336659D01*
X25305000Y-5796659D01*
X25925000Y-5796659D01*
X25925000Y-6013341D01*
X25967273Y-6225858D01*
X26050193Y-6426045D01*
X26170575Y-6606209D01*
X26323791Y-6759425D01*
X26503955Y-6879807D01*
X26704142Y-6962727D01*
X26916659Y-7005000D01*
X27133341Y-7005000D01*
X27345858Y-6962727D01*
X27546045Y-6879807D01*
X27726209Y-6759425D01*
X27879425Y-6606209D01*
X27999807Y-6426045D01*
X28082727Y-6225858D01*
X28125000Y-6013341D01*
X28125000Y-5801509D01*
X33510000Y-5801509D01*
X33510000Y-5998491D01*
X33548429Y-6191689D01*
X33623811Y-6373678D01*
X33733249Y-6537463D01*
X33872537Y-6676751D01*
X34036322Y-6786189D01*
X34218311Y-6861571D01*
X34411509Y-6900000D01*
X34608491Y-6900000D01*
X34801689Y-6861571D01*
X34983678Y-6786189D01*
X35147463Y-6676751D01*
X35174214Y-6650000D01*
X36088984Y-6650000D01*
X36093039Y-6691167D01*
X36105047Y-6730752D01*
X36124547Y-6767234D01*
X36150789Y-6799211D01*
X36182766Y-6825453D01*
X36219248Y-6844953D01*
X36258833Y-6856961D01*
X36300000Y-6861016D01*
X36897500Y-6860000D01*
X36950000Y-6807500D01*
X36950000Y-6000000D01*
X37150000Y-6000000D01*
X37150000Y-6807500D01*
X37202500Y-6860000D01*
X37800000Y-6861016D01*
X37841167Y-6856961D01*
X37880752Y-6844953D01*
X37917234Y-6825453D01*
X37949211Y-6799211D01*
X37975453Y-6767234D01*
X37994953Y-6730752D01*
X38006961Y-6691167D01*
X38011016Y-6650000D01*
X38010000Y-6052500D01*
X37957500Y-6000000D01*
X37150000Y-6000000D01*
X36950000Y-6000000D01*
X36142500Y-6000000D01*
X36090000Y-6052500D01*
X36088984Y-6650000D01*
X35174214Y-6650000D01*
X35286751Y-6537463D01*
X35396189Y-6373678D01*
X35471571Y-6191689D01*
X35510000Y-5998491D01*
X35510000Y-5801509D01*
X35471571Y-5608311D01*
X35396189Y-5426322D01*
X35286751Y-5262537D01*
X35174214Y-5150000D01*
X36088984Y-5150000D01*
X36090000Y-5747500D01*
X36142500Y-5800000D01*
X36950000Y-5800000D01*
X36950000Y-4992500D01*
X37150000Y-4992500D01*
X37150000Y-5800000D01*
X37957500Y-5800000D01*
X38010000Y-5747500D01*
X38011016Y-5150000D01*
X38006961Y-5108833D01*
X37994953Y-5069248D01*
X37975453Y-5032766D01*
X37949211Y-5000789D01*
X37917234Y-4974547D01*
X37880752Y-4955047D01*
X37841167Y-4943039D01*
X37800000Y-4938984D01*
X37202500Y-4940000D01*
X37150000Y-4992500D01*
X36950000Y-4992500D01*
X36897500Y-4940000D01*
X36300000Y-4938984D01*
X36258833Y-4943039D01*
X36219248Y-4955047D01*
X36182766Y-4974547D01*
X36150789Y-5000789D01*
X36124547Y-5032766D01*
X36105047Y-5069248D01*
X36093039Y-5108833D01*
X36088984Y-5150000D01*
X35174214Y-5150000D01*
X35147463Y-5123249D01*
X34983678Y-5013811D01*
X34801689Y-4938429D01*
X34608491Y-4900000D01*
X34411509Y-4900000D01*
X34218311Y-4938429D01*
X34036322Y-5013811D01*
X33872537Y-5123249D01*
X33733249Y-5262537D01*
X33623811Y-5426322D01*
X33548429Y-5608311D01*
X33510000Y-5801509D01*
X28125000Y-5801509D01*
X28125000Y-5796659D01*
X28082727Y-5584142D01*
X27999807Y-5383955D01*
X27879425Y-5203791D01*
X27726209Y-5050575D01*
X27546045Y-4930193D01*
X27345858Y-4847273D01*
X27133341Y-4805000D01*
X26916659Y-4805000D01*
X26704142Y-4847273D01*
X26503955Y-4930193D01*
X26323791Y-5050575D01*
X26170575Y-5203791D01*
X26050193Y-5383955D01*
X25967273Y-5584142D01*
X25925000Y-5796659D01*
X25305000Y-5796659D01*
X25305000Y-5715980D01*
X25325604Y-5702213D01*
X25402213Y-5625604D01*
X25462403Y-5535523D01*
X25503864Y-5435429D01*
X25525000Y-5329170D01*
X25525000Y-5220830D01*
X25503864Y-5114571D01*
X25462403Y-5014477D01*
X25402213Y-4924396D01*
X25325604Y-4847787D01*
X25235523Y-4787597D01*
X25135429Y-4746136D01*
X25029170Y-4725000D01*
X24920830Y-4725000D01*
X24814571Y-4746136D01*
X24714477Y-4787597D01*
X24624396Y-4847787D01*
X24547787Y-4924396D01*
X24487597Y-5014477D01*
X24446136Y-5114571D01*
X24425000Y-5220830D01*
X4225000Y-5220830D01*
X4203864Y-5114571D01*
X4162403Y-5014477D01*
X4102213Y-4924396D01*
X4025604Y-4847787D01*
X3935523Y-4787597D01*
X3835429Y-4746136D01*
X3729170Y-4725000D01*
X3620830Y-4725000D01*
X3514571Y-4746136D01*
X3414477Y-4787597D01*
X3324396Y-4847787D01*
X3247787Y-4924396D01*
X3187597Y-5014477D01*
X3146136Y-5114571D01*
X3125000Y-5220830D01*
X2726209Y-5220830D01*
X2726209Y-5050000D01*
X2721382Y-5000992D01*
X2707087Y-4953866D01*
X2683873Y-4910436D01*
X2652632Y-4872368D01*
X2614564Y-4841127D01*
X2571134Y-4817913D01*
X2524008Y-4803618D01*
X2475000Y-4798791D01*
X775000Y-4798791D01*
X725992Y-4803618D01*
X678866Y-4817913D01*
X635436Y-4841127D01*
X597368Y-4872368D01*
X566127Y-4910436D01*
X542913Y-4953866D01*
X528618Y-5000992D01*
X523791Y-5050000D01*
X325000Y-5050000D01*
X325000Y-3570830D01*
X7825000Y-3570830D01*
X7825000Y-3679170D01*
X7846136Y-3785429D01*
X7887597Y-3885523D01*
X7947787Y-3975604D01*
X8024396Y-4052213D01*
X8114477Y-4112403D01*
X8214571Y-4153864D01*
X8320830Y-4175000D01*
X8429170Y-4175000D01*
X8535429Y-4153864D01*
X8635523Y-4112403D01*
X8725604Y-4052213D01*
X8802213Y-3975604D01*
X8815980Y-3955000D01*
X10484020Y-3955000D01*
X10497787Y-3975604D01*
X10574396Y-4052213D01*
X10664477Y-4112403D01*
X10764571Y-4153864D01*
X10870830Y-4175000D01*
X10979170Y-4175000D01*
X11085429Y-4153864D01*
X11185523Y-4112403D01*
X11275604Y-4052213D01*
X11352213Y-3975604D01*
X11365980Y-3955000D01*
X13009020Y-3955000D01*
X13022787Y-3975604D01*
X13099396Y-4052213D01*
X13189477Y-4112403D01*
X13289571Y-4153864D01*
X13395830Y-4175000D01*
X13504170Y-4175000D01*
X13610429Y-4153864D01*
X13710523Y-4112403D01*
X13800604Y-4052213D01*
X13877213Y-3975604D01*
X13890980Y-3955000D01*
X15559020Y-3955000D01*
X15572787Y-3975604D01*
X15649396Y-4052213D01*
X15739477Y-4112403D01*
X15839571Y-4153864D01*
X15945830Y-4175000D01*
X16054170Y-4175000D01*
X16160429Y-4153864D01*
X16260523Y-4112403D01*
X16350604Y-4052213D01*
X16427213Y-3975604D01*
X16440980Y-3955000D01*
X19334020Y-3955000D01*
X19347787Y-3975604D01*
X19424396Y-4052213D01*
X19514477Y-4112403D01*
X19614571Y-4153864D01*
X19720830Y-4175000D01*
X19829170Y-4175000D01*
X19935429Y-4153864D01*
X20035523Y-4112403D01*
X20125604Y-4052213D01*
X20202213Y-3975604D01*
X20262403Y-3885523D01*
X20303864Y-3785429D01*
X20325000Y-3679170D01*
X20325000Y-3570830D01*
X20303864Y-3464571D01*
X20262403Y-3364477D01*
X20202213Y-3274396D01*
X20125604Y-3197787D01*
X20035523Y-3137597D01*
X19935429Y-3096136D01*
X19829170Y-3075000D01*
X19720830Y-3075000D01*
X19614571Y-3096136D01*
X19514477Y-3137597D01*
X19424396Y-3197787D01*
X19347787Y-3274396D01*
X19334020Y-3295000D01*
X16440980Y-3295000D01*
X16427213Y-3274396D01*
X16350604Y-3197787D01*
X16260523Y-3137597D01*
X16160429Y-3096136D01*
X16054170Y-3075000D01*
X15945830Y-3075000D01*
X15839571Y-3096136D01*
X15739477Y-3137597D01*
X15649396Y-3197787D01*
X15572787Y-3274396D01*
X15559020Y-3295000D01*
X13890980Y-3295000D01*
X13877213Y-3274396D01*
X13800604Y-3197787D01*
X13710523Y-3137597D01*
X13610429Y-3096136D01*
X13504170Y-3075000D01*
X13395830Y-3075000D01*
X13289571Y-3096136D01*
X13189477Y-3137597D01*
X13099396Y-3197787D01*
X13022787Y-3274396D01*
X13009020Y-3295000D01*
X11365980Y-3295000D01*
X11352213Y-3274396D01*
X11275604Y-3197787D01*
X11185523Y-3137597D01*
X11085429Y-3096136D01*
X10979170Y-3075000D01*
X10870830Y-3075000D01*
X10764571Y-3096136D01*
X10664477Y-3137597D01*
X10574396Y-3197787D01*
X10497787Y-3274396D01*
X10484020Y-3295000D01*
X8815980Y-3295000D01*
X8802213Y-3274396D01*
X8725604Y-3197787D01*
X8635523Y-3137597D01*
X8535429Y-3096136D01*
X8429170Y-3075000D01*
X8320830Y-3075000D01*
X8214571Y-3096136D01*
X8114477Y-3137597D01*
X8024396Y-3197787D01*
X7947787Y-3274396D01*
X7887597Y-3364477D01*
X7846136Y-3464571D01*
X7825000Y-3570830D01*
X325000Y-3570830D01*
X325000Y-1466659D01*
X7885000Y-1466659D01*
X7885000Y-1683341D01*
X7927273Y-1895858D01*
X8010193Y-2096045D01*
X8130575Y-2276209D01*
X8283791Y-2429425D01*
X8463955Y-2549807D01*
X8664142Y-2632727D01*
X8876659Y-2675000D01*
X9093341Y-2675000D01*
X9305858Y-2632727D01*
X9506045Y-2549807D01*
X9686209Y-2429425D01*
X9839425Y-2276209D01*
X9959807Y-2096045D01*
X10042727Y-1895858D01*
X10085000Y-1683341D01*
X10085000Y-1466659D01*
X10425000Y-1466659D01*
X10425000Y-1683341D01*
X10467273Y-1895858D01*
X10550193Y-2096045D01*
X10670575Y-2276209D01*
X10823791Y-2429425D01*
X11003955Y-2549807D01*
X11204142Y-2632727D01*
X11416659Y-2675000D01*
X11633341Y-2675000D01*
X11845858Y-2632727D01*
X12046045Y-2549807D01*
X12226209Y-2429425D01*
X12379425Y-2276209D01*
X12499807Y-2096045D01*
X12582727Y-1895858D01*
X12625000Y-1683341D01*
X12625000Y-1466659D01*
X12965000Y-1466659D01*
X12965000Y-1683341D01*
X13007273Y-1895858D01*
X13090193Y-2096045D01*
X13210575Y-2276209D01*
X13363791Y-2429425D01*
X13543955Y-2549807D01*
X13744142Y-2632727D01*
X13956659Y-2675000D01*
X14173341Y-2675000D01*
X14385858Y-2632727D01*
X14586045Y-2549807D01*
X14766209Y-2429425D01*
X14919425Y-2276209D01*
X15039807Y-2096045D01*
X15122727Y-1895858D01*
X15165000Y-1683341D01*
X15165000Y-1466659D01*
X15505000Y-1466659D01*
X15505000Y-1683341D01*
X15547273Y-1895858D01*
X15630193Y-2096045D01*
X15750575Y-2276209D01*
X15903791Y-2429425D01*
X16083955Y-2549807D01*
X16284142Y-2632727D01*
X16496659Y-2675000D01*
X16713341Y-2675000D01*
X16925858Y-2632727D01*
X17126045Y-2549807D01*
X17306209Y-2429425D01*
X17459425Y-2276209D01*
X17579807Y-2096045D01*
X17662727Y-1895858D01*
X17705000Y-1683341D01*
X17705000Y-1466659D01*
X17662727Y-1254142D01*
X17579807Y-1053955D01*
X17459425Y-873791D01*
X17310634Y-725000D01*
X18043791Y-725000D01*
X18043791Y-2425000D01*
X18048618Y-2474008D01*
X18062913Y-2521134D01*
X18086127Y-2564564D01*
X18117368Y-2602632D01*
X18155436Y-2633873D01*
X18198866Y-2657087D01*
X18245992Y-2671382D01*
X18295000Y-2676209D01*
X19995000Y-2676209D01*
X20044008Y-2671382D01*
X20091134Y-2657087D01*
X20134564Y-2633873D01*
X20172632Y-2602632D01*
X20203873Y-2564564D01*
X20227087Y-2521134D01*
X20241382Y-2474008D01*
X20246209Y-2425000D01*
X20246209Y-725000D01*
X20241382Y-675992D01*
X20227087Y-628866D01*
X20203873Y-585436D01*
X20172632Y-547368D01*
X20134564Y-516127D01*
X20091134Y-492913D01*
X20044008Y-478618D01*
X19995000Y-473791D01*
X18295000Y-473791D01*
X18245992Y-478618D01*
X18198866Y-492913D01*
X18155436Y-516127D01*
X18117368Y-547368D01*
X18086127Y-585436D01*
X18062913Y-628866D01*
X18048618Y-675992D01*
X18043791Y-725000D01*
X17310634Y-725000D01*
X17306209Y-720575D01*
X17126045Y-600193D01*
X16925858Y-517273D01*
X16713341Y-475000D01*
X16496659Y-475000D01*
X16284142Y-517273D01*
X16083955Y-600193D01*
X15903791Y-720575D01*
X15750575Y-873791D01*
X15630193Y-1053955D01*
X15547273Y-1254142D01*
X15505000Y-1466659D01*
X15165000Y-1466659D01*
X15122727Y-1254142D01*
X15039807Y-1053955D01*
X14919425Y-873791D01*
X14766209Y-720575D01*
X14586045Y-600193D01*
X14385858Y-517273D01*
X14173341Y-475000D01*
X13956659Y-475000D01*
X13744142Y-517273D01*
X13543955Y-600193D01*
X13363791Y-720575D01*
X13210575Y-873791D01*
X13090193Y-1053955D01*
X13007273Y-1254142D01*
X12965000Y-1466659D01*
X12625000Y-1466659D01*
X12582727Y-1254142D01*
X12499807Y-1053955D01*
X12379425Y-873791D01*
X12226209Y-720575D01*
X12046045Y-600193D01*
X11845858Y-517273D01*
X11633341Y-475000D01*
X11416659Y-475000D01*
X11204142Y-517273D01*
X11003955Y-600193D01*
X10823791Y-720575D01*
X10670575Y-873791D01*
X10550193Y-1053955D01*
X10467273Y-1254142D01*
X10425000Y-1466659D01*
X10085000Y-1466659D01*
X10042727Y-1254142D01*
X9959807Y-1053955D01*
X9839425Y-873791D01*
X9686209Y-720575D01*
X9506045Y-600193D01*
X9305858Y-517273D01*
X9093341Y-475000D01*
X8876659Y-475000D01*
X8664142Y-517273D01*
X8463955Y-600193D01*
X8283791Y-720575D01*
X8130575Y-873791D01*
X8010193Y-1053955D01*
X7927273Y-1254142D01*
X7885000Y-1466659D01*
X325000Y-1466659D01*
X325000Y-325000D01*
X39675001Y-325000D01*
X39675000Y-29175000D01*
G04 #@! TA.AperFunction,Conductor*
G36*
X39675000Y-29175000D02*
G01*
X325000Y-29175000D01*
X325000Y-26111659D01*
X525000Y-26111659D01*
X525000Y-26328341D01*
X567273Y-26540858D01*
X650193Y-26741045D01*
X770575Y-26921209D01*
X923791Y-27074425D01*
X1103955Y-27194807D01*
X1304142Y-27277727D01*
X1516659Y-27320000D01*
X1733341Y-27320000D01*
X1945858Y-27277727D01*
X2071383Y-27225733D01*
X2081697Y-27234197D01*
X2151186Y-27271340D01*
X2226586Y-27294212D01*
X2285353Y-27300000D01*
X2285363Y-27300000D01*
X2304999Y-27301934D01*
X2324635Y-27300000D01*
X7705354Y-27300000D01*
X7725000Y-27301935D01*
X7744646Y-27300000D01*
X7744647Y-27300000D01*
X7803414Y-27294212D01*
X7878791Y-27271347D01*
X7878791Y-28850000D01*
X7883618Y-28899008D01*
X7897913Y-28946134D01*
X7921127Y-28989564D01*
X7952368Y-29027632D01*
X7990436Y-29058873D01*
X8033866Y-29082087D01*
X8080992Y-29096382D01*
X8130000Y-29101209D01*
X9830000Y-29101209D01*
X9879008Y-29096382D01*
X9926134Y-29082087D01*
X9969564Y-29058873D01*
X10007632Y-29027632D01*
X10038873Y-28989564D01*
X10062087Y-28946134D01*
X10076382Y-28899008D01*
X10081209Y-28850000D01*
X10081209Y-27150000D01*
X10078747Y-27125000D01*
X10849584Y-27125000D01*
X10818791Y-27145575D01*
X10665575Y-27298791D01*
X10545193Y-27478955D01*
X10462273Y-27679142D01*
X10420000Y-27891659D01*
X10420000Y-28108341D01*
X10462273Y-28320858D01*
X10545193Y-28521045D01*
X10665575Y-28701209D01*
X10818791Y-28854425D01*
X10998955Y-28974807D01*
X11199142Y-29057727D01*
X11411659Y-29100000D01*
X11628341Y-29100000D01*
X11840858Y-29057727D01*
X12041045Y-28974807D01*
X12221209Y-28854425D01*
X12374425Y-28701209D01*
X12494807Y-28521045D01*
X12577727Y-28320858D01*
X12620000Y-28108341D01*
X12620000Y-27891659D01*
X12577727Y-27679142D01*
X12494807Y-27478955D01*
X12374425Y-27298791D01*
X12221209Y-27145575D01*
X12190416Y-27125000D01*
X13389584Y-27125000D01*
X13358791Y-27145575D01*
X13205575Y-27298791D01*
X13085193Y-27478955D01*
X13002273Y-27679142D01*
X12960000Y-27891659D01*
X12960000Y-28108341D01*
X13002273Y-28320858D01*
X13085193Y-28521045D01*
X13205575Y-28701209D01*
X13358791Y-28854425D01*
X13538955Y-28974807D01*
X13739142Y-29057727D01*
X13951659Y-29100000D01*
X14168341Y-29100000D01*
X14380858Y-29057727D01*
X14581045Y-28974807D01*
X14761209Y-28854425D01*
X14914425Y-28701209D01*
X15034807Y-28521045D01*
X15117727Y-28320858D01*
X15160000Y-28108341D01*
X15160000Y-27891659D01*
X15117727Y-27679142D01*
X15034807Y-27478955D01*
X14914425Y-27298791D01*
X14761209Y-27145575D01*
X14730416Y-27125000D01*
X15929584Y-27125000D01*
X15898791Y-27145575D01*
X15745575Y-27298791D01*
X15625193Y-27478955D01*
X15542273Y-27679142D01*
X15500000Y-27891659D01*
X15500000Y-28108341D01*
X15542273Y-28320858D01*
X15625193Y-28521045D01*
X15745575Y-28701209D01*
X15898791Y-28854425D01*
X16078955Y-28974807D01*
X16279142Y-29057727D01*
X16491659Y-29100000D01*
X16708341Y-29100000D01*
X16920858Y-29057727D01*
X17121045Y-28974807D01*
X17301209Y-28854425D01*
X17454425Y-28701209D01*
X17574807Y-28521045D01*
X17657727Y-28320858D01*
X17700000Y-28108341D01*
X17700000Y-27891659D01*
X17657727Y-27679142D01*
X17574807Y-27478955D01*
X17454425Y-27298791D01*
X17301209Y-27145575D01*
X17270416Y-27125000D01*
X18469584Y-27125000D01*
X18438791Y-27145575D01*
X18285575Y-27298791D01*
X18165193Y-27478955D01*
X18082273Y-27679142D01*
X18040000Y-27891659D01*
X18040000Y-28108341D01*
X18082273Y-28320858D01*
X18165193Y-28521045D01*
X18285575Y-28701209D01*
X18438791Y-28854425D01*
X18618955Y-28974807D01*
X18819142Y-29057727D01*
X19031659Y-29100000D01*
X19248341Y-29100000D01*
X19460858Y-29057727D01*
X19661045Y-28974807D01*
X19841209Y-28854425D01*
X19994425Y-28701209D01*
X20114807Y-28521045D01*
X20197727Y-28320858D01*
X20240000Y-28108341D01*
X20240000Y-27891659D01*
X20197727Y-27679142D01*
X20114807Y-27478955D01*
X19994425Y-27298791D01*
X19841209Y-27145575D01*
X19810416Y-27125000D01*
X22309315Y-27125000D01*
X23353267Y-28168953D01*
X23365789Y-28184211D01*
X23381047Y-28196733D01*
X23381049Y-28196735D01*
X23426697Y-28234197D01*
X23496186Y-28271340D01*
X23571586Y-28294212D01*
X23650000Y-28301935D01*
X23669646Y-28300000D01*
X37555354Y-28300000D01*
X37575000Y-28301935D01*
X37594646Y-28300000D01*
X37594647Y-28300000D01*
X37653414Y-28294212D01*
X37728814Y-28271340D01*
X37798303Y-28234197D01*
X37859211Y-28184211D01*
X37871737Y-28168948D01*
X38643954Y-27396732D01*
X38659211Y-27384211D01*
X38709197Y-27323303D01*
X38736973Y-27271339D01*
X38746340Y-27253815D01*
X38769212Y-27178414D01*
X38771444Y-27155752D01*
X38775000Y-27119647D01*
X38775000Y-27119646D01*
X38776935Y-27100000D01*
X38775000Y-27080353D01*
X38775000Y-23264647D01*
X38776935Y-23245000D01*
X38769212Y-23166586D01*
X38746340Y-23091186D01*
X38709197Y-23021697D01*
X38671735Y-22976049D01*
X38671733Y-22976047D01*
X38659211Y-22960789D01*
X38643953Y-22948267D01*
X37996053Y-22300367D01*
X38026571Y-22226689D01*
X38065000Y-22033491D01*
X38065000Y-21836509D01*
X38026571Y-21643311D01*
X37951189Y-21461322D01*
X37841751Y-21297537D01*
X37702463Y-21158249D01*
X37538678Y-21048811D01*
X37356689Y-20973429D01*
X37163491Y-20935000D01*
X36966509Y-20935000D01*
X36773311Y-20973429D01*
X36591322Y-21048811D01*
X36427537Y-21158249D01*
X36288249Y-21297537D01*
X36178811Y-21461322D01*
X36103429Y-21643311D01*
X36065000Y-21836509D01*
X36065000Y-22033491D01*
X36103429Y-22226689D01*
X36178811Y-22408678D01*
X36288249Y-22572463D01*
X36427537Y-22711751D01*
X36591322Y-22821189D01*
X36773311Y-22896571D01*
X36966509Y-22935000D01*
X37163491Y-22935000D01*
X37356689Y-22896571D01*
X37430367Y-22866053D01*
X37975001Y-23410687D01*
X37975001Y-24169563D01*
X37973946Y-24166085D01*
X37896215Y-23994694D01*
X37786540Y-23841761D01*
X37649137Y-23713163D01*
X37489286Y-23613842D01*
X37313130Y-23547615D01*
X37165000Y-23572717D01*
X37165000Y-24375000D01*
X37185000Y-24375000D01*
X37185000Y-24575000D01*
X37165000Y-24575000D01*
X37165000Y-25377283D01*
X37313130Y-25402385D01*
X37489286Y-25336158D01*
X37649137Y-25236837D01*
X37786540Y-25108239D01*
X37896215Y-24955306D01*
X37973946Y-24783915D01*
X37975001Y-24780437D01*
X37975000Y-26934314D01*
X37409315Y-27500000D01*
X23815686Y-27500000D01*
X23390686Y-27075000D01*
X25963984Y-27075000D01*
X25968039Y-27116167D01*
X25980047Y-27155752D01*
X25999547Y-27192234D01*
X26025789Y-27224211D01*
X26057766Y-27250453D01*
X26094248Y-27269953D01*
X26133833Y-27281961D01*
X26175000Y-27286016D01*
X26872500Y-27285000D01*
X26925000Y-27232500D01*
X26925000Y-26325000D01*
X27125000Y-26325000D01*
X27125000Y-27232500D01*
X27177500Y-27285000D01*
X27875000Y-27286016D01*
X27916167Y-27281961D01*
X27955752Y-27269953D01*
X27992234Y-27250453D01*
X28024211Y-27224211D01*
X28050453Y-27192234D01*
X28069953Y-27155752D01*
X28081961Y-27116167D01*
X28086016Y-27075000D01*
X28085000Y-26377500D01*
X28032500Y-26325000D01*
X27125000Y-26325000D01*
X26925000Y-26325000D01*
X26017500Y-26325000D01*
X25965000Y-26377500D01*
X25963984Y-27075000D01*
X23390686Y-27075000D01*
X22771737Y-26456052D01*
X22759211Y-26440789D01*
X22698303Y-26390803D01*
X22628814Y-26353660D01*
X22553414Y-26330788D01*
X22494647Y-26325000D01*
X22494646Y-26325000D01*
X22475000Y-26323065D01*
X22455354Y-26325000D01*
X18927817Y-26325000D01*
X18952213Y-26300604D01*
X19012403Y-26210523D01*
X19053864Y-26110429D01*
X19075000Y-26004170D01*
X19075000Y-25895830D01*
X19053864Y-25789571D01*
X19012403Y-25689477D01*
X18952213Y-25599396D01*
X18875604Y-25522787D01*
X18785523Y-25462597D01*
X18685429Y-25421136D01*
X18579170Y-25400000D01*
X18470830Y-25400000D01*
X18364571Y-25421136D01*
X18264477Y-25462597D01*
X18174396Y-25522787D01*
X18097787Y-25599396D01*
X18084020Y-25620000D01*
X16415980Y-25620000D01*
X16402213Y-25599396D01*
X16325604Y-25522787D01*
X16235523Y-25462597D01*
X16135429Y-25421136D01*
X16029170Y-25400000D01*
X15920830Y-25400000D01*
X15814571Y-25421136D01*
X15714477Y-25462597D01*
X15624396Y-25522787D01*
X15547787Y-25599396D01*
X15534020Y-25620000D01*
X13865980Y-25620000D01*
X13852213Y-25599396D01*
X13775604Y-25522787D01*
X13685523Y-25462597D01*
X13585429Y-25421136D01*
X13479170Y-25400000D01*
X13370830Y-25400000D01*
X13264571Y-25421136D01*
X13164477Y-25462597D01*
X13074396Y-25522787D01*
X12997787Y-25599396D01*
X12984020Y-25620000D01*
X11340980Y-25620000D01*
X11327213Y-25599396D01*
X11250604Y-25522787D01*
X11160523Y-25462597D01*
X11060429Y-25421136D01*
X10954170Y-25400000D01*
X10845830Y-25400000D01*
X10739571Y-25421136D01*
X10639477Y-25462597D01*
X10549396Y-25522787D01*
X10472787Y-25599396D01*
X10459020Y-25620000D01*
X8790980Y-25620000D01*
X8777213Y-25599396D01*
X8700604Y-25522787D01*
X8610523Y-25462597D01*
X8510429Y-25421136D01*
X8404170Y-25400000D01*
X8295830Y-25400000D01*
X8189571Y-25421136D01*
X8089477Y-25462597D01*
X7999396Y-25522787D01*
X7922787Y-25599396D01*
X7862597Y-25689477D01*
X7821136Y-25789571D01*
X7800000Y-25895830D01*
X7800000Y-26004170D01*
X7821136Y-26110429D01*
X7862597Y-26210523D01*
X7922787Y-26300604D01*
X7947183Y-26325000D01*
X7919635Y-26325000D01*
X7899999Y-26323066D01*
X7880363Y-26325000D01*
X7880353Y-26325000D01*
X7821586Y-26330788D01*
X7746186Y-26353660D01*
X7676697Y-26390803D01*
X7615789Y-26440789D01*
X7603259Y-26456057D01*
X7559316Y-26500000D01*
X2690854Y-26500000D01*
X2725000Y-26328341D01*
X2725000Y-26111659D01*
X2682727Y-25899142D01*
X2599807Y-25698955D01*
X2479425Y-25518791D01*
X2335634Y-25375000D01*
X25963984Y-25375000D01*
X25965000Y-26072500D01*
X26017500Y-26125000D01*
X26925000Y-26125000D01*
X26925000Y-25217500D01*
X27125000Y-25217500D01*
X27125000Y-26125000D01*
X28032500Y-26125000D01*
X28085000Y-26072500D01*
X28086016Y-25375000D01*
X28081961Y-25333833D01*
X28069953Y-25294248D01*
X28050453Y-25257766D01*
X28024211Y-25225789D01*
X27992234Y-25199547D01*
X27955752Y-25180047D01*
X27916167Y-25168039D01*
X27875000Y-25163984D01*
X27177500Y-25165000D01*
X27125000Y-25217500D01*
X26925000Y-25217500D01*
X26872500Y-25165000D01*
X26175000Y-25163984D01*
X26133833Y-25168039D01*
X26094248Y-25180047D01*
X26057766Y-25199547D01*
X26025789Y-25225789D01*
X25999547Y-25257766D01*
X25980047Y-25294248D01*
X25968039Y-25333833D01*
X25963984Y-25375000D01*
X2335634Y-25375000D01*
X2326209Y-25365575D01*
X2146045Y-25245193D01*
X1945858Y-25162273D01*
X1733341Y-25120000D01*
X1516659Y-25120000D01*
X1304142Y-25162273D01*
X1103955Y-25245193D01*
X923791Y-25365575D01*
X770575Y-25518791D01*
X650193Y-25698955D01*
X567273Y-25899142D01*
X525000Y-26111659D01*
X325000Y-26111659D01*
X325000Y-23571659D01*
X525000Y-23571659D01*
X525000Y-23788341D01*
X567273Y-24000858D01*
X650193Y-24201045D01*
X770575Y-24381209D01*
X923791Y-24534425D01*
X1103955Y-24654807D01*
X1304142Y-24737727D01*
X1516659Y-24780000D01*
X1733341Y-24780000D01*
X1945858Y-24737727D01*
X2146045Y-24654807D01*
X2326209Y-24534425D01*
X2479425Y-24381209D01*
X2599807Y-24201045D01*
X2682727Y-24000858D01*
X2725000Y-23788341D01*
X2725000Y-23571659D01*
X2682727Y-23359142D01*
X2599807Y-23158955D01*
X2479425Y-22978791D01*
X2326209Y-22825575D01*
X2146045Y-22705193D01*
X1945858Y-22622273D01*
X1733341Y-22580000D01*
X1516659Y-22580000D01*
X1304142Y-22622273D01*
X1103955Y-22705193D01*
X923791Y-22825575D01*
X770575Y-22978791D01*
X650193Y-23158955D01*
X567273Y-23359142D01*
X525000Y-23571659D01*
X325000Y-23571659D01*
X325000Y-21031659D01*
X525000Y-21031659D01*
X525000Y-21248341D01*
X567273Y-21460858D01*
X650193Y-21661045D01*
X770575Y-21841209D01*
X923791Y-21994425D01*
X1103955Y-22114807D01*
X1304142Y-22197727D01*
X1516659Y-22240000D01*
X1733341Y-22240000D01*
X1945858Y-22197727D01*
X2146045Y-22114807D01*
X2326209Y-21994425D01*
X2479425Y-21841209D01*
X2599807Y-21661045D01*
X2682727Y-21460858D01*
X2725000Y-21248341D01*
X2725000Y-21031659D01*
X2682727Y-20819142D01*
X2599807Y-20618955D01*
X2479425Y-20438791D01*
X2326209Y-20285575D01*
X2146045Y-20165193D01*
X1945858Y-20082273D01*
X1733341Y-20040000D01*
X1516659Y-20040000D01*
X1304142Y-20082273D01*
X1103955Y-20165193D01*
X923791Y-20285575D01*
X770575Y-20438791D01*
X650193Y-20618955D01*
X567273Y-20819142D01*
X525000Y-21031659D01*
X325000Y-21031659D01*
X325000Y-18491659D01*
X525000Y-18491659D01*
X525000Y-18708341D01*
X567273Y-18920858D01*
X650193Y-19121045D01*
X770575Y-19301209D01*
X923791Y-19454425D01*
X1103955Y-19574807D01*
X1304142Y-19657727D01*
X1516659Y-19700000D01*
X1733341Y-19700000D01*
X1945858Y-19657727D01*
X2146045Y-19574807D01*
X2326209Y-19454425D01*
X2479425Y-19301209D01*
X2599807Y-19121045D01*
X2682727Y-18920858D01*
X2725000Y-18708341D01*
X2725000Y-18491659D01*
X2682727Y-18279142D01*
X2599807Y-18078955D01*
X2479425Y-17898791D01*
X2326209Y-17745575D01*
X2146045Y-17625193D01*
X1945858Y-17542273D01*
X1733341Y-17500000D01*
X1516659Y-17500000D01*
X1304142Y-17542273D01*
X1103955Y-17625193D01*
X923791Y-17745575D01*
X770575Y-17898791D01*
X650193Y-18078955D01*
X567273Y-18279142D01*
X525000Y-18491659D01*
X325000Y-18491659D01*
X325000Y-15951659D01*
X525000Y-15951659D01*
X525000Y-16168341D01*
X567273Y-16380858D01*
X650193Y-16581045D01*
X770575Y-16761209D01*
X923791Y-16914425D01*
X1103955Y-17034807D01*
X1304142Y-17117727D01*
X1516659Y-17160000D01*
X1733341Y-17160000D01*
X1945858Y-17117727D01*
X2146045Y-17034807D01*
X2326209Y-16914425D01*
X2479425Y-16761209D01*
X2599807Y-16581045D01*
X2682727Y-16380858D01*
X2725000Y-16168341D01*
X2725000Y-15951659D01*
X2682727Y-15739142D01*
X2599807Y-15538955D01*
X2479425Y-15358791D01*
X2326209Y-15205575D01*
X2146045Y-15085193D01*
X1945858Y-15002273D01*
X1733341Y-14960000D01*
X1516659Y-14960000D01*
X1304142Y-15002273D01*
X1103955Y-15085193D01*
X923791Y-15205575D01*
X770575Y-15358791D01*
X650193Y-15538955D01*
X567273Y-15739142D01*
X525000Y-15951659D01*
X325000Y-15951659D01*
X325000Y-13411659D01*
X525000Y-13411659D01*
X525000Y-13628341D01*
X567273Y-13840858D01*
X650193Y-14041045D01*
X770575Y-14221209D01*
X923791Y-14374425D01*
X1103955Y-14494807D01*
X1304142Y-14577727D01*
X1516659Y-14620000D01*
X1733341Y-14620000D01*
X1945858Y-14577727D01*
X2146045Y-14494807D01*
X2326209Y-14374425D01*
X2479425Y-14221209D01*
X2599807Y-14041045D01*
X2682727Y-13840858D01*
X2725000Y-13628341D01*
X2725000Y-13411659D01*
X2682727Y-13199142D01*
X2599807Y-12998955D01*
X2479425Y-12818791D01*
X2326209Y-12665575D01*
X2146045Y-12545193D01*
X1945858Y-12462273D01*
X1733341Y-12420000D01*
X1516659Y-12420000D01*
X1304142Y-12462273D01*
X1103955Y-12545193D01*
X923791Y-12665575D01*
X770575Y-12818791D01*
X650193Y-12998955D01*
X567273Y-13199142D01*
X525000Y-13411659D01*
X325000Y-13411659D01*
X325000Y-10871659D01*
X525000Y-10871659D01*
X525000Y-11088341D01*
X567273Y-11300858D01*
X650193Y-11501045D01*
X770575Y-11681209D01*
X923791Y-11834425D01*
X1103955Y-11954807D01*
X1304142Y-12037727D01*
X1516659Y-12080000D01*
X1733341Y-12080000D01*
X1945858Y-12037727D01*
X2146045Y-11954807D01*
X2326209Y-11834425D01*
X2479425Y-11681209D01*
X2599807Y-11501045D01*
X2682727Y-11300858D01*
X2725000Y-11088341D01*
X2725000Y-10871659D01*
X2682727Y-10659142D01*
X2599807Y-10458955D01*
X2479425Y-10278791D01*
X2326209Y-10125575D01*
X2146045Y-10005193D01*
X1945858Y-9922273D01*
X1733341Y-9880000D01*
X1516659Y-9880000D01*
X1304142Y-9922273D01*
X1103955Y-10005193D01*
X923791Y-10125575D01*
X770575Y-10278791D01*
X650193Y-10458955D01*
X567273Y-10659142D01*
X525000Y-10871659D01*
X325000Y-10871659D01*
X325000Y-8331659D01*
X525000Y-8331659D01*
X525000Y-8548341D01*
X567273Y-8760858D01*
X650193Y-8961045D01*
X770575Y-9141209D01*
X923791Y-9294425D01*
X1103955Y-9414807D01*
X1304142Y-9497727D01*
X1516659Y-9540000D01*
X1733341Y-9540000D01*
X1945858Y-9497727D01*
X2146045Y-9414807D01*
X2326209Y-9294425D01*
X2479425Y-9141209D01*
X2599807Y-8961045D01*
X2682727Y-8760858D01*
X2725000Y-8548341D01*
X2725000Y-8331659D01*
X2682727Y-8119142D01*
X2599807Y-7918955D01*
X2479425Y-7738791D01*
X2326209Y-7585575D01*
X2146045Y-7465193D01*
X1945858Y-7382273D01*
X1733341Y-7340000D01*
X1516659Y-7340000D01*
X1304142Y-7382273D01*
X1103955Y-7465193D01*
X923791Y-7585575D01*
X770575Y-7738791D01*
X650193Y-7918955D01*
X567273Y-8119142D01*
X525000Y-8331659D01*
X325000Y-8331659D01*
X325000Y-5050000D01*
X523791Y-5050000D01*
X523791Y-6750000D01*
X528618Y-6799008D01*
X542913Y-6846134D01*
X566127Y-6889564D01*
X597368Y-6927632D01*
X635436Y-6958873D01*
X678866Y-6982087D01*
X725992Y-6996382D01*
X775000Y-7001209D01*
X2475000Y-7001209D01*
X2524008Y-6996382D01*
X2571134Y-6982087D01*
X2614564Y-6958873D01*
X2652632Y-6927632D01*
X2683873Y-6889564D01*
X2707087Y-6846134D01*
X2721382Y-6799008D01*
X2726209Y-6750000D01*
X2726209Y-5220830D01*
X3125000Y-5220830D01*
X3125000Y-5329170D01*
X3146136Y-5435429D01*
X3187597Y-5535523D01*
X3247787Y-5625604D01*
X3324396Y-5702213D01*
X3345001Y-5715981D01*
X3345001Y-8634019D01*
X3324396Y-8647787D01*
X3247787Y-8724396D01*
X3187597Y-8814477D01*
X3146136Y-8914571D01*
X3125000Y-9020830D01*
X3125000Y-9129170D01*
X3146136Y-9235429D01*
X3187597Y-9335523D01*
X3247787Y-9425604D01*
X3324396Y-9502213D01*
X3345001Y-9515981D01*
X3345001Y-11159019D01*
X3324396Y-11172787D01*
X3247787Y-11249396D01*
X3187597Y-11339477D01*
X3146136Y-11439571D01*
X3125000Y-11545830D01*
X3125000Y-11654170D01*
X3146136Y-11760429D01*
X3187597Y-11860523D01*
X3247787Y-11950604D01*
X3324396Y-12027213D01*
X3345001Y-12040981D01*
X3345001Y-13709020D01*
X3324396Y-13722787D01*
X3247787Y-13799396D01*
X3187597Y-13889477D01*
X3146136Y-13989571D01*
X3125000Y-14095830D01*
X3125000Y-14204170D01*
X3146136Y-14310429D01*
X3187597Y-14410523D01*
X3247787Y-14500604D01*
X3324396Y-14577213D01*
X3345001Y-14590980D01*
X3345000Y-16259020D01*
X3324396Y-16272787D01*
X3247787Y-16349396D01*
X3187597Y-16439477D01*
X3146136Y-16539571D01*
X3125000Y-16645830D01*
X3125000Y-16754170D01*
X3146136Y-16860429D01*
X3187597Y-16960523D01*
X3247787Y-17050604D01*
X3324396Y-17127213D01*
X3345000Y-17140980D01*
X3345000Y-18809020D01*
X3324396Y-18822787D01*
X3247787Y-18899396D01*
X3187597Y-18989477D01*
X3146136Y-19089571D01*
X3125000Y-19195830D01*
X3125000Y-19304170D01*
X3146136Y-19410429D01*
X3187597Y-19510523D01*
X3247787Y-19600604D01*
X3324396Y-19677213D01*
X3345000Y-19690980D01*
X3345000Y-21334020D01*
X3324396Y-21347787D01*
X3247787Y-21424396D01*
X3187597Y-21514477D01*
X3146136Y-21614571D01*
X3125000Y-21720830D01*
X3125000Y-21829170D01*
X3146136Y-21935429D01*
X3187597Y-22035523D01*
X3247787Y-22125604D01*
X3324396Y-22202213D01*
X3345000Y-22215980D01*
X3345000Y-23884020D01*
X3324396Y-23897787D01*
X3247787Y-23974396D01*
X3187597Y-24064477D01*
X3146136Y-24164571D01*
X3125000Y-24270830D01*
X3125000Y-24379170D01*
X3146136Y-24485429D01*
X3187597Y-24585523D01*
X3247787Y-24675604D01*
X3324396Y-24752213D01*
X3414477Y-24812403D01*
X3514571Y-24853864D01*
X3620830Y-24875000D01*
X3729170Y-24875000D01*
X3835429Y-24853864D01*
X3935523Y-24812403D01*
X4025604Y-24752213D01*
X4102213Y-24675604D01*
X4162403Y-24585523D01*
X4203864Y-24485429D01*
X4225000Y-24379170D01*
X4225000Y-24270830D01*
X4203864Y-24164571D01*
X4162403Y-24064477D01*
X4102213Y-23974396D01*
X4025604Y-23897787D01*
X4005000Y-23884020D01*
X4005000Y-22215980D01*
X4025604Y-22202213D01*
X4102213Y-22125604D01*
X4162403Y-22035523D01*
X4203864Y-21935429D01*
X4225000Y-21829170D01*
X4225000Y-21720830D01*
X4203864Y-21614571D01*
X4162403Y-21514477D01*
X4102213Y-21424396D01*
X4025604Y-21347787D01*
X4005000Y-21334020D01*
X4005000Y-19690980D01*
X4025604Y-19677213D01*
X4102213Y-19600604D01*
X4162403Y-19510523D01*
X4203864Y-19410429D01*
X4225000Y-19304170D01*
X4225000Y-19195830D01*
X4203864Y-19089571D01*
X4162403Y-18989477D01*
X4102213Y-18899396D01*
X4025604Y-18822787D01*
X4005000Y-18809020D01*
X4005000Y-17140980D01*
X4025604Y-17127213D01*
X4102213Y-17050604D01*
X4162403Y-16960523D01*
X4203864Y-16860429D01*
X4225000Y-16754170D01*
X4225000Y-16645830D01*
X4203864Y-16539571D01*
X4162403Y-16439477D01*
X4102213Y-16349396D01*
X4025604Y-16272787D01*
X4005000Y-16259020D01*
X4005000Y-14590980D01*
X4025604Y-14577213D01*
X4102213Y-14500604D01*
X4162403Y-14410523D01*
X4203864Y-14310429D01*
X4225000Y-14204170D01*
X4225000Y-14095830D01*
X4203864Y-13989571D01*
X4162403Y-13889477D01*
X4102213Y-13799396D01*
X4025604Y-13722787D01*
X4005000Y-13709020D01*
X4005000Y-12040980D01*
X4025604Y-12027213D01*
X4102213Y-11950604D01*
X4162403Y-11860523D01*
X4203864Y-11760429D01*
X4225000Y-11654170D01*
X4225000Y-11545830D01*
X4203864Y-11439571D01*
X4162403Y-11339477D01*
X4102213Y-11249396D01*
X4025604Y-11172787D01*
X4005000Y-11159020D01*
X4005000Y-9515980D01*
X4025604Y-9502213D01*
X4102213Y-9425604D01*
X4162403Y-9335523D01*
X4203864Y-9235429D01*
X4225000Y-9129170D01*
X4225000Y-9020830D01*
X4203864Y-8914571D01*
X4162403Y-8814477D01*
X4102213Y-8724396D01*
X4025604Y-8647787D01*
X4005000Y-8634020D01*
X4005000Y-5715980D01*
X4025604Y-5702213D01*
X4102213Y-5625604D01*
X4162403Y-5535523D01*
X4203864Y-5435429D01*
X4225000Y-5329170D01*
X4225000Y-5220830D01*
X24425000Y-5220830D01*
X24425000Y-5329170D01*
X24446136Y-5435429D01*
X24487597Y-5535523D01*
X24547787Y-5625604D01*
X24624396Y-5702213D01*
X24645000Y-5715980D01*
X24645000Y-8634020D01*
X24624396Y-8647787D01*
X24547787Y-8724396D01*
X24487597Y-8814477D01*
X24446136Y-8914571D01*
X24425000Y-9020830D01*
X24425000Y-9129170D01*
X24446136Y-9235429D01*
X24487597Y-9335523D01*
X24547787Y-9425604D01*
X24624396Y-9502213D01*
X24645000Y-9515980D01*
X24645000Y-11159020D01*
X24624396Y-11172787D01*
X24547787Y-11249396D01*
X24487597Y-11339477D01*
X24446136Y-11439571D01*
X24425000Y-11545830D01*
X24425000Y-11654170D01*
X24446136Y-11760429D01*
X24487597Y-11860523D01*
X24547787Y-11950604D01*
X24624396Y-12027213D01*
X24645000Y-12040980D01*
X24645000Y-13709020D01*
X24624396Y-13722787D01*
X24547787Y-13799396D01*
X24487597Y-13889477D01*
X24446136Y-13989571D01*
X24425000Y-14095830D01*
X24425000Y-14204170D01*
X24446136Y-14310429D01*
X24487597Y-14410523D01*
X24547787Y-14500604D01*
X24624396Y-14577213D01*
X24645000Y-14590980D01*
X24645001Y-16259020D01*
X24624396Y-16272787D01*
X24547787Y-16349396D01*
X24487597Y-16439477D01*
X24446136Y-16539571D01*
X24425000Y-16645830D01*
X24425000Y-16754170D01*
X24446136Y-16860429D01*
X24487597Y-16960523D01*
X24547787Y-17050604D01*
X24624396Y-17127213D01*
X24645001Y-17140981D01*
X24645001Y-18809019D01*
X24624396Y-18822787D01*
X24547787Y-18899396D01*
X24487597Y-18989477D01*
X24446136Y-19089571D01*
X24425000Y-19195830D01*
X24425000Y-19304170D01*
X24446136Y-19410429D01*
X24487597Y-19510523D01*
X24547787Y-19600604D01*
X24624396Y-19677213D01*
X24645001Y-19690981D01*
X24645001Y-21359019D01*
X24624396Y-21372787D01*
X24547787Y-21449396D01*
X24487597Y-21539477D01*
X24446136Y-21639571D01*
X24425000Y-21745830D01*
X24425000Y-21854170D01*
X24446136Y-21960429D01*
X24487597Y-22060523D01*
X24547787Y-22150604D01*
X24624396Y-22227213D01*
X24645001Y-22240981D01*
X24645001Y-23884019D01*
X24624396Y-23897787D01*
X24547787Y-23974396D01*
X24487597Y-24064477D01*
X24446136Y-24164571D01*
X24425000Y-24270830D01*
X24425000Y-24379170D01*
X24446136Y-24485429D01*
X24487597Y-24585523D01*
X24547787Y-24675604D01*
X24624396Y-24752213D01*
X24714477Y-24812403D01*
X24814571Y-24853864D01*
X24920830Y-24875000D01*
X25029170Y-24875000D01*
X25135429Y-24853864D01*
X25235523Y-24812403D01*
X25325604Y-24752213D01*
X25402213Y-24675604D01*
X25462403Y-24585523D01*
X25503864Y-24485429D01*
X25525000Y-24379170D01*
X25525000Y-24270830D01*
X25503864Y-24164571D01*
X25462403Y-24064477D01*
X25402213Y-23974396D01*
X25325604Y-23897787D01*
X25305000Y-23884020D01*
X25305000Y-23576659D01*
X25925000Y-23576659D01*
X25925000Y-23793341D01*
X25967273Y-24005858D01*
X26050193Y-24206045D01*
X26170575Y-24386209D01*
X26323791Y-24539425D01*
X26503955Y-24659807D01*
X26704142Y-24742727D01*
X26916659Y-24785000D01*
X27133341Y-24785000D01*
X27345858Y-24742727D01*
X27546045Y-24659807D01*
X27726209Y-24539425D01*
X27879425Y-24386209D01*
X27999807Y-24206045D01*
X28082727Y-24005858D01*
X28125000Y-23793341D01*
X28125000Y-23725000D01*
X33523791Y-23725000D01*
X33523791Y-25225000D01*
X33528618Y-25274008D01*
X33542913Y-25321134D01*
X33566127Y-25364564D01*
X33597368Y-25402632D01*
X33635436Y-25433873D01*
X33678866Y-25457087D01*
X33725992Y-25471382D01*
X33775000Y-25476209D01*
X35275000Y-25476209D01*
X35324008Y-25471382D01*
X35371134Y-25457087D01*
X35414564Y-25433873D01*
X35452632Y-25402632D01*
X35483873Y-25364564D01*
X35507087Y-25321134D01*
X35521382Y-25274008D01*
X35526209Y-25225000D01*
X35526209Y-24723129D01*
X36137621Y-24723129D01*
X36156054Y-24783915D01*
X36233785Y-24955306D01*
X36343460Y-25108239D01*
X36480863Y-25236837D01*
X36640714Y-25336158D01*
X36816870Y-25402385D01*
X36965000Y-25377283D01*
X36965000Y-24575000D01*
X36163026Y-24575000D01*
X36137621Y-24723129D01*
X35526209Y-24723129D01*
X35526209Y-24226871D01*
X36137621Y-24226871D01*
X36163026Y-24375000D01*
X36965000Y-24375000D01*
X36965000Y-23572717D01*
X36816870Y-23547615D01*
X36640714Y-23613842D01*
X36480863Y-23713163D01*
X36343460Y-23841761D01*
X36233785Y-23994694D01*
X36156054Y-24166085D01*
X36137621Y-24226871D01*
X35526209Y-24226871D01*
X35526209Y-23725000D01*
X35521382Y-23675992D01*
X35507087Y-23628866D01*
X35483873Y-23585436D01*
X35452632Y-23547368D01*
X35414564Y-23516127D01*
X35371134Y-23492913D01*
X35324008Y-23478618D01*
X35275000Y-23473791D01*
X33775000Y-23473791D01*
X33725992Y-23478618D01*
X33678866Y-23492913D01*
X33635436Y-23516127D01*
X33597368Y-23547368D01*
X33566127Y-23585436D01*
X33542913Y-23628866D01*
X33528618Y-23675992D01*
X33523791Y-23725000D01*
X28125000Y-23725000D01*
X28125000Y-23576659D01*
X28082727Y-23364142D01*
X27999807Y-23163955D01*
X27879425Y-22983791D01*
X27726209Y-22830575D01*
X27546045Y-22710193D01*
X27345858Y-22627273D01*
X27133341Y-22585000D01*
X26916659Y-22585000D01*
X26704142Y-22627273D01*
X26503955Y-22710193D01*
X26323791Y-22830575D01*
X26170575Y-22983791D01*
X26050193Y-23163955D01*
X25967273Y-23364142D01*
X25925000Y-23576659D01*
X25305000Y-23576659D01*
X25305000Y-22240980D01*
X25325604Y-22227213D01*
X25402213Y-22150604D01*
X25462403Y-22060523D01*
X25503864Y-21960429D01*
X25525000Y-21854170D01*
X25525000Y-21745830D01*
X25503864Y-21639571D01*
X25462403Y-21539477D01*
X25402213Y-21449396D01*
X25325604Y-21372787D01*
X25305000Y-21359020D01*
X25305000Y-21036659D01*
X25925000Y-21036659D01*
X25925000Y-21253341D01*
X25967273Y-21465858D01*
X26050193Y-21666045D01*
X26170575Y-21846209D01*
X26323791Y-21999425D01*
X26503955Y-22119807D01*
X26704142Y-22202727D01*
X26916659Y-22245000D01*
X27133341Y-22245000D01*
X27345858Y-22202727D01*
X27546045Y-22119807D01*
X27726209Y-21999425D01*
X27879425Y-21846209D01*
X27885906Y-21836509D01*
X33525000Y-21836509D01*
X33525000Y-22033491D01*
X33563429Y-22226689D01*
X33638811Y-22408678D01*
X33748249Y-22572463D01*
X33887537Y-22711751D01*
X34051322Y-22821189D01*
X34233311Y-22896571D01*
X34426509Y-22935000D01*
X34623491Y-22935000D01*
X34816689Y-22896571D01*
X34998678Y-22821189D01*
X35162463Y-22711751D01*
X35301751Y-22572463D01*
X35411189Y-22408678D01*
X35486571Y-22226689D01*
X35525000Y-22033491D01*
X35525000Y-21836509D01*
X35486571Y-21643311D01*
X35411189Y-21461322D01*
X35301751Y-21297537D01*
X35162463Y-21158249D01*
X34998678Y-21048811D01*
X34816689Y-20973429D01*
X34623491Y-20935000D01*
X34426509Y-20935000D01*
X34233311Y-20973429D01*
X34051322Y-21048811D01*
X33887537Y-21158249D01*
X33748249Y-21297537D01*
X33638811Y-21461322D01*
X33563429Y-21643311D01*
X33525000Y-21836509D01*
X27885906Y-21836509D01*
X27999807Y-21666045D01*
X28082727Y-21465858D01*
X28125000Y-21253341D01*
X28125000Y-21036659D01*
X28082727Y-20824142D01*
X27999807Y-20623955D01*
X27879425Y-20443791D01*
X27726209Y-20290575D01*
X27546045Y-20170193D01*
X27345858Y-20087273D01*
X27133341Y-20045000D01*
X26916659Y-20045000D01*
X26704142Y-20087273D01*
X26503955Y-20170193D01*
X26323791Y-20290575D01*
X26170575Y-20443791D01*
X26050193Y-20623955D01*
X25967273Y-20824142D01*
X25925000Y-21036659D01*
X25305000Y-21036659D01*
X25305000Y-19690980D01*
X25325604Y-19677213D01*
X25402213Y-19600604D01*
X25462403Y-19510523D01*
X25503864Y-19410429D01*
X25525000Y-19304170D01*
X25525000Y-19195830D01*
X25503864Y-19089571D01*
X25462403Y-18989477D01*
X25402213Y-18899396D01*
X25325604Y-18822787D01*
X25305000Y-18809020D01*
X25305000Y-18496659D01*
X25925000Y-18496659D01*
X25925000Y-18713341D01*
X25967273Y-18925858D01*
X26050193Y-19126045D01*
X26170575Y-19306209D01*
X26323791Y-19459425D01*
X26503955Y-19579807D01*
X26704142Y-19662727D01*
X26916659Y-19705000D01*
X27133341Y-19705000D01*
X27345858Y-19662727D01*
X27546045Y-19579807D01*
X27726209Y-19459425D01*
X27879425Y-19306209D01*
X27885906Y-19296509D01*
X33525000Y-19296509D01*
X33525000Y-19493491D01*
X33563429Y-19686689D01*
X33638811Y-19868678D01*
X33748249Y-20032463D01*
X33887537Y-20171751D01*
X34051322Y-20281189D01*
X34233311Y-20356571D01*
X34426509Y-20395000D01*
X34623491Y-20395000D01*
X34816689Y-20356571D01*
X34998678Y-20281189D01*
X35162463Y-20171751D01*
X35301751Y-20032463D01*
X35411189Y-19868678D01*
X35486571Y-19686689D01*
X35525000Y-19493491D01*
X35525000Y-19296509D01*
X36065000Y-19296509D01*
X36065000Y-19493491D01*
X36103429Y-19686689D01*
X36178811Y-19868678D01*
X36288249Y-20032463D01*
X36427537Y-20171751D01*
X36591322Y-20281189D01*
X36773311Y-20356571D01*
X36966509Y-20395000D01*
X37163491Y-20395000D01*
X37356689Y-20356571D01*
X37538678Y-20281189D01*
X37702463Y-20171751D01*
X37841751Y-20032463D01*
X37951189Y-19868678D01*
X38026571Y-19686689D01*
X38065000Y-19493491D01*
X38065000Y-19296509D01*
X38026571Y-19103311D01*
X37951189Y-18921322D01*
X37841751Y-18757537D01*
X37702463Y-18618249D01*
X37538678Y-18508811D01*
X37356689Y-18433429D01*
X37163491Y-18395000D01*
X36966509Y-18395000D01*
X36773311Y-18433429D01*
X36591322Y-18508811D01*
X36427537Y-18618249D01*
X36288249Y-18757537D01*
X36178811Y-18921322D01*
X36103429Y-19103311D01*
X36065000Y-19296509D01*
X35525000Y-19296509D01*
X35486571Y-19103311D01*
X35411189Y-18921322D01*
X35301751Y-18757537D01*
X35162463Y-18618249D01*
X34998678Y-18508811D01*
X34816689Y-18433429D01*
X34623491Y-18395000D01*
X34426509Y-18395000D01*
X34233311Y-18433429D01*
X34051322Y-18508811D01*
X33887537Y-18618249D01*
X33748249Y-18757537D01*
X33638811Y-18921322D01*
X33563429Y-19103311D01*
X33525000Y-19296509D01*
X27885906Y-19296509D01*
X27999807Y-19126045D01*
X28082727Y-18925858D01*
X28125000Y-18713341D01*
X28125000Y-18496659D01*
X28082727Y-18284142D01*
X27999807Y-18083955D01*
X27879425Y-17903791D01*
X27726209Y-17750575D01*
X27546045Y-17630193D01*
X27345858Y-17547273D01*
X27133341Y-17505000D01*
X26916659Y-17505000D01*
X26704142Y-17547273D01*
X26503955Y-17630193D01*
X26323791Y-17750575D01*
X26170575Y-17903791D01*
X26050193Y-18083955D01*
X25967273Y-18284142D01*
X25925000Y-18496659D01*
X25305000Y-18496659D01*
X25305000Y-17140980D01*
X25325604Y-17127213D01*
X25402213Y-17050604D01*
X25462403Y-16960523D01*
X25503864Y-16860429D01*
X25525000Y-16754170D01*
X25525000Y-16645830D01*
X25503864Y-16539571D01*
X25462403Y-16439477D01*
X25402213Y-16349396D01*
X25325604Y-16272787D01*
X25305000Y-16259020D01*
X25305000Y-15956659D01*
X25925000Y-15956659D01*
X25925000Y-16173341D01*
X25967273Y-16385858D01*
X26050193Y-16586045D01*
X26170575Y-16766209D01*
X26323791Y-16919425D01*
X26503955Y-17039807D01*
X26704142Y-17122727D01*
X26916659Y-17165000D01*
X27133341Y-17165000D01*
X27345858Y-17122727D01*
X27546045Y-17039807D01*
X27726209Y-16919425D01*
X27879425Y-16766209D01*
X27885906Y-16756509D01*
X33525000Y-16756509D01*
X33525000Y-16953491D01*
X33563429Y-17146689D01*
X33638811Y-17328678D01*
X33748249Y-17492463D01*
X33887537Y-17631751D01*
X34051322Y-17741189D01*
X34233311Y-17816571D01*
X34426509Y-17855000D01*
X34623491Y-17855000D01*
X34816689Y-17816571D01*
X34998678Y-17741189D01*
X35162463Y-17631751D01*
X35301751Y-17492463D01*
X35411189Y-17328678D01*
X35486571Y-17146689D01*
X35525000Y-16953491D01*
X35525000Y-16756509D01*
X36065000Y-16756509D01*
X36065000Y-16953491D01*
X36103429Y-17146689D01*
X36178811Y-17328678D01*
X36288249Y-17492463D01*
X36427537Y-17631751D01*
X36591322Y-17741189D01*
X36773311Y-17816571D01*
X36966509Y-17855000D01*
X37163491Y-17855000D01*
X37356689Y-17816571D01*
X37538678Y-17741189D01*
X37702463Y-17631751D01*
X37841751Y-17492463D01*
X37951189Y-17328678D01*
X38026571Y-17146689D01*
X38065000Y-16953491D01*
X38065000Y-16756509D01*
X38026571Y-16563311D01*
X37951189Y-16381322D01*
X37841751Y-16217537D01*
X37702463Y-16078249D01*
X37538678Y-15968811D01*
X37356689Y-15893429D01*
X37163491Y-15855000D01*
X36966509Y-15855000D01*
X36773311Y-15893429D01*
X36591322Y-15968811D01*
X36427537Y-16078249D01*
X36288249Y-16217537D01*
X36178811Y-16381322D01*
X36103429Y-16563311D01*
X36065000Y-16756509D01*
X35525000Y-16756509D01*
X35486571Y-16563311D01*
X35411189Y-16381322D01*
X35301751Y-16217537D01*
X35162463Y-16078249D01*
X34998678Y-15968811D01*
X34816689Y-15893429D01*
X34623491Y-15855000D01*
X34426509Y-15855000D01*
X34233311Y-15893429D01*
X34051322Y-15968811D01*
X33887537Y-16078249D01*
X33748249Y-16217537D01*
X33638811Y-16381322D01*
X33563429Y-16563311D01*
X33525000Y-16756509D01*
X27885906Y-16756509D01*
X27999807Y-16586045D01*
X28082727Y-16385858D01*
X28125000Y-16173341D01*
X28125000Y-15956659D01*
X28082727Y-15744142D01*
X27999807Y-15543955D01*
X27879425Y-15363791D01*
X27726209Y-15210575D01*
X27546045Y-15090193D01*
X27345858Y-15007273D01*
X27133341Y-14965000D01*
X26916659Y-14965000D01*
X26704142Y-15007273D01*
X26503955Y-15090193D01*
X26323791Y-15210575D01*
X26170575Y-15363791D01*
X26050193Y-15543955D01*
X25967273Y-15744142D01*
X25925000Y-15956659D01*
X25305000Y-15956659D01*
X25305000Y-14590980D01*
X25325604Y-14577213D01*
X25402213Y-14500604D01*
X25462403Y-14410523D01*
X25503864Y-14310429D01*
X25525000Y-14204170D01*
X25525000Y-14095830D01*
X25503864Y-13989571D01*
X25462403Y-13889477D01*
X25402213Y-13799396D01*
X25325604Y-13722787D01*
X25305000Y-13709020D01*
X25305000Y-13416659D01*
X25925000Y-13416659D01*
X25925000Y-13633341D01*
X25967273Y-13845858D01*
X26050193Y-14046045D01*
X26170575Y-14226209D01*
X26323791Y-14379425D01*
X26503955Y-14499807D01*
X26704142Y-14582727D01*
X26916659Y-14625000D01*
X27133341Y-14625000D01*
X27345858Y-14582727D01*
X27546045Y-14499807D01*
X27726209Y-14379425D01*
X27879425Y-14226209D01*
X27885906Y-14216509D01*
X33525000Y-14216509D01*
X33525000Y-14413491D01*
X33563429Y-14606689D01*
X33638811Y-14788678D01*
X33748249Y-14952463D01*
X33887537Y-15091751D01*
X34051322Y-15201189D01*
X34233311Y-15276571D01*
X34426509Y-15315000D01*
X34623491Y-15315000D01*
X34816689Y-15276571D01*
X34998678Y-15201189D01*
X35162463Y-15091751D01*
X35301751Y-14952463D01*
X35411189Y-14788678D01*
X35486571Y-14606689D01*
X35495235Y-14563129D01*
X36137621Y-14563129D01*
X36156054Y-14623915D01*
X36233785Y-14795306D01*
X36343460Y-14948239D01*
X36480863Y-15076837D01*
X36640714Y-15176158D01*
X36816870Y-15242385D01*
X36965000Y-15217283D01*
X36965000Y-14415000D01*
X37165000Y-14415000D01*
X37165000Y-15217283D01*
X37313130Y-15242385D01*
X37489286Y-15176158D01*
X37649137Y-15076837D01*
X37786540Y-14948239D01*
X37896215Y-14795306D01*
X37973946Y-14623915D01*
X37992379Y-14563129D01*
X37966974Y-14415000D01*
X37165000Y-14415000D01*
X36965000Y-14415000D01*
X36163026Y-14415000D01*
X36137621Y-14563129D01*
X35495235Y-14563129D01*
X35525000Y-14413491D01*
X35525000Y-14216509D01*
X35495236Y-14066871D01*
X36137621Y-14066871D01*
X36163026Y-14215000D01*
X36965000Y-14215000D01*
X36965000Y-13412717D01*
X37165000Y-13412717D01*
X37165000Y-14215000D01*
X37966974Y-14215000D01*
X37992379Y-14066871D01*
X37973946Y-14006085D01*
X37896215Y-13834694D01*
X37786540Y-13681761D01*
X37649137Y-13553163D01*
X37489286Y-13453842D01*
X37313130Y-13387615D01*
X37165000Y-13412717D01*
X36965000Y-13412717D01*
X36816870Y-13387615D01*
X36640714Y-13453842D01*
X36480863Y-13553163D01*
X36343460Y-13681761D01*
X36233785Y-13834694D01*
X36156054Y-14006085D01*
X36137621Y-14066871D01*
X35495236Y-14066871D01*
X35486571Y-14023311D01*
X35411189Y-13841322D01*
X35301751Y-13677537D01*
X35162463Y-13538249D01*
X34998678Y-13428811D01*
X34816689Y-13353429D01*
X34623491Y-13315000D01*
X34426509Y-13315000D01*
X34233311Y-13353429D01*
X34051322Y-13428811D01*
X33887537Y-13538249D01*
X33748249Y-13677537D01*
X33638811Y-13841322D01*
X33563429Y-14023311D01*
X33525000Y-14216509D01*
X27885906Y-14216509D01*
X27999807Y-14046045D01*
X28082727Y-13845858D01*
X28125000Y-13633341D01*
X28125000Y-13416659D01*
X28082727Y-13204142D01*
X27999807Y-13003955D01*
X27879425Y-12823791D01*
X27726209Y-12670575D01*
X27546045Y-12550193D01*
X27345858Y-12467273D01*
X27133341Y-12425000D01*
X26916659Y-12425000D01*
X26704142Y-12467273D01*
X26503955Y-12550193D01*
X26323791Y-12670575D01*
X26170575Y-12823791D01*
X26050193Y-13003955D01*
X25967273Y-13204142D01*
X25925000Y-13416659D01*
X25305000Y-13416659D01*
X25305000Y-12040980D01*
X25325604Y-12027213D01*
X25402213Y-11950604D01*
X25462403Y-11860523D01*
X25503864Y-11760429D01*
X25525000Y-11654170D01*
X25525000Y-11545830D01*
X25503864Y-11439571D01*
X25462403Y-11339477D01*
X25402213Y-11249396D01*
X25325604Y-11172787D01*
X25305000Y-11159020D01*
X25305000Y-10876659D01*
X25925000Y-10876659D01*
X25925000Y-11093341D01*
X25967273Y-11305858D01*
X26050193Y-11506045D01*
X26170575Y-11686209D01*
X26323791Y-11839425D01*
X26503955Y-11959807D01*
X26704142Y-12042727D01*
X26916659Y-12085000D01*
X27133341Y-12085000D01*
X27345858Y-12042727D01*
X27546045Y-11959807D01*
X27726209Y-11839425D01*
X27879425Y-11686209D01*
X27999807Y-11506045D01*
X28082727Y-11305858D01*
X28125000Y-11093341D01*
X28125000Y-10876659D01*
X28082727Y-10664142D01*
X27999807Y-10463955D01*
X27879425Y-10283791D01*
X27726209Y-10130575D01*
X27546045Y-10010193D01*
X27345858Y-9927273D01*
X27133341Y-9885000D01*
X26916659Y-9885000D01*
X26704142Y-9927273D01*
X26503955Y-10010193D01*
X26323791Y-10130575D01*
X26170575Y-10283791D01*
X26050193Y-10463955D01*
X25967273Y-10664142D01*
X25925000Y-10876659D01*
X25305000Y-10876659D01*
X25305000Y-9515980D01*
X25325604Y-9502213D01*
X25402213Y-9425604D01*
X25462403Y-9335523D01*
X25503864Y-9235429D01*
X25525000Y-9129170D01*
X25525000Y-9020830D01*
X25503864Y-8914571D01*
X25462403Y-8814477D01*
X25402213Y-8724396D01*
X25325604Y-8647787D01*
X25305000Y-8634020D01*
X25305000Y-8336659D01*
X25925000Y-8336659D01*
X25925000Y-8553341D01*
X25967273Y-8765858D01*
X26050193Y-8966045D01*
X26170575Y-9146209D01*
X26323791Y-9299425D01*
X26503955Y-9419807D01*
X26704142Y-9502727D01*
X26916659Y-9545000D01*
X27133341Y-9545000D01*
X27345858Y-9502727D01*
X27546045Y-9419807D01*
X27726209Y-9299425D01*
X27879425Y-9146209D01*
X27999807Y-8966045D01*
X28082727Y-8765858D01*
X28125000Y-8553341D01*
X28125000Y-8336659D01*
X28082727Y-8124142D01*
X27999807Y-7923955D01*
X27879425Y-7743791D01*
X27726209Y-7590575D01*
X27546045Y-7470193D01*
X27345858Y-7387273D01*
X27133341Y-7345000D01*
X26916659Y-7345000D01*
X26704142Y-7387273D01*
X26503955Y-7470193D01*
X26323791Y-7590575D01*
X26170575Y-7743791D01*
X26050193Y-7923955D01*
X25967273Y-8124142D01*
X25925000Y-8336659D01*
X25305000Y-8336659D01*
X25305000Y-5796659D01*
X25925000Y-5796659D01*
X25925000Y-6013341D01*
X25967273Y-6225858D01*
X26050193Y-6426045D01*
X26170575Y-6606209D01*
X26323791Y-6759425D01*
X26503955Y-6879807D01*
X26704142Y-6962727D01*
X26916659Y-7005000D01*
X27133341Y-7005000D01*
X27345858Y-6962727D01*
X27546045Y-6879807D01*
X27726209Y-6759425D01*
X27879425Y-6606209D01*
X27999807Y-6426045D01*
X28082727Y-6225858D01*
X28125000Y-6013341D01*
X28125000Y-5801509D01*
X33510000Y-5801509D01*
X33510000Y-5998491D01*
X33548429Y-6191689D01*
X33623811Y-6373678D01*
X33733249Y-6537463D01*
X33872537Y-6676751D01*
X34036322Y-6786189D01*
X34218311Y-6861571D01*
X34411509Y-6900000D01*
X34608491Y-6900000D01*
X34801689Y-6861571D01*
X34983678Y-6786189D01*
X35147463Y-6676751D01*
X35174214Y-6650000D01*
X36088984Y-6650000D01*
X36093039Y-6691167D01*
X36105047Y-6730752D01*
X36124547Y-6767234D01*
X36150789Y-6799211D01*
X36182766Y-6825453D01*
X36219248Y-6844953D01*
X36258833Y-6856961D01*
X36300000Y-6861016D01*
X36897500Y-6860000D01*
X36950000Y-6807500D01*
X36950000Y-6000000D01*
X37150000Y-6000000D01*
X37150000Y-6807500D01*
X37202500Y-6860000D01*
X37800000Y-6861016D01*
X37841167Y-6856961D01*
X37880752Y-6844953D01*
X37917234Y-6825453D01*
X37949211Y-6799211D01*
X37975453Y-6767234D01*
X37994953Y-6730752D01*
X38006961Y-6691167D01*
X38011016Y-6650000D01*
X38010000Y-6052500D01*
X37957500Y-6000000D01*
X37150000Y-6000000D01*
X36950000Y-6000000D01*
X36142500Y-6000000D01*
X36090000Y-6052500D01*
X36088984Y-6650000D01*
X35174214Y-6650000D01*
X35286751Y-6537463D01*
X35396189Y-6373678D01*
X35471571Y-6191689D01*
X35510000Y-5998491D01*
X35510000Y-5801509D01*
X35471571Y-5608311D01*
X35396189Y-5426322D01*
X35286751Y-5262537D01*
X35174214Y-5150000D01*
X36088984Y-5150000D01*
X36090000Y-5747500D01*
X36142500Y-5800000D01*
X36950000Y-5800000D01*
X36950000Y-4992500D01*
X37150000Y-4992500D01*
X37150000Y-5800000D01*
X37957500Y-5800000D01*
X38010000Y-5747500D01*
X38011016Y-5150000D01*
X38006961Y-5108833D01*
X37994953Y-5069248D01*
X37975453Y-5032766D01*
X37949211Y-5000789D01*
X37917234Y-4974547D01*
X37880752Y-4955047D01*
X37841167Y-4943039D01*
X37800000Y-4938984D01*
X37202500Y-4940000D01*
X37150000Y-4992500D01*
X36950000Y-4992500D01*
X36897500Y-4940000D01*
X36300000Y-4938984D01*
X36258833Y-4943039D01*
X36219248Y-4955047D01*
X36182766Y-4974547D01*
X36150789Y-5000789D01*
X36124547Y-5032766D01*
X36105047Y-5069248D01*
X36093039Y-5108833D01*
X36088984Y-5150000D01*
X35174214Y-5150000D01*
X35147463Y-5123249D01*
X34983678Y-5013811D01*
X34801689Y-4938429D01*
X34608491Y-4900000D01*
X34411509Y-4900000D01*
X34218311Y-4938429D01*
X34036322Y-5013811D01*
X33872537Y-5123249D01*
X33733249Y-5262537D01*
X33623811Y-5426322D01*
X33548429Y-5608311D01*
X33510000Y-5801509D01*
X28125000Y-5801509D01*
X28125000Y-5796659D01*
X28082727Y-5584142D01*
X27999807Y-5383955D01*
X27879425Y-5203791D01*
X27726209Y-5050575D01*
X27546045Y-4930193D01*
X27345858Y-4847273D01*
X27133341Y-4805000D01*
X26916659Y-4805000D01*
X26704142Y-4847273D01*
X26503955Y-4930193D01*
X26323791Y-5050575D01*
X26170575Y-5203791D01*
X26050193Y-5383955D01*
X25967273Y-5584142D01*
X25925000Y-5796659D01*
X25305000Y-5796659D01*
X25305000Y-5715980D01*
X25325604Y-5702213D01*
X25402213Y-5625604D01*
X25462403Y-5535523D01*
X25503864Y-5435429D01*
X25525000Y-5329170D01*
X25525000Y-5220830D01*
X25503864Y-5114571D01*
X25462403Y-5014477D01*
X25402213Y-4924396D01*
X25325604Y-4847787D01*
X25235523Y-4787597D01*
X25135429Y-4746136D01*
X25029170Y-4725000D01*
X24920830Y-4725000D01*
X24814571Y-4746136D01*
X24714477Y-4787597D01*
X24624396Y-4847787D01*
X24547787Y-4924396D01*
X24487597Y-5014477D01*
X24446136Y-5114571D01*
X24425000Y-5220830D01*
X4225000Y-5220830D01*
X4203864Y-5114571D01*
X4162403Y-5014477D01*
X4102213Y-4924396D01*
X4025604Y-4847787D01*
X3935523Y-4787597D01*
X3835429Y-4746136D01*
X3729170Y-4725000D01*
X3620830Y-4725000D01*
X3514571Y-4746136D01*
X3414477Y-4787597D01*
X3324396Y-4847787D01*
X3247787Y-4924396D01*
X3187597Y-5014477D01*
X3146136Y-5114571D01*
X3125000Y-5220830D01*
X2726209Y-5220830D01*
X2726209Y-5050000D01*
X2721382Y-5000992D01*
X2707087Y-4953866D01*
X2683873Y-4910436D01*
X2652632Y-4872368D01*
X2614564Y-4841127D01*
X2571134Y-4817913D01*
X2524008Y-4803618D01*
X2475000Y-4798791D01*
X775000Y-4798791D01*
X725992Y-4803618D01*
X678866Y-4817913D01*
X635436Y-4841127D01*
X597368Y-4872368D01*
X566127Y-4910436D01*
X542913Y-4953866D01*
X528618Y-5000992D01*
X523791Y-5050000D01*
X325000Y-5050000D01*
X325000Y-3570830D01*
X7825000Y-3570830D01*
X7825000Y-3679170D01*
X7846136Y-3785429D01*
X7887597Y-3885523D01*
X7947787Y-3975604D01*
X8024396Y-4052213D01*
X8114477Y-4112403D01*
X8214571Y-4153864D01*
X8320830Y-4175000D01*
X8429170Y-4175000D01*
X8535429Y-4153864D01*
X8635523Y-4112403D01*
X8725604Y-4052213D01*
X8802213Y-3975604D01*
X8815980Y-3955000D01*
X10484020Y-3955000D01*
X10497787Y-3975604D01*
X10574396Y-4052213D01*
X10664477Y-4112403D01*
X10764571Y-4153864D01*
X10870830Y-4175000D01*
X10979170Y-4175000D01*
X11085429Y-4153864D01*
X11185523Y-4112403D01*
X11275604Y-4052213D01*
X11352213Y-3975604D01*
X11365980Y-3955000D01*
X13009020Y-3955000D01*
X13022787Y-3975604D01*
X13099396Y-4052213D01*
X13189477Y-4112403D01*
X13289571Y-4153864D01*
X13395830Y-4175000D01*
X13504170Y-4175000D01*
X13610429Y-4153864D01*
X13710523Y-4112403D01*
X13800604Y-4052213D01*
X13877213Y-3975604D01*
X13890980Y-3955000D01*
X15559020Y-3955000D01*
X15572787Y-3975604D01*
X15649396Y-4052213D01*
X15739477Y-4112403D01*
X15839571Y-4153864D01*
X15945830Y-4175000D01*
X16054170Y-4175000D01*
X16160429Y-4153864D01*
X16260523Y-4112403D01*
X16350604Y-4052213D01*
X16427213Y-3975604D01*
X16440980Y-3955000D01*
X19334020Y-3955000D01*
X19347787Y-3975604D01*
X19424396Y-4052213D01*
X19514477Y-4112403D01*
X19614571Y-4153864D01*
X19720830Y-4175000D01*
X19829170Y-4175000D01*
X19935429Y-4153864D01*
X20035523Y-4112403D01*
X20125604Y-4052213D01*
X20202213Y-3975604D01*
X20262403Y-3885523D01*
X20303864Y-3785429D01*
X20325000Y-3679170D01*
X20325000Y-3570830D01*
X20303864Y-3464571D01*
X20262403Y-3364477D01*
X20202213Y-3274396D01*
X20125604Y-3197787D01*
X20035523Y-3137597D01*
X19935429Y-3096136D01*
X19829170Y-3075000D01*
X19720830Y-3075000D01*
X19614571Y-3096136D01*
X19514477Y-3137597D01*
X19424396Y-3197787D01*
X19347787Y-3274396D01*
X19334020Y-3295000D01*
X16440980Y-3295000D01*
X16427213Y-3274396D01*
X16350604Y-3197787D01*
X16260523Y-3137597D01*
X16160429Y-3096136D01*
X16054170Y-3075000D01*
X15945830Y-3075000D01*
X15839571Y-3096136D01*
X15739477Y-3137597D01*
X15649396Y-3197787D01*
X15572787Y-3274396D01*
X15559020Y-3295000D01*
X13890980Y-3295000D01*
X13877213Y-3274396D01*
X13800604Y-3197787D01*
X13710523Y-3137597D01*
X13610429Y-3096136D01*
X13504170Y-3075000D01*
X13395830Y-3075000D01*
X13289571Y-3096136D01*
X13189477Y-3137597D01*
X13099396Y-3197787D01*
X13022787Y-3274396D01*
X13009020Y-3295000D01*
X11365980Y-3295000D01*
X11352213Y-3274396D01*
X11275604Y-3197787D01*
X11185523Y-3137597D01*
X11085429Y-3096136D01*
X10979170Y-3075000D01*
X10870830Y-3075000D01*
X10764571Y-3096136D01*
X10664477Y-3137597D01*
X10574396Y-3197787D01*
X10497787Y-3274396D01*
X10484020Y-3295000D01*
X8815980Y-3295000D01*
X8802213Y-3274396D01*
X8725604Y-3197787D01*
X8635523Y-3137597D01*
X8535429Y-3096136D01*
X8429170Y-3075000D01*
X8320830Y-3075000D01*
X8214571Y-3096136D01*
X8114477Y-3137597D01*
X8024396Y-3197787D01*
X7947787Y-3274396D01*
X7887597Y-3364477D01*
X7846136Y-3464571D01*
X7825000Y-3570830D01*
X325000Y-3570830D01*
X325000Y-1466659D01*
X7885000Y-1466659D01*
X7885000Y-1683341D01*
X7927273Y-1895858D01*
X8010193Y-2096045D01*
X8130575Y-2276209D01*
X8283791Y-2429425D01*
X8463955Y-2549807D01*
X8664142Y-2632727D01*
X8876659Y-2675000D01*
X9093341Y-2675000D01*
X9305858Y-2632727D01*
X9506045Y-2549807D01*
X9686209Y-2429425D01*
X9839425Y-2276209D01*
X9959807Y-2096045D01*
X10042727Y-1895858D01*
X10085000Y-1683341D01*
X10085000Y-1466659D01*
X10425000Y-1466659D01*
X10425000Y-1683341D01*
X10467273Y-1895858D01*
X10550193Y-2096045D01*
X10670575Y-2276209D01*
X10823791Y-2429425D01*
X11003955Y-2549807D01*
X11204142Y-2632727D01*
X11416659Y-2675000D01*
X11633341Y-2675000D01*
X11845858Y-2632727D01*
X12046045Y-2549807D01*
X12226209Y-2429425D01*
X12379425Y-2276209D01*
X12499807Y-2096045D01*
X12582727Y-1895858D01*
X12625000Y-1683341D01*
X12625000Y-1466659D01*
X12965000Y-1466659D01*
X12965000Y-1683341D01*
X13007273Y-1895858D01*
X13090193Y-2096045D01*
X13210575Y-2276209D01*
X13363791Y-2429425D01*
X13543955Y-2549807D01*
X13744142Y-2632727D01*
X13956659Y-2675000D01*
X14173341Y-2675000D01*
X14385858Y-2632727D01*
X14586045Y-2549807D01*
X14766209Y-2429425D01*
X14919425Y-2276209D01*
X15039807Y-2096045D01*
X15122727Y-1895858D01*
X15165000Y-1683341D01*
X15165000Y-1466659D01*
X15505000Y-1466659D01*
X15505000Y-1683341D01*
X15547273Y-1895858D01*
X15630193Y-2096045D01*
X15750575Y-2276209D01*
X15903791Y-2429425D01*
X16083955Y-2549807D01*
X16284142Y-2632727D01*
X16496659Y-2675000D01*
X16713341Y-2675000D01*
X16925858Y-2632727D01*
X17126045Y-2549807D01*
X17306209Y-2429425D01*
X17459425Y-2276209D01*
X17579807Y-2096045D01*
X17662727Y-1895858D01*
X17705000Y-1683341D01*
X17705000Y-1466659D01*
X17662727Y-1254142D01*
X17579807Y-1053955D01*
X17459425Y-873791D01*
X17310634Y-725000D01*
X18043791Y-725000D01*
X18043791Y-2425000D01*
X18048618Y-2474008D01*
X18062913Y-2521134D01*
X18086127Y-2564564D01*
X18117368Y-2602632D01*
X18155436Y-2633873D01*
X18198866Y-2657087D01*
X18245992Y-2671382D01*
X18295000Y-2676209D01*
X19995000Y-2676209D01*
X20044008Y-2671382D01*
X20091134Y-2657087D01*
X20134564Y-2633873D01*
X20172632Y-2602632D01*
X20203873Y-2564564D01*
X20227087Y-2521134D01*
X20241382Y-2474008D01*
X20246209Y-2425000D01*
X20246209Y-725000D01*
X20241382Y-675992D01*
X20227087Y-628866D01*
X20203873Y-585436D01*
X20172632Y-547368D01*
X20134564Y-516127D01*
X20091134Y-492913D01*
X20044008Y-478618D01*
X19995000Y-473791D01*
X18295000Y-473791D01*
X18245992Y-478618D01*
X18198866Y-492913D01*
X18155436Y-516127D01*
X18117368Y-547368D01*
X18086127Y-585436D01*
X18062913Y-628866D01*
X18048618Y-675992D01*
X18043791Y-725000D01*
X17310634Y-725000D01*
X17306209Y-720575D01*
X17126045Y-600193D01*
X16925858Y-517273D01*
X16713341Y-475000D01*
X16496659Y-475000D01*
X16284142Y-517273D01*
X16083955Y-600193D01*
X15903791Y-720575D01*
X15750575Y-873791D01*
X15630193Y-1053955D01*
X15547273Y-1254142D01*
X15505000Y-1466659D01*
X15165000Y-1466659D01*
X15122727Y-1254142D01*
X15039807Y-1053955D01*
X14919425Y-873791D01*
X14766209Y-720575D01*
X14586045Y-600193D01*
X14385858Y-517273D01*
X14173341Y-475000D01*
X13956659Y-475000D01*
X13744142Y-517273D01*
X13543955Y-600193D01*
X13363791Y-720575D01*
X13210575Y-873791D01*
X13090193Y-1053955D01*
X13007273Y-1254142D01*
X12965000Y-1466659D01*
X12625000Y-1466659D01*
X12582727Y-1254142D01*
X12499807Y-1053955D01*
X12379425Y-873791D01*
X12226209Y-720575D01*
X12046045Y-600193D01*
X11845858Y-517273D01*
X11633341Y-475000D01*
X11416659Y-475000D01*
X11204142Y-517273D01*
X11003955Y-600193D01*
X10823791Y-720575D01*
X10670575Y-873791D01*
X10550193Y-1053955D01*
X10467273Y-1254142D01*
X10425000Y-1466659D01*
X10085000Y-1466659D01*
X10042727Y-1254142D01*
X9959807Y-1053955D01*
X9839425Y-873791D01*
X9686209Y-720575D01*
X9506045Y-600193D01*
X9305858Y-517273D01*
X9093341Y-475000D01*
X8876659Y-475000D01*
X8664142Y-517273D01*
X8463955Y-600193D01*
X8283791Y-720575D01*
X8130575Y-873791D01*
X8010193Y-1053955D01*
X7927273Y-1254142D01*
X7885000Y-1466659D01*
X325000Y-1466659D01*
X325000Y-325000D01*
X39675001Y-325000D01*
X39675000Y-29175000D01*
G37*
G04 #@! TD.AperFunction*
M02*
